<?xml version="1.0" encoding="UTF-8"?>
<svg id="Layer_2" data-name="Layer 2" xmlns="http://www.w3.org/2000/svg" viewBox="0 0 785.89 180">
  <defs>
    <style>
      .cls-1, .cls-2 {
        stroke-width: 0px;
      }

      .cls-2 {
        fill: #e20221;
      }
    </style>
  </defs>
  <g id="Layer_1-2" data-name="Layer 1">
    <g>
      <path class="cls-1" d="M91.88,168.04c-.89-2.24-1.77-4.53-2.64-6.85-.88-2.33-1.7-4.51-2.46-6.55-.24.05-.47.09-.68.13-.22.03-.44.05-.68.05s-.47-.02-.68-.05c-.22-.04-.44-.08-.69-.13-.53,1.37-1.11,2.84-1.74,4.42-.64,1.58-1.28,3.19-1.94,4.82-.66,1.63-1.32,3.25-1.98,4.84-.66,1.6-1.28,3.09-1.85,4.48-.58,1.39-1.1,2.64-1.58,3.74-.48,1.1-.87,1.97-1.15,2.59.34-.05.65-.07.94-.07h1.71c.28,0,.56.02.85.07.33-1.17.71-2.37,1.12-3.6.41-1.22.85-2.45,1.33-3.67.62-.02,1.25-.04,1.87-.05.62-.01,1.25-.02,1.87-.02.77,0,1.53,0,2.3.02.77.01,1.53.03,2.3.05.46,1.22.89,2.45,1.29,3.67.41,1.22.8,2.42,1.19,3.6.5-.05,1.01-.07,1.53-.07h3.06c.51,0,1.06.02,1.64.07-.7-1.39-1.46-3.09-2.3-5.11-.84-2.01-1.7-4.14-2.59-6.38M80.65,170.14c.53-1.46,1.07-2.89,1.62-4.3.55-1.4,1.14-2.82,1.76-4.26.58,1.44,1.12,2.86,1.64,4.26.51,1.4,1.04,2.84,1.56,4.3h-6.58Z"/>
      <path class="cls-1" d="M119.59,167.84c-.67-.48-1.38-.83-2.12-1.06-.74-.23-1.39-.35-1.94-.38v-.07c.55-.1,1.17-.28,1.85-.54.68-.27,1.32-.63,1.91-1.1.59-.47,1.09-1.06,1.49-1.76.41-.71.61-1.55.61-2.54s-.17-1.83-.52-2.53-.85-1.28-1.49-1.73c-.65-.44-1.41-.77-2.3-.99-.89-.21-1.87-.32-2.95-.32s-2.11.03-3.24.09c-1.13.06-2.21.09-3.24.09-.6,0-1.14-.02-1.62-.05-.48-.04-.92-.08-1.33-.13.09,1.56.17,3.11.22,4.66.05,1.55.07,3.32.07,5.31v4.89c0,1.99-.03,3.76-.07,5.3-.05,1.55-.12,3.06-.22,4.55.41-.05.95-.07,1.64-.07h2c.91,0,1.78.01,2.61.04.83.02,1.72.04,2.68.04,1.08,0,2.12-.11,3.13-.34,1.01-.23,1.9-.63,2.68-1.2.78-.58,1.4-1.32,1.87-2.23.47-.91.7-2.01.7-3.31,0-1.08-.23-2-.7-2.75-.47-.76-1.04-1.37-1.71-1.85M110.35,159.67c.02-.91.06-1.81.11-2.7.24-.05.46-.08.67-.09.2,0,.57-.02,1.1-.02.72,0,1.32.11,1.8.34.48.23.88.52,1.19.9.31.37.53.82.67,1.33.13.51.2,1.06.2,1.64,0,.77-.12,1.44-.36,2.02-.24.58-.55,1.05-.93,1.42-.38.37-.82.65-1.31.84-.49.19-.99.29-1.49.29h-1.62c0-.62,0-1.23-.02-1.82-.01-.59-.02-1.21-.02-1.85s.01-1.39.04-2.3M116,174.78c-.22.6-.5,1.11-.86,1.53-.36.42-.78.74-1.26.95-.48.21-.98.32-1.51.32-.41,0-.75,0-1.04-.02-.29-.01-.6-.03-.94-.05,0-.31,0-.71-.02-1.19-.01-.48-.02-1.01-.02-1.58s0-1.16-.02-1.76c-.01-.6-.02-1.19-.02-1.76,0-.74,0-1.38.02-1.92.01-.54.02-1.06.02-1.56.22,0,.44,0,.68-.02.24-.01.53-.02.87-.02,1.44,0,2.53.41,3.29,1.24.75.83,1.13,2.08,1.13,3.76,0,.79-.11,1.49-.32,2.09"/>
      <path class="cls-1" d="M151.6,155c-.26,0-.55-.02-.86-.05-.31-.04-.64-.08-.97-.13.1,1.66.17,3.31.22,4.95.05,1.64.07,3.29.07,4.95s-.05,3.29-.14,4.84c-.1,1.55-.35,2.92-.77,4.12-.42,1.2-1.04,2.16-1.85,2.88-.82.72-1.94,1.08-3.38,1.08-1.17,0-2.21-.12-3.09-.36-.89-.24-1.64-.73-2.25-1.46-.61-.73-1.07-1.77-1.39-3.11-.31-1.34-.47-3.11-.47-5.29,0-2.06.02-4.1.07-6.1.05-2,.19-4.17.43-6.49-.48.05-.97.09-1.48.13-.5.04-1,.05-1.47.05s-.97-.02-1.48-.05c-.5-.04-1-.08-1.47-.13.05.6.08,1.5.11,2.7.02,1.2.03,2.77.03,4.71,0,.65,0,1.27-.02,1.87-.01.6-.02,1.22-.02,1.87s0,1.35-.02,2.11c-.01.75-.02,1.61-.02,2.57,0,1.7.28,3.15.85,4.34.56,1.19,1.34,2.16,2.32,2.91.98.76,2.14,1.3,3.47,1.62,1.33.32,2.76.49,4.3.49,3.48,0,6.12-.91,7.92-2.72,1.8-1.81,2.7-4.8,2.7-8.98,0-1.56.02-3.04.06-4.44.04-1.4.08-2.69.13-3.85.05-1.16.1-2.19.14-3.08.05-.89.1-1.59.14-2.12-.31.05-.61.09-.9.13-.29.04-.59.05-.9.05"/>
      <path class="cls-1" d="M198.58,157.26c-1.22-.89-2.68-1.52-4.37-1.89-1.69-.37-3.56-.56-5.63-.56-1.58,0-2.87.03-3.85.09-.98.06-1.87.09-2.66.09-.6,0-1.14-.02-1.62-.05-.48-.04-.92-.08-1.33-.13.1,1.56.17,3.11.22,4.66s.07,3.32.07,5.31v4.89c0,1.99-.02,3.76-.07,5.3-.05,1.55-.12,3.07-.22,4.55.41-.05.85-.07,1.33-.07h1.62c.93,0,2.04.01,3.31.04,1.27.02,2.81.04,4.6.04,1.7,0,3.3-.3,4.8-.9,1.5-.6,2.82-1.47,3.96-2.61,1.14-1.14,2.04-2.51,2.7-4.12.66-1.61.99-3.4.99-5.39,0-2.28-.34-4.17-1.01-5.67-.67-1.5-1.62-2.69-2.84-3.58M194.37,174.82c-1.58,1.85-3.73,2.77-6.44,2.77-.74,0-1.37-.01-1.87-.04-.5-.02-.93-.05-1.3-.07,0-.17,0-.54-.02-1.11-.01-.58-.02-1.21-.02-1.91v-14.35c0-.72,0-1.37.02-1.94,0-.58.02-.95.02-1.12.55-.05,1.1-.09,1.64-.12.54-.04,1.24-.06,2.1-.06,1.25,0,2.37.22,3.38.67,1.01.44,1.87,1.08,2.59,1.91.72.83,1.28,1.83,1.67,3,.4,1.18.59,2.51.59,3.99,0,3.74-.79,6.53-2.37,8.38"/>
      <path class="cls-1" d="M233.47,159.47c.05-1.55.12-3.1.22-4.66-.41.05-.85.09-1.33.13-.48.04-1.02.05-1.62.05s-1.14-.02-1.62-.05c-.48-.04-.92-.08-1.33-.13.1,1.56.17,3.1.21,4.62.05,1.52.07,3.28.07,5.27-.7.02-1.45.04-2.27.05-.82.01-1.87.02-3.17.02s-2.38,0-3.25-.02c-.88,0-1.63-.03-2.25-.05,0-1.99.02-3.75.05-5.27.04-1.52.11-3.06.23-4.62-.41.05-.85.09-1.33.13-.48.04-1.02.05-1.62.05s-1.14-.02-1.62-.05c-.48-.04-.92-.08-1.33-.13.1,1.56.17,3.11.21,4.66.05,1.55.07,3.32.07,5.31v4.89c0,1.99-.02,3.76-.07,5.3-.05,1.55-.12,3.07-.21,4.55.41-.05.85-.07,1.33-.07h3.24c.48,0,.92.02,1.33.07-.1-1.49-.17-3-.22-4.55-.05-1.54-.07-3.31-.07-5.3v-2.05c.91-.05,1.82-.09,2.73-.11.91-.02,1.82-.04,2.73-.04s1.82.02,2.74.06c.91.04,1.82.07,2.73.09v2.05c0,1.99-.02,3.76-.07,5.3-.05,1.55-.12,3.07-.21,4.55.41-.05.85-.07,1.33-.07h3.24c.48,0,.92.02,1.33.07-.1-1.49-.17-3-.22-4.55-.05-1.54-.07-3.31-.07-5.3v-4.89c0-1.99.02-3.76.07-5.31"/>
      <path class="cls-1" d="M259.69,168.04c-.89-2.24-1.77-4.53-2.64-6.85-.88-2.33-1.7-4.51-2.46-6.55-.24.05-.47.09-.68.13-.22.03-.44.05-.68.05s-.47-.02-.68-.05c-.22-.04-.44-.08-.69-.13-.53,1.37-1.11,2.84-1.74,4.42-.64,1.58-1.28,3.19-1.94,4.82-.66,1.63-1.32,3.25-1.98,4.84-.66,1.6-1.28,3.09-1.85,4.48-.57,1.39-1.1,2.64-1.58,3.74-.48,1.1-.87,1.97-1.15,2.59.34-.05.65-.07.94-.07h1.71c.28,0,.56.02.85.07.33-1.17.71-2.37,1.12-3.6.41-1.22.85-2.45,1.33-3.67.62-.02,1.25-.04,1.87-.05.62-.01,1.25-.02,1.87-.02.77,0,1.53,0,2.3.02.77.01,1.53.03,2.3.05.46,1.22.89,2.45,1.29,3.67.41,1.22.8,2.42,1.19,3.6.5-.05,1.01-.07,1.53-.07h3.06c.51,0,1.06.02,1.64.07-.7-1.39-1.46-3.09-2.3-5.11-.84-2.01-1.7-4.14-2.59-6.38M248.47,170.14c.53-1.46,1.07-2.89,1.62-4.3.55-1.4,1.14-2.82,1.76-4.26.58,1.44,1.12,2.86,1.64,4.26.51,1.4,1.04,2.84,1.56,4.3h-6.58Z"/>
      <path class="cls-1" d="M287.41,167.84c-.67-.48-1.38-.83-2.12-1.06-.74-.23-1.39-.35-1.94-.38v-.07c.55-.1,1.17-.28,1.85-.54.68-.27,1.32-.63,1.91-1.1.59-.47,1.09-1.06,1.49-1.76.41-.71.61-1.55.61-2.54s-.17-1.83-.52-2.53-.85-1.28-1.49-1.73c-.65-.44-1.41-.77-2.3-.99-.89-.21-1.87-.32-2.95-.32s-2.11.03-3.24.09c-1.13.06-2.21.09-3.24.09-.6,0-1.14-.02-1.62-.05-.48-.04-.92-.08-1.33-.13.09,1.56.17,3.11.21,4.66.05,1.55.07,3.32.07,5.31v4.89c0,1.99-.03,3.76-.07,5.3-.05,1.55-.12,3.06-.21,4.55.41-.05.95-.07,1.64-.07h2c.91,0,1.78.01,2.61.04.83.02,1.72.04,2.68.04,1.08,0,2.12-.11,3.13-.34,1.01-.23,1.9-.63,2.68-1.2.78-.58,1.4-1.32,1.87-2.23.47-.91.7-2.01.7-3.31,0-1.08-.23-2-.7-2.75-.47-.76-1.04-1.37-1.71-1.85M278.17,159.67c.02-.91.06-1.81.11-2.7.24-.05.46-.08.67-.09.2,0,.57-.02,1.1-.02.72,0,1.32.11,1.8.34.48.23.88.52,1.19.9.31.37.53.82.67,1.33.13.51.2,1.06.2,1.64,0,.77-.12,1.44-.36,2.02-.24.58-.55,1.05-.93,1.42-.38.37-.82.65-1.31.84-.49.19-.99.29-1.49.29h-1.62c0-.62,0-1.23-.02-1.82-.01-.59-.02-1.21-.02-1.85s.01-1.39.04-2.3M283.81,174.78c-.22.6-.5,1.11-.86,1.53-.36.42-.78.74-1.26.95-.48.21-.98.32-1.51.32-.41,0-.75,0-1.04-.02-.29-.01-.6-.03-.94-.05,0-.31,0-.71-.02-1.19-.01-.48-.02-1.01-.02-1.58s0-1.16-.02-1.76c-.01-.6-.02-1.19-.02-1.76,0-.74,0-1.38.02-1.92.01-.54.02-1.06.02-1.56.22,0,.44,0,.68-.02.24-.01.53-.02.87-.02,1.44,0,2.53.41,3.29,1.24.75.83,1.13,2.08,1.13,3.76,0,.79-.11,1.49-.32,2.09"/>
      <path class="cls-1" d="M304.9,159.47c.05-1.55.12-3.1.22-4.66-.41.05-.85.09-1.33.13-.48.04-1.02.05-1.62.05s-1.14-.02-1.62-.05c-.48-.04-.92-.08-1.33-.13.1,1.56.17,3.11.22,4.66.05,1.55.07,3.32.07,5.31v4.89c0,1.99-.02,3.76-.07,5.3-.05,1.55-.12,3.07-.22,4.55.41-.05.85-.07,1.33-.07h3.24c.48,0,.92.02,1.33.07-.1-1.49-.17-3-.22-4.55-.05-1.54-.07-3.31-.07-5.3v-4.89c0-1.99.02-3.76.07-5.31"/>
      <path class="cls-1" d="M357.42,168.43c-.26-2.27-.53-4.59-.81-6.96-.28-2.37-.53-4.59-.77-6.66-.6.12-1.1.18-1.51.18-.43,0-.95-.06-1.55-.18-1.3,2.9-2.66,5.82-4.08,8.76-1.43,2.94-2.86,5.75-4.3,8.43-.65-1.27-1.32-2.61-2.03-4.03-.71-1.41-1.41-2.86-2.12-4.33-.71-1.48-1.42-2.95-2.12-4.44-.71-1.49-1.38-2.95-2.03-4.39-.26.05-.52.09-.76.13-.24.03-.47.05-.68.05-.27,0-.51-.02-.74-.05-.23-.04-.47-.08-.74-.13-.5,4.2-1.05,8.34-1.65,12.41-.6,4.08-1.28,8.18-2.05,12.3.29-.05.57-.07.85-.07h1.67c.29,0,.58.02.86.07.19-2.69.38-5.37.58-8.06.19-2.69.48-5.41.86-8.17h.07c1.37,2.76,2.69,5.48,3.97,8.17,1.28,2.69,2.57,5.37,3.87,8.06.12-.02.23-.04.34-.06.11-.01.22-.02.34-.02s.23,0,.34.02c.11.01.22.03.34.06,1.3-2.76,2.6-5.5,3.92-8.24,1.32-2.73,2.66-5.52,4.03-8.35h.07c.29,2.83.57,5.68.84,8.56.28,2.88.47,5.55.59,8.02.5-.05,1.01-.07,1.51-.07h2.93c.49,0,.98.02,1.46.07-.22-1.2-.46-2.78-.72-4.75-.26-1.97-.53-4.08-.79-6.35"/>
      <path class="cls-1" d="M378.83,154.94c-1.38.04-2.96.05-4.73.05-1.08,0-2.15-.02-3.2-.07-1.06-.05-2.12-.09-3.2-.11.1,1.56.17,3.11.22,4.66.05,1.55.07,3.32.07,5.31v4.89c0,1.99-.03,3.76-.07,5.31-.05,1.55-.12,3.06-.22,4.55.19-.02.43-.04.7-.06.28-.01.68-.02,1.22-.02h5.7c1.66,0,2.95,0,3.9.02.95.01,1.74.03,2.39.06-.05-.14-.09-.32-.11-.54-.02-.22-.04-.52-.04-.9s.01-.68.04-.9c.02-.21.06-.45.11-.72-1.39.17-2.77.29-4.14.36-1.37.07-2.73.11-4.1.11-.07-1.44-.11-2.94-.11-4.5,0-.77,0-1.53.02-2.3.01-.77.02-1.53.02-2.3,2.71,0,5.43.11,8.17.32-.05-.38-.09-.68-.12-.88-.04-.2-.05-.4-.05-.59,0-.24.01-.47.04-.68.02-.21.07-.52.14-.93-1.37.07-2.68.13-3.94.18-1.26.05-2.67.08-4.23.11,0-1.32,0-2.63.02-3.92.01-1.3.07-2.6.16-3.92.26,0,.71.01,1.33.04.62.03,1.33.06,2.1.11.78.05,1.58.1,2.41.14.83.05,1.59.1,2.28.15-.05-.27-.09-.5-.11-.72-.02-.22-.04-.51-.04-.9,0-.62.05-1.12.14-1.51-.48.05-1.41.09-2.79.13"/>
      <path class="cls-1" d="M410.19,157.26c-1.22-.89-2.68-1.52-4.37-1.89-1.69-.37-3.57-.56-5.63-.56-1.58,0-2.87.03-3.85.09-.98.06-1.87.09-2.66.09-.6,0-1.14-.02-1.62-.05-.48-.04-.92-.08-1.33-.13.1,1.56.17,3.11.22,4.66.05,1.55.07,3.32.07,5.31v4.89c0,1.99-.02,3.76-.07,5.3-.05,1.55-.12,3.07-.22,4.55.41-.05.85-.07,1.33-.07h1.62c.94,0,2.04.01,3.31.04,1.27.02,2.81.04,4.6.04,1.7,0,3.3-.3,4.8-.9,1.5-.6,2.82-1.47,3.95-2.61,1.14-1.14,2.04-2.51,2.7-4.12.66-1.61.99-3.4.99-5.39,0-2.28-.34-4.17-1.01-5.67-.67-1.5-1.62-2.69-2.84-3.58M405.98,174.82c-1.58,1.85-3.73,2.77-6.44,2.77-.74,0-1.37-.01-1.87-.04-.5-.02-.93-.05-1.3-.07,0-.17,0-.54-.02-1.11-.01-.58-.02-1.21-.02-1.91v-14.35c0-.72,0-1.37.02-1.94.01-.58.02-.95.02-1.12.55-.05,1.1-.09,1.64-.12.54-.04,1.24-.06,2.1-.06,1.25,0,2.37.22,3.38.67,1.01.44,1.87,1.08,2.59,1.91.72.83,1.28,1.83,1.67,3,.4,1.18.59,2.51.59,3.99,0,3.74-.79,6.53-2.37,8.38"/>
      <path class="cls-1" d="M428.9,159.47c.05-1.55.12-3.1.22-4.66-.41.05-.85.09-1.33.13-.48.04-1.02.05-1.62.05s-1.14-.02-1.62-.05c-.48-.04-.92-.08-1.33-.13.1,1.56.17,3.11.22,4.66.05,1.55.07,3.32.07,5.31v4.89c0,1.99-.02,3.76-.07,5.3-.05,1.55-.12,3.07-.22,4.55.41-.05.85-.07,1.33-.07h3.24c.48,0,.92.02,1.33.07-.1-1.49-.17-3-.22-4.55-.05-1.54-.07-3.31-.07-5.3v-4.89c0-1.99.02-3.76.07-5.31"/>
      <path class="cls-1" d="M455.19,168.04c-.89-2.24-1.77-4.53-2.64-6.85-.88-2.33-1.7-4.51-2.47-6.55-.24.05-.47.09-.68.13-.22.03-.44.05-.68.05s-.47-.02-.68-.05c-.22-.04-.45-.08-.69-.13-.53,1.37-1.11,2.84-1.74,4.42-.63,1.58-1.28,3.19-1.94,4.82-.66,1.63-1.32,3.25-1.98,4.84-.66,1.6-1.28,3.09-1.85,4.48-.58,1.39-1.1,2.64-1.58,3.74-.48,1.1-.86,1.97-1.15,2.59.34-.05.65-.07.94-.07h1.71c.28,0,.56.02.85.07.33-1.17.71-2.37,1.12-3.6.41-1.22.85-2.45,1.33-3.67.62-.02,1.25-.04,1.87-.05.62-.01,1.25-.02,1.87-.02.77,0,1.53,0,2.3.02.77.01,1.53.03,2.3.05.46,1.22.89,2.45,1.29,3.67.41,1.22.8,2.42,1.19,3.6.5-.05,1.01-.07,1.53-.07h3.06c.52,0,1.06.02,1.64.07-.7-1.39-1.46-3.09-2.3-5.11-.84-2.01-1.7-4.14-2.59-6.38M443.97,170.14c.53-1.46,1.07-2.89,1.62-4.3.55-1.4,1.14-2.82,1.76-4.26.57,1.44,1.12,2.86,1.64,4.26.51,1.4,1.04,2.84,1.57,4.3h-6.58Z"/>
      <path class="cls-1" d="M502.6,154.82c.05.24.09.71.13,1.4.04.7.06,1.52.07,2.48.01.96.02,2.01.04,3.15.01,1.14.02,2.3.02,3.47v6.62c-2.68-2.9-5.3-5.76-7.86-8.56-2.55-2.81-5.14-5.66-7.75-8.56-.67.12-1.21.18-1.62.18s-.95-.06-1.62-.18c.02.87.06,1.86.11,2.99.05,1.13.07,2.52.07,4.17,0,1.82-.03,3.73-.09,5.7-.06,1.98-.13,3.81-.22,5.5-.08,1.69-.16,3.13-.23,4.3-.07,1.18-.13,1.86-.18,2.05.55-.05,1.11-.07,1.66-.07h.83c.29,0,.57.02.86.07-.02-.26-.05-.62-.07-1.06-.03-.44-.05-1.01-.07-1.71-.02-.7-.04-1.55-.06-2.55-.01-1.01-.02-2.23-.02-3.67v-4.17c0-.72,0-1.43.02-2.12.01-.7.03-1.39.06-2.09,5.54,5.83,10.78,11.62,15.72,17.37.41-.05.87-.07,1.4-.07s.99.02,1.47.07v-4.32c0-1.72,0-3.35.02-4.87.02-1.52.04-3.06.09-4.62.05-1.56.11-3.22.18-4.98.07-1.76.17-3.73.29-5.92-.67.12-1.21.18-1.62.18s-.95-.06-1.62-.18"/>
      <path class="cls-1" d="M527.05,154.94c-1.38.04-2.96.05-4.73.05-1.08,0-2.15-.02-3.2-.07-1.06-.05-2.12-.09-3.2-.11.1,1.56.17,3.11.22,4.66.05,1.55.07,3.32.07,5.31v4.89c0,1.99-.02,3.76-.07,5.31-.05,1.55-.12,3.06-.22,4.55.19-.02.43-.04.7-.06.28-.01.68-.02,1.22-.02h5.7c1.66,0,2.96,0,3.91.02.95.01,1.74.03,2.39.06-.05-.14-.09-.32-.11-.54-.03-.22-.04-.52-.04-.9s.01-.68.04-.9c.02-.21.06-.45.11-.72-1.39.17-2.77.29-4.14.36-1.37.07-2.73.11-4.1.11-.07-1.44-.11-2.94-.11-4.5,0-.77,0-1.53.02-2.3.01-.77.02-1.53.02-2.3,2.71,0,5.43.11,8.17.32-.05-.38-.09-.68-.13-.88-.04-.2-.05-.4-.05-.59,0-.24.01-.47.04-.68.02-.21.07-.52.14-.93-1.37.07-2.68.13-3.94.18-1.26.05-2.67.08-4.23.11,0-1.32,0-2.63.02-3.92.01-1.3.07-2.6.16-3.92.26,0,.71.01,1.33.04.63.03,1.33.06,2.11.11.78.05,1.58.1,2.41.14.83.05,1.59.1,2.28.15-.05-.27-.09-.5-.11-.72-.03-.22-.04-.51-.04-.9,0-.62.05-1.12.14-1.51-.48.05-1.41.09-2.79.13"/>
      <path class="cls-1" d="M555.67,154.82c-.74.03-1.43.05-2.07.07-.64.03-1.29.04-1.96.06-.67.01-1.41.02-2.21.04-.8.01-1.77.02-2.89.02s-2.09,0-2.9-.02c-.81-.01-1.55-.02-2.23-.04-.68-.01-1.35-.03-2.01-.06-.66-.02-1.4-.05-2.21-.07.05.27.09.53.13.79.04.27.05.53.05.79s-.02.53-.05.79c-.04.26-.08.53-.13.79.53-.07,1.1-.14,1.73-.2.62-.06,1.24-.11,1.83-.14.6-.04,1.16-.06,1.69-.09.53-.02.97-.04,1.33-.04.05.26.08.68.09,1.26.01.58.02,1.21.02,1.91v8.99c0,1.99-.03,3.76-.07,5.3-.05,1.55-.12,3.06-.22,4.55.41-.05.85-.07,1.33-.07h3.24c.48,0,.92.02,1.33.07-.1-1.49-.17-3-.22-4.55-.05-1.55-.07-3.31-.07-5.3v-10.9c0-.29,0-.54.02-.75.01-.22.03-.39.05-.5.36,0,.8.01,1.33.04.53.03,1.09.05,1.68.09.59.04,1.18.08,1.78.14.6.06,1.14.12,1.62.2-.05-.26-.09-.53-.13-.79-.04-.26-.05-.53-.05-.79s.02-.53.05-.79c.04-.26.08-.52.13-.79"/>
      <path class="cls-1" d="M595.71,155c-.41,0-.91-.06-1.51-.18-.17.72-.46,1.79-.87,3.2-.41,1.42-.86,2.97-1.37,4.68-.5,1.71-1.02,3.47-1.56,5.29-.54,1.82-1.05,3.49-1.53,5h-.07c-.22-.79-.49-1.71-.83-2.77-.33-1.05-.7-2.17-1.1-3.35-.4-1.17-.79-2.36-1.19-3.56-.39-1.2-.77-2.34-1.11-3.42-.35-1.08-.66-2.06-.92-2.95-.26-.89-.44-1.59-.54-2.12-.31.05-.61.09-.9.13-.29.04-.59.05-.9.05s-.61-.02-.9-.05c-.29-.04-.59-.08-.9-.13-.27.84-.63,1.97-1.12,3.4-.48,1.43-1.01,2.98-1.58,4.68-.58,1.69-1.17,3.42-1.78,5.18-.61,1.76-1.18,3.4-1.71,4.91h-.07c-.33-1.25-.7-2.61-1.1-4.08-.4-1.47-.8-3-1.22-4.57-.42-1.57-.83-3.16-1.24-4.79-.41-1.62-.79-3.19-1.15-4.73-.48.05-.96.09-1.46.13-.49.04-.98.05-1.46.05s-.97-.02-1.47-.05c-.5-.04-1.02-.08-1.55-.13.1.24.3.88.61,1.92.31,1.04.7,2.31,1.15,3.8.46,1.49.95,3.13,1.48,4.91.53,1.79,1.04,3.56,1.55,5.31.5,1.75.97,3.41,1.4,4.96.43,1.56.78,2.83,1.04,3.81.31-.05.62-.07.93-.07h.94c.67,0,1.28.02,1.83.07.38-1.2.84-2.57,1.37-4.1.53-1.53,1.07-3.1,1.64-4.68.56-1.58,1.12-3.14,1.67-4.66.55-1.52,1.04-2.9,1.48-4.12h.07c1.08,3,2.11,5.94,3.08,8.83.97,2.89,1.84,5.8,2.61,8.72.31-.05.62-.07.94-.07h.93c.67,0,1.28.02,1.83.07.38-1.27.83-2.71,1.35-4.32.51-1.61,1.05-3.25,1.6-4.93.55-1.68,1.1-3.34,1.65-5,.55-1.66,1.07-3.18,1.55-4.59.48-1.4.9-2.62,1.26-3.65.36-1.03.62-1.77.79-2.23-.29.05-.57.09-.85.13-.28.04-.55.05-.81.05"/>
      <path class="cls-1" d="M626.47,157.52c-1.22-1.06-2.66-1.85-4.32-2.38-1.65-.53-3.44-.79-5.36-.79-2.09,0-3.98.33-5.68,1.01-1.7.67-3.15,1.59-4.35,2.77-1.2,1.18-2.13,2.54-2.79,4.1-.66,1.56-.99,3.23-.99,5,0,2.26.36,4.19,1.08,5.81.72,1.62,1.7,2.95,2.93,3.99,1.23,1.04,2.69,1.8,4.35,2.26,1.67.47,3.45.71,5.34.71,2.02,0,3.86-.33,5.54-.97,1.68-.65,3.12-1.55,4.34-2.72,1.21-1.16,2.16-2.52,2.84-4.08.68-1.56,1.02-3.24,1.02-5.04,0-2.16-.35-4.05-1.06-5.67-.71-1.62-1.67-2.95-2.9-4.01M623.86,171.54c-.44,1.44-1.03,2.63-1.76,3.56-.73.93-1.59,1.63-2.57,2.09-.98.46-2.02.68-3.09.68-1.01,0-1.97-.18-2.88-.54-.91-.36-1.72-.94-2.41-1.74-.7-.8-1.25-1.86-1.66-3.18-.41-1.32-.61-2.94-.61-4.86,0-1.53.17-2.98.52-4.34.35-1.35.86-2.53,1.53-3.54.67-1.01,1.49-1.81,2.47-2.39.97-.59,2.07-.88,3.29-.88,1.15,0,2.21.24,3.18.7.97.47,1.8,1.13,2.48,2,.68.86,1.22,1.91,1.6,3.15.38,1.24.58,2.63.58,4.19,0,1.97-.22,3.67-.67,5.11"/>
      <path class="cls-1" d="M650.5,167.41c1.8-.46,3.18-1.24,4.14-2.34.96-1.1,1.44-2.53,1.44-4.28,0-1.08-.21-2.01-.63-2.79-.42-.78-.99-1.43-1.71-1.96-.31-.22-.64-.4-.99-.56-.35-.15-.76-.28-1.22-.38-.47-.1-1.03-.17-1.67-.22-.65-.05-1.43-.07-2.34-.07-1.22,0-2.25.03-3.08.09-.83.06-1.56.09-2.21.09-.6,0-1.14-.02-1.62-.05-.48-.04-.92-.08-1.33-.13.1,1.56.17,3.11.21,4.66.05,1.55.07,3.32.07,5.31v4.89c0,1.99-.02,3.76-.07,5.3-.05,1.55-.12,3.06-.21,4.55.41-.05.85-.07,1.33-.07h3.24c.48,0,.92.02,1.33.07-.1-1.49-.17-3-.22-4.55-.05-1.55-.07-3.31-.07-5.3v-1.48h.32l6.44,11.33c.55-.05,1.1-.07,1.64-.07h3.26c.53,0,1.07.02,1.62.07-1.32-1.99-2.64-4-3.96-6.02-1.32-2.03-2.55-4.06-3.7-6.1M645.68,166.72c-.12,0-.25,0-.38-.02-.13-.01-.27-.03-.41-.06,0-3.26.04-6.52.11-9.78.98,0,1.83.05,2.54.14.71.1,1.28.3,1.73.63.44.32.77.8.99,1.42.21.62.32,1.46.32,2.52,0,1.72-.42,3.01-1.26,3.87-.84.85-2.05,1.28-3.63,1.28"/>
      <path class="cls-1" d="M680.77,173.22c-.92-1.35-1.85-2.74-2.79-4.16-.93-1.41-1.79-2.71-2.55-3.88.48-.58,1.15-1.36,2.01-2.36.87-.99,1.77-2.02,2.72-3.07.95-1.06,1.84-2.04,2.68-2.95.84-.91,1.46-1.57,1.87-1.98-.41.05-.79.09-1.13.13-.35.04-.69.05-1.02.05s-.67-.02-1.01-.05c-.34-.04-.67-.08-1.01-.13-.31.46-.81,1.13-1.51,2.04-.7.9-1.47,1.89-2.34,2.97-.86,1.08-1.76,2.19-2.7,3.33-.93,1.14-1.81,2.19-2.63,3.15v-3.45c0-1.75.02-3.35.06-4.79.04-1.44.11-2.52.23-3.24-.41.05-.85.09-1.33.13-.48.04-1.02.05-1.62.05s-1.14-.02-1.62-.05c-.48-.04-.92-.08-1.33-.13.1,1.56.17,3.11.22,4.66.05,1.55.07,3.32.07,5.31v4.89c0,1.99-.02,3.76-.07,5.3-.05,1.55-.12,3.07-.22,4.55.41-.05.85-.07,1.33-.07h3.24c.48,0,.92.02,1.33.07-.14-1.1-.23-2.59-.25-4.46-.03-1.87-.04-4.11-.04-6.73h.07c1.22,1.87,2.42,3.75,3.6,5.63,1.17,1.88,2.37,3.74,3.6,5.56.53-.05,1.05-.07,1.56-.07h3.19c.55,0,1.17.02,1.87.07-.48-.58-1.12-1.43-1.91-2.57-.79-1.14-1.65-2.39-2.57-3.74"/>
      <path class="cls-1" d="M510.13,45.69c-.45.13-.77.56-1.12.89-2.53,2.32-5.87,5.88-8.22,8.77-1.77,2.18-3.18,4.73-3.71,7.32-.37,1.79-.21,3.56-.06,5.29.61,5.68,1.67,9.03,1.88,11.96-6.84,2.47-17.72,4.53-31.38.82.32-.9.63-1.81.91-2.69,1.16-3.62,5.43-14.22,5.97-17.88.41-2.77.06-5.62-1.53-7.63-1.15-1.44-3.74-3.13-5.41-4.01-5.83-3.08-9.85-5-16.02-6.74-.41-.12-2.26-.43-2.72-.41-1.06.05-1.85,1.19-2.38,2.17-.56,1.04-1.04,1.98-1.48,2.88,0,0-8.33,15.62-9.3,17.39-.42.76-.2,2.43.41,4.45l-.03.04s.15.48.49,1.32c.86,2.37,2.15,5,3.58,7.12,1.79,2.96,4.25,6.38,7.53,9.69-8.1,7.83-13.12,12.3-23.88,16.08-6.9,1.12-18.27,2.28-20.82,2.49-.38.02-.75.05-1.14.06.06.21.25.38.51.53h-.01s8.24,7.57,17.57,9.61c.15.04.31.08.44.12,14.68,3.81,33.92-7.62,42.07-21.88,13.57,5.44,23.74,4.8,36.15,2.61,1.23-.22,2.27-1.04,3.22-1.87,1.28-1.11,2.17-2.56,3.03-3.98,3.26-5.41,5.7-10.64,6.97-16.52.85-3.95.15-25.53.15-25.53-.04-1.18-.42-2.81-1.66-2.44M457.22,77.28c-15.83-6.44-16.81-13.11-16.81-13.11.12-.08,9.55-6.36,22.37,4.35,0,0-1.52,3.82-5.55,8.75"/>
      <path class="cls-1" d="M533.76,24.29c.02-.94-.71-.81-1.41-.71-.89.12-13.03,12.88-12.54,17.88,0,0,2.63,56.54,3.33,59.93,1.59,7.67,2.29,2.36,7.31-4.55,3-4.13,4.3-9.6,4.96-18.64.35-4.74-1.64-53.91-1.64-53.91h0Z"/>
      <path class="cls-1" d="M414.26,83.42c.73-1.06,3.02-4.73,3.64-5.84,2.27-4.05,2.6-4.83,4.81-8.77,1.7-3.03,3.21-6.03,3.88-9.28,1.15-5.57-.05-11.75-4.45-14.85-9.86-6.96-20.68,6.39-28.9,13.28-2.57,2.15-5.61,5.59-5.56,4.35.26-6.18-1.14-37.16-1.26-38.14l-.22-3.48c-.04-1.16-.43-2.76-1.67-2.4-.46.13-.81.51-1.12.88-2.26,2.58-6.22,5.86-8.2,8.62-1.61,2.25-3.17,4.64-3.69,7.19-.36,1.76-.2,3.49-.04,5.2.77,6.89,1.15,13.82,1.81,20.72.29,3.01.62,6.02.91,9.03.04.4.75,5.39.39,5.51l-1.01,6.24c-.07.19-2.45.15-2.74.16-3.76.16-7.54.11-11.3-.16-3.62-.26-7.42-.52-10.94-1.45-.65-.17-1.29-.38-1.92-.6-.92-.32-1.81-.75-2.65-1.25-.75-.44-1.51-.97-1.98-1.7-.61-.95-.35-2.16-.05-3.33.94-3.26,5.02-14.95,6.07-18.19.84-2.6,2.02-5.67.63-7.92-1.18-1.91-3.7-2.21-5.73-2.44-7.16-.83-14.31-1.55-21.52-1.9-7.59-.37-15.18-.36-22.77-.17-1.76.05-3.49.12-5.23.34-1.8.25-2.62,1.14-3.71,2.59-3.11,4.14-6.07,8.6-8.48,13.08-1.05,1.94-.16,2.89,1.02,4.16,1.37,1.48,2.78,2.92,4.19,4.36,5.51,5.68,10.78,11.56,15.77,17.68,4.13,5.06,9.14,10.36,11.7,16.67-1.13.42-2.28.77-3.43,1-2.61.53-5.25.7-7.81.61-.06,0-.12,0-.19,0-21.73-.78-41.51-19.04-41.51-19.04h-2.39c-1.2,9.23,3.93,17.9,9.89,23.72,7.64,7.45,18.82,12.22,31.02,10.2,3.07-.51,6.28-1.53,8.89-3.6,1.49-1.18,2.6-2.63,3.68-4.14,1.07-1.48,2.11-2.99,3.13-4.51.01.07,1.99-2.48,1.72-2.11,1.27-1.75,2.48-3.56,3.65-5.36,1.18-1.81,2.35-3.62,3.44-5.47.31-.52,1.32-1.82,1.22-2.37-.9-4.58-3.32-8.35-5.98-11.93-3-4.04-6.14-7.97-9.37-11.82-2.53-3.01-5.14-5.95-7.79-8.85,1.79.02,3.57.04,5.35.1,7.56.24,15.06.91,22.57,1.73,1.37.17,2.74.31,4.11.5.47.08.93.16,1.39.26,3.35.77,1.26,11.97.49,15.28-.76,2.72-1.71,5.42-2.58,8.12-.45,1.38-.94,2.77-1.32,4.17-.24.88-.53,1.91-.45,2.81.01.16.02.33.08.52.43,1.36,2.02,2.2,3.25,2.79,3.12,1.5,6.64,2.04,10.06,2.43,7.45.85,15.03.85,22.48,0,.53-.06,1.07-.13,1.6-.2,14.37-1.87,29.59-5.82,43.56-11.13.65-.25,1.22-1.36,1.59-1.9M386.49,72.16c.12-.43.22-.86.31-1.29.38-1.8,1.21-3.56,2.55-5,.51-.54,1.03-1.08,1.56-1.6,4.02-3.89,9.07-7.1,14.45-7.45,5.29-.34,9.44,2.3,11.27,6.71.93,2.24,1.28,4.79,1.11,7.36-11.51,4.22-23.25,7.8-35.03,9.69,1.57-2.74,2.96-5.53,3.77-8.43"/>
      <path class="cls-1" d="M525.08,20.31s.92.65,1.73-.16c0,0,5.51-4.63,5.64-4.84.13-.2.9-1.33-1.05-2.71-.27-.19-.53-.39-.8-.6-.86-.82-1.72-1.65-2.57-2.47-1.1-1.05-2.26-2.16-2.91-3.55,1.44-.37,3-.21,4.46,0,.11.02.56-.86.52-.79.37-.66.72-1.34,1.06-2.01.34-.68.67-1.36.97-2.06.04-.09.37-.89.32-.89-2.03-.29-4.26-.47-6.06.69-.68.44-1.15,1.03-1.56,1.67,0-.25-.29.26-.85,1.51-.59,1.12-1.16,2.25-1.66,3.41-.25.58-.49,1.17-.56,1.81-.09.88.11,1.69.47,2.44-1.16,1.07-2.1,1.97-2.1,1.97,0,0-1.03.83-.37,1.62.82.97,5.31,4.97,5.31,4.97"/>
      <path class="cls-1" d="M331.71,103.78s-1.32-1.53-2.53-.51c-1.49,1.25-7.59,8.05-7.59,8.05,0,0-.99,1.4.29,2.58,0,0,7.34,8.12,7.66,8.32.32.2,2.09,1.31,4.18-1.63,1.85-2.61,4.36-5.18,5.1-5.8.56-.47,1.13-.95,1.37-1.46.47-.96-8.49-9.55-8.49-9.55"/>
      <path class="cls-1" d="M492.82,103.78s-1.32-1.53-2.53-.51c-1.49,1.25-7.59,8.05-7.59,8.05,0,0-.99,1.4.29,2.58,0,0,7.34,8.12,7.66,8.32.32.2,2.09,1.31,4.18-1.63,1.85-2.61,4.35-5.18,5.1-5.8.56-.47,1.13-.95,1.38-1.46.47-.96-8.49-9.55-8.49-9.55"/>
      <path class="cls-1" d="M409.28,34.75c.32.2,2.09,1.31,4.18-1.63,1.85-2.61,4.36-5.18,5.1-5.8.56-.47,1.13-.95,1.38-1.46.47-.96-8.49-9.55-8.49-9.55,0,0-1.32-1.52-2.53-.51-1.49,1.25-7.59,8.05-7.59,8.05,0,0-.99,1.4.3,2.58,0,0,7.34,8.12,7.66,8.32"/>
      <path class="cls-1" d="M201.58,96.09c-.27-.19-.54-.38-.81-.58-.87-.81-1.74-1.62-2.61-2.43-1.12-1.04-2.3-2.12-2.97-3.5,1.44-.39,2.99-.26,4.46-.08.11.01.55-.86.51-.8.36-.66.7-1.35,1.03-2.03.33-.68.65-1.37.94-2.07.04-.09.35-.89.3-.9-2.03-.26-4.27-.41-6.05.78-.67.45-1.13,1.05-1.53,1.7,0-.24-.28.27-.83,1.52-.57,1.12-1.12,2.27-1.61,3.43-.24.59-.47,1.18-.53,1.82-.07.88.14,1.69.51,2.43-1.14,1.09-2.06,2.01-2.06,2.01,0,0-1.02.85-.34,1.63.83.96,5.38,4.89,5.38,4.89,0,0,.94.64,1.73-.19,0,0,5.43-4.72,5.56-4.93.13-.21.88-1.35-1.09-2.69"/>
      <path class="cls-1" d="M243.63,10.3c-.95.1-14.15,12.17-13.72,17.03,0,0,.51,21.94.92,39.7h-.07s.22,6.06-3.33,6.95c-.65.16-1.2.3-1.72.42-.11.03-.24.06-.34.09-.46.11-.87.21-1.22.3-.08.02-.15.04-.23.05-.28.07-.53.13-.75.18-.06.02-.14.03-.19.05-.22.05-.39.09-.54.13-.07.02-.13.03-.19.04-.1.02-.19.04-.26.06-.02,0-.04,0-.06.01l-.33.06s-1.3-29.32-1.89-37.55c-.04-.53-.17-1.04-.4-1.52-.75-1.53-2.64-4.9-4.65-5.09-4.09-.38-16.19,29.44-28.05,38.32l6.61-9.4c.4-.56.6-1.25.58-1.93l-1.3-47.09c-.02-.76-.96-1.1-1.47-.54l-11.33,12.64c-1.09,1.22-1.67,2.82-1.61,4.46l1.69,42.69c.09,2.38-1.2,4.6-3.33,5.69l-39.87,18.78c-.51.26-.57.95-.12,1.3l1.33,1.03c.14.1.3.16.48.16h28.34c5.55,0,24.72-13.07,28.33-18.35,3.61-5.28,11.66-26.11,11.66-26.11,0,0,.55-.83.55,4.17s1.39,32.77,1.39,34.71c0,1.32,5.16.77,6.7.58h0c.17-.02.33-.04.39-.05.15-.02.3-.06.46-.08.78-.11,1.58-.25,2.43-.42.41-.08.82-.17,1.23-.27.67-.16,1.35-.35,2.04-.55.36-.1.73-.2,1.08-.31.07-.02.14-.04.22-.06h0s0-.02,0-.02c2.13-.71,4.2-1.59,6.14-2.71,7.92-4.53,13.16-13.41,14.86-22.19.37-1.92.63-3.87.82-5.81.45-4.6.21-48.84.2-48.84.04-.92-.75-.81-1.5-.73"/>
      <path class="cls-1" d="M560.82,49.56c.56-.47,1.14-.96,1.39-1.48.39-.8-5.75-6.9-7.87-8.96.45-.31.92-.77,1.41-1.46,1.87-2.64,4.4-5.24,5.16-5.86.57-.47,1.14-.97,1.39-1.48.48-.97-8.58-9.65-8.58-9.65,0,0-1.33-1.54-2.56-.51-1.51,1.26-7.68,8.14-7.68,8.14,0,0-1,1.41.3,2.61,0,0,4.75,5.25,6.81,7.45-2.02,1.93-7.2,7.71-7.2,7.71,0,0-1,1.41.3,2.61,0,0,7.42,8.21,7.74,8.41.32.2,2.12,1.33,4.23-1.65,1.87-2.64,4.4-5.24,5.16-5.86"/>
      <path class="cls-1" d="M263.37,76.04c.32.2,2.09,1.31,4.18-1.63,1.85-2.61,4.36-5.18,5.1-5.8.56-.47,1.13-.95,1.38-1.46.43-.87-6.9-8.01-8.25-9.32.54-.29,1.14-.78,1.78-1.67,1.85-2.61,4.36-5.18,5.1-5.8.56-.47,1.13-.95,1.38-1.46.47-.96-8.49-9.55-8.49-9.55,0,0-1.32-1.53-2.53-.51-1.49,1.25-7.59,8.05-7.59,8.05,0,0-.99,1.4.3,2.58,0,0,5.38,5.95,7.12,7.78-1.73,1.55-7.42,7.89-7.42,7.89,0,0-.99,1.4.3,2.58,0,0,7.34,8.12,7.66,8.32"/>
      <path class="cls-1" d="M672.52,101.77s-1.32-1.53-2.53-.51c-1.49,1.25-7.59,8.05-7.59,8.05,0,0-.99,1.4.3,2.58,0,0,7.34,8.12,7.66,8.32.32.2,2.09,1.31,4.18-1.63,1.85-2.61,4.36-5.18,5.1-5.8.56-.47,1.13-.95,1.38-1.46.47-.96-8.49-9.55-8.49-9.55"/>
      <path class="cls-1" d="M756.8,61.87c-2.27,1.83-7.11,3.67-8.8,4.29-10.9,3.74-21.97,6.86-33.07,8.48l-9.16.97c-8.28.49-17.1.22-25.16-1.93-1.58-.42-3.16-.96-4.53-1.88-1.63-1.09-2.42-2.25-1.96-4.25.09-.39-.19-.77-.59-.8-.33-.02-.75-.04-1.2-.02-1.21.03-1.47,1.53-1.47,1.53-.6,2.04-1.2,3.7-1.77,5.1-.73,1.44-1.9,3.1-3.69,4.46-.52.4-1.08.77-1.71,1.1-4.95,2.57-11.58,1.83-16.42-.68-3.35-1.75-6.15-4.4-8.74-7.12-1.9-2-3.73-4.08-5.54-6.17-7.13-8.26-14.25-18.52-19.66-26.36,8.96-2.73,30.74-5.5,45.12-10.01,2.38-.75,4.22-2.64,4.88-5.04.49-1.78,1.02-3.91,1.31-5.83,1.05-6.94.93-10.1.93-10.1l-.99-.85c-17.38,6.55-46.84,16.16-53.25,21.01-2.99,2.28-4.84,17.67-4.84,24.08,6.56,10.12,9.97,17.52,11.83,25.22-4.98,3.25-14.11,5.2-18.81,5.2-.11,0-.19.03-.29.05-1.35.01-2.69-.03-4.01-.16-1.89-.19-3.8-.57-5.15-1.71-2.03-1.71-2.53-5.11-1.74-7.92.68-2.39,2.44-4.69,3.47-7.01,1.49-3.35,1.15-7.26.85-9.2,0-.03.01-.05.02-.08l-.08-.29-.7-2.53-.34-1.23c-1.38-4.6-3.99-13.18-4.58-14.63-.79-1.94-2.42-.57-2.5-.51-11.86,6.36-21.06,17.56-24.9,29.94-1.38,4.46-2.55,8.98-3.46,13.47-.38,1.89-.78,3.86-.42,5.66.63,3.12,3.68,3.33,6.63,2.77,5.75-1.09,11.39-3.95,16.13-7.88.99-.82,1.91-1.69,2.8-2.58-.7,2.22-1.77,4.15-3.04,6.65-1.06,2.09-2.03,4.44-1.6,6.58.55,2.73,3.27,4.2,5.98,4.92.34.09.7.17,1.05.24.17.08.28.12.22.07l-.06-.03c3.77.8,17.39.8,17.39.8,0,0,1.95.06,4.53-.51,3.22-.48,5.8-1.3,6.9-2.13,1.99-1.57,8.98-13.54,11.54-20.09,11.06,14.01,17.68,20.7,26.6,22.28,0,0,5.18,1.21,9.18-.48,2.68-1.13,5.2-4.77,7.35-9,.83.4,1.71.76,2.64.99-.04.08-.06.13-.05.13.38.08.77.15,1.15.22,3.27.67,6.58,1.16,9.94,1.48,6.56.61,13.28.54,20.12-.25,13.51-1.57,27.78-4.98,41.1-9.61l-4.63,12.78,2.03,1.31,18.74-31.77-1.55-1.14ZM576.03,68.83c-2.88,1.52-5.92,2.65-8.99,3.28-2.34.48-4.62.5-5.96-.77.05-.08.09-.16.14-.23,4.13-6.24,9.61-11.64,15.95-15.63.91,2.34,2.45,6.49,3.57,10.38-1.5,1.1-3.07,2.1-4.71,2.96"/>
      <path class="cls-1" d="M679.87,56.32s5.25-15.61,13.86-19.08c0,0,.85.41,3.99,3.43,3.14,3.02,2.91,4.69,8.58.53,4.5-3.3,8.81-7.6,10.39-9.23.43-.44.73-.97.9-1.55l.24-.8c.36-1.22.09-2.54-.73-3.51-1.72-2.03-4.76-5.43-6.76-6.56-2.91-1.64-5.61-4.01-18.34,8.97-12.72,12.98-15.29,26.08-15.26,26.88.03.79,3.13.92,3.13.92"/>
      <path class="cls-1" d="M13.77,89.95l27.95-10.95s10.88-2.74,15.98-15.89l3.89-9.98c.68-1.74-.57-3.64-2.45-3.69l-14.25-.42c-1.35-.04-2.63.65-3.34,1.8l-5.8,9.4c-.43.7-1.08,1.22-1.85,1.49-3.66,1.27-14.95,5.34-21.88,9.42-.68.4-1.25.94-1.72,1.58-2.07,2.87-7.83,11.69-9.92,23.51-.65,3.69-.45,7.48.52,11.1,1.18,4.42,3.44,11.3,7.61,19.77,1.6,3.24,6.58,12.84,6.58,12.84.43.84,1.59.94,2.15.18l2.21-2.94c.2-.27.29-.62.24-.95l-6.71-44.91c-.09-.59.24-1.16.79-1.37"/>
      <path class="cls-1" d="M161.16,62.43v-.26l-14.1,1.26c-5.44-1.26-6.76-8.03-6.76-8.03,3.61.94,7.05,1.84,10.44,2.73,2.08-5.41,4.1-10.66,6.12-15.91-1.6-.55-3.07-1.16-4.59-1.56-2.23-.59-4.43-1.39-6.81-1.23-1.01.07-1.94.39-2.77.82-1.07.55-2.07,1.32-2.93,2.17-1.54,1.51-3.1,3.04-4.38,4.76-1.76,2.36-3.26,4.93-4.4,7.65-.69,1.66-1.24,3.41-1.59,5.17-.32,1.55-.55,3.19-.4,4.77l4.27,5.66c-2.27,1.05-6.47,2.93-8.98,3.55-3.61.9-4.98,1.22-5.51,1.33l-.33.06s-1.3-29.32-1.89-37.55c-.04-.53-.17-1.04-.41-1.52-.75-1.53-2.64-4.9-4.65-5.09-4.09-.39-16.19,29.44-28.05,38.32l6.61-9.41c.4-.57.6-1.24.58-1.94l-1.3-47.09c-.02-.76-.96-1.11-1.47-.54l-11.33,12.64c-1.09,1.22-1.67,2.82-1.6,4.46l1.69,42.69c.1,2.38-1.2,4.6-3.33,5.69l-39.87,18.78c-.5.26-.57.96-.12,1.31l1.33,1.03c.14.11.31.17.48.17h28.34c5.56,0,24.72-13.07,28.33-18.35,3.61-5.28,11.66-26.1,11.66-26.1,0,0,.56-.83.56,4.16s1.39,32.77,1.39,34.71c0,1.16,7.17,1.27,14.55-1.15h0c10.23-2.16,41.21-19.02,41.21-19.02v-9.15Z"/>
      <path class="cls-2" d="M785.89,21.98c0-6.25-5.07-11.32-11.32-11.32s-11.32,5.07-11.32,11.32,5.07,11.32,11.32,11.32,11.32-5.07,11.32-11.32"/>
    </g>
  </g>
</svg>