<?xml version="1.0" encoding="UTF-8"?>
<svg id="Layer_2" data-name="Layer 2" xmlns="http://www.w3.org/2000/svg" viewBox="0 0 1616.87 833.69">
  <defs>
    <style>
      .cls-1 {
        fill: #00ffa3;
      }

      .cls-1, .cls-2 {
        stroke-width: 0px;
      }

      .cls-2 {
        fill: #005cf6;
      }
    </style>
  </defs>
  <g id="Layer_1-2" data-name="Layer 1">
    <path class="cls-2" d="M1288.41,344.53l1.1.76-119.24,68.97c-.26.15-.35.49-.2.75.05.08.12.15.2.2l118.19,68.22c.25.15.33.48.18.73-.04.08-.11.14-.18.18l-118.09,68.17c-.84.49-1.68.49-2.52,0l-118.11-68.2c-.24-.14-.32-.44-.19-.68.04-.08.11-.14.19-.19l118.14-68.2c.28-.16.37-.52.21-.79-.05-.09-.12-.16-.21-.21l-118.09-68.17c-.31-.17-.61-.17-.92,0l-118.77,68.56c-.22.13-.51.06-.64-.16-.04-.07-.07-.16-.07-.25V138.63c0-.4.21-.76.55-.95L1167.86.33c.75-.44,1.69-.44,2.45,0,39.41,22.76,78.61,45.4,117.61,67.92.27.15.49.35.68.6.13.17.09.42-.08.54-.01,0-.02.01-.03.02l-118.42,68.36c-.59.35-.96.98-.96,1.67l.22,135.81c0,.69.37,1.33.97,1.68,38.84,22.42,77.83,44.92,116.97,67.5.5.29.88.32,1.14.1Z"/>
    <path class="cls-1" d="M1289.51,345.29l-1.1-.76.18-136.77c0-.53.29-1.02.75-1.29,38.81-22.44,77.91-45,117.3-67.68.49-.29,1.02-.5,1.57-.64.34-.09.69.12.78.46.01.05.02.11.02.16v136.22c0,.98-.52,1.88-1.37,2.37l-118.13,67.93Z"/>
    <path class="cls-2" d="M212.96,716.56c-27.07,2.56-42.94,26.77-38.55,52.65,2.71,15.96,13.6,28.95,29.04,33.89,17.47,5.59,33.97.45,48.5-9.66.22-.15.52-.11.67.11.06.08.09.18.09.28.06,9.43.07,18.95.02,28.56,0,.99-.14,1.67-1.1,2.18-45.07,23.58-101.49-.18-108.29-52.52-1.27-9.74-.95-19.11.95-28.11,10.43-49.4,64.32-69.36,107.7-46.99.52.27.78.69.78,1.28l-.07,28.85c0,.61-.25.74-.75.4-11.68-7.98-24.66-12.28-38.99-10.92Z"/>
    <path class="cls-2" d="M268.32,779.04c-9.82-44.66,17.12-87.58,64.39-90.97,38.69-2.77,71.14,22.25,76.68,60.86,6.88,48.02-27.64,87.85-76.61,84.54-31.27-2.12-57.65-23.4-64.46-54.43ZM317.21,722.1c-17.52,10.78-22.8,32.11-18.32,51.57,6.75,29.28,41.41,42.12,64.97,22.63,20.07-16.6,20.51-52.79,1.21-69.95-13.28-11.8-32.61-13.62-47.86-4.25Z"/>
    <path class="cls-2" d="M722.01,721.02c-2.92,13.81,7.65,21.17,18.5,26.22,7.59,3.54,14.9,7,21.93,10.39,13.14,6.32,24.36,16.09,25.6,31.09,2.26,27.22-18.28,44.22-44.09,44.73-14.54.29-27.86-3.75-39.95-12.13-.62-.43-.99-1.15-.99-1.91v-17.69c0-.24.2-.43.44-.43.11,0,.22.04.3.12,9.07,8.55,19.77,13.62,32.08,15.2,12.69,1.63,27.81-2.32,32.87-15.12,3.96-10.01-.55-19.35-8.94-25.1-13.7-9.39-30.51-13.33-43.47-23.66-7.29-5.82-11.41-12.94-12.35-21.37-1.94-17.39,5.97-31.87,22.25-38.86,16.56-7.11,37.58-4.66,53.53,4.39.71.4,1.06,1.01,1.06,1.82l-.03,16.25c0,.24-.2.43-.44.42-.08,0-.16-.03-.23-.07-10.82-7.29-24.27-11.41-37.14-10.09-9.18.93-18.85,5.95-20.93,15.8Z"/>
    <path class="cls-2" d="M1469.53,810.59c.43-.21.71-.66.71-1.15l-.02-53.72c0-.31.25-.56.55-.56,0,0,0,0,.01,0l15.48.09c.47,0,.71.25.71.72l.06,64.44c0,.55-.29,1.06-.77,1.33-34.7,19.94-80.46,14.87-102.02-21.85-9.66-16.46-11.97-36.24-8.49-54.99,5.8-31.27,31.01-54.44,62.96-56.14,15.59-.83,30.08,2.25,43.48,9.22.67.35,1.09,1.04,1.09,1.8l-.02,16.9c0,.26-.21.47-.47.47-.09,0-.18-.02-.25-.07-27.01-16.58-63.41-16.65-81.84,12.75-10.7,17.08-11,40.56-2.52,58.13,8.58,17.79,25.37,28.26,45.08,28.41,9.54.07,18.3-1.86,26.27-5.78Z"/>
    <path class="cls-2" d="M463.97,781.48c-.32-.03-.54.07-.65.29-.08.15-.12.3-.12.47-.05,15.98-.05,31.86-.02,47.64,0,.38-.31.69-.69.69h0l-29.49-.08c-.35,0-.52-.18-.52-.53v-138.44c0-.32.26-.58.58-.58,0,0,0,0,.01,0,10.67.07,21.52.08,32.53.03,16.62-.06,28.73.03,41.2,5.77,13.09,6.02,20.96,15.91,23.6,29.67,4.88,25.43-8.78,45.67-33.47,52.27-.32.09-.51.43-.42.75.02.08.06.15.11.22l40.87,49.89c.22.26.19.65-.07.87-.11.1-.26.15-.41.15l-34.42-.03c-.85,0-1.65-.4-2.17-1.08l-36.05-47.76c-.1-.13-.24-.2-.4-.21ZM463.21,719.41l-.06,37.98c0,.16.13.29.29.29h0l15.62.03c11.74.02,21.26-7.88,21.28-17.65,0,0,0,0,0,0v-3.18c.01-9.77-9.49-17.7-21.22-17.72l-15.62-.03c-.16,0-.29.13-.29.29Z"/>
    <path class="cls-2" d="M95.08,796.48h-50.87c-.27,0-.51.17-.6.43l-11.66,33.19c-.09.26-.33.43-.6.43H.64c-.35,0-.64-.29-.64-.64,0-.07.01-.15.04-.22l51.71-138.27c.09-.25.33-.42.6-.42h34.43c.27,0,.5.17.6.42l52.45,138.27c.13.33-.04.7-.37.83-.07.03-.15.04-.23.04h-30.89c-.27-.01-.51-.18-.6-.43l-12.06-33.21c-.09-.25-.33-.42-.6-.42ZM52.46,770.68c-.08.21.03.45.25.53.05.02.1.03.14.02h33.44c.23,0,.41-.18.41-.41,0-.05,0-.1-.02-.14l-16.72-46.23c-.07-.22-.3-.33-.52-.26-.12.04-.22.14-.26.26l-16.72,46.23Z"/>
    <path class="cls-2" d="M586.5,741c-.61-.9-.92-.8-.92.29l-.02,88.66c0,.34-.27.61-.61.61h0l-28.03-.02c-.36,0-.65-.3-.65-.66v-138.4c0-.28.22-.5.5-.5h27.74c.92,0,1.78.45,2.3,1.21,19.88,28.97,39.79,57.97,59.74,86.98.11.15.25.24.42.29.13.03.26-.04.29-.17,0-.02,0-.04,0-.06v-87.75c0-.27.22-.49.5-.49h27.71c.52,0,.95.43.95.95v138.01c.01.36-.28.65-.64.65l-27.28-.07c-.61,0-1.18-.3-1.52-.81l-60.49-88.72Z"/>
    <path class="cls-2" d="M862.26,708.36v121.62c-.01.32-.27.58-.59.58l-16.63-.08c-.32,0-.58-.26-.58-.58h0v-121.56c0-.32-.26-.58-.58-.58h-42.69c-.32,0-.58-.25-.58-.57l-.08-15.31c0-.32.26-.58.58-.58h0l104.13.04c.32,0,.58.26.58.58h0s-.06,15.26-.06,15.26c0,.32-.26.58-.58.58l-42.34.02c-.32,0-.58.26-.58.58h0Z"/>
    <path class="cls-2" d="M970.44,773.98c-.81.04-.94.36-.4.96l49.84,54.73c.19.21.18.54-.03.73-.09.09-.22.13-.35.14h-20.48c-.66-.01-1.29-.3-1.73-.8l-49.06-55.26c-.04-.05-.09-.09-.15-.12-1.14-.65-1.71-.4-1.71.75.02,17.51.01,35.79-.02,54.83,0,.34-.27.61-.61.61l-16.54-.05c-.33,0-.59-.26-.59-.59h0v-138.21c0-.21.17-.38.37-.38,8.51-.04,17.11-.04,25.8,0,10.94.05,17.27.17,19,.37,16.73,1.96,31.51,8.82,37.92,24.95,2.35,5.9,3.28,12.38,2.79,19.45-1.67,24.17-21.51,36.76-44.05,37.89ZM946.42,708.24l-.08,50.5c0,.2.16.36.36.36h0l22.17.04c15.26.03,27.65-10.59,27.67-23.71h0v-3.71c.02-13.12-12.33-23.77-27.59-23.8l-22.17-.04c-.2,0-.36.16-.36.36Z"/>
    <path class="cls-2" d="M1045.98,830.59l-17.21-.09c-.36,0-.66-.3-.66-.66,0-.08.02-.16.05-.24l54.15-137.91c.1-.26.35-.42.62-.42l18.86.07c.27,0,.51.17.61.42l54.49,137.84c.13.34-.04.72-.37.85-.07.03-.15.04-.24.05l-17.6.03c-.27,0-.51-.17-.61-.42l-15.89-41.28c-.1-.25-.34-.42-.61-.42l-58.44.02c-.27,0-.51.17-.61.42l-15.92,41.32c-.1.26-.35.42-.62.42ZM1068.68,771.89c-.09.24.03.5.27.59.05.02.1.03.16.03h46.3c.25,0,.46-.21.46-.46,0-.05,0-.11-.03-.16l-23.15-59.37c-.09-.24-.36-.36-.59-.27-.12.05-.22.14-.27.27l-23.15,59.37Z"/>
    <path class="cls-2" d="M1211.31,708.31c-.13,2.19-.19,4.3-.2,6.33-.01,38.83-.02,77.22-.01,115.17,0,.43-.34.77-.77.77,0,0,0,0,0,0l-16.38-.08c-.33,0-.6-.27-.6-.6h0s-.03-121.5-.03-121.5c0-.41-.21-.62-.62-.62l-42.66-.03c-.28,0-.51-.23-.51-.51h0v-15.22c0-.48.24-.72.71-.72l103.84.02c.47,0,.7.24.7.71l-.02,15.08c0,.34-.27.62-.61.62l-42.38.15c-.28,0-.43.14-.45.43Z"/>
    <path class="cls-2" d="M1295.27,708.34v42.98c0,.31.25.56.56.56h53.44c.31,0,.56.25.56.56h0s-.09,14.47-.09,14.47c0,.31-.25.56-.56.56h-53.35c-.31,0-.56.25-.56.56h0s.01,45.62.01,45.62c0,.31.25.56.56.56l57.63.02c.31,0,.56.25.56.56h0s-.07,15.2-.07,15.2c0,.31-.25.56-.56.56l-75.31-.03c-.31,0-.56-.25-.56-.56v-138.11c-.01-.31.24-.56.55-.56h0l75.38.05c.31,0,.56.25.56.56h0s-.04,15.29-.04,15.29c0,.31-.25.56-.56.56l-57.59.03c-.31,0-.56.25-.56.56h0Z"/>
    <path class="cls-2" d="M1557.95,754.93c.15.05.32-.01.41-.15l38.9-62.82c.27-.45.76-.72,1.29-.71l17.82.12c.28,0,.5.22.5.5,0,.1-.03.19-.08.27l-49.34,77.75c-.76,1.22-1.17,2.62-1.17,4.06v56.06c-.01.32-.27.58-.59.58l-16.04-.11c-.34,0-.62-.28-.62-.62v-55.92c-.01-1.43-.42-2.83-1.18-4.03l-49.46-77.54c-.45-.71-.25-1.06.58-1.06l17.75-.02c.65,0,1.26.34,1.61.89,13.45,21.58,26.39,42.3,38.84,62.16.18.29.44.48.78.59Z"/>
  </g>
</svg>