<?xml version="1.0" encoding="UTF-8"?>
<svg id="Layer_2" data-name="Layer 2" xmlns="http://www.w3.org/2000/svg" viewBox="0 0 265.78 42">
  <defs>
    <style>
      .cls-1 {
        stroke-width: 0px;
      }
    </style>
  </defs>
  <g id="Layer_1-2" data-name="Layer 1">
    <path class="cls-1" d="M149.91,0h1.89c.07.7-.37,1.25-1.34,1.64-.69.29-.67.47.08.56l1.11.14c.22.03.4.17.48.37.15.39.06.6-.25.65-.88.13-1.71.18-2.48.13-.37-.02-.54-.21-.51-.57.06-1.07.4-2.04,1.02-2.92Z"/>
    <path class="cls-1" d="M220.84,0h1.49c.23.51-.18,1.02-1.25,1.53-.55.27-.53.49.05.67.27.09.54.06.79-.09.22-.12.49-.05.61.17.04.08.06.17.06.26l-.07.66c-.03.27-.28.47-.56.44-.04,0-.08-.01-.11-.03-.53-.2-1.06-.22-1.59-.06-.5.15-.75-.03-.74-.56.02-1.28.46-2.28,1.32-2.99Z"/>
    <path class="cls-1" d="M265.78,1.63v10.34c-.67,2.46-2.37,3.5-5.12,3.12-1.8-.25-2.8-1.06-3.01-2.45-.06-.39-.26-.5-.61-.34-1.7.78-3.26,2.02-5.06,2.5-2.29.61-4.66.66-7.1.14-.37-.08-.67-.28-.88-.6l-.33-.52c-.27-.41-.52-.4-.77.02-1.18,2.03-5.85,1.49-7.91,1.34-.98-.07-1.39-.57-2.09-1.15-.24-.2-.51-.29-.82-.28-1.69.07-4.22.03-4.81-1.94-.84-2.8,2.06-4.35,4.31-4.96.43-.11.66-.39.67-.84l.04-1.04c.01-.34.19-.5.52-.49l.8.04c.36.01.54.2.54.56v6.44c0,.91.72,1.65,1.63,1.69,1.69.07,3.27.07,4.74,0,1.99-.11,2.73-1.21,2.21-3.3-.09-.37.04-.64.39-.81.25-.12.52-.17.81-.14.42.05.72.42.67.84,0,.03,0,.06-.01.08-.46,2.19.4,3.33,2.59,3.42,3.15.13,5.71-.44,7.68-1.73.45-.29.42-.53-.09-.71-1.66-.59-3.33-.88-5.01-.88-.43,0-.77-.35-.77-.78,0,0,0,0,0-.01v-.37c.03-.61.34-.9.95-.85,1.81.13,3.47.24,5.35,1,1.49.6,3.02.86,4.61.77.33-.02.54.14.62.47.08.37.08.74.01,1.12-.05.22-.17.37-.38.46-.17.07-.35.07-.54,0-.33-.13-.46-.02-.4.33.05.25.19.43.42.54,1.45.73,2.64.8,3.57.21.37-.23.55-.56.56-.99l.07-10.26c0-.39.17-.68.5-.88.18-.11.37-.15.58-.11.27.05.46.2.56.47.08.23.18.4.31.53ZM231.69,8.64c-1.23.53-2.14.38-2.91,1.67-.25.44-.1,1,.33,1.26.13.07.27.12.42.12l2.08.09c.34.02.63-.25.65-.59,0-.01,0-.02,0-.03v-2.15c0-.41-.19-.54-.57-.37Z"/>
    <path class="cls-1" d="M127.78,12.73c0,.52.24.7.73.53l.88-.3c.68-.23,1.13-.87,1.14-1.59V1.25c0-.28.22-.5.5-.5h.96c.25,0,.45.21.46.46l.02,10.26c0,.98.8,1.77,1.78,1.77h7.1c.49.01.9-.15,1.25-.48l.5-.48c.13-.12.14-.32.02-.45-.07-.08-.18-.12-.29-.11-2.79.39-4.41-.22-4.86-1.82-.71-2.54.22-4.14,2.79-4.8,4.89-1.27,5.94,10.06,1.04,10.17-3.23.07-8,.55-10.43-1.62-.24-.22-.45-.19-.63.08-1.4,2.16-5.15,1.55-7.39,1.51-.33,0-.48-.17-.47-.5l.03-.94c.01-.31.26-.56.57-.55h1.86c.38,0,.57-.18.57-.56l-.02-8.49c0-.47.23-.7.69-.71h.44c.51,0,.76.24.76.75v8.49ZM140.76,7.05c-.75.03-1.34.66-1.31,1.41.01.36.17.69.43.94.67.63,1.64.82,2.89.57.35-.07.5-.29.44-.64-.26-1.57-1.08-2.33-2.45-2.28Z"/>
    <path class="cls-1" d="M151.3,12.42c0,.82.38,1.08,1.15.78l.37-.14c.84-.33,1.26-.95,1.26-1.85l.02-10c0-.31.16-.46.47-.46h.97c.33.02.49.18.49.51v9.86c0,1.42.71,2.13,2.12,2.13h.57c.93,0,1.68-.75,1.68-1.68V1.06c.01-.17.15-.31.32-.31l1.29.02c.14,0,.26.12.26.26h0c.02,3.25.02,6.65,0,10.18-.02,4.23-5.07,5.39-7.4,2.66-.33-.38-.62-.35-.87.08l-.31.52c-.27.45-.67.69-1.2.7l-5.59.11c-.28,0-.42-.13-.41-.41v-1.35c0-.17.09-.25.26-.26h2.01c.49-.02.73-.26.73-.75v-7.5c0-.35.17-.52.52-.51l.68.03c.41.02.61.23.61.64v7.25Z"/>
    <path class="cls-1" d="M192.81,9.56c2.62-2.7,8.12-3.66,8.48,1.45.19,2.67-1.2,4.06-4.18,4.15-3.87.11-8.25.14-13.15.08-2.93-.03-4.28-1.41-4.07-4.13.03-.39-.15-.59-.54-.6-1.22-.07-2.33-.04-3.32.09-.68.09-1.13.48-1.34,1.18,0,.02-.04.14-.1.36-.19.64.04.94.71.9,2.4-.15,3.66.72,3.78,2.63.4,6.07-14.77,7.41-11.77-3.36.13-.49.46-.71.97-.65l.39.04c.29.03.4.19.33.47-.6,2.51-.17,4.28,1.29,5.33,1.78,1.27,5.34.88,6.79-.77.81-.91.61-1.45-.59-1.64-.94-.15-1.9-.16-2.89-.03-.43.07-.67-.12-.7-.56-.47-6.5,3.08-6.27,8.09-6.26.35,0,.53.17.53.52l.03,2.88c.01,1.07.55,1.6,1.62,1.6h5.35c1.17.02,1.75-.56,1.75-1.73V1.25c0-.34.17-.51.51-.5l.96.02c.29,0,.43.15.42.44l-.02,8.08c0,.65.22.74.67.27ZM198.25,9.69c-2.73-.67-4.79,1.13-6.46,3.08-.28.33-.2.5.23.49l6.26-.03c.81,0,1.46-.65,1.46-1.45h0c0-1.15-.5-1.84-1.49-2.09Z"/>
    <circle class="cls-1" cx="141.27" cy="2.08" r="1.05"/>
    <path class="cls-1" d="M231.51,1.49l.58-.32c.38-.21.73-.17,1.04.14.2.2.35.43.45.69.14.36.06.66-.25.89-.5.38-1.01.42-1.53.11-.34-.21-.67-.19-.99.06-.35.27-.68.26-1.01-.03-.2-.17-.29-.39-.28-.66.01-.36.12-.69.31-.99.24-.37.53-.43.88-.16l.31.24c.15.11.32.12.49.03Z"/>
    <ellipse class="cls-1" cx="195.84" cy="4.42" rx="1.13" ry=".99" transform="translate(.41 17.77) rotate(-5.2)"/>
    <rect class="cls-1" x=".03" y="3.53" width="11.88" height="11.72" rx=".35" ry=".35"/>
    <rect class="cls-1" x="20.83" y="3.52" width="56.46" height="11.74" rx=".36" ry=".36"/>
    <rect class="cls-1" x="86.28" y="3.57" width="11.8" height="11.68" rx=".35" ry=".35" transform="translate(-.02 .16) rotate(-.1)"/>
    <rect class="cls-1" x="215.72" y="9.06" width="10.64" height="1.74" rx=".41" ry=".41" transform="translate(210.73 230.95) rotate(-89.9)"/>
    <path class="cls-1" d="M244.34,5.55c.4.25.52.78.27,1.19-.08.12-.18.22-.31.29-.54.29-1.04.27-1.49-.08-.26-.2-.34-.57-.2-.87.4-.83.98-1,1.73-.53Z"/>
    <path class="cls-1" d="M114.59,14.02c-1.94,1.22-4.37,1.59-7.28,1.1-.19-.03-.28-.13-.27-.32l.03-1.28c0-.17.09-.26.26-.26l5.32-.02c.5,0,.9-.2,1.19-.61l2.71-3.78c.68-.95,2.01-1.16,2.96-.48.15.11.29.24.41.39,3.07,3.83.47,9.38-4.47,5.31-.27-.22-.56-.24-.86-.05ZM118.53,9.98c-.1-.19-.34-.26-.53-.16-.03.02-.06.04-.09.06-.59.57-1.05,1.21-1.38,1.94-.15.33-.07.58.25.75l1.64.85c.45.24,1.02.07,1.26-.38.15-.28.15-.61,0-.88l-1.15-2.18Z"/>
    <path class="cls-1" d="M207.88,15.2c-1.85.39-3.1-.1-3.77-1.45-.75-1.55-.68-4.34,1.15-5.27,3.11-1.57,5.49.88,5.44,3.94-.01.57.26.85.83.84l2.99-.04c.74,0,1.34-.61,1.33-1.35,0-.04,0-.07,0-.11l-.27-3.02c-.01-.14.05-.21.2-.22h1.05c.15,0,.28.09.33.23.89,2.74.5,4.69-1.17,5.86-1.33.94-3.33.6-4.91.62-.32,0-.6.19-.73.48-1.07,2.37-3.21,3.53-6.43,3.48-.57,0-.87-.3-.88-.87v-.54c-.03-.63.27-.9.9-.81,1.97.29,3.42-.07,4.34-1.06.6-.65.47-.89-.4-.71ZM206.37,13.05c.76.21,1.55.28,2.38.21.22-.01.33-.13.34-.36.05-1.05-.3-1.89-1.04-2.52-1.01-.86-2.62-.17-2.74,1.17-.06.69.39,1.32,1.06,1.5Z"/>
    <path class="cls-1" d="M214.91,17.06c.39-.23.68-.15.89.26.23.45.25.92.07,1.41-.15.39-.58.6-.97.46-.09-.03-.16-.08-.23-.14l-.66-.56c-.43-.35-.4-.67.08-.96l.82-.47Z"/>
    <circle class="cls-1" cx="253.87" cy="18.08" r="1.07"/>
    <circle class="cls-1" cx="180.63" cy="21.64" r="1.05"/>
    <path class="cls-1" d="M173.61,22.52c.07-.23.22-.39.45-.47.3-.09.55-.02.74.22.44.54.5,1.1.18,1.67-.17.31-.56.42-.87.26-.05-.03-.09-.06-.13-.1-.45-.43-.93-.44-1.42-.04-.3.25-.6.26-.91.03-.47-.35-.6-.78-.37-1.3.21-.51.58-.77,1.09-.8.25,0,.41.11.48.35.05.17.16.3.33.37.16.07.35,0,.42-.17,0,0,0-.02,0-.02Z"/>
    <path class="cls-1" d="M94.64,27.57c-.03-.26.16-.5.43-.53,0,0,.02,0,.02,0l.93-.05c.53-.03.79.22.78.75v1.01c-.02.28-.24.51-.52.51h-.99c-.28,0-.51-.22-.54-.5l-.11-1.19Z"/>
    <path class="cls-1" d="M118.02,29.22c-.1.09-.19.11-.27.06-.57-.37-.75-1.13-.39-1.7.12-.19.29-.34.5-.44.49-.23.93-.19,1.33.11.26.19.38.51.32.83-.22,1.23-.59,1.61-1.1,1.15-.13-.11-.26-.12-.39-.01Z"/>
    <path class="cls-1" d="M153.63,30.85c-1.58,2.7-1.17,8.31,2.83,9.03,2.37.43,3.92-.37,4.64-2.4.11-.33.34-.49.69-.48h.95c.39.02.52.21.41.58-.79,2.54-2.35,3.9-4.7,4.09-3.87.31-6.4-1.41-7.57-5.15-.53-1.67.11-5.3,1.17-6.67,2.91-3.75,9.61-4.11,11.06,1.22.07.27-.02.46-.28.55-.37.14-.76.18-1.16.13-.33-.05-.55-.22-.68-.53-1.38-3.28-5.68-3.22-7.36-.37Z"/>
    <path class="cls-1" d="M216.01,29.33c-1.34.11-1.81-.44-1.4-1.65.23-.68.75-.91,1.55-.68.33.09.58.37.62.72.05.33.03.66-.04.97-.08.4-.32.61-.73.64Z"/>
    <path class="cls-1" d="M241.05,29.37c-.99,0-1.44-.46-1.37-1.41.03-.41.21-.69.52-.84.35-.17.73-.21,1.14-.12.35.07.57.28.66.62.09.33.12.61.09.84-.08.61-.43.91-1.04.91Z"/>
    <path class="cls-1" d="M3.17,38.27l-1.16,2.92c-.06.16-.2.26-.37.27l-1.2.07c-.23.01-.43-.17-.44-.4,0-.06,0-.12.03-.18l5.42-13.44c.06-.17.22-.27.4-.27l2.03.04c.17,0,.32.11.38.26l5.34,13.41c.09.21-.01.46-.23.55-.06.02-.12.03-.18.03l-1.22-.08c-.16-.01-.3-.11-.36-.26l-1.21-2.93c-.07-.16-.22-.26-.39-.26H3.56c-.17,0-.33.11-.39.27ZM4.23,35.54c-.07.17,0,.36.17.43.04.02.08.03.13.03h4.5c.18.01.33-.14.33-.32,0-.04,0-.08-.02-.12l-2.23-5.66c-.07-.17-.26-.25-.43-.19-.08.03-.15.1-.18.18l-2.27,5.65Z"/>
    <path class="cls-1" d="M18.12,32.28c1.57-1.11,3.19-1.26,4.86-.43,4.48,2.22,2.51,12.59-4.46,9.15-.37-.18-.7-.14-1.01.13-.43.36-.92.49-1.48.39-.3-.05-.45-.23-.45-.53v-13.25c0-.25.2-.46.46-.47l.98-.03c.34-.01.51.15.51.5v4.24c-.01.49.19.59.59.3ZM20.51,40.27c1.65-.01,2.97-1.7,2.95-3.78h0c-.02-2.07-1.37-3.74-3.01-3.72h0c-1.65.01-2.97,1.7-2.95,3.78,0,0,0,0,0,0,.02,2.07,1.37,3.74,3.01,3.72h0Z"/>
    <path class="cls-1" d="M45.02,27.69c0-.22.18-.4.4-.4h4.88c3.55-.02,6.42,2.89,6.43,6.49v1.26c0,3.6-2.86,6.51-6.41,6.52,0,0,0,0,0,0h-4.88c-.22,0-.4-.17-.4-.39h0s-.02-13.48-.02-13.48ZM47.05,29.73l-.02,9.54c0,.28.23.51.51.51h2.77c2.57.02,4.66-2.28,4.67-5.12v-.28c0-2.84-2.08-5.14-4.65-5.15,0,0,0,0,0,0h-2.77c-.28-.01-.51.22-.51.5Z"/>
    <path class="cls-1" d="M62.03,32.29c2.39-1.57,4.39-1.34,5.98.69.27.35.41.75.42,1.19l.1,6.83c0,.35-.16.52-.51.51l-1-.03c-.33,0-.49-.17-.49-.49v-5.73c0-1.23-.58-2.04-1.74-2.45-.27-.09-.55-.1-.83-.02-1.61.49-2.44,1.47-2.49,2.95-.05,1.68-.05,3.43.01,5.25.01.35-.16.52-.51.51h-.95c-.33-.02-.49-.18-.49-.51v-12.98c0-.5.25-.75.74-.76h.47c.48-.01.72.23.71.71v4.01c-.02.47.18.58.58.32Z"/>
    <path class="cls-1" d="M84.99,32.27c2.68-1.98,6.4-.75,7.06,2.56.47,2.31,0,4.25-1.4,5.84-1.5,1.7-3.56,1.03-5.35.35-.31-.12-.66-.07-.93.14-.37.29-.81.42-1.32.39-.36-.02-.54-.21-.54-.58v-13.2c0-.33.17-.5.5-.51l.83-.02c.38,0,.57.18.57.57l-.02,4.15c0,.5.19.6.6.31ZM87.44,40.26c1.65-.03,2.96-1.74,2.92-3.81-.04-2.07-1.41-3.72-3.06-3.69-1.65.03-2.96,1.74-2.92,3.81.04,2.07,1.41,3.72,3.06,3.69Z"/>
    <path class="cls-1" d="M107.25,29.59v3.82c.01.19.16.34.35.34h6.32c.19,0,.34.16.34.35,0,.01,0,.02,0,.03l-.08,1.04c-.02.17-.16.31-.33.31l-6.26.02c-.19,0-.34.15-.34.34v5.3c.01.19-.14.34-.33.34h0l-1.34.02c-.19,0-.34-.15-.34-.34h0s.01-13.57.01-13.57c0-.19.15-.34.34-.34h9.36c.19,0,.34.15.34.34h0s-.02,1.32-.02,1.32c0,.19-.15.34-.34.34h-7.34c-.19,0-.34.15-.34.34Z"/>
    <rect class="cls-1" x="116.33" y="33.64" width="14.24" height="1.58" rx=".26" ry=".26" transform="translate(88.59 157.76) rotate(-89.8)"/>
    <path class="cls-1" d="M170.03,41.78c-2.71,0-4.91-2.4-4.9-5.36h0c0-2.95,2.21-5.35,4.92-5.34,2.71,0,4.91,2.4,4.9,5.36h0c0,2.95-2.21,5.35-4.92,5.34ZM170.09,40.26c1.58-.02,2.84-1.73,2.82-3.83-.02-2.1-1.32-3.79-2.9-3.77h0c-1.58.02-2.84,1.73-2.82,3.83.02,2.1,1.32,3.79,2.9,3.77h0Z"/>
    <path class="cls-1" d="M179.79,32.2c2.03-1.57,3.99-1.48,5.88.27.23.21.45.21.67-.01,2.38-2.3,6.58-1.72,6.65,2.06.05,2.15.06,4.31.05,6.48,0,.33-.18.5-.51.5h-.97c-.31-.02-.46-.17-.46-.47v-6.5c0-.75-.48-1.42-1.19-1.66-.67-.21-1.29-.21-1.87.02-1.19.47-1.79,1.35-1.79,2.64v5.49c0,.32-.17.48-.49.48h-.98c-.33,0-.5-.17-.5-.5v-5.76c0-1.61-.81-2.45-2.42-2.5-.41-.01-.8.15-1.15.5-.86.85-1.29,1.88-1.3,3.09l-.02,4.81c0,.25-.13.38-.38.37l-1.13-.03c-.25,0-.37-.13-.37-.38v-9.28c.01-.37.19-.58.56-.63.78-.11,1.24.19,1.37.88.05.23.16.28.35.13Z"/>
    <path class="cls-1" d="M198.52,32.09c1.93-1.49,3.8-1.38,5.61.32.31.29.61.27.88-.06.27-.33.62-.59,1.05-.78,6.78-2.95,5.69,6.16,5.58,9.4-.01.37-.21.55-.58.54l-.8-.02c-.33,0-.5-.18-.5-.51v-5.76c0-1.33-.64-2.16-1.94-2.48-.86-.21-1.79.46-2.79,1.99-.15.23-.23.51-.23.78v5.48c0,.33-.17.5-.51.51h-.76c-.34.01-.62-.27-.63-.61v-6.29c0-.56-.27-1.08-.73-1.39-1-.69-2.06-.66-3.17.07-.59.39-.95,1.06-.96,1.77l-.02,5.95c0,.33-.16.49-.49.49h-.99c-.33,0-.49-.16-.49-.48l.04-9.23c0-.36.29-.65.65-.66.6,0,.99.26,1.18.79.12.34.32.4.6.18Z"/>
    <path class="cls-1" d="M222,39.9c1.21.34,2.1.27,2.66-.22,1.16-1.01.99-1.68-.52-2.01-1.23-.26-2.37-.66-3.41-1.21-1.53-.81-1.81-3.13-.44-4.21,2.06-1.61,6.52-1.78,6.92,1.56.06.47-.15.7-.62.7h-.51c-.32,0-.56-.15-.73-.43-.87-1.47-1.94-1.77-3.22-.88-1.31.91-1.2,1.58.33,2.02.89.25,1.79.49,2.72.72,2.82.69,2.68,4.53-.03,5.37-2.43.77-5.35.44-6.04-2.42-.09-.37.06-.58.43-.65.9-.17,1.5.18,1.8,1.03.11.33.33.54.66.63Z"/>
    <path class="cls-1" d="M232.29,35.22c1.01.18,2.02.43,3.05.76,2.45.78,2.74,4.2.33,5.14-3.06,1.19-5.2.56-6.43-1.87-.26-.51-.11-.83.45-.95l.3-.06c.52-.11.9.07,1.13.55.65,1.29,1.82,1.64,3.52,1.03.34-.12.56-.36.65-.71.21-.77-.09-1.25-.9-1.44-1.1-.25-2.15-.59-3.16-1-5.2-2.11,2-9.08,5.99-3.58.31.42.21,1.01-.21,1.31-.14.1-.3.16-.47.18-.6.05-1.01-.2-1.23-.75-.11-.28-.3-.5-.56-.67-1.01-.63-1.99-.55-2.94.23-.44.36-.51,1.02-.15,1.46.16.19.38.32.63.37Z"/>
    <path class="cls-1" d="M249.22,41.78c-2.71-.04-4.87-2.47-4.83-5.43.05-2.95,2.28-5.31,4.99-5.27,2.71.04,4.87,2.47,4.83,5.43-.05,2.95-2.28,5.31-4.99,5.27ZM249.31,40.24c1.58,0,2.86-1.71,2.85-3.8h0c0-2.1-1.29-3.8-2.87-3.8-1.58,0-2.86,1.71-2.85,3.8h0c0,2.1,1.29,3.8,2.87,3.8Z"/>
    <path class="cls-1" d="M265.78,34.37v6.88c-.5.29-.99.36-1.48.23-.35-.09-.52-.32-.52-.68v-5.66c0-1.27-.62-2.07-1.86-2.38-.73-.18-1.56.12-2.47.91-.48.41-.75,1-.76,1.63l-.04,5.66c0,.38-.2.56-.58.55l-.8-.02c-.28,0-.5-.23-.5-.5v-8.98c0-.51.42-.92.94-.91.11,0,.22.02.32.06.33.13.52.34.58.63.11.52.39.63.82.32l.91-.65c.05-.04.11-.07.17-.09,2.82-.88,4.58.12,5.27,3Z"/>
    <path class="cls-1" d="M77.03,40.64c-5.69,4.83-9.84-6.09-.45-5.12.83.09,1.09-.26.8-1.04l-.21-.56c-.24-.65-.84-1.09-1.53-1.13-1-.07-1.8.27-2.41,1-.22.27-.5.42-.84.46-.25.03-.51.03-.76,0-.24-.03-.41-.26-.38-.5,0-.03,0-.05.02-.08,1.14-3.64,7.85-3.09,8.04,1.04.11,2.23.13,4.34.07,6.33,0,.33-.28.59-.6.59-.03,0-.05,0-.08,0-.55-.07-.91-.35-1.09-.83-.13-.32-.32-.37-.58-.15ZM73.81,37.29c-.65.19-1.06.82-.96,1.49.13.87.63,1.34,1.51,1.42,1.7.16,2.78-.68,3.24-2.52.07-.27-.1-.55-.37-.62-.02,0-.03,0-.05-.01-1.13-.17-2.25-.09-3.37.24Z"/>
    <rect class="cls-1" x="90.62" y="35.53" width="10.28" height="1.96" rx=".65" ry=".65" transform="translate(59.08 132.21) rotate(-89.9)"/>
    <rect class="cls-1" x="117.51" y="31.39" width="1.7" height="10.04" rx=".43" ry=".43" transform="translate(-.13 .41) rotate(-.2)"/>
    <path class="cls-1" d="M129.97,32.36c1.86-1.42,3.76-1.36,5.7.18.25.2.48.19.7-.04,1.57-1.63,5.05-1.8,6.25.51.92,1.78.43,6.05.46,8.03,0,.33-.16.49-.49.47l-.97-.04c-.24-.01-.36-.14-.36-.38l-.04-6.1c-.01-1.67-.85-2.39-2.5-2.15-.23.03-.46.11-.67.23-1.17.65-1.76,1.65-1.76,3v4.8c0,.41-.22.62-.63.63h-.69c-.37,0-.56-.19-.56-.56l-.02-5.78c0-1.76-.88-2.53-2.63-2.3-.24.03-.47.13-.69.29-.98.68-1.49,1.62-1.52,2.81l-.15,4.88c-.01.38-.33.68-.71.67h-.39c-.33,0-.59-.28-.6-.61l-.14-8.72c0-.45.21-.69.65-.73.68-.07,1.13.19,1.35.79.09.23.22.27.41.12Z"/>
    <rect class="cls-1" x="210.57" y="35.49" width="10.18" height="1.86" rx=".37" ry=".37" transform="translate(178.49 251.95) rotate(-89.8)"/>
    <rect class="cls-1" x="239.98" y="31.3" width="1.84" height="10.22" rx=".41" ry=".41"/>
    <path class="cls-1" d="M36.09,42h-.53c-.51-.24-.84-.64-.99-1.19-.08-.28-.24-.34-.48-.17l-1.94,1.36h-2.09c-3.07-1.73-2.38-5.99-2.25-9.79.01-.48.26-.72.75-.72h.45c.49,0,.74.24.75.74l.02,6.13c0,1.09.54,1.69,1.62,1.81.19.03.37.05.56.06,1.32.14,2.5-.82,2.64-2.14,0-.07.01-.15.01-.22l.06-6.07c0-.13.1-.23.23-.24l1.19-.07c.16-.01.29.1.31.26.37,3.67.27,7.09-.31,10.25Z"/>
  </g>
</svg>