<?xml version="1.0" encoding="UTF-8"?><svg id="Layer_2" xmlns="http://www.w3.org/2000/svg" viewBox="0 0 273.43 84.88"><defs><style>.cls-1{fill:#00aeef;}.cls-1,.cls-2{stroke-width:0px;}.cls-2{fill:#005baa;}</style></defs><g id="English"><path class="cls-1" d="M130.19,32.65l-6.51-6.53-6.56,6.5-6.54-6.53L136.72,0l26.13,26.11-6.51,6.5-6.5-6.5-6.57,6.58,6.5,6.49-6.5,6.5-6.67-6.5-6.41,6.5-6.55-6.48,6.55-6.56M136.72,26.07l6.5-6.5-6.5-6.5-6.5,6.5,6.5,6.5"/><path class="cls-2" d="M14.16,63.09v8.71h-3.3l3.3-8.71ZM14.16,84.85h6.53v-26.11h-11.98L0,84.85h6.53l3.26-8.68h4.38v8.68ZM109.95,84.85v-17.4h-15.24l-2.19,4.34v8.72l2.19,4.34h15.24ZM99.05,80.51v-8.72h4.37v8.72h-4.37ZM30.48,84.85v-26.11h-6.53v26.11h6.53ZM139.33,71.8v13.06h-6.53v-13.06h-3.26v13.06h-6.53v-17.4h23.95l2.16,4.34v13.06h-6.53v-13.06h-3.26ZM119.74,84.85v-17.4l-6.53-.03v17.43h6.53ZM119.74,63.09v-4.34h-6.53v4.34h6.53ZM39.2,76.14v-4.38h-6.53v4.38h6.53ZM92.52,67.46v4.34h-3.27v13.06h-6.53v-13.06h-3.26v13.06h-6.53v-13.06h-3.26v13.06h-15.24l-2.19-4.34v-8.72h-4.37v13.06h-6.53v-26.11h17.43v4.34h-10.9v4.37h10.9v13.06h4.34v-13.06h9.82v-4.37h6.53v4.37h3.26v-4.37h6.53v4.37h3.27Z"/><path class="cls-2" d="M176.38,71.82v13.05h-6.53v-13.05h-3.27v13.05h-6.53v-17.42h23.96l2.18,4.35v13.07h-6.54v-13.05h-3.27Z"/><path class="cls-2" d="M194.94,80.52v-8.71h4.35v8.71h-4.35ZM190.59,84.88h13.05l2.18-4.35v-8.71l-2.18-4.35h-13.05l-2.18,4.35v8.71l2.18,4.35Z"/><path class="cls-2" d="M209.08,63.1h6.53v4.36h3.26v4.35h-3.26v13.07h-6.53v-13.07h-3.27v-4.35h3.27v-4.36Z"/><path class="cls-2" d="M225.45,80.52v-8.71h4.35v8.71h-4.35ZM221.1,84.88h13.05l2.18-4.35v-8.71l-2.18-4.35h-13.05l-2.18,4.35v8.71l2.18,4.35Z"/><path class="cls-2" d="M248.37,78.35v-6.53h-3.27v13.05h-6.53v-17.42h14.16l2.18,4.35v6.55h-6.55Z"/><path class="cls-2" d="M273.43,71.81h-9.82v2.18h9.82v6.53l-2.18,4.35h-14.16v-4.35h9.82v-2.18h-9.82v-6.53l2.18-4.35h14.16v4.35Z"/></g></svg>