<?xml version="1.0" encoding="UTF-8"?><svg id="Layer_2" xmlns="http://www.w3.org/2000/svg" viewBox="0 0 1764 169.35"><defs><style>.cls-1{fill:#ffca03;}.cls-1,.cls-2{fill-rule:evenodd;}.cls-1,.cls-2,.cls-3{stroke-width:0px;}</style></defs><g id="Layer_1-2"><polygon class="cls-1" points="27.7 163.26 102.85 33.51 177.99 163.26 205.7 163.26 114.67 6.1 91.02 6.1 0 163.26 27.7 163.26"/><rect class="cls-3" x="1522.61" y="6.45" width="29.93" height="156.45"/><path class="cls-3" d="M1324.82,162.9V.33l117.23,95.58c3.18,2.7,6.41,5.58,9.72,8.64,3.27,3.06,6.71,6.53,10.32,10.36V6.46h27.61v162.57l-119.51-97.37c-3.18-2.66-6.28-5.43-9.25-8.35-3.01-2.92-5.8-5.98-8.51-9.19v108.78h-27.61Z"/><path class="cls-3" d="M1032.21,85.77c-.34-1.2-.9-4.56-1.63-10.03-.69-4.56-1.29-8.35-1.76-11.34-.77,3.57-1.85,7.15-3.22,10.69-1.38,3.57-3.14,7.18-5.25,10.9l-48.25,83.37c-16.54-29.16-40.28-65.54-53.5-95.22-1.46-3.28-2.75-6.53-3.83-9.74-.19,7.34-1.45,14.52-3.4,21.59l-19.78,77.02h-27.61L907.58,0l54.44,98.72c.82,1.53,2.11,4.16,3.83,7.77,1.72,3.65,3.79,8.13,6.24,13.46,1.76-4.49,4.56-10.17,8.34-17.07.99-1.86,1.76-3.28,2.24-4.27L1035.87,0l44.6,163.01h-27.87l-20.39-77.24Z"/><polygon class="cls-3" points="798.77 28.12 798.77 162.9 768.84 162.9 768.84 28.12 719.81 28.12 719.81 6.45 847.54 6.45 847.54 28.12 798.77 28.12"/><path class="cls-3" d="M639.91,91.72c25.5-2.59,42.3-15.14,42.3-42.18,0-7.16-1.54-13.68-4.66-19.67-3.12-5.99-7.53-10.89-13.24-14.65-4.78-3.16-10.52-5.38-17.28-6.72-6.8-1.34-16.31-2.02-28.54-2.02h-41.81v156.41h28.13v-69.99h3.36l61.41,69.99h33.8l-63.47-71.16ZM604.81,73.3V28.33c11.05,0,29.23-.49,38.29,5.3,5.63,3.52,8.42,9.59,8.42,18.18,0,8.02-2.63,13.56-7.85,16.68-8.14,4.9-28.5,4.66-38.86,4.82Z"/><path class="cls-3" d="M343.88,29.14c-3.32-6.11-7.85-11.05-13.64-14.65-4.74-2.87-10.28-4.94-16.6-6.19-6.36-1.21-16.27-1.82-29.71-1.82h-45.34v156.41h28.13v-70.23h17.2c13.44,0,23.36-.61,29.71-1.82,6.31-1.21,11.86-3.24,16.6-6.07,5.79-3.56,10.32-8.46,13.64-14.73,3.28-6.27,4.9-13.12,4.9-20.52s-1.62-14.21-4.9-20.36ZM309.52,67.27c-5.55,3.08-16.64,4.61-33.27,4.61h-7.69V28.33h7.69c15.87,0,26.8,1.7,32.67,5.1,5.95,3.44,8.91,9.31,8.91,17.61,0,7.77-2.75,13.2-8.3,16.23Z"/><polygon class="cls-2" points="396.7 165.96 454.8 51.09 512.12 165.96 543.78 165.96 454.54 3.39 365.22 165.96 396.7 165.96"/><polygon class="cls-2" points="1144.84 165.96 1202.94 51.09 1260.27 165.96 1291.92 165.96 1202.69 3.39 1113.36 165.96 1144.84 165.96"/><polygon class="cls-2" points="1616.92 165.96 1675.02 51.09 1732.35 165.96 1764 165.96 1674.76 3.39 1585.44 165.96 1616.92 165.96"/></g></svg>