<?xml version="1.0" encoding="UTF-8"?>
<!DOCTYPE svg PUBLIC "-//W3C//DTD SVG 1.1//EN" "http://www.w3.org/Graphics/SVG/1.1/DTD/svg11.dtd">
<svg xmlns="http://www.w3.org/2000/svg" version="1.1" width="120px" height="120px" style="shape-rendering:geometricPrecision; text-rendering:geometricPrecision; image-rendering:optimizeQuality; fill-rule:evenodd; clip-rule:evenodd" xmlns:xlink="http://www.w3.org/1999/xlink">
<g><path style="opacity:0.004" fill="#feff00" d="M 3.5,-0.5 C 3.83333,-0.5 4.16667,-0.5 4.5,-0.5C 4.5,-0.166667 4.5,0.166667 4.5,0.5C 4.16667,0.166667 3.83333,-0.166667 3.5,-0.5 Z"/></g>
<g><path style="opacity:0.968" fill="#fbc13f" d="M 5.5,-0.5 C 7.5,-0.5 9.5,-0.5 11.5,-0.5C 12.5137,0.673734 13.847,1.3404 15.5,1.5C 15.9731,2.90632 16.9731,3.57298 18.5,3.5C 18.8417,4.33825 19.5084,4.67158 20.5,4.5C 21.8993,5.88972 23.5659,6.88972 25.5,7.5C 25.8417,8.33825 26.5084,8.67158 27.5,8.5C 27.9731,9.90632 28.9731,10.573 30.5,10.5C 30.8417,11.3382 31.5084,11.6716 32.5,11.5C 32.9731,12.9063 33.9731,13.573 35.5,13.5C 35.8417,14.3382 36.5084,14.6716 37.5,14.5C 37.9731,15.9063 38.9731,16.573 40.5,16.5C 40.8417,17.3382 41.5084,17.6716 42.5,17.5C 42.8417,18.3382 43.5084,18.6716 44.5,18.5C 44.9731,19.9063 45.9731,20.573 47.5,20.5C 47.8417,21.3382 48.5084,21.6716 49.5,21.5C 49.9731,22.9063 50.9731,23.573 52.5,23.5C 52.8417,24.3382 53.5084,24.6716 54.5,24.5C 54.9731,25.9063 55.9731,26.573 57.5,26.5C 57.8417,27.3382 58.5084,27.6716 59.5,27.5C 60.8993,28.8897 62.5659,29.8897 64.5,30.5C 64.8417,31.3382 65.5084,31.6716 66.5,31.5C 66.9731,32.9063 67.9731,33.573 69.5,33.5C 69.8417,34.3382 70.5084,34.6716 71.5,34.5C 71.9731,35.9063 72.9731,36.573 74.5,36.5C 74.8417,37.3382 75.5084,37.6716 76.5,37.5C 76.9731,38.9063 77.9731,39.573 79.5,39.5C 79.8417,40.3382 80.5084,40.6716 81.5,40.5C 81.8417,41.3382 82.5084,41.6716 83.5,41.5C 83.9731,42.9063 84.9731,43.573 86.5,43.5C 86.8417,44.3382 87.5084,44.6716 88.5,44.5C 88.9731,45.9063 89.9731,46.573 91.5,46.5C 91.8417,47.3382 92.5084,47.6716 93.5,47.5C 93.9731,48.9063 94.9731,49.573 96.5,49.5C 96.8417,50.3382 97.5084,50.6716 98.5,50.5C 99.6594,52.2503 101.326,53.2503 103.5,53.5C 104.29,54.4013 105.29,55.0679 106.5,55.5C 106.842,56.3382 107.508,56.6716 108.5,56.5C 110.28,60.1959 109.613,63.1959 106.5,65.5C 104.973,65.427 103.973,66.0937 103.5,67.5C 102.508,67.3284 101.842,67.6618 101.5,68.5C 99.9731,68.427 98.9731,69.0937 98.5,70.5C 97.5084,70.3284 96.8417,70.6618 96.5,71.5C 94.9731,71.427 93.9731,72.0937 93.5,73.5C 92.5084,73.3284 91.8417,73.6618 91.5,74.5C 90.5084,74.3284 89.8417,74.6618 89.5,75.5C 88.8333,75.5 88.5,75.8333 88.5,76.5C 87.5084,76.3284 86.8417,76.6618 86.5,77.5C 85.5084,77.3284 84.8417,77.6618 84.5,78.5C 82.9731,78.427 81.9731,79.0937 81.5,80.5C 80.5084,80.3284 79.8417,80.6618 79.5,81.5C 77.9731,81.427 76.9731,82.0937 76.5,83.5C 75.5084,83.3284 74.8417,83.6618 74.5,84.5C 73.5084,84.3284 72.8417,84.6618 72.5,85.5C 71.8333,85.5 71.5,85.8333 71.5,86.5C 70.5084,86.3284 69.8417,86.6618 69.5,87.5C 68.5084,87.3284 67.8417,87.6618 67.5,88.5C 65.9731,88.427 64.9731,89.0937 64.5,90.5C 63.5084,90.3284 62.8417,90.6618 62.5,91.5C 60.9731,91.427 59.9731,92.0937 59.5,93.5C 58.5084,93.3284 57.8417,93.6618 57.5,94.5C 55.9731,94.427 54.9731,95.0937 54.5,96.5C 53.5084,96.3284 52.8417,96.6618 52.5,97.5C 51.5084,97.3284 50.8417,97.6618 50.5,98.5C 49.8333,98.5 49.5,98.8333 49.5,99.5C 48.5084,99.3284 47.8417,99.6618 47.5,100.5C 46.5084,100.328 45.8417,100.662 45.5,101.5C 43.9731,101.427 42.9731,102.094 42.5,103.5C 41.5084,103.328 40.8417,103.662 40.5,104.5C 38.9731,104.427 37.9731,105.094 37.5,106.5C 36.5084,106.328 35.8417,106.662 35.5,107.5C 33.9731,107.427 32.9731,108.094 32.5,109.5C 31.5084,109.328 30.8417,109.662 30.5,110.5C 28.9731,110.427 27.9731,111.094 27.5,112.5C 26.5084,112.328 25.8417,112.662 25.5,113.5C 24.5084,113.328 23.8417,113.662 23.5,114.5C 21.9731,114.427 20.9731,115.094 20.5,116.5C 19.5084,116.328 18.8417,116.662 18.5,117.5C 17.5084,117.328 16.8417,117.662 16.5,118.5C 15.8333,118.5 15.5,118.833 15.5,119.5C 11.8333,119.5 8.16667,119.5 4.5,119.5C 4.5,79.8333 4.5,40.1667 4.5,0.5C 5.16667,0.5 5.5,0.166667 5.5,-0.5 Z"/></g>
<g><path style="opacity:0.016" fill="#febf3f" d="M 15.5,0.5 C 16.8333,1.16667 16.8333,1.16667 15.5,0.5 Z"/></g>
<g><path style="opacity:0.016" fill="#ffbf40" d="M 3.5,119.5 C 3.16667,119.5 2.83333,119.5 2.5,119.5C 2.83333,-37.8333 3.16667,-37.8333 3.5,119.5 Z"/></g>
<g><path style="opacity:0.008" fill="#feff7f" d="M 18.5,2.5 C 17.8333,1.16667 17.8333,1.16667 18.5,2.5 Z"/></g>
<g><path style="opacity:0.008" fill="#feff00" d="M 18.5,2.5 C 19.8333,3.16667 19.8333,3.16667 18.5,2.5 Z"/></g>
<g><path style="opacity:0.016" fill="#febf3f" d="M 20.5,3.5 C 21.8333,4.16667 21.8333,4.16667 20.5,3.5 Z"/></g>
<g><path style="opacity:0.016" fill="#febf3f" d="M 25.5,6.5 C 26.8333,7.16667 26.8333,7.16667 25.5,6.5 Z"/></g>
<g><path style="opacity:0.016" fill="#febf3f" d="M 27.5,7.5 C 28.8333,8.16667 28.8333,8.16667 27.5,7.5 Z"/></g>
<g><path style="opacity:0.008" fill="#feff00" d="M 30.5,9.5 C 29.8333,8.16667 29.8333,8.16667 30.5,9.5 Z"/></g>
<g><path style="opacity:0.016" fill="#febf3f" d="M 30.5,9.5 C 31.8333,10.1667 31.8333,10.1667 30.5,9.5 Z"/></g>
<g><path style="opacity:0.016" fill="#febf3f" d="M 32.5,10.5 C 33.8333,11.1667 33.8333,11.1667 32.5,10.5 Z"/></g>
<g><path style="opacity:0.008" fill="#feff00" d="M 35.5,12.5 C 34.8333,11.1667 34.8333,11.1667 35.5,12.5 Z"/></g>
<g><path style="opacity:0.008" fill="#feff00" d="M 35.5,12.5 C 36.8333,13.1667 36.8333,13.1667 35.5,12.5 Z"/></g>
<g><path style="opacity:0.016" fill="#febf3f" d="M 37.5,13.5 C 38.8333,14.1667 38.8333,14.1667 37.5,13.5 Z"/></g>
<g><path style="opacity:0.016" fill="#febf3f" d="M 40.5,15.5 C 39.8333,14.1667 39.8333,14.1667 40.5,15.5 Z"/></g>
<g><path style="opacity:0.008" fill="#feff00" d="M 40.5,15.5 C 41.8333,16.1667 41.8333,16.1667 40.5,15.5 Z"/></g>
<g><path style="opacity:0.016" fill="#febf3f" d="M 42.5,16.5 C 43.8333,17.1667 43.8333,17.1667 42.5,16.5 Z"/></g>
<g><path style="opacity:0.008" fill="#feff00" d="M 44.5,17.5 C 45.8333,18.1667 45.8333,18.1667 44.5,17.5 Z"/></g>
<g><path style="opacity:0.008" fill="#feff7f" d="M 47.5,19.5 C 46.8333,18.1667 46.8333,18.1667 47.5,19.5 Z"/></g>
<g><path style="opacity:0.016" fill="#febf3f" d="M 47.5,19.5 C 48.8333,20.1667 48.8333,20.1667 47.5,19.5 Z"/></g>
<g><path style="opacity:0.016" fill="#febf3f" d="M 49.5,20.5 C 50.8333,21.1667 50.8333,21.1667 49.5,20.5 Z"/></g>
<g><path style="opacity:0.008" fill="#feff00" d="M 52.5,22.5 C 51.8333,21.1667 51.8333,21.1667 52.5,22.5 Z"/></g>
<g><path style="opacity:0.008" fill="#feff7f" d="M 52.5,22.5 C 53.8333,23.1667 53.8333,23.1667 52.5,22.5 Z"/></g>
<g><path style="opacity:0.016" fill="#febf3f" d="M 54.5,23.5 C 55.8333,24.1667 55.8333,24.1667 54.5,23.5 Z"/></g>
<g><path style="opacity:0.016" fill="#febf3f" d="M 57.5,25.5 C 56.8333,24.1667 56.8333,24.1667 57.5,25.5 Z"/></g>
<g><path style="opacity:0.008" fill="#feff00" d="M 57.5,25.5 C 58.8333,26.1667 58.8333,26.1667 57.5,25.5 Z"/></g>
<g><path style="opacity:0.016" fill="#febf3f" d="M 59.5,26.5 C 60.8333,27.1667 60.8333,27.1667 59.5,26.5 Z"/></g>
<g><path style="opacity:1" fill="#4c4437" d="M 14.5,11.5 C 13.1667,44.1667 13.1667,76.8333 14.5,109.5C 14.44,110.043 14.1067,110.376 13.5,110.5C 12.1667,77.1667 12.1667,43.8333 13.5,10.5C 14.1067,10.6236 14.44,10.9569 14.5,11.5 Z"/></g>
<g><path style="opacity:0.016" fill="#febf3f" d="M 64.5,29.5 C 65.8333,30.1667 65.8333,30.1667 64.5,29.5 Z"/></g>
<g><path style="opacity:0.016" fill="#febf3f" d="M 66.5,30.5 C 67.8333,31.1667 67.8333,31.1667 66.5,30.5 Z"/></g>
<g><path style="opacity:0.008" fill="#feff00" d="M 69.5,32.5 C 68.8333,31.1667 68.8333,31.1667 69.5,32.5 Z"/></g>
<g><path style="opacity:0.008" fill="#feff00" d="M 69.5,32.5 C 70.8333,33.1667 70.8333,33.1667 69.5,32.5 Z"/></g>
<g><path style="opacity:0.016" fill="#febf3f" d="M 71.5,33.5 C 72.8333,34.1667 72.8333,34.1667 71.5,33.5 Z"/></g>
<g><path style="opacity:0.008" fill="#feff7f" d="M 74.5,35.5 C 73.8333,34.1667 73.8333,34.1667 74.5,35.5 Z"/></g>
<g><path style="opacity:0.008" fill="#feff00" d="M 74.5,35.5 C 75.8333,36.1667 75.8333,36.1667 74.5,35.5 Z"/></g>
<g><path style="opacity:0.016" fill="#febf3f" d="M 76.5,36.5 C 77.8333,37.1667 77.8333,37.1667 76.5,36.5 Z"/></g>
<g><path style="opacity:0.016" fill="#febf3f" d="M 79.5,38.5 C 78.8333,37.1667 78.8333,37.1667 79.5,38.5 Z"/></g>
<g><path style="opacity:0.008" fill="#feff00" d="M 79.5,38.5 C 80.8333,39.1667 80.8333,39.1667 79.5,38.5 Z"/></g>
<g><path style="opacity:1" fill="#272220" d="M 36.5,24.5 C 41.0549,27.0292 45.5549,29.6959 50,32.5C 50.6667,51.1667 50.6667,69.8333 50,88.5C 45.6667,91.1667 41.3333,93.8333 37,96.5C 36.5,72.5023 36.3334,48.5023 36.5,24.5 Z"/></g>
<g><path style="opacity:0.016" fill="#febf3f" d="M 81.5,39.5 C 82.8333,40.1667 82.8333,40.1667 81.5,39.5 Z"/></g>
<g><path style="opacity:1" fill="#221e1f" d="M 14.5,11.5 C 17.8691,13.5146 21.2024,15.5146 24.5,17.5C 24.0618,17.4346 23.7284,17.6012 23.5,18C 24.1627,46.2644 24.8294,74.431 25.5,102.5C 22.039,105.069 18.3723,107.403 14.5,109.5C 13.1667,76.8333 13.1667,44.1667 14.5,11.5 Z"/></g>
<g><path style="opacity:1" fill="#7b6534" d="M 62.5,39.5 C 61.5042,53.3234 61.1709,67.3234 61.5,81.5C 60.1741,67.3278 60.1741,52.9945 61.5,38.5C 62.1067,38.6236 62.44,38.9569 62.5,39.5 Z"/></g>
<g><path style="opacity:0.008" fill="#feff00" d="M 83.5,40.5 C 84.8333,41.1667 84.8333,41.1667 83.5,40.5 Z"/></g>
<g><path style="opacity:0.008" fill="#feff00" d="M 86.5,42.5 C 85.8333,41.1667 85.8333,41.1667 86.5,42.5 Z"/></g>
<g><path style="opacity:0.016" fill="#febf3f" d="M 86.5,42.5 C 87.8333,43.1667 87.8333,43.1667 86.5,42.5 Z"/></g>
<g><path style="opacity:0.016" fill="#febf3f" d="M 88.5,43.5 C 89.8333,44.1667 89.8333,44.1667 88.5,43.5 Z"/></g>
<g><path style="opacity:0.016" fill="#febf3f" d="M 91.5,45.5 C 92.8333,46.1667 92.8333,46.1667 91.5,45.5 Z"/></g>
<g><path style="opacity:0.016" fill="#febf3f" d="M 93.5,46.5 C 94.8333,47.1667 94.8333,47.1667 93.5,46.5 Z"/></g>
<g><path style="opacity:1" fill="#201d1e" d="M 62.5,39.5 C 65.7699,41.4741 69.1032,43.4741 72.5,45.5C 73.8333,55.5 73.8333,65.5 72.5,75.5C 68.9663,77.7664 65.2996,79.7664 61.5,81.5C 61.1709,67.3234 61.5042,53.3234 62.5,39.5 Z"/></g>
<g><path style="opacity:0.016" fill="#febf3f" d="M 96.5,48.5 C 95.8333,47.1667 95.8333,47.1667 96.5,48.5 Z"/></g>
<g><path style="opacity:0.016" fill="#febf3f" d="M 96.5,48.5 C 97.8333,49.1667 97.8333,49.1667 96.5,48.5 Z"/></g>
<g><path style="opacity:0.016" fill="#febf3f" d="M 98.5,49.5 C 99.8333,50.1667 99.8333,50.1667 98.5,49.5 Z"/></g>
<g><path style="opacity:0.008" fill="#feff00" d="M 100.5,50.5 C 101.833,51.1667 101.833,51.1667 100.5,50.5 Z"/></g>
<g><path style="opacity:0.016" fill="#febf3f" d="M 103.5,52.5 C 104.833,53.1667 104.833,53.1667 103.5,52.5 Z"/></g>
<g><path style="opacity:0.008" fill="#feff00" d="M 106.5,54.5 C 107.833,55.1667 107.833,55.1667 106.5,54.5 Z"/></g>
<g><path style="opacity:0.008" fill="#feff00" d="M 108.5,55.5 C 109.833,56.1667 109.833,56.1667 108.5,55.5 Z"/></g>
<g><path style="opacity:0.016" fill="#febf3f" d="M 106.5,65.5 C 107.833,66.1667 107.833,66.1667 106.5,65.5 Z"/></g>
<g><path style="opacity:0.016" fill="#febf3f" d="M 106.5,66.5 C 105.833,67.1667 105.833,67.1667 106.5,66.5 Z"/></g>
<g><path style="opacity:1" fill="#00000c" d="M 24.5,17.5 C 25.498,45.6618 25.8313,73.9951 25.5,102.5C 24.8294,74.431 24.1627,46.2644 23.5,18C 23.7284,17.6012 24.0618,17.4346 24.5,17.5 Z"/></g>
<g><path style="opacity:0.016" fill="#febf3f" d="M 103.5,67.5 C 104.833,68.1667 104.833,68.1667 103.5,67.5 Z"/></g>
<g><path style="opacity:0.008" fill="#feff00" d="M 101.5,68.5 C 102.833,69.1667 102.833,69.1667 101.5,68.5 Z"/></g>
<g><path style="opacity:0.008" fill="#feff00" d="M 101.5,69.5 C 100.833,70.1667 100.833,70.1667 101.5,69.5 Z"/></g>
<g><path style="opacity:0.016" fill="#febf3f" d="M 98.5,70.5 C 99.8333,71.1667 99.8333,71.1667 98.5,70.5 Z"/></g>
<g><path style="opacity:0.016" fill="#febf3f" d="M 96.5,71.5 C 97.8333,72.1667 97.8333,72.1667 96.5,71.5 Z"/></g>
<g><path style="opacity:0.008" fill="#feff00" d="M 96.5,72.5 C 95.8333,73.1667 95.8333,73.1667 96.5,72.5 Z"/></g>
<g><path style="opacity:0.008" fill="#feff00" d="M 93.5,73.5 C 94.8333,74.1667 94.8333,74.1667 93.5,73.5 Z"/></g>
<g><path style="opacity:0.016" fill="#febf3f" d="M 91.5,74.5 C 92.8333,75.1667 92.8333,75.1667 91.5,74.5 Z"/></g>
<g><path style="opacity:0.008" fill="#feff00" d="M 89.5,75.5 C 90.8333,76.1667 90.8333,76.1667 89.5,75.5 Z"/></g>
<g><path style="opacity:0.016" fill="#febf3f" d="M 88.5,76.5 C 88.8333,76.5 89.1667,76.5 89.5,76.5C 89.3147,77.1701 88.9813,77.1701 88.5,76.5 Z"/></g>
<g><path style="opacity:0.016" fill="#febf3f" d="M 86.5,77.5 C 87.8333,78.1667 87.8333,78.1667 86.5,77.5 Z"/></g>
<g><path style="opacity:0.008" fill="#feff00" d="M 84.5,78.5 C 85.8333,79.1667 85.8333,79.1667 84.5,78.5 Z"/></g>
<g><path style="opacity:0.008" fill="#feff00" d="M 84.5,79.5 C 83.8333,80.1667 83.8333,80.1667 84.5,79.5 Z"/></g>
<g><path style="opacity:0.016" fill="#febf3f" d="M 81.5,80.5 C 82.8333,81.1667 82.8333,81.1667 81.5,80.5 Z"/></g>
<g><path style="opacity:0.016" fill="#febf3f" d="M 79.5,81.5 C 80.8333,82.1667 80.8333,82.1667 79.5,81.5 Z"/></g>
<g><path style="opacity:0.008" fill="#feff00" d="M 79.5,82.5 C 78.8333,83.1667 78.8333,83.1667 79.5,82.5 Z"/></g>
<g><path style="opacity:0.008" fill="#feff00" d="M 76.5,83.5 C 77.8333,84.1667 77.8333,84.1667 76.5,83.5 Z"/></g>
<g><path style="opacity:0.016" fill="#febf3f" d="M 74.5,84.5 C 75.8333,85.1667 75.8333,85.1667 74.5,84.5 Z"/></g>
<g><path style="opacity:0.008" fill="#feff7f" d="M 72.5,86.5 C 72.5,86.1667 72.5,85.8333 72.5,85.5C 73.1667,85.5 73.8333,85.5 74.5,85.5C 74.1583,86.3382 73.4916,86.6716 72.5,86.5 Z"/></g>
<g><path style="opacity:0.016" fill="#febf3f" d="M 71.5,86.5 C 71.8333,86.5 72.1667,86.5 72.5,86.5C 72.3147,87.1701 71.9813,87.1701 71.5,86.5 Z"/></g>
<g><path style="opacity:0.016" fill="#febf3f" d="M 69.5,87.5 C 70.8333,88.1667 70.8333,88.1667 69.5,87.5 Z"/></g>
<g><path style="opacity:0.008" fill="#feff00" d="M 67.5,88.5 C 68.8333,89.1667 68.8333,89.1667 67.5,88.5 Z"/></g>
<g><path style="opacity:0.008" fill="#feff7f" d="M 67.5,89.5 C 66.8333,90.1667 66.8333,90.1667 67.5,89.5 Z"/></g>
<g><path style="opacity:0.016" fill="#febf3f" d="M 64.5,90.5 C 65.8333,91.1667 65.8333,91.1667 64.5,90.5 Z"/></g>
<g><path style="opacity:0.008" fill="#feff7f" d="M 62.5,92.5 C 62.5,92.1667 62.5,91.8333 62.5,91.5C 63.1667,91.5 63.8333,91.5 64.5,91.5C 64.1583,92.3382 63.4916,92.6716 62.5,92.5 Z"/></g>
<g><path style="opacity:0.008" fill="#feff00" d="M 62.5,92.5 C 61.8333,93.1667 61.8333,93.1667 62.5,92.5 Z"/></g>
<g><path style="opacity:0.016" fill="#febf3f" d="M 59.5,93.5 C 60.8333,94.1667 60.8333,94.1667 59.5,93.5 Z"/></g>
<g><path style="opacity:0.016" fill="#febf3f" d="M 57.5,94.5 C 58.8333,95.1667 58.8333,95.1667 57.5,94.5 Z"/></g>
<g><path style="opacity:0.008" fill="#feff7f" d="M 57.5,95.5 C 56.8333,96.1667 56.8333,96.1667 57.5,95.5 Z"/></g>
<g><path style="opacity:0.016" fill="#febf3f" d="M 54.5,96.5 C 55.8333,97.1667 55.8333,97.1667 54.5,96.5 Z"/></g>
<g><path style="opacity:0.016" fill="#febf3f" d="M 52.5,97.5 C 53.8333,98.1667 53.8333,98.1667 52.5,97.5 Z"/></g>
<g><path style="opacity:0.008" fill="#feff00" d="M 50.5,98.5 C 51.8333,99.1667 51.8333,99.1667 50.5,98.5 Z"/></g>
<g><path style="opacity:0.016" fill="#febf3f" d="M 49.5,99.5 C 49.8333,99.5 50.1667,99.5 50.5,99.5C 50.3147,100.17 49.9813,100.17 49.5,99.5 Z"/></g>
<g><path style="opacity:0.016" fill="#febf3f" d="M 47.5,100.5 C 48.8333,101.167 48.8333,101.167 47.5,100.5 Z"/></g>
<g><path style="opacity:0.008" fill="#feff00" d="M 45.5,102.5 C 45.5,102.167 45.5,101.833 45.5,101.5C 46.1667,101.5 46.8333,101.5 47.5,101.5C 47.1583,102.338 46.4916,102.672 45.5,102.5 Z"/></g>
<g><path style="opacity:0.008" fill="#feff7f" d="M 45.5,102.5 C 44.8333,103.167 44.8333,103.167 45.5,102.5 Z"/></g>
<g><path style="opacity:0.016" fill="#febf3f" d="M 42.5,103.5 C 43.8333,104.167 43.8333,104.167 42.5,103.5 Z"/></g>
<g><path style="opacity:0.016" fill="#febf3f" d="M 40.5,104.5 C 41.8333,105.167 41.8333,105.167 40.5,104.5 Z"/></g>
<g><path style="opacity:0.016" fill="#febf3f" d="M 40.5,105.5 C 39.8333,106.167 39.8333,106.167 40.5,105.5 Z"/></g>
<g><path style="opacity:0.016" fill="#febf3f" d="M 37.5,106.5 C 38.8333,107.167 38.8333,107.167 37.5,106.5 Z"/></g>
<g><path style="opacity:0.016" fill="#febf3f" d="M 35.5,107.5 C 36.8333,108.167 36.8333,108.167 35.5,107.5 Z"/></g>
<g><path style="opacity:0.008" fill="#feff00" d="M 35.5,108.5 C 34.8333,109.167 34.8333,109.167 35.5,108.5 Z"/></g>
<g><path style="opacity:0.016" fill="#febf3f" d="M 32.5,109.5 C 33.8333,110.167 33.8333,110.167 32.5,109.5 Z"/></g>
<g><path style="opacity:0.016" fill="#febf3f" d="M 30.5,110.5 C 31.8333,111.167 31.8333,111.167 30.5,110.5 Z"/></g>
<g><path style="opacity:0.008" fill="#feff00" d="M 30.5,111.5 C 29.8333,112.167 29.8333,112.167 30.5,111.5 Z"/></g>
<g><path style="opacity:0.008" fill="#feff00" d="M 27.5,112.5 C 28.8333,113.167 28.8333,113.167 27.5,112.5 Z"/></g>
<g><path style="opacity:0.016" fill="#febf3f" d="M 25.5,113.5 C 26.8333,114.167 26.8333,114.167 25.5,113.5 Z"/></g>
<g><path style="opacity:0.008" fill="#feff00" d="M 23.5,114.5 C 24.8333,115.167 24.8333,115.167 23.5,114.5 Z"/></g>
<g><path style="opacity:0.008" fill="#feff00" d="M 23.5,115.5 C 22.8333,116.167 22.8333,116.167 23.5,115.5 Z"/></g>
<g><path style="opacity:0.016" fill="#febf3f" d="M 20.5,116.5 C 21.8333,117.167 21.8333,117.167 20.5,116.5 Z"/></g>
<g><path style="opacity:0.008" fill="#feff00" d="M 18.5,117.5 C 19.8333,118.167 19.8333,118.167 18.5,117.5 Z"/></g>
<g><path style="opacity:0.006" fill="#feff00" d="M 16.5,119.5 C 16.5,119.167 16.5,118.833 16.5,118.5C 17.1667,118.5 17.8333,118.5 18.5,118.5C 18.5,118.833 18.5,119.167 18.5,119.5C 17.8333,119.5 17.1667,119.5 16.5,119.5 Z"/></g>
</svg>
