<?xml version="1.0" encoding="UTF-8"?>
<svg id="Layer_2" data-name="Layer 2" xmlns="http://www.w3.org/2000/svg" xmlns:xlink="http://www.w3.org/1999/xlink" viewBox="0 0 320.08 497.91">
  <defs>
    <style>
      .cls-1 {
        fill: url(#New_Gradient_Swatch_1);
      }

      .cls-1, .cls-2, .cls-3, .cls-4, .cls-5, .cls-6 {
        stroke-width: 0px;
      }

      .cls-2 {
        fill: url(#linear-gradient);
      }

      .cls-3 {
        fill: url(#linear-gradient-4);
      }

      .cls-4 {
        fill: url(#linear-gradient-2);
      }

      .cls-5 {
        fill: url(#linear-gradient-3);
      }

      .cls-6 {
        fill: #007360;
      }
    </style>
    <linearGradient id="linear-gradient" x1="-10514.66" y1="-2292.27" x2="-10952.4" y2="-2659.57" gradientTransform="translate(3318.19 836.63) scale(.3)" gradientUnits="userSpaceOnUse">
      <stop offset="0" stop-color="#fef2ee"/>
      <stop offset=".07" stop-color="#fdeae8"/>
      <stop offset=".18" stop-color="#fbd6d9"/>
      <stop offset=".31" stop-color="#f9b6c0"/>
      <stop offset=".46" stop-color="#f5889e"/>
      <stop offset=".62" stop-color="#f14f73"/>
      <stop offset=".76" stop-color="#ed1849"/>
    </linearGradient>
    <linearGradient id="New_Gradient_Swatch_1" data-name="New Gradient Swatch 1" x1="-10728.94" y1="-2547.95" x2="-10045.93" y2="-1844.87" gradientTransform="translate(3318.19 836.63) scale(.3)" gradientUnits="userSpaceOnUse">
      <stop offset="0" stop-color="#eef6e7"/>
      <stop offset=".24" stop-color="#8ec85a"/>
      <stop offset=".34" stop-color="#87c35a"/>
      <stop offset=".48" stop-color="#73b85b"/>
      <stop offset=".65" stop-color="#54a55c"/>
      <stop offset=".84" stop-color="#298b5e"/>
      <stop offset="1" stop-color="#007360"/>
    </linearGradient>
    <linearGradient id="linear-gradient-2" x1="-10437.36" y1="-2954.81" x2="-10437.36" y2="-1584.66" gradientTransform="translate(3318.19 836.63) scale(.3)" gradientUnits="userSpaceOnUse">
      <stop offset="0" stop-color="#fff"/>
      <stop offset="1" stop-color="#8dc858"/>
    </linearGradient>
    <linearGradient id="linear-gradient-3" x1="-10416.88" y1="-2323.59" x2="-10492.88" y2="-2754.56" gradientTransform="translate(3318.19 836.63) scale(.3)" gradientUnits="userSpaceOnUse">
      <stop offset="0" stop-color="#e0e9f6"/>
      <stop offset=".15" stop-color="#dce7f5"/>
      <stop offset=".29" stop-color="#d1e1f2"/>
      <stop offset=".42" stop-color="#bfd8ee"/>
      <stop offset=".54" stop-color="#a5cbe8"/>
      <stop offset=".67" stop-color="#84bbe0"/>
      <stop offset=".79" stop-color="#5ca7d6"/>
      <stop offset=".9" stop-color="#2d8fcb"/>
      <stop offset="1" stop-color="#0079c1"/>
    </linearGradient>
    <linearGradient id="linear-gradient-4" x1="-10407.61" y1="-2514.69" x2="-10407.61" y2="-1822.89" gradientTransform="translate(3318.19 836.63) scale(.3)" gradientUnits="userSpaceOnUse">
      <stop offset="0" stop-color="#fff"/>
      <stop offset="1" stop-color="#bbdc9b"/>
    </linearGradient>
  </defs>
  <g id="Layer_2-2" data-name="Layer 2">
    <path class="cls-6" d="M235.59,369.4v-31.58h-8.19v27.78c0,11.59-7.14,17.34-21.59,17.34h-98.35v-42.54h-31.78c-8.11,0-14.48,1.13-19.24,4.66-6.89,5.08-10.24,11.16-10.24,21.44,0,18.95,9.89,24.62,29.48,24.62h23.06v2.23c-1.53,5.76-7.54,7.48-21.67,7.48H26.57v8.19h52.78c10.19,0,17.38-1.22,21.59-3.54,4.4-2.32,6.51-7.16,6.51-14.35h101.58c16.28,0,26.55-9.37,26.55-21.72ZM99.16,382.94h-23.47c-14.16-.09-21.19-1.4-21.19-16.43,0-12.4,7.14-17.53,21.19-17.85v-.05h23.47v34.34ZM0,409.02h8.2v-71.2H0v71.2ZM232.85,397.4c-3.64,0-5.4,1.3-5.4,3.91,0,2.89,1.76,4.31,5.4,4.31s5.59-1.42,5.59-4.31c0-2.61-1.91-3.91-5.59-3.91ZM288.74,337.83h-33.48v8.2h34.69c14.63,0,21.95,4.14,21.95,20.44v16.52h-63.02v8.19h71.2v-30.52c0-19.08-18.29-22.82-31.35-22.82ZM218.29,397.4c-3.66,0-5.41,1.3-5.41,3.91,0,2.89,1.74,4.31,5.41,4.31s5.56-1.42,5.56-4.31c0-2.61-1.9-3.91-5.56-3.91Z"/>
    <g>
      <path class="cls-6" d="M61.95,426.72v17.63H29.31C13.26,444.35,0,451.26,0,470.73s8.56,26.24,25.53,27.06c1.21.06,11.67.09,12.97.09,11.4,0,18.68-2.3,23.35-5.57v5.61h8.24v-71.19h-8.14ZM61.85,470.71c0,12.16-7.06,19.02-22.11,19.02-2.47,0-13.92-.06-15.98-.24-10.38-.9-15.51-4.76-15.51-18.78s7.48-18.16,22.3-18.16h31.31v18.16Z"/>
      <path class="cls-6" d="M111,444.35c-9.73,0-17.53,1.95-23.02,5.71-4.59,3.39-6.89,7.49-6.89,12.47v17.58c0,7.14,2.13,11.98,6.55,14.29,4.25,2.31,11.5,3.52,21.77,3.52h21.88v-8.18h-19.58c-15.51,0-22.44-2.5-22.44-9.66h28.27c10.1,0,16.83-1.45,20.53-4.48,3.02-2.56,4.61-6.88,4.61-13.29,0-10.67-11.33-17.95-31.69-17.95ZM130.49,469.93c-2.67,1.3-8.15,1.95-16.47,1.95h-24.74v-9.21c0-5.94,8.81-10.11,21.72-10.11,14.34,0,23.19,3.72,23.19,10.02,0,4.09-1.23,6.06-3.71,7.35Z"/>
      <path class="cls-6" d="M313.54,447.89c-4.24-2.3-11.51-3.53-21.77-3.53h-21.88v8.2h19.57c15.52,0,22.44,2.5,22.44,9.66h-28.27c-10.1,0-16.83,1.45-20.54,4.48-3,2.55-4.6,6.87-4.6,13.29,0,10.66,11.34,17.93,31.69,17.93,9.01,0,16.34-1.68,21.73-4.9v4.9h8.19v-35.74c0-7.15-2.12-11.99-6.55-14.29ZM290.17,489.73c-14.34,0-23.18-3.72-23.18-10.02,0-4.09,1.23-6.06,3.7-7.37,2.66-1.29,8.15-1.94,16.47-1.94h24.74v9.21c0,5.94-8.81,10.12-21.73,10.12Z"/>
      <path class="cls-6" d="M241.9,476.76c.61,8.25-6.97,12.97-19.25,12.97-10.38,0-18.1-7.62-17.96-12.97v-32.41h-8.23v32.41c.16,8.25-7.01,12.97-19.29,12.97-11.07,0-18.1-5.45-17.81-13.21v-32.17h-8.25v35.38c0,4.96,2.4,9.08,6.35,12.47,4.69,3.76,11.37,5.7,19.71,5.7,11.19,0,19.18-3.06,23.48-8.05.67.83,1.44,1.61,2.3,2.35,4.7,3.76,11.37,5.7,19.71,5.7,17.44,0,27.42-7.39,27.42-18.05v-35.51h-8.18v32.41Z"/>
    </g>
    <g>
      <path class="cls-2" d="M4.85,145.77c0-3.33.15-6.63.4-9.91,2.41-33.02,16.71-62.7,38.69-84.75,24.17-24.22,57.52-39.2,94.39-39.2,20.19,0,39.33,4.52,56.46,12.56,5.76.89,11.36,2.15,16.86,3.69-21.26-13.36-46.38-21.1-73.32-21.1C61.94,7.07,0,69.16,0,145.77c0,4.95.27,9.83.78,14.65,3.63,34.49,19.85,65.19,43.95,87.44-2.95-4.91-5.59-10.03-7.97-15.3-19.89-23.38-31.91-53.66-31.91-86.79Z"/>
      <path class="cls-1" d="M171.84,22.69C89.97,22.69,23.59,89.24,23.59,171.34s66.37,148.65,148.25,148.65,148.25-66.55,148.25-148.65S253.71,22.69,171.84,22.69ZM156.77,264.98c-63.26,0-114.59-51.44-114.59-114.86s51.33-114.89,114.59-114.89,114.56,51.45,114.56,114.89-51.28,114.86-114.56,114.86Z"/>
      <path class="cls-4" d="M276.67,145.77c0-16-2.74-31.35-7.71-45.64-10.44-30.03-30.88-55.35-57.32-71.97-5.5-1.54-11.1-2.8-16.86-3.69,14.18,6.64,27,15.68,37.93,26.64,8.57,8.59,15.95,18.37,21.94,29.02,10.9,19.4,17.16,41.77,17.16,65.63,0,36.96-14.92,70.42-39.1,94.64-24.15,24.23-57.52,39.21-94.39,39.21s-70.22-14.98-94.39-39.21c-2.51-2.52-4.88-5.15-7.18-7.85,2.37,5.27,5.02,10.38,7.97,15.3,24.64,22.72,57.51,36.62,93.6,36.62,76.41,0,138.34-62.1,138.35-138.71Z"/>
      <path class="cls-5" d="M68.54,45.17C93.32,20.33,127.53,4.97,165.33,4.97s72.02,15.36,96.8,40.2c8.79,8.82,16.35,18.84,22.51,29.76,5.43,6.4,10.35,13.24,14.65,20.5C279.98,39.87,227.31,0,165.33,0,87,0,23.48,63.67,23.47,142.24c0,5.07.28,10.09.79,15.02.81-8.63,2.37-17.04,4.59-25.19,2.47-33.86,17.14-64.3,39.68-86.9Z"/>
      <path class="cls-3" d="M165.33,284.48c78.35,0,141.86-63.68,141.86-142.24,0-16.41-2.81-32.15-7.9-46.81-4.3-7.26-9.23-14.1-14.65-20.5,11.18,19.89,17.59,42.84,17.59,67.31,0,37.9-15.33,72.21-40.1,97.06-24.77,24.84-58.98,40.2-96.8,40.2s-72.01-15.36-96.79-40.2c-24.79-24.85-40.09-59.15-40.09-97.06,0-3.43.17-6.81.41-10.17-2.22,8.14-3.78,16.55-4.59,25.19,7.49,71.49,67.79,127.21,141.06,127.21Z"/>
    </g>
  </g>
</svg>