<?xml version="1.0" encoding="UTF-8"?><svg id="Layer_2" xmlns="http://www.w3.org/2000/svg" viewBox="0 0 204.14 214.01"><defs><style>.cls-1{fill:#008556;stroke-width:0px;}</style></defs><g id="Layer_1-2"><path class="cls-1" d="M7.16,193.76H0v19.97h7.02c3.17,0,5.85-.97,7.94-2.88,2.1-1.91,3.17-4.32,3.17-7.16s-1.04-5.23-3.1-7.11c-2.05-1.87-4.7-2.82-7.87-2.82M11.83,208.07c-1.2,1.14-2.74,1.72-4.58,1.72h-2.71v-12.05h2.71c1.84,0,3.38.57,4.58,1.71,1.19,1.13,1.8,2.58,1.8,4.31s-.61,3.18-1.8,4.32"/><path class="cls-1" d="M34.06,205.44c0,1.32-.37,2.4-1.11,3.2-.74.8-1.72,1.21-2.92,1.21s-2.19-.4-2.94-1.21c-.75-.8-1.13-1.88-1.13-3.2v-11.68h-4.59v11.82c0,2.54.78,4.6,2.33,6.13,1.55,1.53,3.63,2.3,6.18,2.3s4.63-.8,6.23-2.37c1.59-1.57,2.4-3.66,2.4-6.2v-11.68h-4.45v11.68Z"/><path class="cls-1" d="M55.7,203.27c.78-.44,1.4-1.03,1.84-1.74.49-.78.73-1.66.73-2.61,0-1.51-.59-2.77-1.75-3.72-1.15-.95-2.69-1.44-4.57-1.44h-8.97v19.97h9.47c1.94,0,3.55-.54,4.8-1.59,1.25-1.06,1.89-2.4,1.89-3.99,0-1.15-.33-2.17-.98-3.05-.61-.82-1.44-1.43-2.47-1.82M53.01,201.15c-.48.43-1.15.65-1.99.65h-3.5v-4.49h3.5c.83,0,1.5.22,1.99.65.48.43.72.97.72,1.61s-.24,1.16-.72,1.58M47.53,205.12h4.15c.91,0,1.64.24,2.17.72.54.48.8,1.07.8,1.79s-.27,1.33-.8,1.83c-.53.5-1.26.75-2.17.75h-4.15v-5.09Z"/><path class="cls-1" d="M72.68,193.76h-4.44l-8.1,19.97h4.75l1.58-4.15h7.75l1.58,4.15h4.98l-8.07-19.9-.03-.07ZM72.93,205.95h-5.18l2.61-6.83,2.58,6.83Z"/><rect class="cls-1" x="83.17" y="193.76" width="4.65" height="19.97"/><path class="cls-1" d="M108.33,193.76h-8.66v19.97h4.53v-6.26h3.98c2.24,0,4.09-.66,5.5-1.95,1.42-1.29,2.14-2.96,2.14-4.96s-.7-3.67-2.07-4.92c-1.37-1.24-3.2-1.88-5.43-1.88M104.21,197.62h3.7c1.02,0,1.85.29,2.48.86.62.57.94,1.31.94,2.19s-.32,1.62-.94,2.19c-.63.57-1.46.86-2.48.86h-3.7v-6.1Z"/><path class="cls-1" d="M128.71,193.48c-2.95,0-5.47,1.01-7.5,3.01-2.02,1.99-3.05,4.46-3.05,7.34s1,5.32,2.98,7.26c1.98,1.94,4.48,2.92,7.43,2.92s5.47-1.01,7.5-2.99c2.02-1.99,3.05-4.45,3.05-7.33s-1-5.32-2.98-7.27c-1.98-1.95-4.48-2.94-7.43-2.94M132.91,208.1c-1.13,1.16-2.56,1.74-4.25,1.74s-3.15-.59-4.27-1.74c-1.12-1.16-1.69-2.62-1.69-4.35s.57-3.17,1.69-4.33c1.12-1.16,2.56-1.74,4.27-1.74s3.12.59,4.25,1.75c1.13,1.16,1.7,2.61,1.7,4.32s-.57,3.2-1.7,4.35"/><path class="cls-1" d="M182.96,207.67c-1.17,1.44-2.73,2.18-4.64,2.18-3.45,0-5.96-2.56-5.96-6.1s2.51-6.07,5.96-6.07c1.83,0,3.35.68,4.52,2.04l.07.08,3.31-2.94-.08-.08c-2.03-2.18-4.64-3.29-7.77-3.29-5.91,0-10.55,4.55-10.55,10.35s4.47,10.18,10.41,10.18c3.22,0,5.92-1.19,8.01-3.53l.07-.08-3.29-2.81-.07.09Z"/><polygon class="cls-1" points="147.29 193.76 142.76 193.76 142.76 213.73 156.94 213.73 156.94 209.67 147.29 209.67 147.29 193.76"/><rect class="cls-1" x="159.56" y="193.76" width="4.65" height="19.97"/><polygon class="cls-1" points="193.63 209.78 193.63 205.32 202.43 205.32 202.43 201.6 193.63 201.6 193.63 197.73 203.84 197.73 203.84 193.76 189.1 193.76 189.1 213.73 204.13 213.73 204.13 209.78 193.63 209.78"/><path class="cls-1" d="M109.85,145.28c1.64,0,2.97-1.33,2.97-2.97s-1.33-2.97-2.97-2.97-2.97,1.33-2.97,2.97,1.33,2.97,2.97,2.97"/><path class="cls-1" d="M187.97,140.81c1.64,0,2.97-1.33,2.97-2.97s-1.33-2.97-2.97-2.97-2.97,1.33-2.97,2.97,1.33,2.97,2.97,2.97"/><path class="cls-1" d="M183.84,147.66c1.64,0,2.97-1.33,2.97-2.97s-1.33-2.97-2.97-2.97-2.97,1.33-2.97,2.97,1.33,2.97,2.97,2.97"/><path class="cls-1" d="M189.12,144.69c0,1.64,1.33,2.97,2.97,2.97s2.97-1.33,2.97-2.97-1.33-2.97-2.97-2.97-2.97,1.33-2.97,2.97"/><path class="cls-1" d="M199.85,148.36l-4.99,3.03c1.17,1.93,4.64,8.64,3.03,18.15h-6.99v-18.15h-5.84v18.15h-4.43v-18.15h-5.84v18.15h-8.26v-20.52h-5.84v23.04c0,4.72-3.84,8.56-8.56,8.56h-1.49v5.84h1.49c6.8,0,12.51-4.74,14.01-11.08h36.43l.54-2.23c3.15-12.86-1.69-22.23-3.25-24.8"/><path class="cls-1" d="M73.27,148.33l-2.62,5.22c7.59,3.82,8.04,11.33,7.47,15.99h-13.02v5.84h17.83l.5-2.29c3.61-16.42-6.86-23.1-10.16-24.76"/><path class="cls-1" d="M153.79,175.38l1.55-5.21c1.39-4.7.48-9.85-2.44-13.78-2.56-3.45-6.47-5.7-10.74-6.19-4.27-.48-8.59.84-11.85,3.62l-5.15,4.4v-15.91h-5.84v27.23h-6.56v-20.52h-6.04c-8.06,0-14.61,6.56-14.61,14.61v11.75h5.84v-11.75c0-4.84,3.93-8.77,8.77-8.77h.2v20.52h46.89ZM125.15,165.9l8.94-7.63c2.04-1.74,4.74-2.57,7.4-2.26,2.66.3,5.11,1.71,6.7,3.87,1.83,2.47,2.4,5.7,1.53,8.64l-.3,1.03h-24.28v-3.64Z"/><path class="cls-1" d="M55.45,179.12c-1.64,0-2.97,1.33-2.97,2.97s1.33,2.97,2.97,2.97,2.97-1.33,2.97-2.97-1.33-2.97-2.97-2.97"/><path class="cls-1" d="M24.26,179.12c-1.64,0-2.97,1.33-2.97,2.97s1.34,2.97,2.97,2.97,2.97-1.33,2.97-2.97-1.33-2.97-2.97-2.97"/><path class="cls-1" d="M16.78,179.12c-1.64,0-2.97,1.33-2.97,2.97s1.34,2.97,2.97,2.97,2.97-1.33,2.97-2.97-1.34-2.97-2.97-2.97"/><path class="cls-1" d="M102.56,145.28c1.64,0,2.97-1.33,2.97-2.97s-1.34-2.97-2.97-2.97-2.97,1.33-2.97,2.97,1.34,2.97,2.97,2.97"/><path class="cls-1" d="M55.76,165.97c0,1.97-1.6,3.57-3.57,3.57h-2.68v-20.52h-6.16c-7.9,0-14.09,6.42-14.09,14.61v5.91H5.84v-.79c0-6.12,1.55-12.4,4.36-17.66l-5.15-2.75C1.79,154.43,0,161.68,0,168.75v6.63h35.11v-11.75c0-5,3.55-8.77,8.24-8.77h.31v20.52h8.53c5.19,0,9.41-4.22,9.41-9.41v-16.95h-5.84v16.95Z"/><path class="cls-1" d="M166.53,68.77c-1.01-.06-2.03.01-3.04.19.68-.73,1.35-1.6,1.99-2.62,2.26-3.62,2.71-7.83,1.6-11.45-1,.16-1.98.44-2.93.83.51-.86.98-1.84,1.39-2.98,1.44-4.01,1-8.22-.85-11.53-.94.36-1.84.85-2.69,1.43.32-.95.57-2.01.73-3.21.56-4.23-.75-8.25-3.26-11.1-.84.55-1.63,1.22-2.33,1.96.11-1,.13-2.09.04-3.29-.34-4.25-2.47-7.91-5.52-10.16-.71.72-1.33,1.53-1.87,2.41-.1-1-.31-2.07-.66-3.22-1.23-4.09-4.08-7.21-7.54-8.77-.54.85-.98,1.78-1.32,2.75-.31-.95-.74-1.95-1.32-3.01-2.06-3.73-5.51-6.19-9.22-6.98-.7,1.92-.96,4.03-.72,6.16-.46-.34-.94-.67-1.48-.99-3.65-2.21-7.86-2.6-11.48-1.44.65,3.74,2.97,7.28,6.62,9.49.53.32,1.05.6,1.56.85-1.99.78-3.74,1.99-5.11,3.51,2.04,2.44,5.02,4.17,8.45,4.72,1.49,2.77,4.01,5.05,7.21,6.29.87,3.02,2.86,5.78,5.72,7.67.22,3.14,1.58,6.26,3.98,8.7-.45,3.11.22,6.45,2.05,9.34-1.1,2.95-1.14,6.35.04,9.57-1.69,2.65-2.45,5.97-1.98,9.36-2.21,2.23-3.65,5.32-3.9,8.73-2.63,1.72-4.69,4.43-5.66,7.72-2.94,1.12-5.52,3.34-7.16,6.35-3.11.48-6.1,2.11-8.33,4.7-3.75-.22-7.69,1.18-10.67,4.18-1.93,1.94-3.05,3.81-3.61,5.58-.94,3.16-5.43,3.16-6.37,0-.56-1.77-1.68-3.64-3.61-5.58-2.98-2.99-6.92-4.4-10.67-4.18-2.23-2.6-5.22-4.22-8.33-4.7-1.63-3.01-4.22-5.23-7.15-6.35-.96-3.29-3.02-6-5.66-7.72-.25-3.42-1.69-6.5-3.9-8.73.47-3.39-.28-6.71-1.98-9.36,1.18-3.22,1.14-6.62.04-9.57,1.83-2.89,2.51-6.23,2.06-9.34,2.4-2.45,3.76-5.56,3.98-8.7,2.86-1.89,4.85-4.65,5.72-7.67,3.19-1.24,5.72-3.52,7.21-6.29,3.42-.55,6.41-2.28,8.45-4.72-1.37-1.52-3.12-2.73-5.12-3.51.51-.25,1.03-.52,1.56-.85,3.65-2.21,5.96-5.75,6.62-9.49-3.61-1.16-7.82-.77-11.48,1.44-.54.32-1.02.65-1.48.99.23-2.13-.02-4.24-.72-6.16-3.71.8-7.16,3.25-9.22,6.98-.58,1.06-1.01,2.06-1.32,3.01-.34-.97-.78-1.89-1.32-2.75-3.46,1.56-6.31,4.68-7.54,8.77-.35,1.16-.56,2.23-.66,3.22-.53-.88-1.16-1.69-1.87-2.41-3.05,2.25-5.19,5.91-5.53,10.16-.1,1.2-.07,2.29.04,3.29-.71-.75-1.49-1.41-2.33-1.96-2.51,2.85-3.83,6.86-3.26,11.1.16,1.2.41,2.26.73,3.21-.85-.58-1.75-1.06-2.69-1.43-1.85,3.31-2.29,7.52-.85,11.53.41,1.14.88,2.12,1.39,2.98-.95-.39-1.93-.67-2.93-.83-1.11,3.63-.66,7.83,1.6,11.45.64,1.03,1.3,1.89,1.99,2.62-1.01-.18-2.03-.25-3.04-.19-.33,3.78,1.01,7.8,3.97,10.86.84.87,1.67,1.57,2.49,2.15-1.03.04-2.04.19-3.01.45.48,3.77,2.63,7.41,6.17,9.78,1.01.67,1.97,1.18,2.89,1.57-1,.25-1.96.61-2.85,1.08,1.26,3.58,4.13,6.69,8.09,8.26,1.12.45,2.17.74,3.16.93-.92.46-1.78,1.01-2.56,1.65,1.99,3.23,5.44,5.67,9.65,6.37,1.19.2,2.28.27,3.28.24-.8.64-1.53,1.36-2.15,2.15,2.62,2.74,6.52,4.4,10.78,4.19,1.21-.06,2.29-.22,3.26-.45-.65.8-1.21,1.65-1.65,2.56,3.14,2.13,7.3,2.93,11.42,1.83,1.99-.53,3.56-1.26,4.81-2.12,4.01-2.73,9.32-2.79,13.42,0,1.24.86,2.82,1.59,4.81,2.12,4.12,1.1,8.28.3,11.42-1.83-.44-.91-1-1.77-1.65-2.56.97.24,2.05.4,3.26.45,4.26.2,8.15-1.45,10.78-4.19-.62-.79-1.35-1.51-2.15-2.15,1,.02,2.09-.05,3.28-.24,4.21-.7,7.67-3.14,9.65-6.37-.78-.64-1.64-1.2-2.56-1.65.98-.19,2.03-.48,3.15-.93,3.97-1.57,6.83-4.68,8.09-8.26-.9-.46-1.85-.82-2.85-1.08.92-.39,1.88-.9,2.89-1.57,3.55-2.37,5.7-6.01,6.17-9.78-.97-.26-1.99-.41-3.01-.45.82-.57,1.65-1.28,2.49-2.15,2.97-3.06,4.3-7.08,3.97-10.86M78.04,98.95c2.25.84,4.31,2.45,5.77,4.71,1.74,2.71,2.31,5.08,1.89,7.21-2.11-.5-4.03-2.01-5.77-4.72-1.45-2.26-2.05-4.8-1.88-7.2M70.23,92.91c2.03,1.3,3.7,3.3,4.64,5.82,1.13,3.01,1.19,5.46.33,7.45-1.95-.93-3.51-2.81-4.65-5.83-.94-2.52-1-5.13-.32-7.44M63.87,85.35c1.71,1.7,2.92,4.01,3.31,6.67.47,3.19.01,5.58-1.25,7.35-1.71-1.32-2.84-3.49-3.31-6.67-.39-2.66.1-5.22,1.25-7.34M59.25,76.63c1.31,2.02,2.01,4.53,1.83,7.22-.21,3.21-1.17,5.46-2.77,6.92-1.4-1.65-2.05-4.01-1.83-7.22.18-2.68,1.2-5.08,2.77-6.91M50.57,62.43c1.26-2.37,3.19-4.14,5.37-5.16.36,2.38-.03,4.96-1.3,7.33-1.52,2.84-3.31,4.5-5.37,5.16-.59-2.08-.21-4.5,1.3-7.34M48.25,58.31c-.14-2.16.74-4.44,2.82-6.9,1.74-2.05,3.99-3.37,6.33-3.91-.14,2.4-1.08,4.84-2.81,6.89-2.08,2.46-4.18,3.7-6.34,3.92M52.4,73.3c.74-2.58,2.25-4.72,4.16-6.17.86,2.25,1.01,4.86.27,7.44-.88,3.09-2.29,5.09-4.16,6.18-1.02-1.91-1.16-4.35-.27-7.45M56.69,44.41c-2.55,1.96-4.87,2.73-7.02,2.49.32-2.14,1.66-4.19,4.21-6.15,2.13-1.64,4.61-2.46,7.02-2.49-.65,2.32-2.07,4.51-4.2,6.14M81.54,17.64c-1.9,1.48-4.35,2.39-7.03,2.44-3.22.06-5.54-.7-7.13-2.17,1.53-1.53,3.82-2.38,7.04-2.44,2.69-.05,5.17.77,7.12,2.17M77.86,7.22c2.3-1.39,4.86-1.92,7.25-1.68-.9,2.23-2.57,4.24-4.87,5.63-2.76,1.67-5.15,2.17-7.26,1.69.56-2.09,2.12-3.97,4.88-5.64M67.3,8.14c1.3-2.35,3.24-4.09,5.44-5.08.33,2.38-.1,4.96-1.4,7.31-1.56,2.82-3.37,4.45-5.44,5.09-.56-2.09-.15-4.5,1.4-7.32M65.82,22.37c2.61-.62,5.21-.34,7.42.62-1.55,1.84-3.75,3.25-6.36,3.87-3.13.74-5.56.49-7.43-.62,1.17-1.82,3.23-3.13,6.37-3.87M57.32,16.7c.77-2.57,2.31-4.68,4.24-6.12.83,2.26.95,4.87.17,7.44-.93,3.08-2.36,5.06-4.25,6.12-.99-1.93-1.1-4.37-.17-7.45M58.87,30.93c2.43-1.15,5.02-1.43,7.38-.96-1.12,2.13-2.98,3.97-5.4,5.12-2.91,1.38-5.34,1.65-7.39.96.76-2.03,2.5-3.74,5.41-5.12M49.36,27.18c.21-2.68,1.27-5.07,2.86-6.87,1.28,2.04,1.95,4.56,1.74,7.24-.26,3.21-1.24,5.45-2.86,6.88-1.38-1.67-1.99-4.04-1.74-7.25M45.15,31.77c1.68,1.72,2.87,4.05,3.22,6.71.43,3.19-.06,5.58-1.35,7.33-1.7-1.35-2.8-3.53-3.22-6.72-.36-2.66.18-5.22,1.35-7.32M40.64,44.48c2.01,1.33,3.66,3.35,4.57,5.88,1.09,3.03,1.11,5.47.22,7.45-1.94-.96-3.48-2.86-4.57-5.89-.91-2.53-.93-5.14-.22-7.44M38.91,57.84c2.24.87,4.28,2.51,5.7,4.79,1.7,2.73,2.24,5.12,1.79,7.23-2.1-.53-4-2.06-5.71-4.79-1.42-2.28-1.99-4.83-1.78-7.23M43.3,77.96c-1.87-1.93-2.96-4.3-3.27-6.69,2.38.38,4.71,1.55,6.58,3.48,2.24,2.31,3.27,4.53,3.27,6.69-2.17-.07-4.35-1.17-6.59-3.48M48.57,90.01c-2.23-1.49-3.8-3.58-4.6-5.85,2.4-.13,4.93.52,7.17,2.02,2.68,1.79,4.15,3.74,4.61,5.85-2.13.38-4.5-.23-7.17-2.02M56.25,100.69c-2.5-.99-4.47-2.7-5.73-4.75,2.32-.63,4.93-.53,7.43.46,2.99,1.18,4.84,2.78,5.74,4.75-2,.82-4.44.72-7.44-.46M66.01,109.5c-2.65-.44-4.94-1.7-6.6-3.43,2.14-1.1,4.71-1.55,7.36-1.12,3.18.53,5.32,1.7,6.61,3.44-1.78,1.23-4.19,1.64-7.37,1.11M77.41,116.06c-2.68.13-5.19-.62-7.18-1.97,1.86-1.53,4.28-2.51,6.96-2.64,3.22-.15,5.56.54,7.19,1.97-1.49,1.58-3.75,2.49-6.97,2.64M89.94,120.08c-2.6.69-5.2.49-7.43-.41,1.49-1.89,3.65-3.36,6.25-4.05,3.11-.83,5.55-.64,7.44.41-1.12,1.85-3.14,3.22-6.25,4.05M90.31,109.86c-1.89-1.9-3.02-4.26-3.36-6.64,2.38.35,4.73,1.49,6.63,3.39,2.27,2.28,3.33,4.49,3.36,6.65-2.17-.04-4.36-1.11-6.63-3.4M165.23,57.84c.2,2.4-.37,4.95-1.78,7.23-1.7,2.73-3.61,4.27-5.71,4.79-.45-2.12.09-4.5,1.79-7.23,1.42-2.28,3.46-3.91,5.7-4.79M163.5,44.48c.7,2.3.68,4.91-.22,7.44-1.09,3.03-2.63,4.93-4.57,5.89-.89-1.98-.86-4.42.23-7.45.91-2.53,2.56-4.56,4.57-5.88M155.77,38.48c.36-2.66,1.54-4.99,3.22-6.71,1.17,2.1,1.7,4.66,1.35,7.32-.43,3.19-1.53,5.37-3.23,6.72-1.28-1.75-1.77-4.14-1.35-7.33M149.5,64.6c-1.26-2.37-1.66-4.95-1.3-7.33,2.18,1.02,4.1,2.79,5.37,5.16,1.52,2.84,1.89,5.25,1.3,7.34-2.06-.67-3.85-2.33-5.37-5.16M151.46,80.75c-1.87-1.09-3.28-3.09-4.16-6.18-.74-2.58-.58-5.19.27-7.44,1.92,1.46,3.43,3.59,4.16,6.17.88,3.09.75,5.54-.27,7.45M149.54,54.4c-1.74-2.05-2.67-4.49-2.81-6.89,2.35.54,4.6,1.86,6.33,3.91,2.08,2.46,2.96,4.74,2.82,6.9-2.15-.22-4.26-1.46-6.34-3.92M151.91,20.31c1.59,1.81,2.65,4.2,2.86,6.87.26,3.21-.36,5.57-1.74,7.25-1.62-1.43-2.61-3.67-2.86-6.88-.21-2.68.45-5.2,1.74-7.24M142.58,10.59c1.93,1.43,3.47,3.54,4.24,6.12.92,3.08.82,5.52-.17,7.45-1.89-1.06-3.32-3.04-4.25-6.12-.77-2.57-.65-5.18.17-7.44M131.4,3.05c2.19.99,4.14,2.73,5.44,5.08,1.55,2.82,1.97,5.23,1.4,7.32-2.07-.64-3.89-2.27-5.44-5.09-1.29-2.35-1.73-4.93-1.4-7.31M123.9,11.17c-2.3-1.39-3.96-3.4-4.87-5.63,2.39-.24,4.95.3,7.25,1.68,2.76,1.66,4.32,3.54,4.87,5.64-2.11.48-4.5-.02-7.26-1.69M129.63,20.08c-2.69-.05-5.13-.96-7.03-2.44,1.95-1.4,4.43-2.22,7.12-2.17,3.22.06,5.51.91,7.04,2.44-1.59,1.47-3.91,2.23-7.13,2.17M130.89,23c2.21-.96,4.8-1.24,7.42-.62,3.13.74,5.2,2.05,6.37,3.87-1.86,1.11-4.29,1.36-7.43.62-2.61-.62-4.82-2.02-6.36-3.87M137.88,29.97c2.36-.47,4.96-.2,7.38.96,2.91,1.38,4.65,3.1,5.41,5.12-2.05.69-4.48.42-7.39-.96-2.43-1.15-4.28-2.99-5.4-5.12M143.24,38.27c2.41.03,4.89.85,7.02,2.49,2.55,1.96,3.89,4.01,4.21,6.15-2.15.24-4.47-.53-7.02-2.49-2.13-1.64-3.55-3.83-4.2-6.14M144.89,76.63c1.56,1.83,2.59,4.23,2.77,6.91.21,3.21-.44,5.57-1.83,7.22-1.6-1.46-2.56-3.71-2.77-6.92-.18-2.68.52-5.2,1.83-7.22M136.95,92.02c.39-2.66,1.61-4.97,3.31-6.67,1.14,2.12,1.64,4.68,1.25,7.34-.47,3.18-1.6,5.35-3.32,6.67-1.26-1.76-1.72-4.16-1.25-7.35M129.26,98.73c.94-2.51,2.62-4.52,4.64-5.82.67,2.31.62,4.92-.32,7.44-1.13,3.01-2.69,4.89-4.64,5.83-.86-1.99-.8-4.43.33-7.45M120.33,103.66c1.45-2.26,3.51-3.87,5.76-4.71.17,2.4-.43,4.94-1.88,7.2-1.74,2.71-3.66,4.22-5.77,4.72-.42-2.12.15-4.5,1.89-7.21M110.56,106.61c1.89-1.9,4.25-3.04,6.63-3.39-.34,2.38-1.46,4.74-3.36,6.64-2.27,2.28-4.47,3.35-6.63,3.4.03-2.16,1.09-4.37,3.36-6.65M114.2,120.08c-3.11-.83-5.14-2.2-6.26-4.05,1.89-1.05,4.33-1.24,7.44-.41,2.6.69,4.76,2.16,6.25,4.05-2.23.9-4.84,1.1-7.43.41M126.73,116.06c-3.22-.15-5.48-1.07-6.97-2.64,1.63-1.43,3.97-2.12,7.19-1.97,2.68.13,5.1,1.11,6.96,2.64-1.99,1.35-4.5,2.09-7.18,1.97M138.12,109.5c-3.17.53-5.58.11-7.37-1.11,1.29-1.74,3.44-2.91,6.61-3.44,2.65-.44,5.22.01,7.36,1.12-1.67,1.74-3.95,2.99-6.61,3.43M147.88,100.69c-2.99,1.18-5.43,1.29-7.44.46.9-1.97,2.75-3.57,5.74-4.75,2.5-.99,5.11-1.09,7.43-.46-1.26,2.05-3.23,3.76-5.73,4.75M160.17,84.16c-.8,2.27-2.37,4.36-4.61,5.85-2.68,1.79-5.04,2.4-7.17,2.02.46-2.12,1.93-4.07,4.61-5.85,2.23-1.49,4.76-2.14,7.17-2.02M154.25,81.44c0-2.17,1.03-4.38,3.27-6.69,1.87-1.93,4.21-3.1,6.58-3.48-.31,2.39-1.4,4.76-3.27,6.69-2.24,2.31-4.42,3.41-6.59,3.48"/><path class="cls-1" d="M65.66,66.42v1.64c.49,1.04,2.95,5.74,7.05,11.66h-5.84s1.16,2.4,4.76,2.4h60.9c3.6,0,4.76-2.4,4.76-2.4h-5.34c3.24-4.82,4.82-7.71,7.37-12.52h2.93v-4.59h-15.89c-16.69-13.55-20.27-36.71-10.55-54.05-27.78,5.53-48.64,29.69-50.14,57.86M66.89,66.45c8.2-5.08,17.64-8.01,27.31-8.57v8.57h-27.31ZM124.94,64.59l-1.38,1.86h-25.59v-8.66c9.16.06,18.43,2.26,26.97,6.8M119.7,59.55c-16.41-6.41-35.31-5.48-51.3,3.26,2.92-24.27,20.36-44.14,43.06-50.7-6.42,15.6-3.72,34.15,8.24,47.44"/><path class="cls-1" d="M99.37,102.32h5.4c3.6,0,4.76-2.4,4.76-2.4h-14.93s1.16,2.4,4.76,2.4"/><path class="cls-1" d="M120.41,94.87h-36.66s1.16,2.4,4.76,2.4h27.14c3.6,0,4.76-2.4,4.76-2.4"/><path class="cls-1" d="M128.69,89.82h-53.23s1.16,2.4,4.76,2.4h43.7c3.6,0,4.76-2.4,4.76-2.4"/><path class="cls-1" d="M133.73,84.77h-63.32s1.16,2.4,4.76,2.4h53.79c3.6,0,4.76-2.4,4.76-2.4"/></g></svg>