<?xml version="1.0" encoding="UTF-8"?>
<svg width="210mm" height="297mm" version="1.1" viewBox="0 0 210 297" xmlns="http://www.w3.org/2000/svg" xmlns:cc="http://creativecommons.org/ns#" xmlns:dc="http://purl.org/dc/elements/1.1/" xmlns:rdf="http://www.w3.org/1999/02/22-rdf-syntax-ns#">
 <defs>
  <clipPath id="clipPath50">
   <path d="m0 1080h1920v-1080h-1920z"/>
  </clipPath>
 </defs>
 <metadata>
  <rdf:RDF>
   <cc:Work rdf:about="">
    <dc:format>image/svg+xml</dc:format>
    <dc:type rdf:resource="http://purl.org/dc/dcmitype/StillImage"/>
    <dc:title/>
   </cc:Work>
  </rdf:RDF>
 </metadata>
 <g transform="matrix(.35278 0 0 -.35278 -232.34 338.85)">
  <path d="m0 1.798h1917.2v1077.4h-1917.2z" fill="#fff"/>
  <g transform="translate(710.46 421.45)">
   <path d="m0 0-21.255-21.248v-24.195h520.38l21.253 21.25v24.193z" fill="#d02c30"/>
  </g>
  <g clip-path="url(#clipPath50)">
   <g transform="translate(802.59 551.82)">
    <path d="m0 0c0-15.942-11.137-27.076-27.079-27.076-13.305 0-20.765 2.769-27.081 10.155v36.122c0 15.95 11.139 27.079 27.081 27.079s27.079-11.129 27.079-27.079zm-27.079 70.09c-29.278 0-51.352-21.875-51.352-50.889v-30.578c-20.711-3.731-34.957-21.025-34.957-42.897v-46.609c0-3.518 2.021-5.536 5.539-5.536h12.999c3.518 0 5.534 2.018 5.534 5.536l-0.031 46.609c0 11.491 6.984 19.012 18.322 19.88 10.3-10.795 25.698-16.492 44.635-16.492 30.491 0 50.195 20.25 50.195 51.583v18.504c0 29.014-21.875 50.889-50.884 50.889" fill="#5c6e7f"/>
   </g>
   <g transform="translate(1102.5 528.02)">
    <path d="m0 0h13.002c3.515 0 5.531 2.018 5.531 5.533v81.154c0 3.515-2.016 5.533-5.531 5.533h-13.002c-3.52 0-5.538-2.018-5.538-5.533v-81.154c0-3.515 2.018-5.533 5.538-5.533" fill="#5c6e7f"/>
   </g>
   <g transform="translate(1053.5 513.43)">
    <path d="m0 0-33.037 0.083c-26.289 0-38.014 11.512-38.014 37.311 0 26.755 13.761 42.099 37.75 42.099 8.245 0 17.392-1.909 26.462-5.52 0.881-0.358 1.894-0.244 2.678 0.29 0.791 0.539 1.265 1.433 1.265 2.383v16.924c0 1.189-0.738 2.254-1.84 2.684-10.346 4.015-21.382 6.137-31.902 6.137-29.198 0-60.385-16.947-60.385-64.52 0-15.756 4.062-28.426 12.1-37.788h-29.164c0.013-0.018 0.013-0.036 0.023-0.057-12.96 0.907-14.437 11.911-14.437 16.776l-0.039 101.46c0 3.515-2.015 5.533-5.531 5.533h-13.002c-3.52 0-5.538-2.018-5.538-5.533l0.021-101.38c0-6.3-2.06-16.862-15.917-16.862l-51.79-0.023c-3.518 0-5.538-2.016-5.538-5.531v-13.002c0-3.518 2.02-5.536 5.538-5.536h51.549c11.619 0 21.033 3.907 28.043 11.616 7.176-7.517 16.222-11.616 25.781-11.616h114.92c3.518 0 5.539 2.018 5.539 5.536v13.002c0 3.515-2.021 5.531-5.539 5.531" fill="#5c6e7f"/>
   </g>
   <g transform="translate(856.38 528.02)">
    <path d="m0 0h13.002c3.521 0 5.533 2.018 5.533 5.533v81.154c0 3.515-2.012 5.533-5.533 5.533h-13.002c-3.515 0-5.539-2.018-5.539-5.533v-81.154c0-3.515 2.024-5.533 5.539-5.533" fill="#5c6e7f"/>
   </g>
   <g transform="translate(1230.8 631.69)">
    <path d="m0 0c0 3.515-2.015 5.534-5.533 5.534h-13.069c-3.518 0-5.539-2.019-5.539-5.534l0.018-101.38c0-6.3-2.059-16.861-15.916-16.861h-3.684c-13.849 0-15.916 10.561-15.916 16.861l-0.07 101.38c0 3.515-2.011 5.534-5.531 5.534h-13.002c-3.518 0-5.539-2.019-5.539-5.534l0.019-101.38c0-6.3-2.057-16.861-15.914-16.861l-51.787-0.024c-3.521 0-5.539-2.015-5.539-5.53v-13.002c0-3.518 2.018-5.536 5.539-5.536h51.549c11.616 0 21.03 3.906 28.045 11.616 7.176-7.518 16.217-11.616 25.778-11.616h11.243c15.445 0 34.848 9.592 34.848 35.068z" fill="#5c6e7f"/>
   </g>
   <g transform="translate(1124.4 454.85)">
    <path d="m0 0h-10.517c-1.855 0-3.332 0.588-4.438 1.774-1.124 1.187-1.666 2.56-1.666 4.122 0 1.552 0.542 2.927 1.666 4.108 1.106 1.187 2.583 1.785 4.438 1.785h6.608c0.619 0 1.111 0.498 1.111 1.114v7.109c0 0.622-0.492 1.116-1.111 1.116h-6.608c-4.151 0-7.78-1.445-10.896-4.336-3.112-2.891-4.663-6.526-4.663-10.896 0-2.228 0.362-4.192 1.111-5.896h-7.937c-0.63 0-1.13-0.508-1.13-1.135v-7.194c0-0.629 0.5-1.129 1.13-1.129h32.902c0.632 0 1.135 0.5 1.135 1.129v7.194c0 0.627-0.503 1.135-1.135 1.135" fill="#5c6e7f"/>
   </g>
   <g transform="translate(745.73 389.9)">
    <path d="m0 0c2.153 0 3.868 0.645 5.145 1.938 1.274 1.295 1.914 3.284 1.914 5.986 0 2.64-0.588 4.536-1.751 5.7-1.168 1.157-2.829 1.738-4.987 1.738h-5.479v-15.362zm6.818 18.613c1.798-0.925 3.197-2.29 4.202-4.098 0.998-1.811 1.508-4.005 1.508-6.591 0-2.616-0.554-4.873-1.637-6.766-1.083-1.889-2.549-3.329-4.42-4.311-1.86-0.989-3.924-1.479-6.196-1.479h-10.865v24.626h11.217c2.339 0 4.407-0.456 6.191-1.381" fill="#fff"/>
   </g>
   <g transform="translate(804.33 389.56)">
    <path d="m0 0c-0.912-1.596-2.197-2.798-3.852-3.619-1.653-0.821-3.577-1.23-5.785-1.23-2.199 0-4.095 0.409-5.665 1.23-1.591 0.821-2.798 2.023-3.635 3.619-0.847 1.601-1.267 3.541-1.267 5.823v14.51h5.433v-14.318c0-2.075 0.422-3.601 1.272-4.564 0.85-0.974 2.137-1.456 3.881-1.456 3.704 0 5.559 2.008 5.559 6.02v14.318h5.429v-14.51c0-2.282-0.458-4.222-1.37-5.823" fill="#fff"/>
   </g>
   <g transform="translate(842.92 389.52)">
    <path d="m0 0c1.225 0 2.22 0.282 3 0.855 0.78 0.57 1.163 1.411 1.163 2.533 0 1.127-0.399 1.93-1.212 2.404-0.806 0.474-1.982 0.705-3.521 0.705h-4.23v-6.497zm-1.181 10.238c1.445 0 2.569 0.246 3.383 0.746 0.821 0.492 1.223 1.261 1.223 2.316 0 1.059-0.363 1.795-1.078 2.204-0.712 0.41-1.684 0.614-2.906 0.614h-4.241v-5.88zm7.652 8.665c1.568-0.982 2.344-2.518 2.344-4.609 0-1.458-0.432-2.657-1.302-3.58-0.874-0.935-2.12-1.614-3.757-2.051 1.972-0.322 3.448-0.923 4.42-1.806 0.963-0.883 1.456-2.155 1.456-3.816 0-1.492-0.399-2.782-1.187-3.883-0.798-1.104-1.894-1.951-3.269-2.536-1.386-0.586-2.935-0.878-4.658-0.878h-10.707v24.625h10.15c2.769 0 4.935-0.484 6.51-1.466" fill="#fff"/>
   </g>
   <g transform="translate(891.71 395.78)">
    <path d="m0 0-2.161 6.52-0.792 2.889h-0.034l-0.839-2.889-2.156-6.52zm3.497-10.515-2.142 6.469h-8.686l-2.14-6.469h-5.645l9.101 24.626h6.124l9.165-24.626z" fill="#fff"/>
   </g>
   <path d="m931.62 385.26h-5.437v24.626h5.437z" fill="#fff"/>
   <g transform="translate(1003 385.26)">
    <path d="m0 0v18.211h-0.031l-0.886-2.733-5.254-14.804h-4.839l-5.093 14.716-0.847 2.738h-0.036v-18.128h-5.22v24.626h7.543l5.262-15.01 0.821-2.456h0.044l0.821 2.456 5.472 15.01h7.473v-24.626z" fill="#fff"/>
   </g>
   <g transform="translate(1053.4 405.33)">
    <path d="m0 0h-12.422v-5.212h11.191v-4.287h-11.191v-6.003h13.184v-4.564h-18.616v24.625h17.854z" fill="#fff"/>
   </g>
   <g transform="translate(1091.1 389.9)">
    <path d="m0 0c2.153 0 3.868 0.645 5.142 1.938 1.277 1.295 1.909 3.284 1.909 5.986 0 2.64-0.58 4.536-1.741 5.7-1.168 1.157-2.826 1.738-4.986 1.738h-5.477v-15.362zm6.821 18.613c1.793-0.925 3.199-2.29 4.194-4.098 1.008-1.811 1.51-4.005 1.51-6.591 0-2.616-0.541-4.873-1.634-6.766-1.083-1.889-2.55-3.329-4.415-4.311-1.86-0.989-3.927-1.479-6.196-1.479h-10.87v24.626h11.206c2.345 0 4.415-0.456 6.205-1.381" fill="#fff"/>
   </g>
   <path d="m1135.3 385.26h-5.432v24.626h5.432z" fill="#fff"/>
   <g transform="translate(1175.7 395.78)">
    <path d="m0 0-2.16 6.52-0.798 2.889h-0.034l-0.832-2.889-2.158-6.52zm3.5-10.515-2.145 6.469h-8.686l-2.145-6.469h-5.645l9.106 24.626h6.121l9.165-24.626z" fill="#fff"/>
   </g>
   <g transform="translate(1055.6 656.23)">
    <path d="m0 0c0-9.865-8.015-17.908-17.906-17.908-9.849 0-17.931 8.043-17.931 17.908 0 9.878 8.082 17.859 17.931 17.859 9.891 0 17.906-7.981 17.906-17.859" fill="#d02c30"/>
   </g>
   <g transform="translate(1212.7 768.44)">
    <path d="m0 0c-11.953 11.955-26.574 18.015-43.451 18.015h-49.295c-4.34 0-7.036-2.692-7.036-7.026v-13.002c0-4.339 2.696-7.038 7.036-7.038h49.295c9.458 0 17.641-3.394 24.325-10.09 6.702-6.702 10.098-14.886 10.098-24.323v-3.847c0-9.44-3.396-17.621-10.098-24.322-6.691-6.7-14.872-10.096-24.325-10.096h-49.295c-4.34 0-7.036-2.691-7.036-7.028v-12.989c0-4.347 2.696-7.046 7.036-7.046h49.295c16.88 0 31.498 6.064 43.451 18.025 11.968 11.953 18.035 26.574 18.035 43.456v3.847c0 16.883-6.067 31.509-18.035 43.464" fill="#5c6e7f"/>
   </g>
   <g transform="translate(1094.2 786.46)">
    <path d="m0 0h-13.007c-4.339 0-7.033-2.694-7.033-7.033v-46.293c0-9.463-3.397-17.649-10.096-24.333-6.691-6.702-14.877-10.098-24.317-10.098h-3.844c-9.435 0-17.624 3.399-24.331 10.098-6.694 6.689-10.092 14.875-10.092 24.333v46.293c0 4.339-2.695 7.033-7.026 7.033h-243.8c-16.875 0-31.49-6.059-43.446-18.012-11.965-11.955-18.035-26.579-18.035-43.467v-3.847c0-16.887 6.07-31.511 18.035-43.456 11.953-11.96 26.566-18.025 43.446-18.025h100.95c4.337 0 7.028 2.7 7.028 7.046v12.989c0 4.337-2.691 7.029-7.028 7.029h-100.95c-9.448 0-17.634 3.396-24.325 10.098-6.702 6.699-10.101 14.879-10.101 24.319v3.847c0 9.438 3.399 17.621 10.101 24.323 6.689 6.697 14.872 10.09 24.325 10.09h223.77v-26.26c0-16.888 6.062-31.509 18.02-43.454 7.396-7.401 15.911-12.6 25.312-15.437l0.858-0.259 0.634 0.632c4.943 4.933 11.507 7.65 18.486 7.65 7.008 0 13.585-2.733 18.525-7.694l0.632-0.635 0.858 0.257c9.45 2.824 18.019 8.036 25.465 15.486 11.955 11.958 18.017 26.577 18.017 43.454v46.293c0 4.339-2.694 7.033-7.031 7.033" fill="#5c6e7f"/>
   </g>
   <g transform="translate(936.77 691.32)">
    <path d="m0 0c-9.852 0-17.934-7.981-17.934-17.857 0-9.867 8.082-17.911 17.934-17.911 9.888 0 17.906 8.044 17.906 17.911 0 9.876-8.018 17.857-17.906 17.857" fill="#5c6e7f"/>
   </g>
   <g transform="translate(891.82 691.32)">
    <path d="m0 0c-9.852 0-17.937-7.981-17.937-17.857 0-9.867 8.085-17.911 17.937-17.911 9.886 0 17.906 8.044 17.906 17.911 0 9.876-8.02 17.857-17.906 17.857" fill="#5c6e7f"/>
   </g>
   <g transform="translate(1006.7 307.52)">
    <path d="m0 0c0-0.694-0.096-1.174-0.29-1.438s-0.495-0.396-0.902-0.396h-1.284c-0.695 0-1.329 0.075-1.912 0.228-0.581 0.153-1.081 0.409-1.498 0.764-0.419 0.357-0.746 0.832-0.979 1.422-0.236 0.593-0.352 1.326-0.352 2.202v17.217h3.976v-16.665c0-0.715 0.127-1.168 0.381-1.363 0.257-0.191 0.617-0.29 1.088-0.29h0.58c0.164 0 0.317-0.015 0.459-0.044 0.142-0.031 0.269-0.103 0.381-0.215 0.114-0.111 0.199-0.28 0.262-0.505 0.059-0.225 0.09-0.531 0.09-0.917" fill="#5c6e7f"/>
   </g>
   <g transform="translate(1005.5 305.68)">
    <path d="m0 0c-0.163 0-0.316 0.015-0.458 0.044-0.143 0.031-0.27 0.103-0.384 0.215-0.111 0.111-0.197 0.28-0.259 0.505-0.062 0.223-0.091 0.529-0.091 0.917 0 0.692 0.096 1.171 0.291 1.438 0.194 0.264 0.494 0.396 0.901 0.396h4.526c0.163 0 0.316-0.015 0.458-0.044 0.143-0.031 0.27-0.103 0.383-0.215 0.112-0.111 0.198-0.28 0.26-0.505s0.093-0.531 0.093-0.917c0-0.694-0.098-1.173-0.293-1.438-0.194-0.264-0.495-0.396-0.901-0.396z" fill="#5c6e7f"/>
   </g>
   <g transform="translate(1010 305.68)">
    <path d="m0 0c-0.163 0-0.316 0.015-0.459 0.044-0.142 0.031-0.269 0.103-0.383 0.215-0.111 0.111-0.197 0.28-0.259 0.505-0.062 0.223-0.091 0.529-0.091 0.917 0 0.692 0.096 1.171 0.29 1.438 0.195 0.264 0.495 0.396 0.902 0.396h4.526c0.163 0 0.316-0.015 0.458-0.044 0.143-0.031 0.269-0.103 0.383-0.215 0.112-0.111 0.197-0.28 0.26-0.505 0.062-0.225 0.093-0.531 0.093-0.917 0-0.694-0.099-1.173-0.293-1.438-0.194-0.264-0.495-0.396-0.901-0.396z" fill="#5c6e7f"/>
   </g>
   <g transform="translate(1014.5 305.68)">
    <path d="m0 0c-0.163 0-0.316 0.015-0.458 0.044-0.143 0.031-0.27 0.103-0.384 0.215-0.111 0.111-0.197 0.28-0.259 0.505-0.062 0.223-0.091 0.529-0.091 0.917 0 0.692 0.096 1.171 0.291 1.438 0.194 0.264 0.494 0.396 0.901 0.396h4.526c0.163 0 0.316-0.015 0.458-0.044 0.143-0.031 0.27-0.103 0.384-0.215 0.111-0.111 0.197-0.28 0.259-0.505s0.093-0.531 0.093-0.917c0-0.694-0.098-1.173-0.293-1.438-0.194-0.264-0.495-0.396-0.901-0.396z" fill="#5c6e7f"/>
   </g>
   <g transform="translate(1019 305.68)">
    <path d="m0 0c-0.163 0-0.316 0.015-0.459 0.044-0.142 0.031-0.269 0.103-0.383 0.215-0.111 0.111-0.197 0.28-0.259 0.505-0.062 0.223-0.091 0.529-0.091 0.917 0 0.692 0.096 1.171 0.29 1.438 0.195 0.264 0.495 0.396 0.902 0.396h4.526c0.163 0 0.316-0.015 0.458-0.044 0.143-0.031 0.269-0.103 0.383-0.215 0.112-0.111 0.197-0.28 0.26-0.505 0.062-0.225 0.093-0.531 0.093-0.917 0-0.694-0.099-1.173-0.293-1.438-0.194-0.264-0.495-0.396-0.901-0.396z" fill="#5c6e7f"/>
   </g>
   <g transform="translate(1023.6 305.68)">
    <path d="m0 0c-0.163 0-0.316 0.015-0.458 0.044-0.143 0.031-0.27 0.103-0.384 0.215-0.111 0.111-0.197 0.28-0.259 0.505-0.062 0.223-0.091 0.529-0.091 0.917 0 0.692 0.096 1.171 0.291 1.438 0.194 0.264 0.494 0.396 0.901 0.396h4.526c0.163 0 0.316-0.015 0.458-0.044 0.143-0.031 0.27-0.103 0.384-0.215 0.111-0.111 0.197-0.28 0.259-0.505s0.093-0.531 0.093-0.917c0-0.694-0.098-1.173-0.293-1.438-0.194-0.264-0.495-0.396-0.901-0.396z" fill="#5c6e7f"/>
   </g>
   <g transform="translate(1028.1 305.68)">
    <path d="m0 0c-0.163 0-0.316 0.015-0.459 0.044-0.142 0.031-0.269 0.103-0.383 0.215-0.111 0.111-0.197 0.28-0.259 0.505-0.062 0.223-0.091 0.529-0.091 0.917 0 0.692 0.096 1.171 0.29 1.438 0.195 0.264 0.495 0.396 0.902 0.396h4.526c0.163 0 0.316-0.015 0.458-0.044 0.143-0.031 0.27-0.103 0.383-0.215 0.112-0.111 0.197-0.28 0.26-0.505 0.062-0.225 0.093-0.531 0.093-0.917 0-0.694-0.099-1.173-0.293-1.438-0.194-0.264-0.495-0.396-0.901-0.396z" fill="#5c6e7f"/>
   </g>
   <g transform="translate(1032.6 305.68)">
    <path d="m0 0c-0.163 0-0.316 0.015-0.458 0.044-0.143 0.031-0.27 0.103-0.384 0.215-0.111 0.111-0.197 0.28-0.259 0.505-0.062 0.223-0.091 0.529-0.091 0.917 0 0.692 0.096 1.171 0.291 1.438 0.194 0.264 0.494 0.396 0.901 0.396h4.526c0.163 0 0.316-0.015 0.458-0.044 0.143-0.031 0.27-0.103 0.384-0.215 0.111-0.111 0.197-0.28 0.259-0.505s0.093-0.531 0.093-0.917c0-0.694-0.098-1.173-0.293-1.438-0.194-0.264-0.495-0.396-0.901-0.396z" fill="#5c6e7f"/>
   </g>
   <g transform="translate(1037.1 305.68)">
    <path d="m0 0c-0.163 0-0.316 0.015-0.459 0.044-0.142 0.031-0.269 0.103-0.383 0.215-0.111 0.111-0.197 0.28-0.259 0.505-0.062 0.223-0.091 0.529-0.091 0.917 0 0.692 0.096 1.171 0.29 1.438 0.195 0.264 0.495 0.396 0.902 0.396h4.526c0.163 0 0.316-0.015 0.458-0.044 0.143-0.031 0.27-0.103 0.384-0.215 0.111-0.111 0.196-0.28 0.259-0.505 0.062-0.225 0.093-0.531 0.093-0.917 0-0.694-0.099-1.173-0.293-1.438-0.194-0.264-0.495-0.396-0.901-0.396z" fill="#5c6e7f"/>
   </g>
   <g transform="translate(1041.7 305.68)">
    <path d="m0 0c-0.163 0-0.316 0.015-0.458 0.044-0.143 0.031-0.27 0.103-0.384 0.215-0.111 0.111-0.197 0.28-0.259 0.505-0.062 0.223-0.091 0.529-0.091 0.917 0 0.692 0.096 1.171 0.291 1.438 0.194 0.264 0.494 0.396 0.901 0.396h4.526c0.163 0 0.316-0.015 0.458-0.044 0.143-0.031 0.27-0.103 0.384-0.215 0.111-0.111 0.197-0.28 0.259-0.505s0.093-0.531 0.093-0.917c0-0.694-0.098-1.173-0.293-1.438-0.194-0.264-0.495-0.396-0.901-0.396z" fill="#5c6e7f"/>
   </g>
   <g transform="translate(1049.7 323.14)">
    <path d="m0 0c0 0.593 0.212 1.101 0.64 1.531 0.43 0.427 0.938 0.64 1.531 0.64 0.59 0 1.101-0.213 1.528-0.64 0.428-0.43 0.643-0.938 0.643-1.531 0-0.591-0.215-1.101-0.643-1.529-0.427-0.427-0.938-0.642-1.528-0.642-0.593 0-1.101 0.215-1.531 0.642-0.428 0.428-0.64 0.938-0.64 1.529m-1.653-13.945c0.694 0 1.179 0.109 1.454 0.321 0.274 0.215 0.411 0.7 0.411 1.454v6.88h3.977v-6.543c0-0.754 0.142-1.296 0.427-1.622 0.285-0.327 0.917-0.49 1.896-0.49 0.164 0 0.317-0.015 0.459-0.044 0.143-0.031 0.269-0.104 0.383-0.215 0.112-0.111 0.197-0.28 0.26-0.505 0.062-0.226 0.09-0.531 0.09-0.917 0-0.695-0.096-1.174-0.29-1.438s-0.495-0.396-0.902-0.396c-0.59 0-1.163 0.096-1.712 0.29-0.552 0.194-1.01 0.617-1.375 1.269-0.247-0.347-0.542-0.627-0.889-0.842-0.347-0.212-0.712-0.373-1.101-0.474-0.386-0.101-0.79-0.168-1.207-0.199-0.417-0.029-0.832-0.044-1.238-0.044h-2.508c-0.163 0-0.316 0.015-0.459 0.044-0.142 0.031-0.269 0.103-0.383 0.215-0.111 0.111-0.197 0.28-0.259 0.505-0.062 0.223-0.091 0.529-0.091 0.917 0 0.692 0.096 1.171 0.29 1.438 0.195 0.264 0.495 0.396 0.902 0.396z" fill="#5c6e7f"/>
   </g>
   <g transform="translate(1056.2 305.68)">
    <path d="m0 0c-0.163 0-0.316 0.015-0.459 0.044-0.142 0.031-0.269 0.103-0.383 0.215-0.111 0.111-0.197 0.28-0.259 0.505-0.062 0.223-0.091 0.529-0.091 0.917 0 0.692 0.096 1.171 0.29 1.438 0.195 0.264 0.495 0.396 0.902 0.396h4.526c0.163 0 0.315-0.015 0.458-0.044 0.143-0.031 0.269-0.103 0.383-0.215 0.112-0.111 0.197-0.28 0.259-0.505 0.063-0.225 0.094-0.531 0.094-0.917 0-0.694-0.099-1.173-0.293-1.438-0.194-0.264-0.495-0.396-0.901-0.396z" fill="#5c6e7f"/>
   </g>
   <g transform="translate(1060.8 305.68)">
    <path d="m0 0c-0.163 0-0.316 0.015-0.459 0.044-0.142 0.031-0.269 0.103-0.383 0.215-0.111 0.111-0.197 0.28-0.259 0.505-0.062 0.223-0.091 0.529-0.091 0.917 0 0.692 0.096 1.171 0.29 1.438 0.195 0.264 0.495 0.396 0.902 0.396h4.526c0.163 0 0.316-0.015 0.458-0.044 0.143-0.031 0.27-0.103 0.383-0.215 0.112-0.111 0.197-0.28 0.26-0.505 0.062-0.225 0.093-0.531 0.093-0.917 0-0.694-0.099-1.173-0.293-1.438-0.194-0.264-0.495-0.396-0.901-0.396z" fill="#5c6e7f"/>
   </g>
   <g transform="translate(1065.3 305.68)">
    <path d="m0 0c-0.163 0-0.316 0.015-0.458 0.044-0.143 0.031-0.27 0.103-0.384 0.215-0.111 0.111-0.197 0.28-0.259 0.505-0.062 0.223-0.091 0.529-0.091 0.917 0 0.692 0.096 1.171 0.291 1.438 0.194 0.264 0.494 0.396 0.901 0.396h4.526c0.163 0 0.316-0.015 0.458-0.044 0.143-0.031 0.27-0.103 0.384-0.215 0.111-0.111 0.197-0.28 0.259-0.505s0.093-0.531 0.093-0.917c0-0.694-0.098-1.173-0.293-1.438-0.194-0.264-0.495-0.396-0.901-0.396z" fill="#5c6e7f"/>
   </g>
   <g transform="translate(1081.7 312.01)">
    <path d="m0 0c0-0.611-0.044-1.145-0.137-1.604-0.091-0.458-0.21-0.862-0.352-1.209h3.302c0 1.855-0.349 3.297-1.049 4.328-0.702 1.029-1.728 1.767-3.077 2.218 0.469-0.593 0.803-1.241 1.007-1.943 0.205-0.705 0.306-1.3 0.306-1.79m-4.251-2.66c0.225 0 0.415 0.098 0.568 0.29 0.152 0.194 0.269 0.43 0.352 0.704 0.08 0.275 0.137 0.565 0.166 0.871 0.031 0.305 0.046 0.572 0.046 0.795 0 0.306-0.02 0.622-0.059 0.948-0.042 0.327-0.114 0.627-0.215 0.904-0.104 0.275-0.231 0.503-0.384 0.687s-0.35 0.274-0.596 0.274c-0.204 0-0.38-0.085-0.533-0.259-0.153-0.173-0.283-0.396-0.384-0.673-0.101-0.275-0.179-0.581-0.228-0.917-0.052-0.337-0.077-0.679-0.077-1.024 0-0.246 0.02-0.52 0.062-0.826 0.039-0.306 0.111-0.591 0.212-0.857 0.104-0.265 0.241-0.485 0.415-0.656 0.171-0.173 0.391-0.261 0.655-0.261m-3.943-0.153c-0.287 0.753-0.43 1.538-0.43 2.354 0 0.959 0.174 1.871 0.521 2.739 0.347 0.865 0.837 1.564 1.469 2.093-0.327-0.018-0.663-0.034-1.011-0.044-0.347-0.011-0.694-0.036-1.038-0.078v2.782c0.59 0.083 1.176 0.143 1.756 0.184 0.583 0.042 1.158 0.062 1.728 0.062 3.793 0 6.715-0.922 8.764-2.766 2.046-1.847 3.072-4.513 3.072-7.997v-2.845h-18.502c-0.163 0-0.315 0.016-0.458 0.044-0.143 0.031-0.269 0.104-0.383 0.215-0.112 0.112-0.197 0.28-0.259 0.505-0.063 0.223-0.091 0.529-0.091 0.917 0 0.692 0.096 1.172 0.29 1.438 0.194 0.264 0.495 0.397 0.901 0.397z" fill="#5c6e7f"/>
   </g>
   <g transform="translate(1110.6 311.37)">
    <path d="m0 0c0 0.757-0.184 1.357-0.552 1.806-0.365 0.448-0.875 0.691-1.528 0.733-0.775-0.021-1.428-0.363-1.956-1.024-0.531-0.663-0.878-1.616-1.042-2.859 0.531-0.285 1.081-0.531 1.653-0.734 0.57-0.204 1.06-0.305 1.467-0.305 0.593 0 1.067 0.217 1.422 0.655 0.357 0.441 0.536 1.016 0.536 1.728m6.575-5.686c-0.775 0-1.474 0.158-2.096 0.474s-1.156 0.798-1.604 1.45c-0.43-0.733-1.02-1.297-1.774-1.696-0.754-0.397-1.681-0.596-2.782-0.596-1.754 0-3.56 0.611-5.414 1.834-0.407-0.202-0.697-0.554-0.871-1.054s-0.262-1.207-0.262-2.124v-10.43h-4.036v10.489c0 0.958 0.052 1.78 0.153 2.464 0.104 0.681 0.301 1.277 0.596 1.787s0.699 0.943 1.21 1.301c0.507 0.355 1.171 0.696 1.987 1.023 0.184 1.305 0.52 2.401 1.01 3.287 0.487 0.889 1.039 1.601 1.65 2.143 0.611 0.538 1.254 0.927 1.927 1.16 0.672 0.236 1.293 0.352 1.866 0.352 0.855 0 1.629-0.152 2.323-0.458 0.692-0.306 1.285-0.733 1.775-1.285 0.489-0.549 0.865-1.212 1.13-1.987 0.266-0.774 0.398-1.622 0.398-2.539 0-0.121-5e-3 -0.241-0.015-0.352-0.011-0.111-0.016-0.218-0.016-0.321 0.122-0.264 0.29-0.485 0.505-0.655 0.215-0.174 0.454-0.319 0.718-0.431 0.267-0.111 0.542-0.194 0.826-0.243 0.285-0.052 0.552-0.078 0.796-0.078 0.163 0 0.316-0.015 0.458-0.044 0.143-0.031 0.27-0.103 0.384-0.215 0.111-0.111 0.197-0.28 0.259-0.505s0.09-0.531 0.09-0.917c0-0.694-0.095-1.174-0.29-1.438-0.194-0.264-0.495-0.396-0.901-0.396" fill="#5c6e7f"/>
   </g>
   <g transform="translate(1117.1 305.68)">
    <path d="m0 0c-0.163 0-0.316 0.015-0.458 0.044-0.143 0.031-0.27 0.103-0.384 0.215-0.111 0.111-0.197 0.28-0.259 0.505-0.062 0.223-0.091 0.529-0.091 0.917 0 0.692 0.096 1.171 0.291 1.438 0.194 0.264 0.494 0.396 0.901 0.396h4.526c0.163 0 0.316-0.015 0.458-0.044 0.143-0.031 0.27-0.103 0.384-0.215 0.111-0.111 0.197-0.28 0.259-0.505s0.093-0.531 0.093-0.917c0-0.694-0.098-1.173-0.293-1.438-0.194-0.264-0.495-0.396-0.901-0.396z" fill="#5c6e7f"/>
   </g>
   <g transform="translate(1121.7 305.68)">
    <path d="m0 0c-0.163 0-0.316 0.015-0.459 0.044-0.142 0.031-0.269 0.103-0.383 0.215-0.111 0.111-0.197 0.28-0.259 0.505-0.062 0.223-0.091 0.529-0.091 0.917 0 0.692 0.096 1.171 0.29 1.438 0.194 0.264 0.495 0.396 0.902 0.396h4.526c0.163 0 0.315-0.015 0.458-0.044 0.143-0.031 0.269-0.103 0.384-0.215 0.111-0.111 0.196-0.28 0.258-0.505 0.063-0.225 0.094-0.531 0.094-0.917 0-0.694-0.099-1.173-0.293-1.438-0.194-0.264-0.495-0.396-0.901-0.396z" fill="#5c6e7f"/>
   </g>
   <g transform="translate(1126.2 305.68)">
    <path d="m0 0c-0.163 0-0.316 0.015-0.458 0.044-0.143 0.031-0.27 0.103-0.384 0.215-0.111 0.111-0.197 0.28-0.259 0.505-0.062 0.223-0.091 0.529-0.091 0.917 0 0.692 0.096 1.171 0.291 1.438 0.194 0.264 0.494 0.396 0.901 0.396h4.526c0.163 0 0.316-0.015 0.458-0.044 0.143-0.031 0.27-0.103 0.384-0.215 0.111-0.111 0.197-0.28 0.259-0.505s0.093-0.531 0.093-0.917c0-0.694-0.099-1.173-0.293-1.438-0.194-0.264-0.495-0.396-0.901-0.396z" fill="#5c6e7f"/>
   </g>
   <g transform="translate(1130.7 305.68)">
    <path d="m0 0c-0.163 0-0.316 0.015-0.459 0.044-0.142 0.031-0.269 0.103-0.383 0.215-0.111 0.111-0.197 0.28-0.259 0.505-0.062 0.223-0.091 0.529-0.091 0.917 0 0.692 0.096 1.171 0.29 1.438 0.195 0.264 0.495 0.396 0.902 0.396h4.526c0.163 0 0.316-0.015 0.458-0.044 0.143-0.031 0.27-0.103 0.384-0.215 0.111-0.111 0.196-0.28 0.259-0.505 0.062-0.225 0.093-0.531 0.093-0.917 0-0.694-0.099-1.173-0.293-1.438-0.194-0.264-0.495-0.396-0.901-0.396z" fill="#5c6e7f"/>
   </g>
   <g transform="translate(1135.2 305.68)">
    <path d="m0 0c-0.163 0-0.316 0.015-0.458 0.044-0.143 0.031-0.27 0.103-0.384 0.215-0.111 0.111-0.197 0.28-0.259 0.505-0.062 0.223-0.091 0.529-0.091 0.917 0 0.692 0.096 1.171 0.291 1.438 0.194 0.264 0.494 0.396 0.901 0.396h4.526c0.163 0 0.316-0.015 0.458-0.044 0.143-0.031 0.27-0.103 0.384-0.215 0.111-0.111 0.197-0.28 0.259-0.505s0.093-0.531 0.093-0.917c0-0.694-0.098-1.173-0.293-1.438-0.194-0.264-0.495-0.396-0.901-0.396z" fill="#5c6e7f"/>
   </g>
   <g transform="translate(1139.8 305.68)">
    <path d="m0 0c-0.163 0-0.316 0.015-0.459 0.044-0.142 0.031-0.269 0.103-0.383 0.215-0.111 0.111-0.197 0.28-0.259 0.505-0.062 0.223-0.091 0.529-0.091 0.917 0 0.692 0.096 1.171 0.29 1.438 0.195 0.264 0.495 0.396 0.902 0.396h4.526c0.163 0 0.316-0.015 0.458-0.044 0.143-0.031 0.269-0.103 0.383-0.215 0.112-0.111 0.197-0.28 0.26-0.505 0.062-0.225 0.093-0.531 0.093-0.917 0-0.694-0.099-1.173-0.293-1.438-0.194-0.264-0.495-0.396-0.901-0.396z" fill="#5c6e7f"/>
   </g>
   <g transform="translate(1144.3 305.68)">
    <path d="m0 0c-0.163 0-0.316 0.015-0.458 0.044-0.143 0.031-0.27 0.103-0.384 0.215-0.111 0.111-0.197 0.28-0.259 0.505-0.062 0.223-0.091 0.529-0.091 0.917 0 0.692 0.096 1.171 0.291 1.438 0.194 0.264 0.494 0.396 0.901 0.396h4.526c0.163 0 0.316-0.015 0.458-0.044 0.143-0.031 0.27-0.103 0.384-0.215 0.111-0.111 0.197-0.28 0.259-0.505s0.093-0.531 0.093-0.917c0-0.694-0.098-1.173-0.293-1.438-0.194-0.264-0.495-0.396-0.901-0.396z" fill="#5c6e7f"/>
   </g>
   <g transform="translate(1148.8 305.68)">
    <path d="m0 0c-0.163 0-0.316 0.015-0.459 0.044-0.142 0.031-0.269 0.103-0.383 0.215-0.111 0.111-0.197 0.28-0.259 0.505-0.062 0.223-0.091 0.529-0.091 0.917 0 0.692 0.096 1.171 0.29 1.438 0.195 0.264 0.495 0.396 0.902 0.396h4.526c0.163 0 0.316-0.015 0.458-0.044 0.143-0.031 0.269-0.103 0.384-0.215 0.111-0.111 0.196-0.28 0.259-0.505 0.062-0.225 0.093-0.531 0.093-0.917 0-0.694-0.099-1.173-0.293-1.438-0.194-0.264-0.495-0.396-0.901-0.396z" fill="#5c6e7f"/>
   </g>
   <g transform="translate(1156.9 309.2)">
    <path d="m0 0v18.317h3.974v-21.832h-7.492c-0.163 0-0.316 0.015-0.458 0.044-0.143 0.031-0.27 0.103-0.384 0.215-0.111 0.111-0.197 0.279-0.259 0.505-0.062 0.222-0.091 0.528-0.091 0.917 0 0.691 0.096 1.171 0.291 1.437 0.194 0.265 0.494 0.397 0.901 0.397z" fill="#5c6e7f"/>
   </g>
   <g transform="translate(1171.8 307.52)">
    <path d="m0 0c0-0.694-0.096-1.174-0.29-1.438s-0.495-0.396-0.902-0.396h-1.285c-0.694 0-1.329 0.075-1.911 0.228-0.581 0.153-1.081 0.409-1.498 0.764-0.419 0.357-0.746 0.832-0.979 1.422-0.236 0.593-0.352 1.326-0.352 2.202v17.217h3.976v-16.665c0-0.715 0.127-1.168 0.381-1.363 0.256-0.191 0.617-0.29 1.088-0.29h0.58c0.164 0 0.316-0.015 0.459-0.044 0.142-0.031 0.269-0.103 0.381-0.215 0.114-0.111 0.199-0.28 0.261-0.505 0.06-0.225 0.091-0.531 0.091-0.917" fill="#5c6e7f"/>
   </g>
   <g transform="translate(1170.5 305.68)">
    <path d="m0 0c-0.163 0-0.316 0.015-0.458 0.044-0.143 0.031-0.27 0.103-0.384 0.215-0.111 0.111-0.197 0.28-0.259 0.505-0.062 0.223-0.091 0.529-0.091 0.917 0 0.692 0.096 1.171 0.291 1.438 0.194 0.264 0.494 0.396 0.901 0.396h4.526c0.163 0 0.316-0.015 0.458-0.044 0.143-0.031 0.27-0.103 0.384-0.215 0.111-0.111 0.197-0.28 0.259-0.505s0.093-0.531 0.093-0.917c0-0.694-0.098-1.173-0.293-1.438-0.194-0.264-0.495-0.396-0.901-0.396z" fill="#5c6e7f"/>
   </g>
   <g transform="translate(1175.1 305.68)">
    <path d="m0 0c-0.163 0-0.316 0.015-0.458 0.044-0.143 0.031-0.27 0.103-0.384 0.215-0.111 0.111-0.197 0.28-0.259 0.505-0.062 0.223-0.091 0.529-0.091 0.917 0 0.692 0.096 1.171 0.291 1.438 0.194 0.264 0.494 0.396 0.901 0.396h4.526c0.163 0 0.316-0.015 0.458-0.044 0.143-0.031 0.27-0.103 0.383-0.215 0.112-0.111 0.198-0.28 0.26-0.505s0.093-0.531 0.093-0.917c0-0.694-0.099-1.173-0.293-1.438-0.194-0.264-0.495-0.396-0.901-0.396z" fill="#5c6e7f"/>
   </g>
   <g transform="translate(1179.6 305.68)">
    <path d="m0 0c-0.163 0-0.316 0.015-0.459 0.044-0.142 0.031-0.269 0.103-0.383 0.215-0.111 0.111-0.197 0.28-0.259 0.505-0.062 0.223-0.091 0.529-0.091 0.917 0 0.692 0.096 1.171 0.29 1.438 0.195 0.264 0.495 0.396 0.902 0.396h4.526c0.163 0 0.316-0.015 0.458-0.044 0.143-0.031 0.269-0.103 0.383-0.215 0.112-0.111 0.197-0.28 0.26-0.505 0.062-0.225 0.093-0.531 0.093-0.917 0-0.694-0.099-1.173-0.293-1.438-0.194-0.264-0.495-0.396-0.901-0.396z" fill="#5c6e7f"/>
   </g>
   <g transform="translate(1184.1 305.68)">
    <path d="m0 0c-0.163 0-0.316 0.015-0.458 0.044-0.143 0.031-0.27 0.103-0.384 0.215-0.111 0.111-0.197 0.28-0.259 0.505-0.062 0.223-0.091 0.529-0.091 0.917 0 0.692 0.096 1.171 0.291 1.438 0.194 0.264 0.494 0.396 0.901 0.396h4.526c0.163 0 0.316-0.015 0.458-0.044 0.143-0.031 0.27-0.103 0.384-0.215 0.111-0.111 0.197-0.28 0.259-0.505s0.093-0.531 0.093-0.917c0-0.694-0.098-1.173-0.293-1.438-0.194-0.264-0.495-0.396-0.901-0.396z" fill="#5c6e7f"/>
   </g>
   <g transform="translate(1197 314.8)">
    <path d="m0 0c-0.713 0-1.314-0.088-1.803-0.262-0.49-0.173-0.878-0.362-1.163-0.564 0.184-0.265 0.399-0.552 0.642-0.858 0.246-0.306 0.5-0.611 0.764-0.917 0.265-0.306 0.526-0.601 0.78-0.886 0.257-0.285 0.495-0.531 0.72-0.733 0.549 0.345 0.987 0.798 1.314 1.36 0.326 0.56 0.489 1.044 0.489 1.453 0 0.143-0.02 0.301-0.059 0.474-0.042 0.171-0.124 0.324-0.246 0.459-0.122 0.132-0.301 0.244-0.534 0.334-0.236 0.093-0.536 0.14-0.904 0.14m-6.298-5.598c0.407 0 0.855 0.01 1.345 0.031 0.489 0.021 0.938 0.072 1.344 0.153l-3.056 3.671c0.059 0.264 0.147 0.544 0.258 0.839 0.112 0.295 0.231 0.583 0.353 0.857 0.122 0.275 0.254 0.524 0.396 0.749 0.143 0.225 0.277 0.407 0.399 0.552 0.653 0.671 1.443 1.207 2.37 1.604 0.928 0.398 1.93 0.598 3.013 0.598 0.935 0 1.751-0.124 2.446-0.368 0.691-0.246 1.269-0.565 1.728-0.964 0.458-0.396 0.8-0.852 1.023-1.36 0.225-0.51 0.337-1.031 0.337-1.559 0-0.695-0.239-1.49-0.718-2.386-0.479-0.899-1.179-1.702-2.096-2.417h4.925c0.163 0 0.316-0.016 0.458-0.044 0.143-0.031 0.27-0.104 0.381-0.215 0.114-0.112 0.2-0.28 0.262-0.505 0.06-0.226 0.091-0.531 0.091-0.917 0-0.695-0.096-1.174-0.291-1.438-0.194-0.264-0.494-0.396-0.901-0.396h-4.925c-0.531 0-1.127 0.085-1.787 0.259-0.663 0.173-1.27 0.463-1.821 0.873-0.917-0.347-1.819-0.625-2.707-0.827-0.886-0.205-1.788-0.305-2.705-0.305h-2.233c-0.163 0-0.316 0.015-0.458 0.044-0.143 0.031-0.27 0.103-0.384 0.215-0.111 0.111-0.197 0.279-0.259 0.505-0.062 0.222-0.091 0.528-0.091 0.917 0 0.691 0.096 1.171 0.291 1.437 0.194 0.265 0.494 0.397 0.901 0.397z" fill="#5c6e7f"/>
   </g>
   <g transform="translate(1204.8 305.68)">
    <path d="m0 0c-0.163 0-0.316 0.015-0.459 0.044-0.142 0.031-0.269 0.103-0.383 0.215-0.111 0.111-0.197 0.28-0.259 0.505-0.062 0.223-0.091 0.529-0.091 0.917 0 0.692 0.096 1.171 0.291 1.438 0.194 0.264 0.494 0.396 0.901 0.396h4.526c0.163 0 0.316-0.015 0.458-0.044 0.143-0.031 0.27-0.103 0.383-0.215 0.112-0.111 0.198-0.28 0.26-0.505s0.093-0.531 0.093-0.917c0-0.694-0.099-1.173-0.293-1.438-0.194-0.264-0.495-0.396-0.901-0.396z" fill="#5c6e7f"/>
   </g>
   <g transform="translate(1209.3 305.68)">
    <path d="m0 0c-0.163 0-0.316 0.015-0.459 0.044-0.142 0.031-0.269 0.103-0.383 0.215-0.111 0.111-0.197 0.28-0.259 0.505-0.062 0.223-0.091 0.529-0.091 0.917 0 0.692 0.096 1.171 0.29 1.438 0.195 0.264 0.495 0.396 0.902 0.396h4.526c0.163 0 0.316-0.015 0.458-0.044 0.143-0.031 0.269-0.103 0.384-0.215 0.111-0.111 0.196-0.28 0.258-0.505 0.063-0.225 0.094-0.531 0.094-0.917 0-0.694-0.099-1.173-0.293-1.438-0.194-0.264-0.495-0.396-0.901-0.396z" fill="#5c6e7f"/>
   </g>
   <g transform="translate(1217.4 309.2)">
    <path d="m0 0v18.317h3.974v-21.832h-7.492c-0.163 0-0.316 0.015-0.458 0.044-0.143 0.031-0.27 0.103-0.384 0.215-0.111 0.111-0.197 0.279-0.259 0.505-0.062 0.222-0.091 0.528-0.091 0.917 0 0.691 0.096 1.171 0.291 1.437 0.194 0.265 0.494 0.397 0.901 0.397z" fill="#5c6e7f"/>
   </g>
   <path d="m1229 305.68h-3.977v21.833h3.977z" fill="#5c6e7f"/>
   <g transform="translate(709.72 305.68)">
    <path d="m0 0h-4.282l-3.321 13.339h-0.055l-3.266-13.339h-4.365l-5.186 19.597h4.308l3.103-13.338h0.054l3.404 13.338h4.034l3.349-13.504h0.055l3.212 13.504h4.228z" fill="#5c6e7f"/>
   </g>
   <g transform="translate(716.55 325.28)">
    <path d="m0 0h3.899v-7.383h0.083c0.492 0.806 1.124 1.399 1.893 1.785 0.767 0.383 1.518 0.575 2.252 0.575 1.041 0 1.896-0.143 2.564-0.425 0.668-0.285 1.194-0.676 1.58-1.181 0.384-0.503 0.653-1.117 0.808-1.84 0.156-0.722 0.234-1.523 0.234-2.401v-8.727h-3.896v8.014c0 1.171-0.19 2.045-0.565 2.622-0.376 0.575-1.021 0.863-1.935 0.863-1.06 0-1.829-0.313-2.306-0.946-0.474-0.632-0.712-1.671-0.712-3.116v-7.437h-3.899z" fill="#5c6e7f"/>
   </g>
   <g transform="translate(742.39 314.3)">
    <path d="m0 0c-0.184 0.987-0.508 1.738-0.977 2.251-0.466 0.51-1.176 0.767-2.127 0.767-0.621 0-1.14-0.104-1.549-0.314-0.412-0.212-0.743-0.471-0.989-0.782-0.246-0.313-0.42-0.642-0.521-0.99-0.101-0.347-0.161-0.657-0.179-0.932zm-6.342-2.472c0.055-1.243 0.376-2.155 0.961-2.73 0.586-0.577 1.428-0.865 2.526-0.865 0.785 0 1.464 0.197 2.031 0.59 0.567 0.394 0.914 0.811 1.041 1.249h3.433c-0.549-1.684-1.391-2.901-2.526-3.65-1.134-0.751-2.507-1.127-4.116-1.127-1.117 0-2.125 0.184-3.021 0.549-0.896 0.368-1.655 0.879-2.277 1.539-0.624 0.658-1.104 1.446-1.443 2.36-0.336 0.915-0.508 1.922-0.508 3.018 0 1.062 0.174 2.052 0.524 2.966 0.347 0.915 0.839 1.705 1.482 2.373 0.639 0.669 1.404 1.195 2.292 1.58 0.886 0.384 1.871 0.576 2.951 0.576 1.207 0 2.259-0.234 3.155-0.7s1.635-1.093 2.21-1.881c0.578-0.787 0.992-1.683 1.248-2.688 0.257-1.008 0.348-2.06 0.275-3.159z" fill="#5c6e7f"/>
   </g>
   <g transform="translate(748.59 319.87)">
    <path d="m0 0h3.707v-2.635h0.055c0.181 0.438 0.43 0.845 0.74 1.221 0.311 0.375 0.669 0.696 1.07 0.961 0.402 0.264 0.837 0.471 1.303 0.616 0.469 0.148 0.938 0.22 1.415 0.22 0.293 0 0.577-0.046 0.852-0.137v-3.622c-0.184 0.037-0.404 0.068-0.66 0.096-0.257 0.026-0.503 0.042-0.741 0.042-0.713 0-1.316-0.122-1.811-0.358-0.495-0.238-0.891-0.562-1.194-0.974-0.304-0.412-0.518-0.899-0.646-1.456-0.129-0.559-0.191-1.147-0.191-1.769v-6.396h-3.899z" fill="#5c6e7f"/>
   </g>
   <g transform="translate(768.33 314.3)">
    <path d="m0 0c-0.184 0.987-0.508 1.738-0.977 2.251-0.466 0.51-1.176 0.767-2.126 0.767-0.622 0-1.14-0.104-1.55-0.314-0.412-0.212-0.743-0.471-0.989-0.782-0.246-0.313-0.42-0.642-0.521-0.99-0.101-0.347-0.161-0.657-0.179-0.932zm-6.342-2.472c0.055-1.243 0.376-2.155 0.962-2.73 0.585-0.577 1.427-0.865 2.525-0.865 0.785 0 1.464 0.197 2.031 0.59 0.567 0.394 0.915 0.811 1.042 1.249h3.432c-0.549-1.684-1.391-2.901-2.526-3.65-1.134-0.751-2.507-1.127-4.116-1.127-1.117 0-2.124 0.184-3.021 0.549-0.896 0.368-1.655 0.879-2.277 1.539-0.624 0.658-1.103 1.446-1.443 2.36-0.336 0.915-0.508 1.922-0.508 3.018 0 1.062 0.174 2.052 0.524 2.966 0.347 0.915 0.839 1.705 1.482 2.373 0.639 0.669 1.404 1.195 2.292 1.58 0.886 0.384 1.871 0.576 2.951 0.576 1.207 0 2.259-0.234 3.155-0.7 0.897-0.466 1.635-1.093 2.21-1.881 0.578-0.787 0.992-1.683 1.248-2.688 0.257-1.008 0.348-2.06 0.275-3.159z" fill="#5c6e7f"/>
   </g>
   <g transform="translate(786.9 321.66)">
    <path d="m0 0h-5.873v3.622h16.056v-3.622h-5.872v-15.976h-4.311z" fill="#5c6e7f"/>
   </g>
   <g transform="translate(798.93 325.28)">
    <path d="m0 0h3.899v-7.383h0.083c0.492 0.806 1.124 1.399 1.893 1.785 0.767 0.383 1.518 0.575 2.252 0.575 1.041 0 1.896-0.143 2.564-0.425 0.668-0.285 1.194-0.676 1.58-1.181 0.384-0.503 0.653-1.117 0.809-1.84 0.155-0.722 0.233-1.523 0.233-2.401v-8.727h-3.896v8.014c0 1.171-0.19 2.045-0.565 2.622-0.376 0.575-1.021 0.863-1.935 0.863-1.06 0-1.829-0.313-2.306-0.946-0.474-0.632-0.712-1.671-0.712-3.116v-7.437h-3.899z" fill="#5c6e7f"/>
   </g>
   <g transform="translate(824.76 314.3)">
    <path d="m0 0c-0.184 0.987-0.508 1.738-0.977 2.251-0.466 0.51-1.176 0.767-2.126 0.767-0.622 0-1.14-0.104-1.55-0.314-0.412-0.212-0.743-0.471-0.989-0.782-0.246-0.313-0.42-0.642-0.521-0.99-0.101-0.347-0.16-0.657-0.179-0.932zm-6.342-2.472c0.055-1.243 0.376-2.155 0.962-2.73 0.585-0.577 1.427-0.865 2.525-0.865 0.785 0 1.464 0.197 2.031 0.59 0.568 0.394 0.915 0.811 1.042 1.249h3.432c-0.549-1.684-1.391-2.901-2.526-3.65-1.134-0.751-2.507-1.127-4.116-1.127-1.116 0-2.124 0.184-3.021 0.549-0.896 0.368-1.655 0.879-2.277 1.539-0.624 0.658-1.103 1.446-1.443 2.36-0.336 0.915-0.507 1.922-0.507 3.018 0 1.062 0.173 2.052 0.523 2.966 0.347 0.915 0.839 1.705 1.482 2.373 0.64 0.669 1.404 1.195 2.292 1.58 0.886 0.384 1.871 0.576 2.951 0.576 1.207 0 2.259-0.234 3.155-0.7 0.897-0.466 1.635-1.093 2.21-1.881 0.578-0.787 0.992-1.683 1.249-2.688 0.256-1.008 0.347-2.06 0.274-3.159z" fill="#5c6e7f"/>
   </g>
   <g transform="translate(857.67 305.68)">
    <path d="m0 0h-4.282l-3.321 13.339h-0.055l-3.266-13.339h-4.365l-5.187 19.597h4.308l3.104-13.338h0.054l3.404 13.338h4.034l3.349-13.504h0.055l3.212 13.504h4.228z" fill="#5c6e7f"/>
   </g>
   <g transform="translate(866.95 312.76)">
    <path d="m0 0c0-0.567 0.054-1.119 0.166-1.661 0.109-0.538 0.298-1.023 0.562-1.453s0.616-0.774 1.057-1.028c0.44-0.257 0.987-0.386 1.648-0.386 0.658 0 1.212 0.129 1.66 0.386 0.448 0.254 0.806 0.598 1.07 1.028s0.453 0.915 0.562 1.453c0.112 0.542 0.166 1.094 0.166 1.661s-0.054 1.127-0.166 1.676c-0.109 0.549-0.298 1.034-0.562 1.453-0.264 0.423-0.622 0.765-1.07 1.032-0.448 0.264-1.002 0.396-1.66 0.396-0.661 0-1.208-0.132-1.648-0.396-0.441-0.267-0.793-0.609-1.057-1.032-0.264-0.419-0.453-0.904-0.562-1.453-0.112-0.549-0.166-1.109-0.166-1.676m-3.896 0c0 1.135 0.173 2.166 0.521 3.09 0.347 0.923 0.841 1.71 1.481 2.361 0.64 0.647 1.41 1.152 2.306 1.51 0.896 0.355 1.904 0.533 3.021 0.533 1.116 0 2.126-0.178 3.033-0.533 0.904-0.358 1.679-0.863 2.318-1.51 0.64-0.651 1.135-1.438 1.482-2.361 0.348-0.924 0.521-1.955 0.521-3.09s-0.173-2.158-0.521-3.072c-0.347-0.917-0.842-1.7-1.482-2.347-0.639-0.651-1.414-1.153-2.318-1.511-0.907-0.357-1.917-0.536-3.033-0.536-1.117 0-2.125 0.179-3.021 0.536-0.896 0.358-1.666 0.86-2.306 1.511-0.64 0.647-1.134 1.43-1.481 2.347-0.348 0.914-0.521 1.937-0.521 3.072" fill="#5c6e7f"/>
   </g>
   <g transform="translate(880.26 319.87)">
    <path d="m0 0h3.707v-2.635h0.054c0.182 0.438 0.43 0.845 0.741 1.221 0.311 0.375 0.669 0.696 1.07 0.961 0.402 0.264 0.837 0.471 1.303 0.616 0.469 0.148 0.938 0.22 1.415 0.22 0.292 0 0.577-0.046 0.852-0.137v-3.622c-0.184 0.037-0.404 0.068-0.661 0.096-0.256 0.026-0.502 0.042-0.741 0.042-0.712 0-1.316-0.122-1.81-0.358-0.495-0.238-0.891-0.562-1.195-0.974-0.303-0.412-0.518-0.899-0.645-1.456-0.129-0.559-0.191-1.147-0.191-1.769v-6.396h-3.899z" fill="#5c6e7f"/>
   </g>
   <path d="m891.05 325.28h3.896v-19.597h-3.896z" fill="#5c6e7f"/>
   <g transform="translate(908.09 312.82)">
    <path d="m0 0c0 0.567-0.055 1.124-0.166 1.673-0.109 0.55-0.298 1.029-0.562 1.441s-0.614 0.746-1.044 1.002c-0.43 0.257-0.956 0.384-1.578 0.384-0.64 0-1.178-0.127-1.619-0.384-0.44-0.256-0.792-0.596-1.057-1.015-0.264-0.422-0.458-0.902-0.575-1.44-0.119-0.542-0.179-1.104-0.179-1.69 0-0.549 0.063-1.098 0.192-1.647 0.127-0.549 0.334-1.039 0.617-1.469 0.285-0.43 0.64-0.777 1.072-1.041 0.428-0.267 0.946-0.399 1.549-0.399 0.64 0 1.176 0.129 1.606 0.386 0.43 0.254 0.772 0.598 1.029 1.028 0.256 0.43 0.44 0.92 0.549 1.469 0.111 0.549 0.166 1.117 0.166 1.702m0.054-5.326h-0.054c-0.459-0.77-1.062-1.326-1.811-1.674-0.751-0.347-1.585-0.523-2.5-0.523-1.08 0-2.015 0.212-2.813 0.632-0.795 0.422-1.453 0.984-1.977 1.689-0.52 0.705-0.914 1.513-1.178 2.43-0.267 0.915-0.399 1.865-0.399 2.852 0 0.954 0.132 1.873 0.399 2.759 0.264 0.889 0.658 1.671 1.178 2.347 0.524 0.679 1.177 1.223 1.964 1.635s1.702 0.616 2.746 0.616c0.839 0 1.64-0.178 2.401-0.533 0.759-0.358 1.358-0.884 1.798-1.581h0.055v7.138h3.898v-19.598h-3.707z" fill="#5c6e7f"/>
   </g>
   <path d="m922.83 325.28h4.311v-19.597h-4.311z" fill="#5c6e7f"/>
   <g transform="translate(933.54 310.29)">
    <path d="m0 0c0-0.422 0.086-0.782 0.259-1.085 0.174-0.301 0.399-0.55 0.674-0.741 0.274-0.192 0.59-0.334 0.948-0.425 0.355-0.091 0.725-0.137 1.111-0.137 0.275 0 0.562 0.031 0.863 0.096 0.303 0.064 0.577 0.165 0.824 0.302 0.248 0.138 0.453 0.319 0.619 0.55 0.163 0.228 0.246 0.515 0.246 0.863 0 0.292-0.101 0.543-0.301 0.756-0.202 0.21-0.492 0.396-0.865 0.562-0.376 0.166-0.837 0.316-1.386 0.453-0.549 0.138-1.171 0.277-1.867 0.425-0.568 0.127-1.122 0.28-1.661 0.454-0.539 0.173-1.021 0.401-1.441 0.686-0.422 0.282-0.758 0.64-1.015 1.07-0.256 0.43-0.386 0.956-0.386 1.577 0 0.897 0.179 1.643 0.536 2.239 0.358 0.593 0.829 1.059 1.415 1.399 0.585 0.339 1.243 0.577 1.976 0.715 0.731 0.137 1.482 0.204 2.251 0.204 0.767 0 1.513-0.072 2.236-0.22 0.723-0.145 1.368-0.394 1.935-0.741 0.568-0.347 1.039-0.808 1.415-1.386 0.373-0.575 0.598-1.303 0.671-2.181h-3.705c-0.054 0.749-0.339 1.256-0.852 1.523-0.511 0.265-1.114 0.399-1.811 0.399-0.22 0-0.459-0.015-0.712-0.041-0.257-0.029-0.49-0.088-0.702-0.179-0.21-0.093-0.389-0.225-0.534-0.399-0.148-0.174-0.22-0.407-0.22-0.699 0-0.348 0.127-0.633 0.383-0.853 0.257-0.217 0.591-0.396 1.003-0.533 0.412-0.138 0.883-0.262 1.414-0.371 0.531-0.111 1.07-0.23 1.619-0.357 0.568-0.127 1.122-0.285 1.661-0.466 0.539-0.184 1.021-0.425 1.44-0.729 0.423-0.3 0.759-0.675 1.016-1.124 0.256-0.448 0.386-1.002 0.386-1.66 0-0.935-0.19-1.718-0.563-2.347-0.375-0.632-0.865-1.14-1.468-1.524-0.604-0.386-1.296-0.66-2.073-0.823-0.779-0.166-1.57-0.249-2.375-0.249-0.824 0-1.63 0.083-2.415 0.249-0.787 0.163-1.487 0.443-2.101 0.836-0.614 0.394-1.116 0.91-1.51 1.552-0.394 0.64-0.609 1.428-0.645 2.36z" fill="#5c6e7f"/>
   </g>
  </g>
 </g>
</svg>
