<?xml version="1.0" encoding="UTF-8"?>
<svg id="Layer_2" data-name="Layer 2" xmlns="http://www.w3.org/2000/svg" viewBox="0 0 614.3 230.89">
  <defs>
    <style>
      .cls-1 {
        fill: #59595c;
      }

      .cls-1, .cls-2, .cls-3, .cls-4, .cls-5 {
        stroke-width: 0px;
      }

      .cls-2 {
        fill: gray;
      }

      .cls-3 {
        fill: #021c39;
      }

      .cls-4 {
        fill: #fff;
      }

      .cls-5 {
        fill: #ee8a20;
      }
    </style>
  </defs>
  <g id="LOGO_DULANI">
    <g>
      <path class="cls-5" d="M40.87,103.2c-2.48,1.5-5.83,2.25-10.03,2.25H11.86v-50.9h18.88c3.98,0,7.22.67,9.71,1.99,2.48,1.34,4.42,3.1,5.81,5.31,1.41,2.2,2.35,4.79,2.84,7.77.49,2.98.74,6.06.74,9.28,0,2.31-.11,4.58-.3,6.82-.09,1.02-.2,2.04-.34,3.05-.42,3.21-1.29,6.04-2.62,8.49-1.17,2.17-2.8,3.96-4.88,5.39-.26.2-.55.37-.83.55M61.11,65.59c-.95-4.26-2.52-8.04-4.72-11.29-2.2-3.24-5.11-5.85-8.7-7.8-3.61-1.95-8.07-2.95-13.39-2.95H0v72.92h34.51c5.6,0,10.22-1.06,13.85-3.15,3.64-2.1,6.52-4.9,8.61-8.39.95-1.59,1.76-3.28,2.43-5.07.85-2.17,1.48-4.47,1.92-6.94.62-3.47.99-7.05,1.13-10.71.05-1.09.07-2.18.07-3.29,0-4.62-.45-9.06-1.41-13.32"/>
      <path class="cls-1" d="M120.24,43.55v40.82c0,3.37-.25,6.4-.76,9.07-.03.16-.05.32-.09.48-.56,2.78-1.52,5.13-2.89,7.03-1.36,1.89-3.19,3.31-5.5,4.3-2.31.97-5.22,1.46-8.72,1.46s-6.62-.47-8.97-1.41c-2.35-.96-4.17-2.34-5.5-4.21-.93-1.29-1.66-2.81-2.18-4.56-.24-.76-.44-1.57-.6-2.41-.53-2.78-.79-6.05-.79-9.75v-40.82h-11.86v41.54c0,4.76.42,9.04,1.29,12.84.07.33.14.67.23,1,1.03,4.07,2.68,7.48,4.99,10.29,2.31,2.8,5.37,4.92,9.18,6.35,3.83,1.44,8.57,2.15,14.22,2.15s10.1-.74,13.9-2.25c3.83-1.5,6.89-3.64,9.23-6.45,2.34-2.8,4.05-6.2,5.1-10.24.51-1.92.88-3.94,1.14-6.11.3-2.38.44-4.9.44-7.58v-41.54h-11.86Z"/>
      <polygon class="cls-1" points="155.68 105.46 155.68 43.55 143.85 43.55 143.85 116.47 187.91 116.47 191.15 105.46 155.68 105.46"/>
      <path class="cls-1" d="M223.05,68.34l2.71-7.36,1.69-8.19,1.67,8.19,3.15,8.05,6.39,16.39h-21.93l6.3-17.07ZM254.02,93.76l-9.21-23.54-10.43-26.67h-14.17l-9,24.15-8.81,23.63-9.37,25.14h12.49l7.67-20.77h29.37l8.08,20.77h12.28l-8.9-22.71Z"/>
      <polygon class="cls-1" points="319.45 43.55 319.45 98.22 309.01 81.43 285.47 43.55 270.99 43.55 270.99 116.47 282.84 116.47 282.84 60.55 293.54 77.88 306.84 99.41 317.36 116.47 331.31 116.47 331.31 43.55 319.45 43.55"/>
      <rect class="cls-1" x="344.01" y="43.54" width="11.86" height="72.92"/>
      <path class="cls-1" d="M28.03,156.66c0,8.11-6.22,15.08-13.89,15.08S.16,164.95.16,156.66v-4.32h4.99v3.75c0,6.04,3.61,10.94,9,10.94s8.91-4.81,8.91-10.94v-20.11h4.98v20.69Z"/>
      <path class="cls-1" d="M44.75,164.42h-5.78c-2.38,0-4.19-.75-5.47-2.29-1.19-1.41-1.76-3.31-1.76-5.73v-20.42h4.9v18.44c0,2.16.49,3.57,1.41,4.23.66.49,1.94.75,3.79.75h2.91v5.03Z"/>
      <path class="cls-1" d="M64.55,158.07c0-1.54-.4-2.91-1.19-4.01-.93-1.19-2.21-1.81-3.75-1.81s-2.69.57-3.57,1.76c-.75,1.02-1.15,2.34-1.15,3.88,0,3.18,1.94,5.78,4.98,5.78,1.5,0,2.69-.58,3.53-1.68.75-1.02,1.15-2.34,1.15-3.93M74.03,164.42h-6.31c-1.89,2.56-4.54,3.84-7.98,3.84s-6-1.28-7.9-3.84h-8.76v-5.03h6.78c-.04-.49-.04-.97-.04-1.46,0-2.96.92-5.38,2.73-7.28,1.85-1.89,4.24-2.86,7.19-2.86s5.34.97,7.14,2.95c1.81,1.99,2.74,4.41,2.74,7.36v1.28h4.41v5.03Z"/>
      <path class="cls-1" d="M97.28,164.42h-24.43v-5.03h6.39c-.66-1.46-.97-3-.97-4.63,0-2.95.93-5.47,2.82-7.54,1.9-2.08,4.37-3.09,7.32-3.09,3.88,0,7.19,2.12,8.64,5.69l-4.23,2.03c-.75-2.25-2.29-3.4-4.63-3.4-1.63,0-2.86.66-3.74,1.94-.79,1.15-1.19,2.56-1.19,4.28,0,1.98.53,3.53,1.59,4.72h12.44v5.03Z"/>
      <path class="cls-1" d="M129.43,164.42h-27.61v-5.03h6.75l-5.56-20.29h5.2l5.51,20.29c1.37,0,2.34-.31,3-.97.84-.83,1.24-2.25,1.24-4.24v-18.21h4.8v21.52c0,.66-.04,1.28-.18,1.9h6.84v5.03ZM109.45,136.99h-7.63v-2.02h1.76c-.26-.84-.4-1.33-.4-1.55,0-2.07,1.54-3.57,3.44-3.57,1.23,0,2.16.66,2.78,1.94l-1.59.84c-.13-.66-.57-.97-1.23-.97-.93,0-1.5.84-1.5,1.68,0,.75.26,1.32.79,1.63h3.58v2.02Z"/>
      <path class="cls-1" d="M142.44,156.44c0,5.34-2.47,7.98-7.41,7.98h-7.22v-5.03h6.21c1.63,0,2.65-.49,3.13-1.46.22-.53.35-1.59.35-3.18v-18.79h4.94v20.46Z"/>
      <path class="cls-1" d="M173.6,181.49h-4.85v-4.9h4.85v4.9ZM165.27,181.49h-4.85v-4.9h4.85v4.9ZM190.49,159.39v5.03c-5.43,0-6.97-.83-9-3.88-1.41,6.88-7.32,11.2-14.5,11.2-8.47,0-15.17-6.62-15.17-15.3v-4.94h4.94v4.37c0,6.84,3.97,11.11,10.36,11.11,5.73,0,10.06-3.79,10.06-8.29,0-2.74-1.63-4.67-4.46-4.67-.26,0-.53,0-.79.04v-4.5h1.95c3.88,0,6.79,1.76,8.73,5.25,1.81,3.31,3.53,4.59,6.04,4.59h1.85Z"/>
      <path class="cls-1" d="M204.21,140.34h-4.85v-4.9h4.85v4.9ZM211.62,164.42h-22.39v-5.03h6.6c1.46,0,2.43-.49,2.95-1.5.36-.66.53-1.81.53-3.35v-10.14h4.9v9.88c0,2.6-.36,4.28-1.06,5.12h8.47v5.03Z"/>
      <path class="cls-1" d="M226.81,156.44c0,5.34-2.47,7.98-7.41,7.98h-9.24v-5.03h8.23c1.63,0,2.65-.49,3.13-1.46.22-.53.35-1.59.35-3.18v-18.79h4.94v20.46Z"/>
      <path class="cls-1" d="M251.91,164.42h-20.95v-5.03h15.97c0-5.78-2.25-9.13-6.71-10.1-1.37-.31-2.86-.4-4.45-.4v-4.5c2.42,0,3.97.04,4.59.09s1.5.22,2.65.62c5.91,1.99,8.86,6.75,8.91,14.29v5.03Z"/>
      <path class="cls-1" d="M270.74,140.34h-4.85v-4.9h4.85v4.9ZM278.37,164.42h-7.89c-.75,4.72-4.77,7.32-10.76,7.32v-4.23c4.1,0,6.13-2.03,6.13-6.26v-16.85h4.94v14.99h7.58v5.03Z"/>
      <path class="cls-1" d="M308.17,161.34v3.08h-31.52v-5.03h26.23c0-2.73-.79-5.07-2.38-7.01-1.85-2.25-4.41-3.36-7.63-3.36h-10.19l8.69-13.05h5.86l-5.95,8.42h2.16c3.26,0,6.09.8,8.47,2.43,4.19,2.78,6.26,7.58,6.26,14.51"/>
      <path class="cls-1" d="M328.08,164.42h-7.89c-.75,4.72-4.77,7.32-10.76,7.32v-4.23c4.1,0,6.13-2.03,6.13-6.26v-16.85h4.94v14.99h7.58v5.03Z"/>
      <path class="cls-1" d="M351.13,158.16c0-3.35-2.03-5.86-4.94-5.86s-4.76,2.34-4.76,5.65,2.07,5.82,5.03,5.82c2.74,0,4.68-2.25,4.68-5.6M356.2,158.16c0,5.86-4.01,10.19-9.88,10.19-3.4,0-6.09-1.32-7.98-3.92h-11.97v-5.03h10.12l-.04-.22c-.05-.4-.09-.79-.09-1.19,0-5.91,4.1-10.14,9.97-10.14s9.88,4.54,9.88,10.32"/>
      <path class="cls-1" d="M41.61,103.04c5.8-.98,11.68-1.91,17.65-2.79-.67,1.79-1.47,3.48-2.42,5.06-2.09,3.48-4.95,6.27-8.58,8.36-3.62,2.08-8.22,3.14-13.8,3.14H.04v-5.27c8.47-2.05,17.23-3.95,26.28-5.71,5-.99,10.12-1.92,15.29-2.79"/>
      <polygon class="cls-1" points="491.61 105.93 499.17 43.46 506.75 105.93 499.17 113.52 491.61 105.93"/>
      <polygon class="cls-1" points="491.61 105.93 499.17 43.51 499.17 113.52 491.61 105.93"/>
      <polygon class="cls-1" points="491.69 121.14 429.29 113.53 491.61 105.93 499.17 113.51 491.69 121.14"/>
      <polygon class="cls-1" points="491.61 121.11 429.29 113.53 499.17 113.52 491.61 121.11"/>
      <polygon class="cls-1" points="506.75 121.11 499.18 183.59 491.61 121.11 499.17 113.52 506.75 121.11"/>
      <polygon class="cls-1" points="506.75 121.11 499.19 183.54 499.19 113.52 506.75 121.11"/>
      <polygon class="cls-1" points="506.75 105.93 569.06 113.52 506.75 121.11 499.17 113.52 506.75 105.93"/>
      <polygon class="cls-1" points="506.75 105.93 569.01 113.52 499.17 113.52 506.75 105.93"/>
      <polygon class="cls-1" points="493.25 113.53 471.82 86.09 499.18 107.58 499.17 113.52 493.25 113.53"/>
      <polygon class="cls-1" points="493.25 113.53 471.83 86.12 499.17 113.52 493.25 113.53"/>
      <polygon class="cls-1" points="499.22 119.45 471.81 140.95 493.25 113.52 499.17 113.52 499.22 119.45"/>
      <polygon class="cls-1" points="499.18 119.47 471.82 140.95 499.17 113.52 499.18 119.47"/>
      <polygon class="cls-1" points="505.1 113.53 526.54 140.95 499.18 119.47 499.17 113.52 505.1 113.53"/>
      <polygon class="cls-1" points="505.1 113.53 526.52 140.94 499.18 113.52 505.1 113.53"/>
      <polygon class="cls-2" points="499.18 107.58 526.53 86.09 505.11 113.53 499.17 113.52 499.18 107.58"/>
      <polygon class="cls-2" points="499.18 107.58 526.51 86.11 499.17 113.52 499.18 107.58"/>
      <path class="cls-5" d="M614.25,101.39c-2.9-2.2-6.46-3.5-10.34-3.5-4.2,0-8.02,1.5-11.01,3.95-1.4-9.77-4.3-19.1-8.46-27.69-1.21-2.48-2.48-4.9-3.89-7.26-14.45-24.22-39.3-41.47-68.42-45.57,2.55-2.99,4.07-6.87,4.07-11.11,0-3.82-1.24-7.35-3.38-10.21,32.68,3.91,61.2,21.38,79.75,46.62,7.51,10.19,13.4,21.68,17.25,34.03,2.07,6.68,3.56,13.59,4.42,20.75"/>
      <path class="cls-5" d="M485.59,21.35c-41.59,5.83-74.53,38.6-80.61,80.1-3.09-2.8-7.13-4.52-11.62-4.52-3.56,0-6.87,1.08-9.6,2.92,6.97-52.25,48.66-93.53,101.13-99.86-2.1,2.86-3.34,6.39-3.34,10.21,0,4.24,1.52,8.11,4.04,11.14"/>
      <path class="cls-1" d="M614.3,129.07c-6.29,53.58-48.99,96-102.71,101.82,2.81-3.08,4.53-7.19,4.53-11.67,0-3.71-1.17-7.12-3.14-9.94,41.43-6.15,74.12-39.08,79.95-80.63,2.98,2.44,6.81,3.92,10.97,3.92,3.9,0,7.49-1.31,10.4-3.5"/>
      <path class="cls-5" d="M485.99,230.85c-36.03-3.97-67.08-24.43-85.5-53.65-9.07-14.4-15.06-30.96-17.05-48.71,2.81,1.95,6.22,3.12,9.91,3.12,4.37,0,8.34-1.62,11.37-4.27,1.17,9.28,3.66,18.13,7.3,26.35,12.9,29.17,40.05,50.64,72.63,55.57-2,2.82-3.17,6.25-3.17,9.96,0,4.49,1.71,8.55,4.51,11.63"/>
      <path class="cls-1" d="M396,111.65l1.23-2.63c.18-.39.23-.66.15-.81-.08-.17-.36-.25-.83-.25h-1.15c-.41,0-.66.08-.75.23-.08.16-.04.43.12.78l1.22,2.68ZM391.4,121.83l-5.24-11.92c-.26-.59-.41-.92-.45-.99-.22-.4-.44-.66-.67-.78-.23-.12-.53-.18-.89-.18h-.18v-.91h5.69v.91c-.43.04-.68.17-.76.39-.07.22,0,.57.2,1.03l3.97,8.96,1.37-3.04-2.53-5.76c-.23-.53-.41-.87-.54-1.05-.26-.34-.56-.52-.92-.53v-.91h9.4v.91c-.52.1-.89.35-1.13.72-.14.22-.3.55-.5.99l-1.56,3.44,2.25,4.95,2.95-8.14c.24-.66.29-1.16.13-1.46-.16-.32-.54-.48-1.16-.49v-.91h4.34v.91c-.57.03-1.02.25-1.35.65-.23.27-.48.75-.73,1.44l-4.33,11.79h-1.39l-2.29-5.12-2.23,5.12h-1.43Z"/>
      <path class="cls-1" d="M493.22,229.15l-.67-4.98h1.06c.89,2.73,2.45,4.09,4.67,4.09,1.24,0,2.16-.43,2.76-1.3.26-.4.4-.85.4-1.36,0-.95-.51-1.8-1.52-2.56-.36-.28-1.29-.8-2.76-1.58-1.45-.74-2.47-1.4-3.07-1.98-.94-.91-1.42-1.99-1.42-3.23,0-1.01.32-1.89.95-2.62.59-.69,1.38-1.2,2.37-1.51.67-.21,1.42-.32,2.22-.32.89,0,1.7.1,2.42.28,1.09.3,1.67.45,1.73.45.2,0,.4-.11.6-.32h.57l.52,4.43h-1.09c-.29-1.07-.82-1.94-1.6-2.61-.82-.7-1.77-1.05-2.85-1.05-.66,0-1.24.15-1.75.44-.62.36-.92.84-.92,1.45,0,.78.5,1.51,1.48,2.16.83.45,1.66.89,2.5,1.32,1.6.89,2.81,1.73,3.61,2.54,1.04,1.04,1.56,2.25,1.56,3.62,0,1.96-.97,3.43-2.91,4.4-.9.46-1.88.68-2.92.68-.64,0-1.52-.14-2.65-.43-1.12-.29-1.79-.44-2.01-.44-.26,0-.45.15-.58.44h-.71Z"/>
      <path class="cls-1" d="M610.34,108.99c-.12-.91-.27-1.55-.44-1.88-.29-.54-.8-.82-1.51-.82h-6.21v6.75h4.6c.76,0,1.31-.16,1.63-.48.33-.33.5-.89.5-1.69h1.13v5.98h-1.13c0-1.07-.31-1.73-.92-1.96-.36-.14-.91-.21-1.64-.21h-4.16v5.41c0,.54.05.92.16,1.11.13.3.43.44.89.44h4.73c1.03,0,1.79-.25,2.27-.73.43-.43.76-1.2.99-2.32h1.06l-.33,4.71h-17.04v-1.17h1.16c1.48,0,2.22-.72,2.22-2.15v-11.97c0-.89-.21-1.49-.63-1.8-.35-.27-.97-.4-1.85-.4h-.28v-1.17h15.59l.3,4.35h-1.08Z"/>
      <polygon class="cls-2" points="515.18 90.11 514.89 89.89 551.32 48 551.59 48.25 515.18 90.11"/>
      <polygon class="cls-5" points="511.96 84.05 555.49 43.84 517.61 110.52 496.92 118.19 499.27 95.77 511.96 84.05"/>
      <path class="cls-1" d="M495.78,119.65l2.55-24.36,12.96-11.97,48.19-44.5-41.19,72.5-.34.12-22.17,8.21ZM500.2,96.24l-2.14,20.48,18.87-6.99,34.59-60.88-51.32,47.4Z"/>
      <polygon class="cls-1" points="555.49 43.84 496.92 118.19 517.62 110.52 555.49 43.84"/>
      <path class="cls-1" d="M481.48,219.22c0,4.48,1.71,8.55,4.51,11.63-36.03-3.97-67.08-24.43-85.5-53.65,3.24-8.18,7.09-16.04,11.53-23.51,12.89,29.17,40.05,50.64,72.63,55.57-1.99,2.82-3.17,6.25-3.17,9.96"/>
      <path class="cls-1" d="M614.3,129.07c-6.29,53.58-48.99,96-102.71,101.82,2.81-3.08,4.53-7.19,4.53-11.67,0-3.71-1.17-7.12-3.14-9.94,41.43-6.15,74.12-39.08,79.95-80.63,2.98,2.44,6.81,3.92,10.97,3.92,3.9,0,7.49-1.31,10.4-3.5"/>
      <path class="cls-1" d="M592.9,101.85c-1.41-9.8-4.3-19.12-8.45-27.71,8.71,1.5,17.17,3.69,25.36,6.5,2.09,6.67,3.59,13.61,4.44,20.74-2.89-2.18-6.46-3.48-10.36-3.48-4.18,0-8.01,1.48-10.99,3.94"/>
      <path class="cls-1" d="M496.57,1.86l8.31,10.46v-7.25c0-1.01-.14-1.69-.43-2.05-.4-.48-1.06-.71-2-.7v-.46h5.57v.46c-.71.09-1.19.21-1.44.35-.24.15-.43.38-.57.71-.14.33-.2.89-.2,1.68v14.04h-.42l-11.4-14.04v10.72c0,.97.22,1.62.66,1.96s.96.51,1.53.51h.4v.46h-5.98v-.46c.93,0,1.57-.2,1.94-.57.36-.38.55-1.01.55-1.9V3.89l-.36-.45c-.35-.44-.67-.74-.94-.88s-.66-.22-1.18-.23v-.46h5.98Z"/>
      <path class="cls-4" d="M499.51,108.32c-2.83,0-5.19,2.36-5.19,5.19s2.36,5.19,5.19,5.19,5.19-2.28,5.19-5.19-2.28-5.19-5.19-5.19M499.51,117.75c-2.28,0-4.17-1.89-4.17-4.24s1.89-4.17,4.17-4.17,4.24,1.89,4.24,4.17-1.89,4.24-4.24,4.24"/>
      <path class="cls-1" d="M499.51,107.37c-3.38,0-6.13,2.75-6.13,6.13s2.75,6.21,6.13,6.21,6.21-2.75,6.21-6.21-2.83-6.13-6.21-6.13M499.51,117.75c-2.28,0-4.17-1.89-4.17-4.24s1.89-4.17,4.17-4.17,4.24,1.89,4.24,4.17-1.89,4.24-4.24,4.24"/>
      <path class="cls-3" d="M503.76,113.5c0,2.36-1.89,4.24-4.24,4.24s-4.17-1.89-4.17-4.24,1.89-4.17,4.17-4.17,4.24,1.89,4.24,4.17"/>
    </g>
  </g>
</svg>