<?xml version="1.0" encoding="UTF-8"?><svg id="Layer_2" xmlns="http://www.w3.org/2000/svg" viewBox="0 0 637.62 180"><defs><style>.cls-1{fill:#0061ad;}.cls-1,.cls-2,.cls-3,.cls-4,.cls-5,.cls-6,.cls-7,.cls-8,.cls-9{stroke-width:0px;}.cls-1,.cls-2,.cls-3,.cls-5,.cls-7,.cls-9{fill-rule:evenodd;}.cls-2{fill:#ed7004;}.cls-3{fill:#afca0b;}.cls-4,.cls-5{fill:#fff;}.cls-6{fill:#6f6f6e;}.cls-7{fill:#5c2483;}.cls-8{fill:#1d1d1b;}.cls-9{fill:#c00d0d;}</style></defs><g id="Layer_1-2"><path class="cls-7" d="M34.51,42.39c19.06,0,34.51,15.45,34.51,34.51s-15.45,34.51-34.51,34.51S0,95.95,0,76.89s15.45-34.51,34.51-34.51"/><path class="cls-8" d="M593.39,175.54v3.89h-4.79v-3.89h4.79ZM575.68,164.58h-4.36c0-.56-.03-1.02-.08-1.37-.05-.36-.29-.64-.72-.84-.43-.2-1.05-.34-1.89-.42-.83-.08-1.87-.11-3.11-.11h-1.76c-1.49,0-2.69.03-3.59.1-.9.06-1.68.24-2.31.52-.64.28-.96,1.07-.96,2.37,0,1.15.3,1.92.9,2.33.46.31,1.33.5,2.61.57.5,0,1.43.03,2.79.08,1.36.05,2.14.08,2.31.08,4.22,0,7.09.43,8.62,1.3,1.52.87,2.29,2.41,2.29,4.62,0,2.01-.75,3.49-2.26,4.45-1.51.95-4.74,1.43-9.71,1.43-3.62,0-6.24-.2-7.87-.61-2.84-.71-4.25-2.07-4.25-4.09v-1.87h4.36v.76c0,.89.08,1.49.24,1.79.16.31.45.55.88.73.92.33,2.22.52,3.88.57,1.67.05,3.08.08,4.25.08,2.13,0,3.62-.18,4.47-.53,1.1-.45,1.65-1.31,1.65-2.58s-.32-2.13-.96-2.58c-.43-.3-1.03-.48-1.81-.55-.78-.06-2.11-.1-3.99-.1-5.42,0-8.89-.46-10.4-1.4-1.51-.93-2.26-2.44-2.26-4.54,0-2.53,1.19-4.17,3.56-4.94,1.35-.43,3.86-.65,7.55-.65,2.34,0,4.21.06,5.61.17,1.4.11,2.6.39,3.59.82.99.43,1.69.99,2.1,1.66.41.67.61,1.6.61,2.77ZM537.81,175.54v3.89h-4.79v-3.89h4.79ZM500.38,170.69c-.4.41-.64.98-.73,1.72-.09.74-.19,1.22-.29,1.45.07.46.16.84.27,1.15.11.31.3.64.59.99.43.53,1.11.88,2.06,1.03.95.15,2.42.23,4.42.23s3.68-.1,4.84-.31c1.16-.2,2.05-.6,2.65-1.18.26-.25.46-.59.62-1.01.16-.42.24-.95.24-1.58,0-1.48-.95-2.47-2.84-2.98-1.14-.31-3.01-.46-5.62-.46-1.79,0-3.15.05-4.08.15-.92.1-1.64.37-2.14.8ZM515.05,177.41v-.08c-.71.97-1.86,1.62-3.46,1.95-1.21.25-2.92.38-5.16.38-4.15,0-7.04-.41-8.67-1.22-1.77-.89-2.66-2.49-2.66-4.81v-.53c0-2.37.99-3.96,2.98-4.77,1.56-.64,4.38-.95,8.46-.95h.69c1.42,0,2.84.09,4.25.27.96.18,1.71.4,2.26.67.55.27.88.62.98,1.05h.32v-3.55c0-1.04-.18-1.82-.53-2.33-.35-.66-1.09-1.14-2.19-1.43-1.11-.29-2.7-.44-4.8-.44h-.9c-1.96,0-3.44.17-4.43.5-1.36.46-2.03,1.26-2.03,2.41v.53h-4.25c0-1.27.22-2.28.66-3.04.44-.75,1.09-1.36,1.94-1.81.96-.43,2.26-.71,3.91-.84,1.65-.13,3.32-.19,5.03-.19,2.38,0,4.33.11,5.85.34,1.52.23,2.77.66,3.72,1.3.74.53,1.29,1.23,1.65,2.1.35.87.53,1.87.53,3.02v13.52h-4.15v-2.02ZM476.5,171.45c0,1.63-.24,2.97-.72,4.03-.48,1.06-1.27,1.9-2.37,2.54-1.35.74-2.95,1.2-4.81,1.37-1.86.18-4.53.27-8,.27h-3.19c-2.62,0-4.59-.1-5.9-.31-1.91-.31-3.44-.86-4.57-1.66-1.13-.8-1.98-1.83-2.53-3.09-.55-1.26-.82-2.88-.82-4.87v-9.39c0-3.41,1.05-5.94,3.15-7.6,1.92-1.45,4.77-2.18,8.54-2.18h10.83c3.31,0,5.87.55,7.68,1.64,1.82,1.09,2.72,2.69,2.72,4.77v2.18h-4.47v-1.22c0-.87-.07-1.56-.21-2.08-.14-.52-.44-.94-.91-1.24-.6-.48-1.5-.81-2.69-.97-1.2-.17-2.57-.25-4.14-.25h-6.36c-2.03,0-3.56.06-4.6.19-1.03.13-1.99.45-2.88.95-.71.41-1.24,1.06-1.58,1.97-.34.9-.51,2.16-.51,3.76v10.39c0,1.3.2,2.35.59,3.15.39.8,1.01,1.43,1.86,1.87.85.45,1.93.76,3.24.95,1.31.19,2.68.29,4.1.29h4.73c1.81,0,3.35-.08,4.63-.25,1.28-.17,2.3-.46,3.08-.9.6-.31,1.03-.8,1.28-1.49.25-.69.37-1.58.37-2.67v-3.59h-12.76v-2.9h17.23v6.34ZM398.85,150.76h7.5l22.34,26.23.11-26.23h4.57v28.68h-7.4l-22.43-25.98-.11,25.98h-4.57v-28.68ZM382.69,150.76h4.47v28.68h-4.47v-28.68ZM359.5,179.44h-20.63v-28.68h19.52c3.05,0,5.55.38,7.5,1.15,1.74.66,3.14,1.67,4.2,3.02,1.28,1.73,1.91,4.08,1.91,7.03v6.12c0,2.29-.37,4.21-1.12,5.77-.99,2.06-2.64,3.56-4.95,4.47-.82.38-1.77.66-2.87.84-1.1.18-2.29.27-3.56.27ZM357.96,176.61c1.84,0,3.38-.15,4.6-.44,1.22-.29,2.22-.83,3-1.63.78-.79,1.33-1.93,1.65-3.44.21-1.05.32-2.32.32-3.82v-6.35c0-1.99-.55-3.61-1.65-4.86-1.45-1.66-3.69-2.49-6.7-2.49h-15.79v23.03h14.57ZM305.42,150.76h4.57v25.85h20.26v2.83h-24.84v-28.68ZM279.2,150.57c3.47,0,5.99.1,7.55.31,2.87.38,4.89,1.17,6.06,2.37.28.25.5.5.64.73.96,1.48,1.44,3.75,1.44,6.84v9.85c0,1.63-.17,2.88-.51,3.74-.34.87-.86,1.71-1.57,2.52-.99,1.15-2.71,1.92-5.16,2.33-1.63.28-3.72.42-6.28.42h-4.57c-2.38,0-4.25-.11-5.64-.34-2.06-.33-3.7-.97-4.95-1.91-.96-.76-1.63-1.73-2.02-2.9-.39-1.17-.59-2.48-.59-3.93v-10.16c0-1.68.12-3.05.35-4.1.23-1.06.77-2.06,1.62-3,1.13-1.17,2.91-1.96,5.32-2.37,1.52-.25,3.81-.38,6.86-.38h1.44ZM279.09,153.39h-1.65c-2.38,0-4.04.09-5,.27-1.52.28-2.62.84-3.3,1.68-.5.71-.79,1.52-.88,2.42-.09.9-.15,1.64-.19,2.2v10.46c0,1.32.16,2.41.48,3.25.18.46.46.94.85,1.45.57.71,1.58,1.2,3.03,1.45.99.18,2.41.27,4.25.27h2.61c3.58,0,5.92-.11,7.02-.32,1.1-.22,1.95-.6,2.55-1.16.46-.46.83-1.03,1.12-1.72.28-.69.43-1.68.43-2.98v-11c0-.89-.07-1.65-.21-2.29-.25-1.15-.77-2.03-1.57-2.65-.8-.62-1.99-1-3.56-1.13-1.58-.13-3.34-.19-5.29-.19h-.69ZM220.97,150.76h4.57v12.64h23.4v-12.64h4.47v28.68h-4.47v-13.21h-23.4v13.21h-4.57v-28.68Z"/><path class="cls-6" d="M539.08,128.31V27.48h98.54v27.26h-61.53v11.61h61.21v22.81h-61.21v11.61h61.05v27.53h-98.07ZM455.27,128.31V54.75h-36.22v-27.26h109.61v27.26h-34.64v73.56h-38.75ZM332.35,128.31V27.48h39.07v73.29h56.78v27.53h-95.85ZM220.05,128.31V27.48h98.54v27.26h-61.53v11.61h61.21v22.81h-61.21v11.61h61.05v27.53h-98.07Z"/><path class="cls-4" d="M24.47,89.4c-.89-3.69-1.4-7.96-1.4-12.5,0-.63,0-1.25.03-1.87.76-.63,1.55-1.25,2.35-1.83-.08,1.21-.12,2.44-.12,3.7,0,4.38.49,8.48,1.34,12.01-.74.19-1.47.36-2.2.5M45.41,84.83c-.53,3.76-1.42,7.14-2.57,9.89-2.05,4.88-4.98,7.89-8.33,7.89s-6.29-3.02-8.33-7.89c-.13-.32-.26-.64-.39-.98.74-.15,1.48-.33,2.22-.52.08.21.17.42.25.63,1.69,4.02,3.9,6.51,6.25,6.51s4.56-2.49,6.25-6.51c.87-2.08,1.59-4.56,2.09-7.31.86-.54,1.72-1.11,2.56-1.71ZM44.55,64.39c.89,3.69,1.4,7.96,1.4,12.51,0,.63,0,1.25-.03,1.87-.76.63-1.55,1.25-2.35,1.83.08-1.21.12-2.44.12-3.7,0-4.38-.49-8.48-1.34-12.01.74-.19,1.47-.36,2.2-.5ZM34.51,51.18c3.35,0,6.29,3.02,8.33,7.89.13.32.26.64.39.98-.74.15-1.48.33-2.22.52-.08-.21-.17-.42-.25-.63-1.69-4.02-3.9-6.51-6.25-6.51s-4.56,2.49-6.25,6.51c-.87,2.08-1.59,4.56-2.09,7.31-.86.54-1.72,1.11-2.56,1.71.53-3.76,1.42-7.14,2.57-9.89,2.05-4.88,4.98-7.89,8.33-7.89Z"/><path class="cls-4" d="M40.31,91.84c-3.64-1.07-7.59-2.77-11.52-5.04-.54-.31-1.08-.64-1.61-.96-.17-.98-.3-1.96-.41-2.94,1,.67,2.05,1.32,3.14,1.95,3.8,2.19,7.59,3.82,11.07,4.84-.2.73-.42,1.45-.67,2.15M46.83,71.43c2.99,2.33,5.47,4.79,7.27,7.16,3.2,4.21,4.34,8.26,2.67,11.16-1.67,2.9-5.75,3.94-11,3.27-.34-.04-.69-.09-1.04-.15.24-.71.46-1.44.65-2.18.22.03.45.07.67.09,4.33.55,7.59-.12,8.76-2.16,1.17-2.03.13-5.2-2.51-8.67-1.37-1.8-3.15-3.65-5.28-5.46-.04-1.01-.1-2.03-.2-3.06ZM28.7,61.95c3.64,1.07,7.59,2.77,11.52,5.04h.02s0,.01,0,.01c.54.31,1.07.63,1.59.95.17.97.3,1.96.41,2.94-1-.67-2.05-1.32-3.14-1.95h-.02c-3.79-2.2-7.58-3.82-11.05-4.84.2-.73.42-1.45.67-2.15ZM12.24,64.04c1.67-2.9,5.75-3.93,11-3.27.34.04.69.09,1.04.15-.24.71-.46,1.44-.65,2.18-.22-.03-.45-.07-.67-.09-4.33-.55-7.59.13-8.76,2.16h0c-1.17,2.03-.13,5.2,2.51,8.67,1.37,1.8,3.15,3.65,5.28,5.46.04,1.01.1,2.03.2,3.06-2.99-2.33-5.47-4.79-7.27-7.16-3.2-4.21-4.34-8.26-2.67-11.16h0Z"/><path class="cls-4" d="M16.7,79.95c-2.64,3.47-3.69,6.64-2.51,8.67,1.17,2.03,4.44,2.71,8.76,2.16,4.65-.59,10.4-2.62,16.15-5.94,5.75-3.32,10.38-7.28,13.21-11.01,2.64-3.47,3.69-6.63,2.51-8.67h0c-1.17-2.03-4.44-2.71-8.76-2.16-4.64.59-10.39,2.61-16.13,5.93h0s-.02.01-.02.01c-5.75,3.32-10.38,7.28-13.21,11.01M12.24,89.75c-1.67-2.9-.53-6.95,2.67-11.16,3-3.95,7.86-8.12,13.86-11.59h0s.02-.01.02-.01c6.01-3.47,12.06-5.59,16.98-6.22,5.25-.67,9.33.37,11,3.27h0c1.67,2.9.53,6.95-2.67,11.16-3.01,3.95-7.87,8.13-13.88,11.6-6.01,3.47-12.06,5.59-16.99,6.22-5.24.67-9.32-.37-11-3.27Z"/><path class="cls-5" d="M34.51,72.02c2.69,0,4.87,2.18,4.87,4.87s-2.18,4.87-4.87,4.87-4.87-2.18-4.87-4.87,2.18-4.87,4.87-4.87"/><path class="cls-3" d="M132.89,179.79c-1.25.14-2.52.21-3.81.21-2.79,0-5.5-.33-8.1-.96l.32-.54,2.09-3.04c.38.1,3.23,2.28,5.7,3.32,1.18.44,2.46.81,3.8,1.01M127.49,133.3c-.26,1.51-.74,3.24-1.07,4.82-.31,1.35-1.15,3.66-.22,4.44,1.12.79,1.85-1.06,2.6-2.37l6.1-10.35c.37-.58.8-1.23.63-2.09-.18-.78-.72-.99-1.53-1.06-1.49-.14-3.24-.22-4.66-.43.33-1.58.74-3.24,1.13-4.74.33-1.51,1.16-3.74.17-4.52-1.06-.79-1.85,1.06-2.6,2.3l-6.11,10.43c-.3.51-.8,1.23-.63,2.09.18.79.66.98,1.53,1.06,1.55.14,3.11.29,4.66.43ZM129.08,110.99c19.06,0,34.51,15.45,34.51,34.51,0,13.78-8.08,25.67-19.76,31.2,8.11-6.18,12.97-19.66,15.46-28.01.95-3.23.95-2.85-.1-2.94-2.94-.19-5.6-.38-8.55-.38-1.42,0-2.85.09-4.27.19-5.41.28-10.63,1.04-15.19,2.66-2.18.76-4.27,1.8-6.08,2.94-.37.32-.81.67-1.23,1-.47-.93-1.04-1.87-1.69-2.74-1.86-2.55-4.4-4.87-7.21-7.02-.73-.57-1.46-1.15-2.23-1.67-1.59-1.08-3.09-1.96-4.74-2.94-.6-.33-.46-.54-1.13,1.55-2.19,6.83-5.33,19.46.68,25.05,1.34,1.22,2.99,1.89,4.53,2.26,1.71.34,4.05.21,4.29.3v2.4c-.05.86-.09,1.58-.19,2.49-.08,1.44,1.26,1.46,1.66.76.31-.46.27-4.24.19-4.89-.04-.93-.05-2.13-.21-2.99l-.17-1.84c0-.22-.07-.34-.06-.57l-1.04-5.28-1.01-3.46c-1.2-3.74-2.04-5.59-3.37-9.12-.29-.57-.84-1.85-.83-2.29,3.02,2.28,5.1,6.26,6.34,9.72.5,1.24.66,2.1,1.06,3.27.21.9.25,1.07.36,1.89l.25,1.8c-.35,1.18-.55,2.45-.59,3.8-.09,1.52.47,6.74,1.23,7.69.19-.28.47-.66.76-.95.19-.38.38-.57.66-.95l7.12-7.88c.85-.95,1.04-1.14,2.09-2.09,1.52-1.14,2.47-2.09,4.18-3.23,4.56-3.32,10.63-6.55,16.43-6.84-.38.57-2.18,1.71-3.04,2.18-4.75,3.32-7.41,4.94-12.15,8.64l-4.27,3.51-5.89,5.79c-.19.28-.38.38-.57.66l-1.8,2.18c-.95.95-1.99,2.47-2.85,3.61-.34.39-1.4,1.86-2.34,3.29-13.78-4.53-23.72-17.49-23.72-32.79,0-19.06,15.45-34.51,34.51-34.51Z"/><path class="cls-2" d="M152.95,42.41c19.06,0,34.52,15.45,34.52,34.52s-15.45,34.52-34.52,34.52c-8.48,0-16.24-3.06-22.25-8.13l23.74-13.36,2.01,3.58-2.61,1.47c-.55.31-.72,1.08-.37,1.7.35.62,1.09.88,1.64.57l13.67-7.69c.55-.31.72-1.08.37-1.7-.35-.62-1.09-.88-1.64-.57l-2.61,1.47-2.01-3.58,4.32-2.43c4.84-2.72,6.28-9.43,3.2-14.9-3.08-5.47-9.56-7.72-14.4-5l-4.32,2.43-2.06-3.67,2.61-1.47c.55-.31.72-1.08.37-1.7-.35-.62-1.09-.88-1.64-.57l-13.67,7.69c-.55.31-.72,1.08-.37,1.7.35.62,1.09.88,1.64.57l2.61-1.47,2.06,3.67-24.15,13.59c-.43-2.17-.66-4.42-.66-6.72,0-19.06,15.45-34.52,34.52-34.52"/><path class="cls-9" d="M81.37,39.3c-.44.26-.93.43-1.41.59h-.04s-.04.02-.04.02c-1.69.45-3.53.25-5.06-.6-2.93-1.62-4.24-5.18-3.06-8.32.34-.9.81-1.56,1.34-2.34.42-.68.87-1.34,1.31-2l2.3-3.56.02-.02c.15-.22.27-.45.46-.64l1.07-1.07.88,1.23c.12.17.22.35.33.51l.02.03.02.03c.95,1.52,1.96,2.99,2.93,4.5.67,1.04,1.57,2.2,1.99,3.36.42,1.16.53,2.31.33,3.5-.18,1.17-.71,2.2-1.43,3.14l-.03.04-.03.04c-.24.27-.48.52-.75.75-.37.31-.73.57-1.15.81M93.36,0c17.56,0,32.05,13.12,34.23,30.08h-29.79c-.03.38-10.37-2-10.37,10.34h39.94c-2.81,16.24-16.96,28.59-34,28.59-11.73,0-22.1-5.86-28.33-14.81h37.81s10.34,0,10.34-10.34h-44c-.02.27-5.1-.82-8.14,2.74-1.41-3.77-2.18-7.84-2.18-12.1C58.85,15.45,74.3,0,93.36,0Z"/><path class="cls-1" d="M67.69,151.56h7.98v7.98h-7.98v-7.98ZM57.52,110.99c19.06,0,34.51,15.45,34.51,34.51,0,2.29-.22,4.52-.65,6.68l-14.62-25.08c-7.91-4.57-12.48,3.34-12.48,3.34l-19.46,33.71c9.45,5.45,12.19-3.51,12.5-3.37l14.15-24.51,15.7,26.9c-6.02,10.08-17.04,16.83-29.64,16.83-8.03,0-15.41-2.74-21.27-7.34.72-1.03,1.06-1.89,1.15-1.85l19.45-33.68c-7.91-4.57-12.48,3.35-12.48,3.35l-14.68,25.42c-.68-.92-1.31-1.88-1.9-2.87l9.16-15.86c-7.91-4.57-12.48,3.34-12.48,3.34l-.84,1.46c-.4-2.1-.61-4.26-.61-6.47,0-19.06,15.45-34.51,34.51-34.51Z"/><polygon class="cls-5" points="269.69 16.68 243.21 21.97 218.93 54.64 269.69 16.68"/></g></svg>