<?xml version="1.0" encoding="UTF-8" standalone="no"?>
<!DOCTYPE svg PUBLIC "-//W3C//DTD SVG 1.1//EN" "http://www.w3.org/Graphics/SVG/1.1/DTD/svg11.dtd">
<svg width="100%" height="100%" viewBox="0 0 6884 3655" version="1.1" xmlns="http://www.w3.org/2000/svg" xmlns:xlink="http://www.w3.org/1999/xlink" xml:space="preserve" xmlns:serif="http://www.serif.com/" style="fill-rule:evenodd;clip-rule:evenodd;stroke-linejoin:round;stroke-miterlimit:2;">
    <g transform="matrix(4.16667,0,0,4.16667,0,0)">
        <path d="M999.141,67.371L1114.39,67.371L1114.39,91.245L1028.08,91.245L1028.08,135.614L1105.97,135.614L1109.57,159.488L1028.08,159.488L1028.08,207.466L1116.81,207.466L1116.81,231.32L999.141,231.32L999.141,67.371Z" style="fill:rgb(59,33,14);fill-rule:nonzero;"/>
        <path d="M1197.82,167.433L1152.72,231.32L1120.9,231.32L1181.43,146.462L1125.96,69.072L1157.31,65.442L1200.24,125.719L1240.5,67.371L1272.1,67.371L1217.11,146.213L1278.36,229.412L1246.77,233.249L1197.82,167.433Z" style="fill:rgb(59,33,14);fill-rule:nonzero;"/>
        <path d="M1391.67,121.619C1391.67,101.602 1377.21,91.231 1356.95,91.231L1316.91,91.231L1316.91,152.255L1356.95,152.255C1377.21,152.255 1391.67,141.635 1391.67,121.619ZM1421.31,121.619C1421.31,153.936 1398.66,176.109 1358.15,176.109L1316.91,176.109L1316.91,231.326L1288,231.326L1288,67.356L1358.15,67.356C1398.66,67.356 1421.31,89.551 1421.31,121.619Z" style="fill:rgb(59,33,14);fill-rule:nonzero;"/>
        <path d="M1458.45,149.347C1458.45,185.025 1479.92,209.874 1516.33,209.874C1552.98,209.874 1574.2,185.025 1574.2,149.347C1574.2,113.67 1552.98,88.821 1516.33,88.821C1479.92,88.821 1458.45,113.67 1458.45,149.347ZM1429.04,149.347C1429.04,102.573 1460.86,64.967 1516.55,64.967C1572.02,64.967 1603.84,102.573 1603.84,149.347C1603.84,196.371 1572.02,233.749 1516.55,233.749C1460.86,233.749 1429.04,196.371 1429.04,149.347Z" style="fill:rgb(59,33,14);fill-rule:nonzero;"/>
        <path d="M1129.35,534.2C1129.35,489.603 1100.16,461.373 1054.84,461.373L1008.79,461.373L1008.79,607.028L1054.84,607.028C1100.16,607.028 1129.35,579.046 1129.35,534.2ZM999.145,452.225L1055.07,452.225C1107.15,452.225 1138.99,485.974 1138.99,534.2C1138.99,582.427 1107.15,616.175 1055.07,616.175L999.145,616.175L999.145,452.225Z" style="fill:rgb(59,33,14);fill-rule:nonzero;"/>
        <path d="M1173.7,451.014L1173.7,555.661C1173.7,585.551 1193.47,609.426 1231.57,609.426C1269.65,609.426 1289.44,585.551 1289.44,555.661L1289.44,453.42L1299.07,451.014L1299.07,555.91C1299.07,589.181 1277.87,618.594 1231.57,618.594C1183.57,618.594 1164.05,586.775 1164.05,555.91L1164.05,453.42L1173.7,451.014Z" style="fill:rgb(59,33,14);fill-rule:nonzero;"/>
        <path d="M1343.43,607.017L1400.08,607.017C1426.36,607.017 1447.1,602.433 1447.1,572.045C1447.1,541.657 1426.36,536.617 1400.08,536.617L1343.43,536.617L1343.43,607.017ZM1442.29,494.654C1442.29,464.515 1419.14,461.383 1393.11,461.383L1343.43,461.383L1343.43,527.449L1393.11,527.449C1419.14,527.449 1442.29,525.042 1442.29,494.654ZM1451.94,494.406C1451.94,513.468 1441.57,527.2 1425.88,532.033C1446.38,535.891 1456.75,550.348 1456.75,572.045C1456.75,602.433 1437.71,616.186 1402.51,616.186L1333.79,616.186L1333.79,452.215L1395.5,452.215C1430.72,452.215 1451.94,464.287 1451.94,494.406Z" style="fill:rgb(59,33,14);fill-rule:nonzero;"/>
        <path d="M1587.43,563.613L1543.06,463.074L1499.41,563.613L1587.43,563.613ZM1591.28,572.782L1495.33,572.782L1476.51,616.175L1466.39,616.175L1538.24,452.225L1547.89,449.798L1620.7,614.972L1611.05,617.378L1591.28,572.782Z" style="fill:rgb(59,33,14);fill-rule:nonzero;"/>
        <path d="M1642.14,616.177L1642.14,453.41L1651.79,451.024L1651.79,616.177L1642.14,616.177Z" style="fill:rgb(59,33,14);fill-rule:nonzero;"/>
        <path d="M1008.79,643.437L1008.79,748.084C1008.79,777.974 1028.56,801.849 1066.66,801.849C1104.75,801.849 1124.53,777.974 1124.53,748.084L1124.53,645.843L1134.18,643.437L1134.18,748.333C1134.18,781.604 1112.96,811.017 1066.66,811.017C1018.66,811.017 999.145,779.198 999.145,748.333L999.145,645.843L1008.79,643.437Z" style="fill:rgb(59,33,14);fill-rule:nonzero;"/>
        <path d="M1269.66,756.043L1225.29,655.503L1181.65,756.043L1269.66,756.043ZM1273.52,765.211L1177.56,765.211L1158.75,808.605L1148.63,808.605L1220.48,644.655L1230.13,642.228L1302.93,807.402L1293.29,809.808L1273.52,765.211Z" style="fill:rgb(59,33,14);fill-rule:nonzero;"/>
        <path d="M1324.38,644.645L1435.29,644.645L1435.29,653.813L1334.02,653.813L1334.02,719.878L1428.05,719.878L1430.48,729.026L1334.02,729.026L1334.02,799.447L1437.72,799.447L1437.72,808.594L1324.38,808.594L1324.38,644.645Z" style="fill:rgb(59,33,14);fill-rule:nonzero;"/>
        <path d="M1053.95,257.389C1086.02,257.389 1113.98,271.598 1113.98,304.413C1113.98,356.456 1027.19,365.396 1027.19,399.871L1113.5,399.871L1117.11,423.725L995.37,423.725L995.37,408.79C995.37,346.604 1084.56,345.4 1084.56,305.844C1084.56,287.051 1068.67,280.061 1050.79,280.061C1034.18,280.061 1019.47,287.051 1003.79,296.199L999.477,273.299C1016.84,263.654 1034.18,257.389 1053.95,257.389Z" style="fill:rgb(59,33,14);fill-rule:nonzero;"/>
        <path d="M1155.69,341.771C1155.69,378.651 1169.19,403.501 1199.08,403.501C1228.97,403.501 1242.49,378.651 1242.49,341.771C1242.49,304.89 1228.97,280.04 1199.08,280.04C1169.19,280.04 1155.69,304.89 1155.69,341.771ZM1126.02,341.771C1126.02,294.996 1149.9,257.369 1198.85,257.369C1247.78,257.369 1271.89,294.996 1271.89,341.771C1271.89,388.794 1247.78,426.172 1198.85,426.172C1149.9,426.172 1126.02,388.794 1126.02,341.771Z" style="fill:rgb(59,33,14);fill-rule:nonzero;"/>
        <path d="M1339.65,257.389C1371.71,257.389 1399.65,271.598 1399.65,304.413C1399.65,356.456 1312.89,365.396 1312.89,399.871L1399.2,399.871L1402.81,423.725L1281.05,423.725L1281.05,408.79C1281.05,346.604 1370.26,345.4 1370.26,305.844C1370.26,287.051 1354.35,280.061 1336.49,280.061C1319.88,280.061 1305.17,287.051 1289.49,296.199L1285.18,273.299C1302.52,263.654 1319.88,257.389 1339.65,257.389Z" style="fill:rgb(59,33,14);fill-rule:nonzero;"/>
        <path d="M1441.38,341.771C1441.38,378.651 1454.88,403.501 1484.77,403.501C1514.66,403.501 1528.17,378.651 1528.17,341.771C1528.17,304.89 1514.66,280.04 1484.77,280.04C1454.88,280.04 1441.38,304.89 1441.38,341.771ZM1411.72,341.771C1411.72,294.996 1435.59,257.369 1484.55,257.369C1533.46,257.369 1557.58,294.996 1557.58,341.771C1557.58,388.794 1533.46,426.172 1484.55,426.172C1435.59,426.172 1411.72,388.794 1411.72,341.771Z" style="fill:rgb(59,33,14);fill-rule:nonzero;"/>
        <clipPath id="_clip1">
            <path d="M-135.431,21.857L855.142,-134.998L1011.99,855.558L21.421,1012.42L-135.431,21.857Z"/>
        </clipPath>
        <g clip-path="url(#_clip1)">
            <path d="M438.272,0.415C434.165,0.415 430.286,0.706 426.614,1.266L425.93,1.39C403.237,5.103 389.609,19.312 389.651,40.345C389.672,49.949 392.451,59.117 397.554,66.896C391.414,66.419 385.233,67.165 379.508,68.078C373.845,68.97 367.83,70.132 362.167,72.475C364.615,63.432 364.469,53.745 361.503,44.659C357.521,32.401 349.327,24 337.794,20.328C327.776,17.155 315.703,17.673 302.843,21.863C274.301,31.177 261.295,51.484 268.908,74.861C271.895,84.029 277.412,91.87 284.652,97.698C278.657,99.13 273.015,101.743 267.85,104.377C262.747,106.97 257.375,109.936 252.708,113.94C252.272,104.564 249.119,95.417 243.498,87.659C235.906,77.246 225.514,71.791 213.442,71.853C202.925,71.936 191.6,76.168 180.669,84.133C156.4,101.805 150.301,125.141 164.759,144.991C170.443,152.791 178.097,158.557 186.788,161.834C181.519,165.07 177.018,169.302 172.89,173.409C168.825,177.453 164.634,181.934 161.44,187.161C158.101,178.387 152.293,170.671 144.535,165.049C134.122,157.478 122.548,155.508 111.098,159.304C101.1,162.623 91.641,170.152 83.696,181.104C66.086,205.415 67.496,229.497 87.409,243.892C95.208,249.555 104.253,252.666 113.545,253.102C109.542,257.811 106.534,263.245 103.879,268.389C101.286,273.513 98.693,279.072 97.262,285.025C91.371,277.724 83.468,272.165 74.341,269.219C62.103,265.236 50.467,266.937 40.759,274.073C32.296,280.316 25.617,290.397 21.448,303.258C12.196,331.841 20.97,354.305 44.389,361.876C53.557,364.843 63.12,365.009 72.101,362.54C69.736,368.245 68.554,374.343 67.641,380.068C66.729,385.731 65.982,391.829 66.459,397.927C58.618,392.804 49.346,389.962 39.805,389.962C26.903,389.983 16.386,395.168 9.355,404.98C3.215,413.547 -0.02,425.183 0,438.707C0.041,468.763 15.328,487.37 39.909,487.349C49.533,487.349 58.701,484.528 66.48,479.446C65.982,485.586 66.749,491.746 67.641,497.471C68.554,503.155 69.716,509.149 72.06,514.834C63.016,512.365 53.308,512.53 44.244,515.497C31.985,519.48 23.563,527.673 19.913,539.205C16.739,549.224 17.237,561.276 21.448,574.136C30.761,602.699 51.068,615.704 74.445,608.092C83.593,605.084 91.433,599.587 97.262,592.327C98.693,598.343 101.328,603.964 103.962,609.129C106.555,614.252 109.542,619.604 113.504,624.271C104.149,624.728 94.98,627.86 87.243,633.502C76.83,641.093 71.354,651.465 71.437,663.537C71.52,674.074 75.752,685.4 83.696,696.352C101.39,720.6 124.726,726.698 144.576,712.22C152.396,706.557 158.142,698.882 161.419,690.191C164.655,695.46 168.887,700.003 172.973,704.089C177.039,708.154 181.519,712.344 186.746,715.56C177.993,718.878 170.235,724.686 164.634,732.444C157.063,742.878 155.072,754.452 158.889,765.902C162.187,775.9 169.737,785.359 180.669,793.282C205,810.914 229.061,809.503 243.498,789.59C249.14,781.791 252.272,772.747 252.687,763.434C257.375,767.458 262.81,770.465 267.974,773.12C273.098,775.693 278.657,778.306 284.61,779.717C277.309,785.628 271.729,793.531 268.804,802.617C264.822,814.896 266.502,826.533 273.679,836.24C279.901,844.703 289.982,851.382 302.864,855.552C331.426,864.803 353.87,856.008 361.482,832.61C364.428,823.463 364.573,813.859 362.125,804.898C367.83,807.263 373.949,808.445 379.653,809.358C385.336,810.25 391.414,811.017 397.512,810.54C392.389,818.381 389.526,827.632 389.547,837.195C389.568,850.076 394.754,860.613 404.565,867.645C413.09,873.764 424.706,877 438.168,877L438.292,877C468.328,876.958 486.975,861.671 486.934,837.091C486.913,827.445 484.134,818.298 479.01,810.519C485.171,810.997 491.331,810.25 497.056,809.337C502.719,808.424 508.755,807.284 514.418,804.94C511.95,813.983 512.116,823.67 515.081,832.756C519.064,844.994 527.237,853.394 538.77,857.066C548.789,860.26 560.861,859.742 573.742,855.552C602.305,846.238 615.29,825.931 607.656,802.554C604.669,793.386 599.152,785.545 591.912,779.717C597.928,778.306 603.549,775.672 608.693,773.037C613.838,770.424 619.21,767.458 623.856,763.475C624.333,772.851 627.465,782.019 633.107,789.735C640.658,800.169 651.05,805.624 663.143,805.562C673.659,805.479 684.985,801.247 695.916,793.282C720.185,775.61 726.284,752.253 711.805,732.423C706.122,724.603 698.468,718.837 689.797,715.58C695.024,712.344 699.588,708.113 703.674,704.006C707.74,699.961 711.93,695.46 715.124,690.233C718.464,699.007 724.271,706.744 732.029,712.365C742.463,719.915 754.037,721.907 765.466,718.111C775.485,714.792 784.944,707.263 792.888,696.31C810.499,672 809.088,647.918 789.175,633.502C781.376,627.86 772.311,624.728 763.039,624.313C767.043,619.604 770.03,614.169 772.685,609.025C775.278,603.902 777.891,598.343 779.322,592.39C785.213,599.712 793.116,605.25 802.222,608.216C814.461,612.178 826.097,610.498 835.825,603.321C844.289,597.078 850.947,587.017 855.137,574.136C864.388,545.573 855.614,523.109 832.196,515.538C823.027,512.572 813.444,512.406 804.483,514.855C806.848,509.149 808.03,503.051 808.943,497.347C809.835,491.684 810.602,485.586 810.105,479.467C817.966,484.611 827.217,487.473 836.78,487.453C849.661,487.432 860.198,482.246 867.23,472.414C873.37,463.868 876.585,452.231 876.564,438.707C876.564,434.58 876.294,430.701 875.734,427.029L875.61,426.345C871.876,403.652 857.688,390.024 836.655,390.045C827.031,390.045 817.883,392.866 810.105,397.989C810.582,391.829 809.814,385.668 808.922,379.943C808.03,374.281 806.869,368.224 804.504,362.582C813.569,365.05 823.235,364.884 832.341,361.918C844.6,357.935 853,349.721 856.651,338.23C859.846,328.191 859.327,316.118 855.137,303.258C845.823,274.695 825.496,261.71 802.139,269.323C792.971,272.331 785.13,277.827 779.302,285.087C777.87,279.072 775.257,273.451 772.623,268.286C770.009,263.162 767.043,257.79 763.081,253.123C772.436,252.666 781.604,249.534 789.341,243.892C799.733,236.321 805.209,225.95 805.126,213.857C805.064,203.34 800.833,191.994 792.867,181.084C775.174,156.815 751.859,150.716 731.988,165.195C724.209,170.878 718.443,178.532 715.145,187.223C711.909,181.955 707.698,177.412 703.591,173.326C699.546,169.26 695.045,165.07 689.818,161.855C698.592,158.536 706.329,152.728 711.95,144.95C719.521,134.537 721.492,122.963 717.696,111.513C714.377,101.535 706.848,92.056 695.895,84.112C671.564,66.501 647.524,67.891 633.107,87.804C627.424,95.624 624.333,104.688 623.898,113.96C619.189,109.978 613.755,106.949 608.59,104.315C603.487,101.701 597.928,99.109 591.975,97.678C599.276,91.787 604.856,83.884 607.781,74.778C611.742,62.519 610.062,50.882 602.906,41.175C596.683,32.712 586.602,26.033 573.721,21.863C545.159,12.612 522.693,21.407 515.123,44.805C512.156,53.973 512.012,63.535 514.46,72.517C508.755,70.152 502.636,68.949 496.932,68.037C491.248,67.165 485.171,66.398 479.052,66.896C484.175,59.034 487.038,49.783 487.038,40.2C487.017,27.319 481.81,16.802 471.999,9.77C463.453,3.631 451.858,0.415 438.355,0.415L438.272,0.415ZM416.16,73.637C415.89,73.45 415.621,73.243 415.351,73.056L414.978,72.766C414.687,72.538 414.418,72.33 414.106,72.081C404.067,64.427 398.342,52.853 398.321,40.324C398.28,11.388 428.896,9.107 438.292,9.086C449.95,9.065 459.885,11.741 466.959,16.802C474.509,22.237 478.346,30.119 478.346,40.221C478.367,53.019 472.165,65.132 461.856,72.6C461.794,72.641 461.732,72.683 461.69,72.704L460.238,73.761C448.83,82.058 441.196,94.317 438.292,108.422C435.388,94.317 427.714,82.058 416.16,73.637ZM304.44,98.321C304.129,98.238 303.797,98.134 303.465,98.03L303.05,97.885C302.698,97.74 302.366,97.636 301.972,97.491C290.107,93.322 281.042,84.091 277.163,72.164C268.182,44.68 296.62,33.023 305.539,30.119C316.637,26.489 326.904,25.97 335.16,28.605C344.038,31.426 350.115,37.731 353.248,47.335C357.209,59.491 355.073,72.932 347.585,83.241C347.523,83.303 347.481,83.345 347.44,83.407L346.361,84.817C338.147,96.267 334.621,110.268 336.239,124.601C329.103,112.073 318.027,102.78 304.44,98.321ZM530.058,84.631C529.871,84.402 529.664,84.133 529.477,83.842L529.208,83.49C529,83.179 528.813,82.888 528.585,82.536C521.408,72.164 519.521,59.387 523.379,47.48C532.298,19.934 562.126,27.236 571.045,30.119C582.143,33.687 590.751,39.287 595.937,46.319C601.413,53.807 602.657,62.477 599.525,72.123C595.584,84.278 585.959,93.882 573.825,97.802C573.763,97.823 573.7,97.844 573.617,97.864L571.937,98.404C558.558,102.78 547.44,112.073 540.346,124.601C541.964,110.268 538.438,96.246 530.058,84.631ZM466.751,79.777C466.772,79.756 466.793,79.756 466.793,79.735C474.509,74.57 483.553,74.736 495.563,76.624C507.739,78.532 516.451,81.229 522.404,88.883C522.653,89.235 522.943,89.65 523.275,90.044C530.618,100.333 533.543,113.089 531.469,126.012C527.403,151.484 505.001,169.177 481.479,165.485C458.06,161.751 442.296,138.001 446.278,112.529C448.332,99.545 455.094,88.24 465.175,80.876C465.237,80.835 465.279,80.773 465.341,80.731L465.341,80.752L466.751,79.777ZM345.096,126.033C343.021,113.006 345.967,100.188 353.289,90.065C353.33,90.024 353.372,89.962 353.414,89.899L353.434,89.899L354.451,88.53C354.451,88.53 354.451,88.51 354.492,88.489C360.217,81.208 368.846,78.532 380.877,76.624C393.053,74.716 402.159,74.57 410.165,80.005C410.518,80.275 410.954,80.544 411.368,80.876C421.532,88.364 428.253,99.586 430.286,112.529C434.289,138.001 418.442,161.751 394.94,165.506C392.866,165.838 390.792,166.004 388.759,166.004C367.726,166.004 348.809,149.223 345.096,126.033ZM203.216,156.317C190.625,156.006 179.154,150.032 171.791,139.889C154.74,116.512 178.159,96.661 185.771,91.144C195.188,84.278 204.792,80.586 213.484,80.524C222.797,80.482 230.513,84.61 236.487,92.782C244.037,103.112 246.091,116.553 242.171,128.688C242.15,128.75 242.129,128.812 242.088,128.874L241.507,130.554C237.213,143.975 238.188,158.391 244.141,171.5C233.521,161.793 220.1,156.379 205.767,156.338C205.477,156.358 205.145,156.358 204.813,156.358L204.357,156.358C203.983,156.338 203.631,156.338 203.216,156.317ZM634.974,130.347C634.871,130.015 634.767,129.704 634.642,129.414L634.518,128.957C634.435,128.605 634.352,128.294 634.227,127.879C630.598,115.806 632.755,103.05 640.119,92.907C657.086,69.468 683.201,85.626 690.793,91.144C700.272,97.989 706.723,105.974 709.461,114.251C712.386,123.066 710.872,131.695 704.919,139.889C697.43,150.218 685.275,156.379 672.539,156.379C672.477,156.358 672.394,156.358 672.311,156.358L670.548,156.338C656.443,156.379 643.064,161.793 632.402,171.5C638.355,158.391 639.351,143.975 634.974,130.347ZM576.273,106.12C576.293,106.12 576.314,106.12 576.335,106.099C585.254,103.589 593.8,106.493 604.649,112.052C615.642,117.653 623.089,122.88 626.387,132.006C626.449,132.214 626.553,132.463 626.615,132.691L626.615,132.712C626.698,132.94 626.76,133.147 626.843,133.375C630.66,145.427 629.498,158.474 623.545,170.131C611.805,193.073 584.984,202.988 563.806,192.201C542.69,181.415 534.995,153.952 546.694,130.949C552.647,119.229 562.562,110.6 574.447,106.68L574.655,106.638L574.675,106.659L576.273,106.12ZM253.04,170.131C247.045,158.391 245.904,145.302 249.7,133.396C249.721,133.334 249.762,133.251 249.783,133.189L249.804,133.189L250.343,131.592C250.343,131.571 250.364,131.55 250.364,131.529C253.558,122.838 260.943,117.653 271.812,112.093C282.785,106.493 291.393,103.547 300.706,106.265C301.121,106.389 301.619,106.534 302.117,106.68C314.085,110.683 323.959,119.291 329.891,130.949C341.549,153.952 333.832,181.457 312.633,192.285C306.846,195.209 300.644,196.62 294.463,196.62C278.014,196.62 261.565,186.809 253.04,170.131ZM438.127,240.49L430.908,193.985C429.601,185.481 424.706,178.097 418.131,174.633L409.356,170.048C424.104,163.1 434.745,149.015 438.292,132.401C441.798,149.078 452.48,163.203 467.291,170.111L458.682,174.55C452.107,177.931 447.17,185.253 445.78,193.695C445.677,194.193 445.656,194.691 445.615,195.168L438.313,240.262C438.251,240.615 438.251,240.947 438.209,241.299C438.189,241.03 438.168,240.76 438.127,240.49ZM499.379,250.157L506.909,203.672C508.278,195.209 505.913,186.663 500.728,181.332L493.779,174.259C494.318,174.197 494.795,174.114 495.314,174.052C510.871,171.583 524.727,161.648 532.92,147.397C531.137,164.344 536.945,181.063 548.872,192.201L539.33,193.778C532.008,194.96 525.038,200.395 521.097,208.007C520.89,208.443 520.724,208.92 520.516,209.356L499.628,249.991C499.483,250.302 499.379,250.613 499.234,250.945C499.276,250.654 499.359,250.406 499.379,250.157ZM376.894,250.24L355.654,208.236C351.775,200.561 344.847,195.043 337.525,193.799L327.734,192.139C339.64,180.959 345.428,164.303 343.623,147.397C352.127,162.166 366.647,172.289 382.868,174.28L376.044,181.146C370.837,186.414 368.39,194.919 369.696,203.361C369.779,203.88 369.904,204.336 370.028,204.834L376.998,249.949C377.039,250.322 377.164,250.634 377.205,250.965C377.102,250.737 376.998,250.488 376.894,250.24ZM633.854,243.083C617.073,226.282 618.276,197.781 636.468,179.507C645.802,170.214 657.895,165.07 670.382,165.008L670.589,165.008L670.589,165.029L672.311,165.049L672.353,165.049C681.625,165.423 688.843,170.816 697.451,179.445C706.163,188.157 711.639,195.437 711.95,205.124L711.95,205.892C711.95,206.12 711.95,206.348 711.971,206.597C711.867,219.229 706.744,231.26 697.472,240.511C689.756,248.186 680.235,252.853 670.506,254.367C668.1,254.741 665.694,254.948 663.288,254.948C652.398,254.948 641.799,251.007 633.854,243.083ZM179.092,240.511C169.779,231.198 164.634,219.105 164.593,206.618L164.593,206.41L164.614,206.41L164.634,204.668L164.634,204.647C165.008,195.375 170.401,188.157 179.03,179.549C187.742,170.816 195.023,165.34 204.709,165.029L206.161,165.029C218.814,165.112 230.845,170.256 240.096,179.507C258.288,197.781 259.428,226.344 242.648,243.145C234.703,251.069 224.166,254.99 213.297,254.99C201.204,254.99 188.738,250.115 179.092,240.511ZM92.491,236.902C69.073,219.893 85.21,193.799 90.728,186.186C97.573,176.728 105.539,170.277 113.815,167.518C122.651,164.593 131.26,166.128 139.474,172.081C149.804,179.569 155.964,191.704 155.943,204.46L155.943,204.668L155.923,206.431C155.964,220.536 161.357,233.936 171.065,244.577C157.976,238.624 143.539,237.628 129.91,242.025C129.6,242.129 129.289,242.212 128.978,242.337L128.542,242.461C128.21,242.565 127.858,242.648 127.464,242.751C125.701,243.311 123.875,243.706 122.112,243.996C119.996,244.328 117.881,244.473 115.786,244.473C107.509,244.473 99.398,241.88 92.491,236.902ZM720.662,206.203C720.641,205.892 720.641,205.56 720.641,205.228L720.641,204.751C720.662,204.398 720.662,204.046 720.683,203.631C720.994,191.04 726.968,179.569 737.09,172.206C760.488,155.176 780.339,178.594 785.856,186.186C792.722,195.624 796.414,205.228 796.456,213.919C796.518,223.191 792.39,230.949 784.218,236.902C773.867,244.432 760.426,246.527 748.312,242.565C748.271,242.565 748.188,242.544 748.105,242.502L746.445,241.942C733.025,237.628 718.609,238.624 705.499,244.577C715.207,233.936 720.621,220.515 720.662,206.203ZM398.176,221.718L386.249,215.496C382.308,213.421 379.259,208.962 378.056,203.672L377.828,202.2C376.894,196.226 378.471,190.355 381.914,186.891L391.372,177.35C392.887,175.794 394.691,174.861 396.579,174.57C398.467,174.28 400.458,174.612 402.366,175.628L414.293,181.872C418.587,184.133 421.843,189.194 422.798,195.147C423.71,201.121 422.134,206.991 418.711,210.476L409.253,219.997C407.738,221.552 405.913,222.486 404.046,222.776C403.59,222.859 403.134,222.88 402.698,222.88C401.205,222.88 399.649,222.507 398.176,221.718ZM467.166,219.955L457.791,210.331C454.658,207.157 453.144,201.971 453.642,196.558L453.891,195.106C454.824,189.132 458.143,184.029 462.478,181.789L474.426,175.628C476.355,174.633 478.346,174.301 480.234,174.612C482.122,174.902 483.926,175.856 485.44,177.412L494.816,187.016C498.239,190.501 499.753,196.329 498.819,202.262C497.845,208.236 494.547,213.338 490.211,215.579L478.243,221.739C477.226,222.258 476.21,222.59 475.173,222.776C474.717,222.839 474.239,222.88 473.783,222.88C471.377,222.88 469.075,221.884 467.166,219.955ZM590.025,204.585C600.313,202.967 610.187,198.217 618.318,190.895C611.369,206.473 611.722,224.166 619.625,238.458L610.062,236.985C602.74,235.844 594.443,238.872 588.345,244.888C587.992,245.241 587.681,245.635 587.37,245.987L554.949,278.201C554.7,278.408 554.514,278.719 554.265,278.968C554.389,278.719 554.534,278.491 554.679,278.263L576.169,236.383C580.089,228.75 580.483,219.893 577.185,213.235L572.788,204.336C575.858,204.938 578.969,205.228 582.06,205.228C584.736,205.228 587.391,205.021 590.025,204.585ZM258.246,190.895C270.899,202.345 287.825,207.468 303.859,204.357L299.503,213.007C296.164,219.603 296.516,228.46 300.333,236.093C300.561,236.549 300.831,236.964 301.08,237.379L321.677,278.159C321.843,278.45 322.03,278.74 322.196,279.03C322.009,278.844 321.843,278.636 321.656,278.429L288.468,245.033C282.432,238.956 274.114,235.865 266.771,236.923L256.959,238.354C264.822,224.062 265.153,206.41 258.246,190.895ZM333.086,244.743L319.831,242.502C315.434,241.756 311.14,238.458 308.381,233.791L307.697,232.463C304.979,227.07 304.647,220.992 306.846,216.636L312.903,204.626C313.878,202.677 315.288,201.266 316.989,200.374C318.711,199.524 320.702,199.254 322.839,199.607L336.093,201.868C340.885,202.677 345.573,206.493 348.269,211.866C351.028,217.259 351.339,223.315 349.141,227.672L343.084,239.681C341.652,242.544 339.246,244.328 336.363,244.784C335.886,244.867 335.367,244.888 334.849,244.888C334.289,244.888 333.687,244.846 333.086,244.743ZM533.377,239.578L527.403,227.547C525.412,223.544 525.578,218.13 527.714,213.152L528.378,211.824C531.157,206.452 535.866,202.614 540.678,201.847L553.933,199.669C556.09,199.316 558.081,199.627 559.803,200.499C561.483,201.37 562.914,202.822 563.848,204.751L569.822,216.823C572,221.158 571.647,227.194 568.909,232.546C566.129,237.918 561.421,241.756 556.609,242.544L543.333,244.701C543.313,244.701 543.292,244.701 543.271,244.722C542.711,244.805 542.151,244.846 541.612,244.846C538.044,244.846 535.036,242.938 533.377,239.578ZM459.72,266.502L450.344,256.919C446.921,253.413 445.407,247.543 446.361,241.569L450.717,214.583C451.111,215.06 451.505,215.558 451.962,216.035L461.358,225.639C464.159,228.522 467.54,230.264 471.149,230.824C474.717,231.405 478.43,230.804 481.976,228.978L493.924,222.797C494.567,222.486 495.148,222.092 495.729,221.718L491.352,248.829C490.398,254.824 487.1,259.906 482.744,262.146L470.796,268.306C469.78,268.825 468.743,269.157 467.726,269.323C467.27,269.406 466.793,269.447 466.337,269.447C463.93,269.447 461.607,268.452 459.72,266.502ZM405.312,230.845C408.859,230.285 412.24,228.563 415.04,225.742L424.499,216.201C424.976,215.703 425.432,215.122 425.888,214.583L430.078,241.735C430.991,247.709 429.435,253.579 426.013,257.043L416.554,266.606C415.019,268.14 413.235,269.074 411.327,269.385C409.439,269.675 407.386,269.323 405.477,268.327L393.571,262.084C389.236,259.802 385.959,254.699 385.046,248.725L380.856,221.677C381.395,222.05 381.935,222.403 382.474,222.693L394.38,228.937C397.118,230.368 399.939,231.053 402.74,231.053C403.59,231.053 404.461,230.99 405.312,230.845ZM511.908,281.561L505.913,269.509C503.735,265.154 504.109,259.097 506.888,253.724L519.375,229.372C519.604,229.974 519.81,230.596 520.101,231.156L526.075,243.208C527.838,246.796 530.556,249.513 533.771,251.152C536.986,252.812 540.699,253.392 544.64,252.729L557.895,250.592C558.621,250.468 559.326,250.281 559.99,250.074L547.42,274.529C544.661,279.902 539.952,283.739 535.14,284.527L521.844,286.684L521.781,286.705C521.222,286.788 520.661,286.83 520.122,286.83C516.575,286.83 513.568,284.942 511.908,281.561ZM337.732,252.832C339.454,252.542 341.134,252.003 342.689,251.214C345.905,249.597 348.58,246.9 350.364,243.353L356.421,231.343C356.732,230.721 356.981,230.057 357.23,229.372L369.634,253.911C372.351,259.304 372.683,265.361 370.485,269.738L364.428,281.748C362.457,285.647 358.703,287.535 354.409,286.788L341.155,284.548C336.363,283.718 331.675,279.881 328.937,274.488L316.595,250.053C317.218,250.219 317.84,250.406 318.483,250.509L331.737,252.77C332.816,252.957 333.895,253.04 334.953,253.04C335.907,253.04 336.819,252.977 337.732,252.832ZM251.401,283.967L250.364,282.909C246.091,278.615 243.913,272.953 244.639,268.14L246.692,254.844C247.045,252.687 247.937,250.883 249.265,249.534C250.654,248.165 252.438,247.294 254.616,246.983L267.912,245.012C272.704,244.328 278.346,246.506 282.577,250.779C286.85,255.073 289.049,260.715 288.302,265.548L286.249,278.844C285.606,283.117 282.66,286.062 278.408,286.747C278.387,286.747 278.346,286.747 278.304,286.767L264.988,288.696C264.386,288.8 263.805,288.842 263.183,288.842C259.242,288.842 254.927,287.058 251.401,283.967ZM611.431,288.696L598.156,286.664C593.842,286 590.875,283.013 590.232,278.719L588.303,265.423C587.64,261.005 589.444,255.923 593.033,251.816L594.07,250.779C598.384,246.506 604.026,244.328 608.859,245.075L622.155,247.107C624.292,247.439 626.117,248.352 627.465,249.7C628.814,251.069 629.706,252.853 630.017,255.01L631.967,268.327C632.672,273.139 630.494,278.761 626.221,283.013C623.13,286.083 619.293,288.095 615.58,288.676C614.812,288.8 614.066,288.862 613.319,288.862C612.697,288.862 612.054,288.821 611.431,288.696ZM684.715,313.069C673.991,291.912 683.906,265.174 706.868,253.455C718.609,247.481 731.697,246.319 743.604,250.115C743.645,250.157 743.728,250.177 743.79,250.198L743.79,250.219L745.408,250.758C745.429,250.758 745.45,250.779 745.471,250.779C754.162,253.973 759.347,261.358 764.886,272.227C770.507,283.2 773.432,291.829 770.735,301.142C770.59,301.536 770.465,302.034 770.299,302.511C766.317,314.521 757.688,324.374 746.051,330.327C741.198,332.754 736.178,334.351 731.158,335.16C728.627,335.554 726.076,335.741 723.545,335.741C707.325,335.741 692.12,327.547 684.715,313.069ZM130.554,330.306C118.814,324.332 110.185,314.417 106.265,302.553C106.265,302.49 106.244,302.407 106.223,302.345L106.244,302.324L105.725,300.727C105.725,300.686 105.705,300.665 105.705,300.644C103.174,291.746 106.078,283.2 111.616,272.351C117.238,261.358 122.465,253.911 131.571,250.613C132.006,250.468 132.463,250.322 132.961,250.157C145.012,246.319 158.038,247.501 169.696,253.455C192.658,265.174 202.552,291.994 191.807,313.193C185.585,325.369 173.782,333.086 160.527,335.181C158.101,335.575 155.611,335.762 153.102,335.762C145.593,335.762 137.835,334.019 130.554,330.306ZM422.611,272.04L431.8,262.789C435.285,259.221 437.483,254.201 438.189,248.725C438.894,254.139 441.072,259.076 444.515,262.602L453.808,272.082C447.274,273.907 441.694,278.284 438.292,284.195C434.849,278.242 429.207,273.824 422.611,272.04ZM598.55,322.092L631.946,288.883C638.044,282.847 641.135,274.529 640.056,267.207L638.625,257.375C652.917,265.236 670.569,265.568 686.084,258.661C674.676,271.314 669.511,288.24 672.622,304.274L663.993,299.918C657.376,296.599 648.54,296.89 640.907,300.748C640.45,300.997 640.036,301.246 639.621,301.495L598.841,322.092C598.55,322.258 598.239,322.445 597.949,322.631C598.156,322.445 598.364,322.279 598.55,322.092ZM238.043,257.375L236.57,266.937C235.45,274.259 238.458,282.557 244.473,288.634C244.826,288.987 245.199,289.298 245.552,289.63L277.765,322.03C278.014,322.279 278.284,322.486 278.553,322.735C278.304,322.611 278.076,322.445 277.848,322.32L235.969,300.81C228.335,296.89 219.457,296.516 212.82,299.794L203.921,304.191C206.991,288.178 201.847,271.293 190.48,258.661C197.823,261.959 205.643,263.618 213.38,263.618C222.009,263.618 230.492,261.544 238.043,257.375ZM474.882,275.359L486.478,269.385C490.896,267.103 494.567,262.996 496.932,257.997C495.895,263.349 496.434,268.721 498.633,273.139L504.524,285.046C497.741,284.755 491.103,287.182 486.021,291.746C484.611,285.025 480.587,279.113 474.882,275.359ZM377.745,273.388C379.964,268.949 380.524,263.494 379.508,258.06C381.831,262.955 385.419,267.02 389.796,269.281L401.578,275.442C395.894,279.196 391.953,285.087 390.543,291.746C385.419,287.161 378.699,284.714 371.874,285.046L377.745,273.388ZM578.036,322.009L564.74,319.956C560.425,319.292 557.48,316.326 556.837,312.011L554.887,298.694C554.182,293.861 556.401,288.219 560.695,283.967L580.089,264.676C580.11,265.319 580.151,265.963 580.255,266.606L582.184,279.902C582.786,283.863 584.507,287.286 587.059,289.837C589.61,292.389 592.95,294.11 596.891,294.712L610.208,296.765C610.892,296.869 611.618,296.89 612.303,296.931L592.825,316.305C589.714,319.375 585.897,321.366 582.184,321.968C581.438,322.092 580.691,322.134 579.965,322.134C579.322,322.134 578.658,322.092 578.036,322.009ZM283.552,316.305L264.262,296.89C264.904,296.869 265.527,296.848 266.191,296.765L279.487,294.816C279.528,294.795 279.632,294.795 279.694,294.774C283.594,294.152 286.933,292.451 289.422,289.941C291.994,287.39 293.695,284.009 294.297,280.088L296.33,266.813C296.454,266.087 296.496,265.382 296.516,264.676L315.869,284.195C320.142,288.468 322.32,294.131 321.594,298.943L319.541,312.239C318.877,316.575 315.911,319.499 311.575,320.163L298.3,322.092C297.699,322.196 297.076,322.237 296.475,322.237C292.077,322.237 287.286,320.059 283.552,316.305ZM47.044,353.621C19.518,344.702 26.799,314.853 29.703,305.934C33.292,294.836 38.892,286.228 45.903,281.063C53.391,275.566 62.062,274.343 71.686,277.475C83.862,281.416 93.466,291.04 97.386,303.154C97.407,303.237 97.407,303.299 97.449,303.382L97.967,305.062C102.365,318.441 111.658,329.539 124.166,336.653C109.853,335.035 95.831,338.562 84.236,346.921C83.987,347.128 83.696,347.336 83.427,347.523L83.074,347.792C82.742,348 82.472,348.186 82.12,348.415C77.059,351.92 71.375,354.16 65.546,355.094C63.514,355.405 61.46,355.571 59.386,355.571C55.258,355.571 51.11,354.928 47.044,353.621ZM778.659,304.855C778.742,304.544 778.866,304.212 778.97,303.901L779.094,303.465C779.24,303.112 779.343,302.801 779.488,302.407C783.699,290.522 792.909,281.457 804.836,277.578C832.32,268.597 843.977,297.035 846.881,305.954C850.511,317.052 851.03,327.319 848.396,335.596C845.575,344.453 839.248,350.53 829.665,353.662C827.653,354.326 825.599,354.824 823.546,355.135C813.154,356.795 802.368,354.243 793.759,348C793.697,347.937 793.635,347.896 793.593,347.855L792.162,346.797C780.733,338.541 766.711,335.035 752.399,336.653C764.906,329.539 774.22,318.421 778.659,304.855ZM457.77,315.745C447.461,314.106 440.408,304.378 442.047,294.11C443.686,283.801 453.372,276.749 463.681,278.387C473.991,280.005 481.022,289.713 479.404,300.022C478.098,308.298 471.543,314.5 463.661,315.745C462.686,315.911 461.711,315.973 460.715,315.973C459.74,315.973 458.765,315.911 457.77,315.745ZM397.16,300.022C395.542,289.713 402.594,280.005 412.903,278.387C423.192,276.749 432.899,283.801 434.517,294.11C436.156,304.399 429.103,314.106 418.794,315.745C417.819,315.911 416.824,315.973 415.828,315.973C406.722,315.973 398.633,309.315 397.16,300.022ZM523.565,294.65L536.447,292.575C541.363,291.766 546.113,288.987 549.888,284.942C547.274,289.734 546.113,295.023 546.839,299.877L548.789,313.028C542.4,310.684 535.327,310.912 529.125,313.691C529.83,306.867 527.838,300.001 523.565,294.65ZM329.622,300.209C330.368,295.272 329.228,289.92 326.572,285.046C330.306,289.008 334.973,291.746 339.806,292.575L352.895,294.795C348.684,300.105 346.755,306.929 347.481,313.691C341.196,310.891 334.04,310.663 327.651,313.09L329.622,300.209ZM356.317,319.499C351.588,310.227 355.301,298.798 364.594,294.089C373.887,289.339 385.295,293.032 390.045,302.324C394.774,311.638 391.061,323.026 381.769,327.776C379.943,328.709 378.076,329.31 376.168,329.601C375.172,329.746 374.177,329.829 373.223,329.829C366.336,329.829 359.678,326.054 356.317,319.499ZM494.816,327.776C485.503,323.026 481.81,311.638 486.54,302.324C491.269,293.052 502.678,289.339 511.97,294.089C521.284,298.798 524.976,310.227 520.247,319.499C517.383,325.1 512.094,328.688 506.328,329.601C505.353,329.746 504.358,329.829 503.362,329.829C500.479,329.829 497.554,329.186 494.816,327.776ZM212.737,349.286L211.409,348.601C206.037,345.842 202.22,341.134 201.432,336.301L199.254,323.026C198.901,320.91 199.212,318.918 200.084,317.197C200.934,315.496 202.407,314.086 204.336,313.131L216.387,307.157C220.743,305 226.78,305.353 232.131,308.091C237.524,310.85 241.341,315.558 242.129,320.391L244.286,333.646C244.992,337.96 243.083,341.694 239.163,343.623L227.132,349.576C225.95,350.178 224.643,350.572 223.295,350.8C222.465,350.924 221.615,350.987 220.743,350.987C218.13,350.987 215.371,350.406 212.737,349.286ZM649.307,349.555L637.318,343.499C633.419,341.528 631.51,337.794 632.236,333.501L634.497,320.246C635.244,315.849 638.542,311.576 643.209,308.796L644.516,308.112C649.93,305.394 656.007,305.062 660.363,307.261L672.353,313.318C674.302,314.272 675.734,315.703 676.605,317.425C677.476,319.105 677.746,321.117 677.393,323.254L675.132,336.487C674.323,341.321 670.486,345.988 665.134,348.705C663.081,349.742 660.923,350.427 658.828,350.758C657.812,350.924 656.816,351.007 655.862,351.007C653.477,351.007 651.236,350.51 649.307,349.555ZM428.481,339.931C425.868,337.317 424.416,333.812 424.416,330.099C424.416,322.403 430.659,316.139 438.355,316.16C439.101,316.139 439.827,316.201 440.553,316.326C443.416,316.782 446.071,318.151 448.187,320.225C450.821,322.86 452.273,326.365 452.273,330.099C452.273,337.027 447.17,342.793 440.533,343.83C439.827,343.955 439.101,344.017 438.334,344.017C434.621,344.017 431.115,342.586 428.481,339.931ZM253.289,370.111L228.958,357.604C229.559,357.375 230.181,357.168 230.741,356.877L242.772,350.904C246.381,349.14 249.099,346.444 250.758,343.208C252.397,340.014 252.957,336.28 252.314,332.36L250.177,319.064C250.032,318.379 249.845,317.695 249.659,317.01L274.114,329.559C279.507,332.339 283.324,337.027 284.112,341.86L286.27,355.135C286.975,359.429 285.066,363.183 281.146,365.112L269.115,371.065C267.933,371.667 266.626,372.061 265.257,372.289C264.407,372.414 263.536,372.476 262.664,372.476C259.594,372.476 256.338,371.688 253.289,370.111ZM607.262,370.9L595.252,364.843C591.353,362.872 589.465,359.138 590.191,354.845L592.452,341.59C593.281,336.778 597.119,332.09 602.512,329.373L626.926,317.031C626.76,317.632 626.574,318.255 626.491,318.877L624.23,332.152C623.545,336.093 624.147,339.869 625.765,343.104C627.403,346.319 630.1,348.975 633.667,350.758L645.636,356.836C646.279,357.147 646.943,357.375 647.627,357.645L623.089,370.049C621.015,371.086 618.899,371.771 616.762,372.123C615.746,372.269 614.792,372.352 613.817,372.352C611.452,372.352 609.191,371.874 607.262,370.9ZM526.304,350.676C518.94,343.312 518.94,331.302 526.304,323.938C533.709,316.554 545.698,316.554 553.082,323.938C560.446,331.281 560.446,343.291 553.082,350.655C550.137,353.6 546.465,355.363 542.67,355.965C541.674,356.11 540.699,356.214 539.703,356.214C534.849,356.214 530.016,354.368 526.304,350.676ZM323.523,350.676C316.139,343.312 316.118,331.302 323.503,323.938C330.887,316.554 342.876,316.554 350.261,323.938C357.624,331.302 357.624,343.312 350.261,350.676C347.315,353.6 343.664,355.363 339.869,355.965C338.894,356.11 337.898,356.214 336.882,356.214C332.048,356.214 327.195,354.368 323.523,350.676ZM398.446,347.792C395.127,346.112 392.659,343.229 391.518,339.682C389.153,332.38 393.156,324.519 400.479,322.134C401.184,321.905 401.91,321.739 402.636,321.615C405.519,321.159 408.465,321.615 411.099,322.984C414.418,324.664 416.865,327.527 418.027,331.074C420.391,338.375 416.367,346.257 409.087,348.622C408.361,348.85 407.635,349.037 406.909,349.161C406.204,349.265 405.477,349.327 404.752,349.327C402.574,349.327 400.437,348.809 398.446,347.792ZM467.602,348.664C464.055,347.523 461.172,345.075 459.491,341.735C457.811,338.437 457.5,334.641 458.662,331.094C461.026,323.814 468.909,319.79 476.21,322.175C476.915,322.403 477.6,322.673 478.243,323.026C480.856,324.332 482.972,326.448 484.32,329.082C486.001,332.38 486.291,336.176 485.15,339.703C483.47,344.888 479.073,348.394 474.053,349.182C473.327,349.286 472.601,349.348 471.875,349.348C470.464,349.348 469.012,349.12 467.602,348.664ZM591.933,326.967C587.971,330.721 585.233,335.367 584.424,340.221L582.205,353.331C576.895,349.12 570.071,347.17 563.288,347.875C566.088,341.611 566.337,334.455 563.91,328.066L576.791,330.057C577.787,330.203 578.782,330.285 579.778,330.285C583.844,330.285 588.054,329.103 591.933,326.967ZM292.14,340.574C291.351,335.637 288.572,330.866 284.548,327.091C289.319,329.725 294.608,330.866 299.462,330.161L312.613,328.211C310.248,334.579 310.518,341.673 313.297,347.875C306.452,347.149 299.566,349.161 294.255,353.434L292.14,340.574ZM161.917,343.706C173.388,341.881 183.946,336.529 191.787,328.128L193.342,337.67C194.545,344.971 200.001,351.962 207.593,355.882C208.028,356.089 208.505,356.276 208.941,356.483L249.576,377.35C249.866,377.517 250.219,377.62 250.509,377.765C250.24,377.724 250.011,377.662 249.721,377.599L203.257,370.07C194.794,368.722 186.248,371.086 180.938,376.272L173.865,383.2C171.791,367.021 161.689,352.542 146.983,344.059C149.015,344.287 151.048,344.39 153.039,344.39C156.026,344.39 158.993,344.142 161.917,343.706ZM626.76,377.309L668.764,356.069C676.418,352.19 681.956,345.262 683.201,337.96L684.86,328.17C695.999,340.055 712.697,345.822 729.602,344.059C714.833,352.542 704.69,367.062 702.699,383.262L695.813,376.459C690.585,371.252 682.06,368.825 673.597,370.111C673.12,370.194 672.643,370.319 672.145,370.422L627.03,377.413C626.677,377.475 626.366,377.558 625.993,377.641C626.262,377.517 626.532,377.413 626.76,377.309ZM372.289,364.573C368.639,363.992 365.403,362.022 363.225,358.993C358.682,352.77 360.072,344.038 366.295,339.537C366.917,339.08 367.539,338.707 368.182,338.354C370.796,337.027 373.721,336.571 376.666,337.027C380.337,337.608 383.553,339.599 385.751,342.607C390.253,348.809 388.883,357.562 382.661,362.063C380.877,363.37 378.823,364.22 376.687,364.573C375.981,364.677 375.255,364.739 374.509,364.739C373.783,364.739 373.057,364.677 372.289,364.573ZM493.987,362.125C490.999,359.968 489.008,356.712 488.427,353.061C487.847,349.369 488.718,345.676 490.896,342.669C495.418,336.467 504.15,335.077 510.352,339.599C510.975,340.014 511.556,340.512 512.073,341.03C514.128,343.104 515.476,345.76 515.932,348.684C516.513,352.356 515.642,356.027 513.443,359.056C511.203,362.146 507.863,364.054 504.337,364.615C503.611,364.718 502.885,364.781 502.159,364.781C499.317,364.781 496.455,363.909 493.987,362.125ZM407.863,355.177C408.9,355.011 409.958,354.783 410.954,354.43C416.741,352.542 421.014,348.249 423.192,343.021C423.524,343.436 423.814,343.893 424.187,344.245C427.195,347.294 431.012,349.224 435.181,349.887C436.197,350.032 437.255,350.115 438.355,350.115C444.411,350.095 449.784,347.336 453.476,343.042C453.684,343.54 453.808,344.038 454.057,344.494C455.986,348.311 459.035,351.36 462.769,353.268C463.723,353.725 464.698,354.14 465.693,354.471C471.481,356.338 477.475,355.363 482.288,352.418C482.329,352.936 482.308,353.476 482.391,353.994C483.076,358.226 485.005,362.022 487.971,365.009C488.718,365.735 489.548,366.44 490.398,367.062C495.314,370.651 501.309,371.563 506.805,370.257C506.681,370.754 506.494,371.231 506.411,371.771C505.747,376.002 506.411,380.213 508.32,383.967C508.797,384.901 509.336,385.814 509.979,386.685C513.568,391.58 518.961,394.318 524.623,394.754C524.333,395.231 524,395.625 523.752,396.102C521.802,399.919 521.159,404.129 521.802,408.278C521.968,409.315 522.216,410.373 522.57,411.368C524.437,417.156 528.751,421.429 533.958,423.586C533.563,423.939 533.107,424.208 532.734,424.602C529.705,427.61 527.797,431.427 527.113,435.596C526.947,436.612 526.884,437.67 526.884,438.749C526.884,444.826 529.643,450.199 533.958,453.891C533.46,454.098 532.962,454.244 532.464,454.472C528.689,456.401 525.64,459.45 523.752,463.184C523.275,464.117 522.86,465.113 522.528,466.129C520.661,471.916 521.636,477.89 524.582,482.723C524.043,482.744 523.524,482.723 523.005,482.806C518.794,483.491 514.956,485.44 512.012,488.386C511.244,489.153 510.56,489.962 509.917,490.834C506.349,495.729 505.436,501.724 506.743,507.241C506.245,507.096 505.747,506.909 505.208,506.826C500.997,506.162 496.787,506.847 493.032,508.755C492.099,509.212 491.186,509.772 490.315,510.415C485.42,513.983 482.682,519.397 482.225,525.018C481.769,524.748 481.375,524.437 480.919,524.167C477.081,522.238 472.87,521.574 468.722,522.238C467.685,522.404 466.627,522.632 465.631,522.964C459.844,524.831 455.571,529.145 453.393,534.372C453.061,533.999 452.771,533.543 452.397,533.169C449.39,530.12 445.552,528.191 441.404,527.548C440.388,527.382 439.309,527.279 438.23,527.279C432.173,527.279 426.78,530.058 423.088,534.372C422.901,533.875 422.756,533.377 422.528,532.9C420.599,529.083 417.529,526.055 413.795,524.167C412.862,523.691 411.866,523.275 410.871,522.943C405.104,521.076 399.109,522.051 394.276,524.976C394.235,524.478 394.256,523.939 394.173,523.42C393.53,519.21 391.559,515.372 388.593,512.406C387.846,511.659 387.058,510.975 386.166,510.352C381.271,506.764 375.276,505.851 369.779,507.158C369.883,506.66 370.07,506.162 370.174,505.644C370.837,501.433 370.174,497.202 368.244,493.468C367.788,492.514 367.207,491.601 366.585,490.709C363.017,485.814 357.583,483.097 351.962,482.64C352.252,482.184 352.563,481.79 352.833,481.333C354.762,477.517 355.426,473.285 354.762,469.137C354.596,468.1 354.347,467.042 354.015,466.046C352.127,460.259 347.834,455.986 342.607,453.808C343.001,453.497 343.457,453.186 343.83,452.812C346.859,449.784 348.788,445.967 349.452,441.819C349.617,440.802 349.701,439.724 349.701,438.645C349.701,432.588 346.9,427.195 342.627,423.503C343.125,423.296 343.602,423.171 344.1,422.943C347.896,421.014 350.924,417.965 352.833,414.231C353.31,413.277 353.725,412.302 354.057,411.286C355.923,405.498 354.948,399.524 352.024,394.712C352.522,394.671 353.061,394.691 353.559,394.608C357.79,393.945 361.607,391.995 364.573,389.029C365.34,388.261 366.004,387.452 366.647,386.581C370.215,381.665 371.128,375.691 369.842,370.194C370.339,370.298 370.817,370.505 371.356,370.588C375.567,371.252 379.777,370.588 383.532,368.659C384.486,368.203 385.378,367.643 386.249,367.021C391.165,363.432 393.903,358.018 394.339,352.397C394.795,352.667 395.21,352.999 395.666,353.248C398.549,354.7 401.64,355.426 404.772,355.426C405.81,355.426 406.847,355.343 407.863,355.177ZM711.494,395.355C707.802,371.937 725.495,349.576 750.967,345.531C763.973,343.436 776.792,346.403 786.935,353.704C786.977,353.725 787.059,353.808 787.101,353.828L787.08,353.828L788.449,354.865C788.47,354.886 788.491,354.886 788.511,354.907C795.771,360.632 798.447,369.261 800.355,381.292C802.285,393.447 802.43,402.553 796.995,410.58C796.725,410.954 796.435,411.348 796.124,411.804C788.636,421.927 777.414,428.647 764.533,430.68C764.512,430.701 764.492,430.701 764.471,430.701C761.795,431.116 759.161,431.302 756.568,431.302C734.269,431.302 714.854,416.388 711.494,395.355ZM112.114,430.721C99.129,428.668 87.824,421.885 80.46,411.804C80.419,411.763 80.357,411.721 80.336,411.659L80.336,411.638L79.361,410.248C79.34,410.228 79.32,410.207 79.32,410.207C74.175,402.491 74.3,393.447 76.208,381.437C78.137,369.261 80.813,360.549 88.467,354.596C88.82,354.368 89.214,354.036 89.649,353.725C99.917,346.361 112.674,343.457 125.597,345.531C151.069,349.576 168.783,372.02 165.091,395.5C162.125,413.982 146.692,427.734 127.796,430.721C125.265,431.136 122.672,431.323 120.017,431.323C117.424,431.323 114.769,431.136 112.114,430.721ZM549.224,382.184C544.474,372.891 548.187,361.482 557.48,356.753C566.772,352.003 578.202,355.716 582.91,365.009C587.66,374.301 583.947,385.731 574.675,390.439C572.829,391.352 570.942,391.974 569.033,392.285C568.059,392.431 567.063,392.493 566.088,392.493C559.201,392.493 552.543,388.738 549.224,382.184ZM301.93,390.439C292.617,385.731 288.925,374.301 293.654,365.029C298.383,355.716 309.792,352.003 319.105,356.753C328.398,361.482 332.09,372.891 327.361,382.184C324.519,387.805 319.23,391.352 313.442,392.285C312.468,392.451 311.493,392.513 310.497,392.513C307.614,392.513 304.668,391.85 301.93,390.439ZM342.254,386.083C336.052,381.582 334.662,372.849 339.184,366.647C339.62,366.025 340.097,365.444 340.615,364.946C342.669,362.872 345.324,361.524 348.269,361.068C351.941,360.466 355.612,361.337 358.62,363.536C364.843,368.058 366.212,376.811 361.71,382.993C359.533,386.021 356.297,387.992 352.625,388.572L352.605,388.572C351.878,388.697 351.132,388.738 350.406,388.738C347.481,388.738 344.66,387.826 342.254,386.083ZM514.937,383.096C512.737,380.089 511.846,376.417 512.447,372.704C513.008,369.053 514.978,365.818 518.005,363.619C524.229,359.118 532.962,360.508 537.463,366.709C537.899,367.311 538.293,367.954 538.625,368.597C539.931,371.19 540.409,374.156 539.931,377.081C539.392,380.752 537.401,383.967 534.372,386.166C532.547,387.494 530.493,388.323 528.398,388.634C527.652,388.759 526.926,388.821 526.2,388.821C521.885,388.821 517.654,386.851 514.937,383.096ZM585.233,390.978C589.859,385.855 592.286,379.134 591.954,372.31L603.591,378.16C608.05,380.4 613.506,380.96 618.94,379.943C614.024,382.246 609.979,385.855 607.698,390.211L601.537,401.972C597.803,396.33 591.912,392.389 585.233,390.978ZM266.668,380.254C268.804,379.943 270.858,379.3 272.704,378.367L284.61,372.476C284.34,379.238 286.788,385.897 291.331,390.978C284.61,392.389 278.678,396.392 274.944,402.117L268.97,390.522C266.668,386.083 262.581,382.433 257.582,380.068C259.325,380.4 261.026,380.545 262.747,380.545C264.075,380.545 265.382,380.462 266.668,380.254ZM196.143,423.358L194.67,423.109C188.696,422.155 183.593,418.836 181.374,414.521L175.213,402.553C174.218,400.645 173.886,398.632 174.197,396.766C174.487,394.878 175.441,393.074 176.997,391.559L186.601,382.184C190.086,378.782 195.914,377.247 201.847,378.18C207.821,379.155 212.923,382.453 215.164,386.788L221.324,398.736C223.336,402.615 222.652,406.764 219.54,409.813L209.916,419.209C207.8,421.284 204.772,422.652 201.411,423.192C200.353,423.358 199.254,423.461 198.134,423.461C197.47,423.461 196.827,423.42 196.143,423.358ZM666.524,419.147L657.003,409.668C653.871,406.598 653.249,402.449 655.261,398.591L661.483,386.685C663.558,382.744 668.017,379.694 673.327,378.471L674.8,378.263C680.753,377.33 686.644,378.885 690.108,382.308L699.65,391.787C701.206,393.322 702.139,395.106 702.429,396.994C702.72,398.881 702.367,400.873 701.371,402.781L695.128,414.687C692.867,419.002 687.785,422.258 681.832,423.192C680.712,423.379 679.571,423.461 678.451,423.461C673.721,423.461 669.345,421.906 666.524,419.147ZM241.133,430.638L214.147,426.262C214.645,425.868 215.143,425.473 215.62,425.038L225.224,415.641C228.107,412.841 229.87,409.419 230.41,405.83C230.99,402.283 230.389,398.55 228.563,395.023L222.403,383.075C222.071,382.433 221.698,381.831 221.303,381.271L248.435,385.627C254.388,386.602 259.512,389.9 261.73,394.235L267.892,406.204C269.904,410.082 269.219,414.21 266.087,417.259L256.483,426.656C254.347,428.751 251.339,430.141 247.937,430.68C246.858,430.846 245.759,430.95 244.66,430.95C243.498,430.95 242.337,430.825 241.133,430.638ZM619.936,426.428L610.394,416.948C607.283,413.899 606.661,409.751 608.673,405.892L614.916,393.986C617.198,389.651 622.301,386.394 628.274,385.461L655.302,381.292C654.949,381.81 654.576,382.329 654.306,382.909L648.042,394.795C646.175,398.384 645.574,402.138 646.134,405.727C646.694,409.273 648.416,412.634 651.236,415.434L660.799,424.913C661.297,425.411 661.857,425.868 662.417,426.282L635.244,430.514C634.103,430.68 632.983,430.763 631.863,430.763C627.113,430.763 622.757,429.228 619.936,426.428ZM330.7,418.338C323.399,415.973 319.375,408.091 321.739,400.79C321.988,400.064 322.279,399.379 322.59,398.736C323.938,396.143 326.013,394.028 328.688,392.679C331.986,390.978 335.761,390.688 339.288,391.85C346.61,394.214 350.613,402.097 348.249,409.398C347.108,412.945 344.639,415.807 341.321,417.487C339.993,418.193 338.603,418.628 337.172,418.857C336.446,418.981 335.72,419.023 335.015,419.023C333.563,419.023 332.111,418.794 330.7,418.338ZM528.357,409.481C527.216,405.955 527.486,402.179 529.208,398.861C530.888,395.542 533.771,393.094 537.318,391.933C544.619,389.568 552.481,393.592 554.866,400.873C555.094,401.619 555.26,402.345 555.385,403.051C555.841,405.913 555.385,408.879 554.036,411.514C552.336,414.832 549.452,417.301 545.926,418.442C545.2,418.67 544.495,418.836 543.789,418.96C543.064,419.064 542.358,419.126 541.632,419.126C535.762,419.126 530.265,415.372 528.357,409.481ZM561.255,419.23C559.616,408.921 566.669,399.213 576.978,397.595C587.287,395.957 596.994,403.03 598.612,413.318C600.251,423.627 593.178,433.314 582.889,434.953C581.894,435.098 580.898,435.181 579.903,435.181C570.776,435.181 562.728,428.523 561.255,419.23ZM293.695,434.953C283.386,433.335 276.334,423.627 277.952,413.318C279.611,403.03 289.298,395.957 299.586,397.595C309.916,399.213 316.969,408.942 315.33,419.23C314.023,427.527 307.468,433.729 299.586,434.953C298.632,435.098 297.636,435.181 296.662,435.181C295.687,435.181 294.67,435.098 293.695,434.953ZM8.649,438.707C8.649,427.029 11.325,417.114 16.386,410.041C21.8,402.491 29.682,398.632 39.826,398.632C52.603,398.632 64.696,404.814 72.184,415.144C72.246,415.206 72.267,415.268 72.288,415.33L73.325,416.762C81.622,428.128 93.902,435.803 108.007,438.707C93.902,441.611 81.622,449.286 73.2,460.819C73.014,461.109 72.827,461.358 72.62,461.649L72.35,462.001C72.122,462.292 71.914,462.582 71.665,462.893C65.297,471.211 56.233,476.583 46.173,478.181C44.119,478.533 42.024,478.678 39.888,478.699L39.846,478.699C10.973,478.699 8.67,448.083 8.649,438.707ZM804.38,462.271C804.338,462.209 804.317,462.147 804.276,462.105L803.239,460.632C794.921,449.265 782.662,441.591 768.557,438.707C782.662,435.803 794.962,428.128 803.363,416.554C803.55,416.305 803.737,416.036 803.944,415.766L804.214,415.393C804.442,415.102 804.67,414.832 804.919,414.521C812.573,404.503 824.147,398.736 836.676,398.715C865.612,398.695 867.893,429.311 867.914,438.707C867.935,450.365 865.259,460.28 860.177,467.374C855.801,473.493 849.806,477.164 842.318,478.347C840.534,478.616 838.688,478.761 836.78,478.761L836.738,478.761C823.961,478.761 811.847,472.58 804.38,462.271ZM132.006,438.707C148.663,435.181 162.788,424.519 169.696,409.73L174.135,418.297C177.495,424.893 184.859,429.829 193.28,431.219C193.778,431.302 194.255,431.323 194.774,431.385L239.847,438.666C240.179,438.728 240.532,438.749 240.864,438.769C240.615,438.811 240.345,438.832 240.076,438.873L193.55,446.071C185.066,447.378 177.682,452.294 174.218,458.869L169.634,467.643C162.685,452.895 148.6,442.234 132.006,438.707ZM702.45,459.097C699.069,452.522 691.726,447.585 683.305,446.195C682.786,446.112 682.309,446.071 681.811,446.03L636.737,438.749C636.385,438.687 636.032,438.687 635.7,438.624C635.97,438.604 636.24,438.604 636.488,438.541L683.014,431.323C683.056,431.323 683.097,431.323 683.118,431.302C691.56,429.995 698.903,425.1 702.346,418.566L706.951,409.771C713.879,424.54 727.964,435.181 744.599,438.707C727.922,442.213 713.796,452.895 706.868,467.706L702.45,459.097ZM592.805,438.707C598.758,435.264 603.155,429.622 604.939,423.026L614.211,432.215C617.779,435.72 622.798,437.919 628.274,438.624C622.861,439.33 617.903,441.487 614.398,444.93L604.898,454.244C603.093,447.689 598.716,442.109 592.805,438.707ZM262.353,445.2C258.806,441.694 253.787,439.475 248.31,438.769C248.58,438.749 248.871,438.707 249.14,438.645C254.222,437.836 258.847,435.741 262.167,432.485L271.667,423.171C273.492,429.726 277.869,435.305 283.78,438.707C277.827,442.13 273.409,447.772 271.625,454.389L262.353,445.2ZM315.745,438.645C315.745,437.898 315.807,437.152 315.911,436.426C316.388,433.563 317.715,430.908 319.831,428.792C322.445,426.179 325.95,424.748 329.663,424.748C337.359,424.748 343.582,430.97 343.582,438.645C343.602,442.358 342.15,445.884 339.516,448.498C337.4,450.614 334.787,451.962 331.883,452.398C331.157,452.522 330.431,452.584 329.663,452.584L329.642,452.584C321.968,452.584 315.745,446.32 315.745,438.645ZM532.983,438.749C532.983,435.057 534.414,431.53 537.069,428.896C539.703,426.262 543.188,424.83 546.901,424.81C554.596,424.83 560.861,431.074 560.861,438.769C560.84,439.516 560.778,440.242 560.674,440.989C560.197,443.851 558.849,446.507 556.754,448.601C554.659,450.717 552.004,452.045 549.1,452.501C548.394,452.605 547.668,452.688 546.901,452.688C539.226,452.688 532.983,446.424 532.983,438.749ZM576.978,479.819C566.689,478.181 559.616,468.473 561.234,458.185C562.894,447.876 572.601,440.823 582.889,442.462C593.178,444.08 600.251,453.808 598.612,464.096C597.306,472.393 590.751,478.575 582.889,479.84C581.935,479.985 580.96,480.047 579.985,480.047C578.99,480.047 577.994,479.985 576.978,479.819ZM277.972,464.096C276.334,453.808 283.365,444.1 293.695,442.482C303.984,440.823 313.691,447.896 315.33,458.185C316.969,468.473 309.895,478.181 299.586,479.819C298.591,479.985 297.616,480.047 296.62,480.047C287.493,480.047 279.445,473.389 277.972,464.096ZM750.967,531.904C725.495,527.818 707.802,505.416 711.515,481.914C715.228,458.496 738.999,442.711 764.471,446.693C777.456,448.747 788.76,455.53 796.124,465.611C796.165,465.652 796.228,465.694 796.269,465.776L796.248,465.776L797.223,467.166C797.223,467.187 797.244,467.208 797.265,467.208C802.43,474.924 802.264,483.947 800.376,495.978C798.447,508.154 795.771,516.866 788.096,522.798C787.765,523.068 787.35,523.358 786.935,523.691C780.92,528.004 774.054,530.784 766.773,531.946C764.222,532.319 761.65,532.526 759.057,532.526C756.381,532.526 753.685,532.298 750.967,531.904ZM89.649,523.712C89.587,523.67 89.525,523.608 89.483,523.587L89.483,523.566L88.114,522.549C88.094,522.549 88.094,522.528 88.073,522.509C80.772,516.783 78.137,508.154 76.229,496.123C74.3,483.968 74.155,474.841 79.568,466.814C79.859,466.461 80.149,466.046 80.46,465.611C87.948,455.467 99.191,448.726 112.114,446.693C137.565,442.711 161.336,458.579 165.091,482.06C168.783,505.457 151.069,527.818 125.618,531.904L125.535,531.904C122.859,532.319 120.162,532.526 117.486,532.526C107.364,532.526 97.677,529.498 89.649,523.712ZM628.15,491.788C622.176,490.813 617.073,487.494 614.833,483.18L608.693,471.211C606.681,467.332 607.366,463.204 610.498,460.155L620.081,450.738C623.586,447.336 629.457,445.801 635.431,446.776L662.417,451.132C661.94,451.547 661.421,451.941 660.965,452.377L651.361,461.773C648.478,464.594 646.735,467.975 646.155,471.564C645.595,475.131 646.175,478.865 648.021,482.391L654.182,494.36C654.493,494.961 654.887,495.563 655.281,496.165L628.15,491.788ZM222.278,494.505L228.522,482.599C230.389,479.031 230.99,475.277 230.43,471.688C229.87,468.141 228.149,464.76 225.328,461.96L215.765,452.501C215.267,452.024 214.728,451.568 214.168,451.111L241.32,446.901C247.294,445.967 253.185,447.544 256.627,450.987L266.191,460.446C269.281,463.515 269.924,467.664 267.892,471.522L261.669,483.428C259.387,487.743 254.326,491 248.373,491.954L248.31,491.954L221.283,496.144C221.635,495.604 221.988,495.065 222.278,494.505ZM186.456,495.107L176.935,485.627C175.379,484.113 174.446,482.308 174.135,480.421C173.865,478.533 174.218,476.542 175.213,474.634L181.457,462.707C183.697,458.413 188.779,455.156 194.753,454.223C200.706,453.289 206.555,454.845 210.04,458.288L219.582,467.747C222.693,470.817 223.336,474.965 221.303,478.844L215.081,490.709C213.006,494.692 208.547,497.72 203.257,498.944L201.785,499.151C200.623,499.338 199.503,499.442 198.383,499.442C193.654,499.442 189.277,497.865 186.456,495.107ZM674.717,499.234C668.764,498.28 663.661,494.961 661.421,490.626L655.261,478.678C653.249,474.799 653.933,470.651 657.045,467.581L666.648,458.185C669.843,455.073 675.028,453.58 680.422,454.057L681.915,454.285C687.868,455.26 692.971,458.579 695.211,462.893L701.351,474.841C702.346,476.791 702.678,478.761 702.388,480.649C702.077,482.536 701.123,484.32 699.588,485.835L689.984,495.231C687.827,497.326 684.819,498.716 681.417,499.255C680.338,499.421 679.26,499.483 678.14,499.483C677.02,499.483 675.858,499.421 674.717,499.234ZM321.719,476.521C321.491,475.816 321.325,475.09 321.2,474.364C320.744,471.481 321.2,468.535 322.548,465.901C324.249,462.582 327.112,460.135 330.68,458.973C337.96,456.608 345.822,460.632 348.207,467.913C349.348,471.46 349.058,475.214 347.377,478.554C345.697,481.873 342.793,484.32 339.267,485.461C338.562,485.689 337.857,485.876 337.13,485.98C336.405,486.104 335.699,486.167 334.973,486.167C329.103,486.167 323.627,482.412 321.719,476.521ZM537.276,485.565C529.975,483.2 525.951,475.318 528.336,468.017C529.477,464.47 531.925,461.587 535.264,459.906C538.562,458.205 542.338,457.915 545.885,459.077C553.207,461.441 557.21,469.323 554.825,476.625C554.596,477.351 554.327,478.015 553.974,478.678C552.647,481.292 550.552,483.387 547.917,484.715C546.569,485.42 545.179,485.876 543.727,486.104C543.043,486.208 542.338,486.249 541.632,486.249C540.16,486.249 538.708,486.021 537.276,485.565ZM585.233,486.436C591.975,485.046 597.886,481.022 601.641,475.297L607.615,486.892C609.896,491.331 614.003,494.961 618.982,497.347C613.651,496.33 608.278,496.849 603.86,499.048L591.954,504.939C592.224,498.156 589.797,491.518 585.233,486.436ZM268.887,487.204L275.027,475.443C278.781,481.085 284.652,485.046 291.331,486.436C286.726,491.56 284.299,498.28 284.61,505.125L272.994,499.255C268.514,497.015 263.058,496.455 257.624,497.471C262.54,495.148 266.605,491.58 268.887,487.204ZM557.48,520.662C548.187,515.933 544.474,504.503 549.224,495.21C553.933,485.938 565.341,482.225 574.675,486.955C583.947,491.705 587.66,503.113 582.91,512.406C580.068,517.986 574.779,521.574 569.013,522.488C568.038,522.653 567.042,522.736 566.067,522.736C563.163,522.736 560.239,522.051 557.48,520.662ZM293.654,512.385C288.925,503.113 292.617,491.705 301.93,486.955C311.202,482.225 322.631,485.938 327.361,495.21C332.09,504.503 328.398,515.933 319.105,520.662C317.259,521.574 315.392,522.196 313.484,522.488C312.509,522.653 311.513,522.736 310.518,522.736C303.631,522.736 296.993,518.962 293.654,512.385ZM339.101,510.684C338.686,510.083 338.292,509.461 337.96,508.776C336.633,506.204 336.156,503.258 336.633,500.334C337.213,496.662 339.184,493.447 342.192,491.249C348.414,486.747 357.147,488.116 361.648,494.318C363.847,497.326 364.739,500.997 364.137,504.69C363.557,508.361 361.586,511.597 358.578,513.796C356.753,515.123 354.679,515.933 352.584,516.264C351.858,516.368 351.132,516.43 350.406,516.43C346.091,516.43 341.839,514.439 339.101,510.684ZM517.943,513.858C511.742,509.357 510.332,500.603 514.874,494.401C517.031,491.394 520.288,489.423 523.96,488.822C527.631,488.261 531.323,489.133 534.331,491.331C540.533,495.853 541.923,504.565 537.401,510.788C536.945,511.39 536.467,511.95 535.97,512.468C533.895,514.522 531.24,515.891 528.316,516.347C527.59,516.472 526.843,516.535 526.096,516.535C523.171,516.535 520.349,515.621 517.943,513.858ZM173.886,494.132L180.752,500.956C186,506.162 194.504,508.589 202.967,507.303C203.444,507.241 203.921,507.096 204.419,506.992L249.534,500.002C249.887,499.94 250.219,499.836 250.571,499.794C250.322,499.898 250.053,500.002 249.825,500.106L207.821,521.347C200.167,525.225 194.608,532.153 193.384,539.475L191.724,549.245C180.565,537.339 163.867,531.572 146.983,533.356C161.751,524.852 171.874,510.352 173.886,494.132ZM695.647,501.143L702.741,494.215C704.794,510.394 714.875,524.852 729.602,533.356C712.635,531.551 695.916,537.339 684.798,549.286L683.222,539.745C682.019,532.443 676.584,525.453 668.992,521.533C668.536,521.305 668.08,521.118 667.623,520.91L627.009,500.064C626.698,499.898 626.387,499.794 626.055,499.629C626.325,499.67 626.574,499.774 626.843,499.815L673.327,507.324C674.904,507.594 676.48,507.697 678.057,507.697C684.86,507.697 691.332,505.353 695.647,501.143ZM602.471,547.855C597.077,545.076 593.261,540.367 592.452,535.555L590.315,522.259C589.61,517.965 591.518,514.231 595.418,512.323L607.469,506.349C611.846,504.15 617.903,504.524 623.275,507.303L647.627,519.79C647.026,520.019 646.424,520.226 645.823,520.537L633.792,526.511C630.183,528.274 627.486,530.971 625.827,534.186C624.188,537.401 623.586,541.135 624.25,545.076L626.408,558.33C626.532,559.035 626.719,559.741 626.905,560.405L602.471,547.855ZM250.094,558.538L252.355,545.262C253.019,541.3 252.438,537.525 250.779,534.31C249.161,531.095 246.485,528.419 242.917,526.635L230.928,520.579C230.306,520.267 229.621,520.019 228.958,519.77L253.496,507.365C258.889,504.648 264.967,504.316 269.302,506.515L281.312,512.572C285.232,514.522 287.12,518.277 286.394,522.592L284.133,535.824C283.303,540.637 279.445,545.345 274.073,548.042L249.659,560.384C249.825,559.761 250.011,559.16 250.094,558.538ZM366.212,537.816C365.589,537.359 365.029,536.903 364.531,536.384C362.457,534.31 361.109,531.655 360.632,528.751C360.051,525.059 360.922,521.389 363.142,518.359C367.643,512.136 376.396,510.767 382.578,515.29C385.585,517.446 387.577,520.704 388.157,524.376C388.738,528.046 387.867,531.738 385.668,534.746C383.407,537.857 380.109,539.745 376.583,540.305C375.857,540.409 375.11,540.471 374.363,540.471C371.543,540.471 368.68,539.6 366.212,537.816ZM499.919,540.367C496.247,539.786 493.032,537.816 490.834,534.808C486.312,528.585 487.681,519.853 493.903,515.331C496.911,513.153 500.583,512.282 504.275,512.863C507.946,513.443 511.182,515.415 513.38,518.442C517.882,524.644 516.492,533.377 510.269,537.899C509.668,538.314 509.046,538.708 508.382,539.039C507.075,539.703 505.706,540.16 504.296,540.388C503.57,540.491 502.844,540.533 502.118,540.533C501.392,540.533 500.645,540.491 499.919,540.367ZM526.304,553.497C518.94,546.113 518.94,534.103 526.304,526.718C533.688,519.376 545.698,519.355 553.082,526.739C560.446,534.103 560.446,546.113 553.082,553.497C550.137,556.401 546.465,558.185 542.69,558.787C541.695,558.932 540.699,559.015 539.703,559.015C534.849,559.015 530.016,557.148 526.304,553.497ZM323.523,553.497C316.139,546.113 316.139,534.123 323.523,526.739C330.887,519.355 342.876,519.376 350.261,526.718C357.624,534.103 357.624,546.113 350.261,553.477C347.315,556.401 343.664,558.185 339.848,558.787C338.873,558.932 337.877,559.015 336.861,559.015C332.028,559.015 327.195,557.148 323.523,553.497ZM29.703,571.46C26.073,560.363 25.534,550.095 28.189,541.819C31.01,532.962 37.316,526.884 46.92,523.731C59.075,519.77 72.516,521.928 82.804,529.415C82.887,529.456 82.929,529.519 82.991,529.56L84.422,530.639C95.831,538.853 109.853,542.379 124.186,540.761C111.658,547.897 102.365,558.994 97.905,572.56C97.822,572.871 97.718,573.203 97.615,573.535L97.469,573.929C97.324,574.302 97.22,574.613 97.075,575.007C92.885,586.893 83.676,595.957 71.748,599.836C69.84,600.459 67.973,600.894 66.189,601.185C64.592,601.433 63.037,601.558 61.564,601.558L61.543,601.558C41.277,601.558 32.213,579.177 29.703,571.46ZM768.225,540.45C776.854,539.06 785.068,535.721 792.349,530.473C792.598,530.265 792.867,530.058 793.137,529.871L793.49,529.622C793.822,529.415 794.091,529.249 794.444,529C804.836,521.845 817.613,519.956 829.54,523.795C857.045,532.692 849.785,562.541 846.881,571.481C843.293,582.578 837.692,591.186 830.681,596.351C823.172,601.848 814.523,603.051 804.898,599.94C792.722,595.999 783.118,586.374 779.198,574.261C779.177,574.178 779.156,574.095 779.136,574.053L778.617,572.352C774.199,558.973 764.906,547.876 752.399,540.761C754.659,541.01 756.92,541.135 759.161,541.135C762.231,541.135 765.259,540.906 768.225,540.45ZM570.174,529.353C574.613,528.647 578.803,526.822 582.329,523.98L584.424,536.841C585.233,541.778 588.013,546.507 592.016,550.303C587.266,547.71 581.977,546.548 577.082,547.233L563.972,549.204C566.337,542.836 566.067,535.762 563.288,529.519C564.221,529.622 565.175,529.685 566.109,529.685C567.478,529.685 568.847,529.56 570.174,529.353ZM292.16,537.173L294.38,524.084C299.69,528.316 306.494,530.245 313.297,529.519C310.476,535.804 310.248,542.96 312.675,549.349L299.794,547.378C294.836,546.611 289.485,547.793 284.631,550.427C288.593,546.694 291.331,542.027 292.16,537.173ZM216.221,570.153L204.212,564.097C202.282,563.122 200.83,561.711 199.98,559.99C199.088,558.289 198.839,556.297 199.192,554.161L201.432,540.886C202.241,536.115 206.078,531.448 211.451,528.71C216.823,525.972 222.901,525.661 227.257,527.839L239.267,533.916C243.166,535.866 245.054,539.6 244.349,543.914L242.067,557.148C241.341,561.566 238.043,565.839 233.376,568.619L232.048,569.282C229.995,570.34 227.817,571.025 225.722,571.336C224.705,571.502 223.71,571.585 222.735,571.585C220.37,571.585 218.109,571.128 216.221,570.153ZM644.454,569.324C639.061,566.565 635.244,561.857 634.435,557.023L632.299,543.748C631.572,539.434 633.502,535.721 637.401,533.792L649.453,527.818C653.435,525.847 658.849,525.992 663.848,528.129L665.155,528.813C670.548,531.572 674.365,536.281 675.153,541.093L677.331,554.368C677.683,556.526 677.352,558.496 676.501,560.218C675.63,561.919 674.178,563.329 672.228,564.283L660.197,570.257C659.015,570.838 657.708,571.232 656.318,571.46C655.489,571.585 654.618,571.647 653.746,571.647C650.718,571.647 647.482,570.859 644.454,569.324ZM400.375,555.24C399.67,555.011 398.964,554.721 398.321,554.368C395.708,553.062 393.613,550.967 392.264,548.332C390.584,545.013 390.273,541.238 391.414,537.712C393.799,530.39 401.682,526.366 408.983,528.751C412.53,529.871 415.393,532.34 417.093,535.659C418.794,538.998 419.064,542.752 417.923,546.3C416.243,551.444 411.845,554.97 406.826,555.758C406.1,555.862 405.374,555.924 404.648,555.924C403.237,555.924 401.806,555.696 400.375,555.24ZM465.486,554.451C462.167,552.75 459.699,549.867 458.558,546.32C456.173,539.039 460.197,531.178 467.519,528.772C471.045,527.631 474.799,527.922 478.139,529.602C481.437,531.303 483.906,534.165 485.046,537.712C487.432,545.013 483.408,552.896 476.106,555.281C475.401,555.489 474.675,555.675 473.949,555.8C473.223,555.903 472.518,555.966 471.792,555.966C469.614,555.966 467.477,555.447 465.486,554.451ZM436.031,561.068C433.148,560.612 430.514,559.284 428.398,557.169C425.764,554.534 424.312,551.05 424.312,547.316C424.312,539.641 430.555,533.398 438.23,533.398C441.943,533.398 445.469,534.85 448.104,537.484C450.717,540.118 452.169,543.603 452.169,547.316C452.169,554.265 447.067,560.031 440.429,561.068C439.724,561.213 438.977,561.255 438.23,561.255L438.023,561.255C437.359,561.255 436.695,561.193 436.031,561.068ZM706.868,623.96C683.906,612.22 674.012,585.42 684.777,564.221C695.584,543.105 723.048,535.43 746.051,547.108C757.771,553.062 766.4,562.997 770.299,574.862C770.32,574.924 770.341,575.007 770.362,575.069L770.341,575.069L770.859,576.687C770.859,576.729 770.88,576.729 770.88,576.75C773.411,585.69 770.507,594.215 764.948,605.084C759.347,616.057 754.12,623.504 744.973,626.781C744.599,626.947 744.101,627.092 743.604,627.258C741.363,627.984 739.061,628.523 736.758,628.876C734.29,629.27 731.842,629.478 729.374,629.478C721.72,629.478 714.025,627.611 706.868,623.96ZM132.981,627.279C132.919,627.258 132.836,627.237 132.774,627.217L132.774,627.196L131.156,626.657C131.156,626.636 131.135,626.636 131.114,626.636C122.403,623.421 117.217,616.057 111.679,605.188C106.078,594.215 103.153,585.586 105.829,576.293C105.974,575.878 106.119,575.381 106.265,574.862C110.268,562.894 118.876,553.041 130.554,547.108C153.517,535.43 181.021,543.167 191.87,564.346C202.594,585.503 192.658,612.22 169.696,623.96C164.863,626.428 159.781,628.088 154.637,628.897C152.147,629.291 149.617,629.498 147.148,629.498C142.315,629.498 137.565,628.752 132.981,627.279ZM486.54,575.069C481.81,565.777 485.503,554.348 494.816,549.639C504.088,544.889 515.497,548.602 520.247,557.895C524.997,567.208 521.263,578.617 511.97,583.325C510.166,584.258 508.278,584.86 506.349,585.15C505.395,585.316 504.399,585.399 503.445,585.399C496.538,585.399 489.9,581.624 486.54,575.069ZM364.594,583.325C355.301,578.617 351.588,567.208 356.317,557.895C361.088,548.602 372.476,544.889 381.769,549.639C391.061,554.368 394.754,565.777 390.045,575.069C387.162,580.67 381.893,584.258 376.106,585.15C375.152,585.316 374.177,585.399 373.181,585.399C370.277,585.399 367.353,584.736 364.594,583.325ZM640.015,610.498C641.135,603.176 638.127,594.858 632.112,588.76C631.759,588.428 631.365,588.117 630.992,587.764L598.799,555.385C598.55,555.136 598.301,554.908 598.032,554.68C598.281,554.804 598.509,554.97 598.737,555.094L640.595,576.584C648.229,580.504 657.107,580.898 663.744,577.621L672.643,573.203C669.594,589.237 674.717,606.121 686.105,618.754C670.527,611.784 652.834,612.137 638.542,620.04L640.015,610.498ZM227.091,579.426C230.015,578.969 232.899,578.036 235.657,576.667C236.114,576.438 236.549,576.169 236.964,575.92L277.724,555.302C278.014,555.157 278.325,554.97 278.615,554.804C278.429,554.97 278.201,555.157 278.014,555.343L244.618,588.511C238.541,594.547 235.45,602.885 236.487,610.228L237.939,620.019C223.668,612.178 205.995,611.826 190.48,618.754C201.909,606.101 207.053,589.174 203.963,573.141L212.571,577.496C215.641,579.011 219.146,579.778 222.797,579.778C224.228,579.778 225.639,579.654 227.091,579.426ZM560.695,593.24C556.422,588.946 554.265,583.284 554.991,578.451L557.044,565.155C557.687,560.861 560.674,557.895 564.989,557.272L578.285,555.302C583.118,554.596 588.78,556.816 593.033,561.11L612.323,580.504C611.66,580.525 611.037,580.545 610.394,580.649L597.098,582.599C593.136,583.201 589.714,584.922 587.142,587.474C584.59,590.004 582.889,593.385 582.288,597.326L580.234,610.622C580.11,611.307 580.089,612.012 580.068,612.738L560.695,593.24ZM296.33,610.83L294.38,597.513C293.799,593.531 292.077,590.129 289.526,587.557C286.975,585.005 283.594,583.304 279.673,582.703L266.377,580.649C265.693,580.545 264.967,580.504 264.241,580.483L283.76,561.13C288.053,556.857 293.716,554.68 298.549,555.426L311.804,557.459C316.139,558.123 319.105,561.089 319.727,565.403L321.677,578.699C322.403,583.553 320.184,589.195 315.89,593.447L296.496,612.738C296.454,612.074 296.433,611.452 296.33,610.83ZM442.047,583.304C440.408,573.016 447.461,563.288 457.77,561.67C468.058,560.031 477.766,567.084 479.404,577.393C481.022,587.702 473.991,597.409 463.681,599.048C462.686,599.214 461.711,599.297 460.736,599.297C451.588,599.297 443.52,592.597 442.047,583.304ZM412.903,599.027C402.594,597.409 395.563,587.702 397.16,577.393C398.798,567.084 408.506,560.031 418.815,561.67C429.103,563.288 436.156,573.016 434.538,583.304C433.211,591.601 426.656,597.803 418.794,599.027C417.861,599.173 416.865,599.255 415.87,599.255C414.874,599.255 413.899,599.173 412.903,599.027ZM347.481,563.703C346.755,570.548 348.726,577.434 353.019,582.744L340.159,584.86C335.222,585.669 330.493,588.428 326.676,592.452C329.29,587.66 330.451,582.392 329.746,577.517L327.796,564.387C330.68,565.466 333.729,565.984 336.799,565.984C340.429,565.984 344.079,565.217 347.481,563.703ZM536.758,584.839L523.669,582.62C527.88,577.31 529.83,570.506 529.125,563.723C535.389,566.503 542.545,566.752 548.913,564.325L546.942,577.206C546.175,582.143 547.357,587.515 550.033,592.369C546.279,588.407 541.632,585.669 536.758,584.839ZM486.768,608.113L475.007,601.952C480.67,598.198 484.632,592.327 486.042,585.669C491.145,590.253 497.865,592.701 504.69,592.39L498.84,604.006C496.579,608.465 496.04,613.92 497.056,619.355C494.754,614.46 491.145,610.394 486.768,608.113ZM377.143,592.079C382.08,591.29 386.768,589.071 390.543,585.669C391.974,592.39 395.998,598.322 401.702,602.056L390.107,608.03C385.668,610.311 381.997,614.418 379.653,619.417C380.669,614.066 380.13,608.673 377.952,604.275L372.04,592.39C372.393,592.39 372.725,592.41 373.078,592.41C374.447,592.41 375.815,592.286 377.143,592.079ZM267.705,632.34L254.43,630.307C252.272,629.955 250.468,629.063 249.099,627.694C247.771,626.345 246.858,624.541 246.568,622.384L244.618,609.088C243.913,604.275 246.091,598.654 250.364,594.423C254.658,590.149 260.299,587.951 265.133,588.697L278.429,590.73C282.743,591.415 285.689,594.402 286.332,598.716L288.302,612.012C288.925,616.41 287.12,621.512 283.552,625.599L282.494,626.636C279.383,629.726 275.566,631.718 271.853,632.298C271.107,632.423 270.36,632.485 269.613,632.485C268.97,632.485 268.327,632.423 267.705,632.34ZM593.987,626.636C589.714,622.342 587.536,616.7 588.283,611.846L590.336,598.571C591,594.256 593.966,591.29 598.281,590.668L611.577,588.697C615.974,588.055 621.077,589.859 625.184,593.447L626.221,594.505C630.494,598.799 632.672,604.462 631.925,609.274L629.872,622.57C629.54,624.707 628.627,626.532 627.299,627.88C625.972,629.208 624.188,630.079 622.114,630.411C622.072,630.411 622.031,630.411 621.969,630.432L608.673,632.381C608.071,632.464 607.49,632.506 606.847,632.506C602.491,632.506 597.7,630.349 593.987,626.636ZM506.951,623.504C504.233,618.111 503.901,612.033 506.1,607.677L512.136,595.667C514.128,591.767 517.861,589.901 522.155,590.606L535.409,592.867C540.222,593.696 544.91,597.534 547.627,602.927L559.99,627.341C559.346,627.154 558.745,626.988 558.102,626.905L544.847,624.645C540.886,623.981 537.131,624.541 533.895,626.2C530.68,627.839 528.004,630.515 526.22,634.062L520.164,646.072C519.831,646.694 519.604,647.358 519.334,648.042L506.951,623.504ZM329.145,602.885C331.924,597.492 336.633,593.676 341.445,592.887L354.72,590.73C359.035,590.004 362.768,591.933 364.677,595.854L370.651,607.905C372.829,612.261 372.476,618.339 369.696,623.69L357.189,648.042C356.981,647.441 356.774,646.818 356.463,646.258L350.51,634.207C348.726,630.618 346.029,627.88 342.793,626.242C339.599,624.603 335.865,624.022 331.924,624.665L318.649,626.822C317.964,626.947 317.259,627.134 316.595,627.32L329.145,602.885ZM432.07,614.812L422.756,605.312C429.332,603.508 434.87,599.131 438.292,593.219C441.736,599.173 447.357,603.591 453.953,605.375L444.785,614.647C441.279,618.173 439.06,623.213 438.375,628.689C437.67,623.296 435.513,618.339 432.07,614.812ZM577.082,664.408C580.4,657.812 580.089,648.976 576.252,641.321C576.024,640.886 575.754,640.45 575.505,640.036L554.887,599.255C554.742,598.944 554.534,598.675 554.368,598.384C554.576,598.571 554.721,598.778 554.908,598.965L588.096,632.381C594.132,638.459 602.471,641.55 609.793,640.492L619.604,639.061C611.742,653.332 611.411,671.004 618.339,686.52C605.665,675.091 588.739,669.946 572.726,673.058L577.082,664.408ZM273.119,640.388C278.512,639.538 283.905,636.779 288.219,632.527C288.572,632.174 288.883,631.801 289.236,631.427L321.615,599.235C321.864,598.965 322.092,598.716 322.32,598.447C322.196,598.695 322.051,598.924 321.905,599.152L300.395,641.031C296.496,648.665 296.102,657.542 299.379,664.159L303.797,673.058C287.763,670.009 270.878,675.132 258.246,686.52C265.195,670.942 264.863,653.269 256.959,638.957L266.502,640.43C267.518,640.596 268.535,640.679 269.592,640.679C270.733,640.679 271.936,640.575 273.119,640.388ZM446.486,635.68C445.552,629.706 447.129,623.815 450.551,620.372L460.052,610.83C463.101,607.698 467.228,607.076 471.107,609.088L483.014,615.331C487.328,617.613 490.626,622.715 491.539,628.689L495.729,655.717C495.169,655.364 494.65,654.991 494.09,654.701L482.184,648.478C478.616,646.611 474.841,645.989 471.253,646.549C467.726,647.109 464.345,648.851 461.545,651.672L452.066,661.235C451.588,661.712 451.132,662.272 450.696,662.832L446.486,635.68ZM385.212,628.565C386.187,622.591 389.485,617.509 393.82,615.269L405.789,609.108C409.668,607.096 413.795,607.781 416.845,610.892L426.262,620.496C429.663,624.001 431.178,629.872 430.223,635.845L425.868,662.832C425.453,662.355 425.059,661.857 424.602,661.38L415.227,651.776C412.406,648.893 409.004,647.13 405.415,646.57C401.868,646.009 398.114,646.611 394.608,648.436L382.64,654.597C382.018,654.929 381.437,655.302 380.835,655.696L385.212,628.565ZM636.468,697.887C618.276,679.613 617.136,651.091 633.916,634.228C650.718,617.509 679.218,618.691 697.472,636.903C706.785,646.196 711.93,658.31 711.971,670.797C711.992,670.859 711.992,670.942 711.971,671.004L711.95,671.004L711.95,672.726C711.95,672.726 711.93,672.747 711.95,672.767C711.577,682.039 706.163,689.258 697.555,697.887C689.818,705.603 683.201,710.768 675.07,712.075C674.033,712.241 672.954,712.324 671.855,712.386C671.647,712.365 671.357,712.386 671.108,712.386L670.403,712.386C657.77,712.282 645.74,707.159 636.468,697.887ZM179.113,697.97C170.401,689.258 164.925,681.956 164.614,672.29C164.634,672.062 164.614,671.772 164.614,671.544L164.614,670.818C164.697,658.185 169.841,646.155 179.092,636.903C197.366,618.691 225.908,617.55 242.751,634.352C259.491,651.133 258.288,679.633 240.096,697.887C232.546,705.437 223.15,710.249 213.214,711.847C210.891,712.199 208.547,712.386 206.203,712.407C206.161,712.427 206.141,712.427 206.12,712.407L205.995,712.407L205.995,712.386L204.295,712.365L204.212,712.365C194.96,711.992 187.721,706.599 179.113,697.97ZM493.717,703.114L500.52,696.227C505.727,691 508.174,682.475 506.888,674.033C506.805,673.535 506.66,673.058 506.556,672.581L499.587,627.465C499.525,627.092 499.442,626.76 499.359,626.428C499.463,626.677 499.566,626.926 499.691,627.154L520.909,669.179C524.789,676.833 531.717,682.392 539.039,683.616L548.83,685.275C536.945,696.435 531.178,713.112 532.941,730.017C524.457,715.248 509.917,705.126 493.717,703.114ZM327.713,685.192L337.255,683.657C344.556,682.454 351.547,676.999 355.467,669.407C355.674,668.951 355.882,668.494 356.069,668.038L376.956,627.424C377.102,627.113 377.205,626.781 377.351,626.47C377.33,626.74 377.226,626.988 377.185,627.258L369.676,673.742C368.307,682.226 370.671,690.772 375.857,696.061L382.785,703.155C366.606,705.188 352.127,715.29 343.644,730.017C345.448,713.05 339.64,696.352 327.713,685.192ZM553.746,677.808L540.492,675.568C535.679,674.738 531.012,670.921 528.274,665.549C525.578,660.177 525.246,654.078 527.424,649.722L533.481,637.733C535.451,633.833 539.206,631.925 543.499,632.651L556.754,634.912C561.13,635.659 565.424,638.957 568.204,643.624L568.867,644.952C571.585,650.345 571.937,656.422 569.739,660.778L563.661,672.788C562.728,674.717 561.296,676.149 559.575,677.02C558.807,677.435 557.915,677.704 557.003,677.849C556.526,677.932 556.007,677.974 555.509,677.974C554.928,677.974 554.327,677.932 553.746,677.808ZM316.782,676.916C315.081,676.045 313.691,674.593 312.716,672.664L306.763,660.591C304.585,656.256 304.938,650.22 307.676,644.869C310.456,639.475 315.143,635.659 319.955,634.871L333.252,632.713C337.545,631.987 341.279,633.916 343.187,637.816L349.182,649.868C351.173,653.871 351.007,659.243 348.871,664.263L348.186,665.591C345.428,670.963 340.719,674.78 335.886,675.588L322.631,677.725L322.548,677.725C321.988,677.829 321.408,677.87 320.868,677.87C319.396,677.87 317.985,677.538 316.782,676.916ZM737.111,705.333C726.761,697.845 720.6,685.711 720.641,672.954L720.641,672.747L720.662,670.963C720.6,656.879 715.207,643.479 705.499,632.838C718.609,638.77 733.025,639.787 746.653,635.41C746.964,635.285 747.275,635.182 747.586,635.078L748.042,634.954C748.374,634.829 748.706,634.767 749.121,634.622C761.173,631.033 773.929,633.17 784.093,640.513C807.512,657.501 791.374,683.637 785.856,691.228C779.011,700.687 771.025,707.159 762.749,709.876C761.235,710.395 759.7,710.768 758.186,710.996C756.837,711.204 755.489,711.328 754.141,711.328C748.312,711.328 742.629,709.316 737.111,705.333ZM171.065,632.838C161.357,643.479 155.964,656.899 155.923,671.191C155.943,671.523 155.943,671.855 155.923,672.187L155.943,672.664C155.923,672.996 155.923,673.369 155.881,673.784C155.591,686.375 149.596,697.845 139.494,705.209C134.931,708.528 130.534,710.312 126.323,710.975C108.899,713.734 95.167,697.327 90.728,691.228C83.841,681.811 80.17,672.187 80.129,663.495C80.066,654.203 84.194,646.466 92.367,640.513C102.676,632.962 116.159,630.867 128.272,634.808C128.313,634.85 128.397,634.891 128.459,634.912L130.139,635.472C135.657,637.235 141.361,638.127 147.066,638.127C155.197,638.127 163.369,636.343 171.065,632.838ZM409.294,707.304L417.882,702.886C424.457,699.484 429.414,692.141 430.804,683.699C430.887,683.222 430.908,682.724 430.97,682.226L438.23,637.152C438.313,636.8 438.313,636.468 438.375,636.115C438.396,636.385 438.396,636.654 438.438,636.924L445.656,683.429C446.984,691.934 451.858,699.318 458.454,702.761L467.208,707.366C452.46,714.315 441.819,728.379 438.292,744.993C434.787,728.316 424.084,714.232 409.294,707.304ZM474.219,701.786L462.292,695.543C457.998,693.282 454.741,688.2 453.787,682.247C452.854,676.273 454.451,670.444 457.873,666.939L467.332,657.418C470.402,654.307 474.551,653.663 478.409,655.696L490.315,661.919C494.277,663.993 497.305,668.432 498.508,673.742L498.737,675.215C499.67,681.189 498.114,687.059 494.671,690.523L485.212,700.065C483.677,701.62 481.894,702.554 480.006,702.844C479.57,702.907 479.135,702.927 478.699,702.927C477.206,702.927 475.671,702.575 474.219,701.786ZM396.351,702.803C394.463,702.492 392.659,701.558 391.165,700.003L381.748,690.419C378.346,686.914 376.832,681.085 377.745,675.132C378.74,669.158 382.018,664.076 386.374,661.836L398.342,655.675C402.179,653.663 406.328,654.348 409.419,657.459L418.794,667.084C421.906,670.258 423.441,675.464 422.943,680.857L422.715,682.309C421.761,688.283 418.442,693.386 414.106,695.626L402.138,701.786C401.122,702.305 400.105,702.637 399.089,702.803C398.633,702.886 398.135,702.927 397.678,702.927C397.222,702.927 396.766,702.886 396.351,702.803ZM575.858,771.15C575.443,771.025 574.966,770.88 574.489,770.714C562.499,766.732 552.626,758.123 546.673,746.445C534.995,723.462 542.752,695.958 563.91,685.13C585.068,674.385 611.805,684.321 623.545,707.283C629.54,718.982 630.681,732.133 626.864,744.019C626.843,744.06 626.802,744.143 626.802,744.205L626.781,744.205L626.221,745.844L626.221,745.885C623.006,754.576 615.621,759.762 604.773,765.3C598.343,768.598 592.721,770.963 587.287,771.814C585.835,772.042 584.383,772.166 582.91,772.166C580.566,772.166 578.222,771.834 575.858,771.15ZM271.916,765.363C260.943,759.762 253.496,754.535 250.198,745.408C250.053,744.993 249.908,744.516 249.721,744.019C245.925,731.988 247.087,718.961 253.04,707.304C264.78,684.321 291.58,674.427 312.758,685.192C333.895,695.978 341.549,723.462 329.891,746.445C323.938,758.186 314.002,766.815 302.117,770.714L301.93,770.777L301.93,770.756L300.292,771.274C300.271,771.274 300.25,771.295 300.229,771.295C299.296,771.565 298.363,771.772 297.45,771.917C296.164,772.125 294.919,772.208 293.654,772.208C286.954,772.208 280.088,769.532 271.916,765.363ZM640.098,784.633C632.547,774.303 630.473,760.862 634.393,748.748C634.435,748.665 634.476,748.623 634.497,748.54L635.057,746.86C639.351,733.44 638.355,719.024 632.423,705.914C643.064,715.622 656.464,721.036 670.797,721.056C671.108,721.036 671.44,721.036 671.751,721.036L672.228,721.036C672.602,721.056 672.933,721.077 673.348,721.098C685.96,721.409 697.43,727.383 704.794,737.505C721.824,760.882 698.405,780.754 690.793,786.292C683.18,791.83 675.464,795.294 668.183,796.456C666.462,796.726 664.761,796.871 663.081,796.892L662.956,796.892C653.705,796.892 646.009,792.784 640.098,784.633ZM214.5,720.393C225.431,718.65 235.657,713.651 244.162,705.914C238.209,719.024 237.234,733.46 241.611,747.068C241.714,747.379 241.818,747.711 241.922,748.001L242.046,748.437C242.15,748.81 242.233,749.121 242.357,749.536C245.967,761.608 243.83,774.365 236.466,784.508C219.478,807.927 193.363,791.789 185.771,786.271C176.292,779.426 169.841,771.44 167.103,763.185C164.178,754.348 165.713,745.719 171.646,737.526C179.134,727.196 191.289,721.036 204.046,721.036L204.253,721.036L206.016,721.056C208.879,721.056 211.7,720.828 214.5,720.393ZM466.399,797.389C466.046,797.14 465.631,796.85 465.196,796.539C455.032,789.051 448.311,777.808 446.278,764.886C442.296,739.414 458.143,715.643 481.645,711.909C505.042,708.217 527.424,725.931 531.469,751.403C533.543,764.388 530.597,777.227 523.296,787.35C523.275,787.391 523.213,787.454 523.151,787.516L522.133,788.885C522.112,788.885 522.093,788.906 522.093,788.947C516.367,796.207 507.739,798.883 495.708,800.75C491.041,801.496 486.83,801.994 482.951,801.994C476.708,801.994 471.356,800.75 466.399,797.389ZM381.022,800.791C368.846,798.883 360.134,796.186 354.202,788.532C353.932,788.2 353.642,787.765 353.289,787.35C345.967,777.061 343.042,764.326 345.096,751.382C349.161,725.931 371.584,708.237 395.085,711.909C418.504,715.643 434.289,739.414 430.307,764.886C428.253,777.871 421.47,789.175 411.389,796.539C411.327,796.601 411.286,796.643 411.223,796.663L411.223,796.643L409.833,797.638C409.813,797.659 409.813,797.659 409.771,797.68C406.639,799.775 403.279,800.998 399.607,801.559C397.74,801.87 395.791,801.994 393.737,801.994C389.858,801.994 385.689,801.517 381.022,800.791ZM541.404,848.81C532.547,845.989 526.449,839.684 523.336,830.059C519.354,817.925 521.491,804.483 529,794.174C529.042,794.112 529.104,794.07 529.145,794.008L530.203,792.577C538.459,781.169 541.964,767.147 540.346,752.813C547.461,765.342 558.558,774.635 572.124,779.094C572.456,779.177 572.788,779.281 573.099,779.385L573.535,779.53C573.866,779.654 574.198,779.779 574.592,779.924C586.478,784.093 595.522,793.324 599.421,805.251C608.382,832.756 579.965,844.392 571.045,847.296C567.54,848.437 564.076,849.287 560.778,849.806C558.019,850.242 555.322,850.47 552.73,850.47C548.664,850.47 544.847,849.91 541.404,848.81ZM305.519,847.296C294.421,843.708 285.834,838.107 280.648,831.096C275.151,823.608 273.928,814.917 277.06,805.292C280.98,793.137 290.625,783.533 302.739,779.613C302.822,779.592 302.884,779.571 302.967,779.551L304.647,779.011C318.027,774.635 329.124,765.342 336.239,752.813C334.621,767.147 338.147,781.169 346.527,792.764C346.734,793.033 346.9,793.282 347.108,793.552L347.377,793.925C347.585,794.236 347.751,794.527 348,794.879C355.156,805.251 357.064,818.028 353.206,829.935C348.912,843.231 339.723,848.395 330.41,849.868C328.253,850.221 326.054,850.366 323.938,850.366C316.222,850.366 309.149,848.478 305.519,847.296ZM409.626,860.592C402.055,855.178 398.238,847.296 398.218,837.174C398.218,824.396 404.399,812.283 414.729,804.815C414.77,804.774 414.853,804.732 414.895,804.691L416.347,803.654C427.734,795.336 435.388,783.098 438.292,768.993C441.196,783.098 448.85,795.336 460.404,803.778C460.674,803.965 460.964,804.172 461.213,804.359L461.607,804.649C461.877,804.857 462.146,805.064 462.458,805.334C472.497,812.988 478.243,824.562 478.264,837.091C478.305,858.829 461.026,865.529 448.436,867.52C444.266,868.163 440.636,868.329 438.292,868.329L438.23,868.329C426.614,868.329 416.679,865.674 409.626,860.592Z" style="fill:url(#_Radial2);"/>
        </g>
        <path d="M787.665,71.357L774.888,71.357L774.888,67.084L805.545,67.084L804.84,71.357L792.747,71.357L792.747,103.902L787.665,103.902L787.665,71.357Z" style="fill:rgb(59,33,14);fill-rule:nonzero;"/>
        <path d="M828.07,95.072L815.23,75.74L815.23,103.888L810.646,103.888L810.646,67.07L815.624,67.07L829.854,88.746L844.145,67.07L849.082,67.07L849.082,103.514L844.042,104.282L844.042,75.74L831.16,95.072L828.07,95.072Z" style="fill:rgb(59,33,14);fill-rule:nonzero;"/>
    </g>
    <defs>
        <radialGradient id="_Radial2" cx="0" cy="0" r="1" gradientUnits="userSpaceOnUse" gradientTransform="matrix(428.544,67.859,67.859,-428.544,438.282,438.707)"><stop offset="0" style="stop-color:rgb(252,230,4);stop-opacity:1"/><stop offset="0.2" style="stop-color:rgb(252,212,5);stop-opacity:1"/><stop offset="0.3" style="stop-color:rgb(251,188,18);stop-opacity:1"/><stop offset="0.7" style="stop-color:rgb(148,89,39);stop-opacity:1"/><stop offset="0.9" style="stop-color:rgb(78,44,18);stop-opacity:1"/><stop offset="1" style="stop-color:rgb(59,33,14);stop-opacity:1"/></radialGradient>
    </defs>
</svg>
