<?xml version="1.0" encoding="UTF-8"?>
<svg id="Layer_2" data-name="Layer 2" xmlns="http://www.w3.org/2000/svg" viewBox="0 0 666.46 346.09">
  <defs>
    <style>
      .cls-1 {
        fill: #222221;
      }

      .cls-1, .cls-2, .cls-3 {
        stroke-width: 0px;
      }

      .cls-2 {
        fill: #ff0211;
      }

      .cls-3 {
        fill: #0269b3;
      }
    </style>
  </defs>
  <g id="Layer_1-2" data-name="Layer 1">
    <path class="cls-2" d="M24.56,147.89c-33.69-12.64-32.46-60.42,2.06-71.3,10.07-3.17,20.91-1.8,30.31,3.69.22.13.51.06.65-.16.05-.09.08-.19.06-.29-1.81-21.31,13.02-41.95,36.07-39.93,1.7.14,3.35.68,5.05.88.32.03.61-.2.65-.53,0-.02,0-.05,0-.07-.86-30.89,32.11-50.63,59.02-34.32,7.87,4.76,13.41,12.26,16.42,20.9.07.19.28.29.47.22.08-.03.14-.08.19-.15,9.79-16.15,26.72-25.76,45.67-25.04,15.71.59,30.54,8.75,39.4,21.81,12.64,18.63,11.56,42.45-2.51,60.23-.33.41-.23.63.3.64,16.02.48,33.53,3.84,46.59,13.1,11.45,8.11,11.81,20.41.36,28.72-8.13,5.91-17.54,9.15-27.81,11.2-.45.09-.55.33-.32.72,2.26,3.82,3.84,6.77,4.73,8.86,2.27,5.33,3.49,11.46,3.67,18.39.39,15.2-5.14,27.81-16.59,37.82-.14.13-.16.35-.03.49.03.03.07.06.11.08,14.73,6.93,25.16,20.77,27.26,37.07,1.92,14.79-4.08,28.97-15.1,38.89-16.15,14.52-40.52,18.43-60.73,10.55-.18-.08-.39.01-.47.2-.03.06-.03.13-.02.2,2.33,12.59-.73,25.76-8.29,36.04-16.64,22.64-48.65,25.69-69.41,7.32-5.33-4.72-9.29-10.26-11.88-16.63-.09-.21-.33-.31-.54-.22-.04.02-.07.04-.1.06-22.68,18.52-56.28,2.78-55.67-26.87.06-2.61.53-5.13,1-7.68.07-.39-.18-.76-.57-.83,0,0,0,0-.01,0-5.43-.91-10-4.08-13.69-9.51-8.04-11.81-9.7-27.15-7.69-41.21.07-.49-.14-.72-.64-.69-13.72.81-25.39-3.43-35.02-12.73-13.13-12.7-16.65-31.84-9.87-48.83,3.14-7.84,9.35-15.82,16.99-20.34.5-.29.48-.54-.07-.75ZM245.35,17.98c-.88-.88-1.85-1.67-2.88-2.38-6.01-4.17-13.72-5.03-20.5-2.28-9.32,3.78-14.82,13.47-13.29,23.41,1.26,8.18,7.06,14.94,14.96,17.41,5.89,1.84,12.27,1.09,17.57-2.06,10.3-6.12,13.69-19.43,7.57-29.73-.95-1.6-2.1-3.07-3.43-4.37ZM109.46,105.84c22.31,20.73,8.76,56.43-21.76,57.15-.61.02-.75.28-.41.79,1.32,2.02,2.38,4.37,3.18,6.64,4.17,11.81,3.66,23.5-1.53,35.08-.21.46-.12,1.01.24,1.37,12.38,12.85,13.71,34.67,9.7,51.59-.03.11.03.22.14.25.03,0,.06,0,.09,0,14.67-3,26.6,1.1,35.8,12.3.13.16.36.19.52.06.02-.02.04-.04.06-.06,12.62-15.95,32.47-23.27,52.26-17.12.42.13.6-.02.54-.46-3.46-24.07,10.77-43.49,32.92-52.16,1.41-.55,2.93-1.02,4.57-1.39.3-.08.48-.38.41-.68-.02-.07-.05-.14-.1-.2-.98-1.28-2.04-2.47-2.97-3.79-8.55-12.23-11.08-26.02-7.6-41.39,1.38-6.07,4.72-12.32,8.25-17.48.09-.14.06-.32-.08-.42-.03-.02-.06-.03-.09-.04-9.83-2.47-28.17-9.96-29.37-22.01-.54-5.42,1.89-10.92,6.26-14.47.39-.32.35-.58-.11-.78-16.42-7.18-26.64-19.59-30.67-37.22-.02-.09-.11-.14-.19-.12-.03,0-.06.03-.09.06-12.03,14.55-27.25,19.01-45.66,13.4-.19-.06-.28,0-.28.21.04,12.29-4.63,22.34-14.01,30.16-.28.23-.29.48-.02.73ZM12.01,98.16c-.69.99-1.28,2.05-1.77,3.15-1.78,3.99-2.14,8.47-1.03,12.7,1.2,4.58,4.06,8.56,8.02,11.16,3.81,2.5,8.38,3.57,12.91,3.01,8.82-1.1,15.74-8.1,16.73-16.94,1.13-10.19-5.95-19.48-16.08-21.08-7.28-1.16-14.57,1.95-18.78,8ZM80.75,193.37c0-11.22-9.1-20.32-20.32-20.32h0c-11.22,0-20.32,9.1-20.32,20.32h0c0,11.22,9.1,20.32,20.32,20.32h0c11.22,0,20.32-9.1,20.32-20.32h0ZM287.18,240.96c-.72-1.63-1.65-3.19-2.75-4.64-4.53-5.99-11.79-9.81-19.79-10.41-6.86-.51-13.67,1.38-19.04,5.29-5.09,3.71-8.51,8.98-9.62,14.8-.9,4.74-.22,9.61,1.94,13.99,2.64,5.34,7.34,9.63,13.21,12.07,11.68,4.85,25.55,1.47,33.01-8.03,5.29-6.73,6.43-15.42,3.04-23.07ZM167.4,332.09c1.53.21,3.09.19,4.62-.04,5.12-.77,9.57-3.91,12.02-8.47,2.31-4.31,2.57-9.42.72-13.95-1.8-4.38-5.41-7.78-9.9-9.31-3.96-1.34-8.28-1.12-12.08.61-4.46,2.04-7.78,5.97-9.04,10.72-1.05,3.99-.57,8.23,1.37,11.87,2.47,4.67,7.05,7.86,12.29,8.57Z"/>
    <path class="cls-3" d="M242.47,15.6c1.03.71,2,1.5,2.88,2.38,2.33,3.73,2.94,7.21,1.82,10.44-3.08,8.9-15.46,9.14-19.34.94-2.11-4.46-.72-10.07,3.36-12.98,3.05-2.18,6.81-2.44,11.28-.78Z"/>
    <path class="cls-1" d="M368.96,63.63c0,4.12-3.34,7.46-7.46,7.46h-1.36c-4.12,0-7.46-3.34-7.46-7.46h0v-3c0-4.12,3.34-7.46,7.46-7.46h1.36c4.12,0,7.46,3.34,7.46,7.46v3ZM360.77,68.71c2.94-.01,5.31-2.96,5.3-6.6h0c-.01-3.63-2.4-6.57-5.34-6.56h0c-2.94.01-5.31,2.96-5.3,6.6h0c.01,3.63,2.4,6.57,5.34,6.56h0Z"/>
    <path class="cls-1" d="M383.05,64.47c-1.79-.8-3.65-1.42-5.59-1.86-5.52-1.26-5.48-7.83-.37-9.18,3.31-.87,6.29-.21,8.93,1.99.51.43.52.86.02,1.3l-.71.63c-.53.47-1.05.46-1.57-.02-1.76-1.61-3.86-2.02-6.31-1.21-.68.22-1.12.87-1.08,1.58.06,1.2.73,1.96,2,2.29,2.44.64,6.48,1.28,7.85,3.2,2.4,3.36-.27,7.27-3.87,7.93-3.59.65-6.61-.25-9.06-2.72-.57-.57-.54-1.1.08-1.61l.62-.51c.54-.44,1.02-.39,1.45.16,1.41,1.81,3.37,2.46,5.87,1.97,1.84-.37,2.64-1.39,2.39-3.08-.06-.41-.28-.69-.65-.86Z"/>
    <path class="cls-1" d="M523.42,56c-.61.17-1.08.65-1.23,1.26-.32,1.29.19,2.14,1.52,2.56,1.75.55,3.48,1.04,5.19,1.49,4.92,1.28,5.08,7.33.65,9.17-3.89,1.61-7.38.98-10.47-1.89-.77-.71-.72-1.37.13-1.97l.3-.21c.67-.47,1.27-.4,1.8.21,1.88,2.14,4.24,2.57,7.08,1.29,1-.45,1.44-1.62.99-2.62-.09-.19-.2-.37-.34-.52-1.13-1.25-4.78-1.88-6.4-2.27-5.21-1.27-4.62-7.82.32-9.1,3.29-.85,6.23-.12,8.83,2.18.34.29.35.6.03.91l-.94.94c-.31.32-.82.33-1.16.03-1.86-1.63-3.96-2.12-6.3-1.46Z"/>
    <path class="cls-1" d="M401.13,66.75h-5.71c-.52.02-.98.34-1.16.83l-.86,2.42c-.17.49-.51.74-1.02.75l-1.79.06c-.44.01-.58-.19-.42-.6l5.31-13.6c1.84-4.72,3.69-4.73,5.55-.02l5.25,13.26c.24.62.03.93-.63.94l-1.53.02c-.6.01-1-.26-1.19-.83l-.9-2.59c-.15-.43-.45-.64-.9-.64ZM395.78,63.58c-.09.24.03.5.27.59.05.02.1.03.15.03l3.95.04c.25,0,.46-.2.47-.45,0-.05,0-.11-.03-.16l-1.92-5.64c-.09-.24-.35-.36-.59-.27-.12.05-.22.14-.27.26l-2.03,5.6Z"/>
    <path class="cls-1" d="M439.02,66.71l-5.8.02c-.46,0-.77.22-.93.65l-.91,2.47c-.26.7-.77,1.05-1.52,1.05h-.73c-.83,0-1.09-.38-.79-1.15l6.06-15.54c.11-.29.31-.5.59-.63.73-.33,1.49-.37,2.3-.11.37.12.62.36.75.71l6.16,15.78c.21.53.03.81-.54.82l-1.42.03c-.61.01-1.16-.37-1.36-.94l-.87-2.46c-.17-.47-.5-.7-.99-.7ZM433.67,63.6c-.08.24.04.5.28.58.05.02.1.02.15.03l4.01.03c.25,0,.46-.2.47-.45,0-.05,0-.11-.03-.16l-1.97-5.72c-.08-.24-.34-.37-.58-.29-.13.05-.24.15-.29.29l-2.04,5.69Z"/>
    <path class="cls-1" d="M540.06,67.27l-.97,2.72c-.2.57-.6.85-1.21.84l-1.26-.02c-.65,0-.85-.31-.62-.91l5.34-13.4c1.77-4.45,3.53-4.45,5.3,0l5.34,13.46c.24.6.03.92-.62.95l-1.05.06c-.73.04-1.39-.4-1.65-1.09l-.91-2.48c-.15-.4-.53-.67-.96-.67h-5.96c-.39,0-.64.18-.77.54ZM541.32,63.78c-.06.17.03.36.2.42.03.01.07.02.11.02l4.49.04c.18,0,.33-.15.33-.33,0-.04,0-.08-.02-.12l-2.2-6.11c-.06-.17-.25-.26-.42-.2-.09.03-.16.11-.2.2l-2.29,6.08Z"/>
    <path class="cls-1" d="M630.89,67.37l-.81,2.39c-.18.54-.65.93-1.21,1.01l-1.36.18c-.7.1-.92-.18-.67-.84l5.35-13.77c1.73-4.47,3.49-4.48,5.26-.02l5.45,13.69c.21.53.03.79-.54.8l-1.41.03c-.61,0-1.16-.37-1.38-.94l-.87-2.33c-.19-.5-.67-.83-1.2-.83h-5.75c-.43,0-.72.21-.86.63ZM632.22,63.76c-.07.17.02.36.19.43.04.01.07.02.11.02l4.47.05c.18,0,.33-.15.33-.33,0-.04,0-.07-.02-.11l-2.17-6.05c-.06-.17-.25-.26-.42-.2-.09.03-.16.11-.2.2l-2.29,5.99Z"/>
    <path class="cls-1" d="M414.08,60.51l6.64-6.53c.36-.36.79-.53,1.3-.52l2.11.03c.77.01.88.28.32.81l-6.05,5.68c-.36.34-.41.89-.12,1.29l6.38,8.7c.49.67.33.98-.5.93l-1.59-.11c-.69-.05-1.23-.35-1.64-.91l-4.89-6.76c-.25-.35-.54-.38-.86-.08-.99.91-1.93,1.61-1.84,3.15.07,1.37.08,2.71,0,4-.03.46-.27.69-.73.68l-1.56-.02c-.37,0-.66-.3-.66-.67v-15.87c-.02-.63.29-.92.92-.89l1.32.07c.48.03.72.28.72.77l.02,5.95c0,.65.23.75.7.3Z"/>
    <path class="cls-1" d="M464.33,60.63l6.17-6.27c.59-.6,1.39-.94,2.23-.93h1.4c.92,0,1.05.32.38.96l-5.98,5.72c-.31.3-.35.78-.1,1.12l6.4,8.64c.51.69.34,1.02-.52.99l-1.47-.05c-.71-.02-1.27-.32-1.68-.9l-4.74-6.64c-.25-.35-.55-.4-.9-.16-.95.63-1.92,1.45-1.95,2.7-.03,1.45-.08,2.85-.15,4.2-.03.52-.3.79-.82.8l-1.41.03c-.36,0-.54-.17-.55-.53l-.06-16.02c0-.51.25-.77.76-.8l1.55-.07c.41-.02.61.18.62.59v6.29c.02.77.29.88.82.33Z"/>
    <path class="cls-1" d="M482.75,67.33l-.72,2.32c-.21.7-.69,1.07-1.42,1.12l-.96.05c-.82.05-1.08-.3-.78-1.07l6.15-15.62c.16-.41.46-.62.89-.63l1.71-.05c.39,0,.66.17.8.53l6.36,16.08c.23.6.03.88-.62.85l-1.48-.09c-.66-.04-1.08-.38-1.25-1.01-.37-1.32-.7-3.16-2.49-3.11-1.89.04-3.68.05-5.37.03-.38,0-.71.24-.82.6ZM484.1,63.77c-.06.17.03.36.2.42.03.01.07.02.11.02l4.44.02c.18,0,.33-.15.33-.33,0-.04,0-.07-.02-.11l-2.2-6.15c-.06-.17-.25-.26-.42-.2-.09.03-.16.11-.2.2l-2.24,6.13Z"/>
    <path class="cls-1" d="M501.63,59.02l.02,10.98c0,.52-.26.8-.77.85l-1,.1c-.53.05-1-.33-1.05-.86,0-.03,0-.06,0-.09v-15.84c0-.43.21-.66.64-.67l1.83-.04c.3,0,.58.14.75.39l7.61,11.13c.73,1.05,1.09.94,1.08-.33l-.04-10.59c0-.41.21-.62.63-.61l1.58.03c.31,0,.56.25.56.56l.03,15.92c0,.35-.16.61-.48.76-1.37.65-2.5.31-3.41-1.02-2.39-3.53-4.84-7.15-7.36-10.86-.41-.61-.62-.54-.62.19Z"/>
    <rect class="cls-1" x="556.39" y="53.48" width="2.96" height="17.3" rx=".54" ry=".54"/>
    <path class="cls-1" d="M582.45,68.51c.7-.2,1.19-.85,1.19-1.59l.03-12.97c0-.28.23-.51.51-.51h0l1.9.02c.34,0,.51.17.51.51.03,4.63.04,8.95,0,12.97,0,1.78-1.24,3.51-2.99,4.01-3.39.96-6.02-.03-7.87-2.96-.15-.24-.1-.56.13-.74l1.3-1.04c.18-.15.45-.13.61.06.02.03.04.05.05.08,1.02,2.04,2.56,2.76,4.62,2.16Z"/>
    <path class="cls-1" d="M595.19,67.24l-.95,2.7c-.21.6-.64.89-1.28.87l-1.2-.03c-.63-.02-.83-.33-.6-.92l6.21-15.71c.14-.36.4-.58.78-.65.71-.15,1.4-.12,2.08.09.35.11.58.33.71.66l6.13,15.56c.29.74.03,1.09-.76,1.04l-.96-.05c-.74-.04-1.38-.53-1.62-1.23l-.75-2.2c-.12-.37-.47-.62-.86-.62l-6.21-.02c-.36,0-.6.17-.72.51ZM596.61,63.61c-.08.24.04.5.28.58.05.02.1.02.15.03h3.96c.25.01.46-.19.47-.44,0-.05,0-.11-.03-.16l-1.96-5.81c-.08-.24-.34-.37-.58-.29-.13.05-.24.15-.29.29l-2,5.8Z"/>
    <path class="cls-1" d="M614.88,64.53v5.48c-.01.5-.26.76-.76.79l-1.49.08c-.45.03-.67-.18-.67-.63l-.03-16.14c0-.35.28-.63.63-.63h0c3.37-.02,9.52-.97,11.74,2.1,1.68,2.32.96,6.19-1.56,7.65-2.24,1.31-4.84.66-7.34.76-.35.01-.52.19-.52.54ZM614.89,56.56v4.44c0,.3.25.55.55.55h3.55c1.67-.01,3.02-1.18,3.02-2.63h0v-.31c0-1.44-1.36-2.61-3.02-2.61h-3.55c-.3,0-.55.26-.55.56Z"/>
    <path class="cls-1" d="M649.76,58.98v10.92c-.01.68-.35,1.03-1.03,1.04h-.61c-.82.02-1.23-.38-1.23-1.2v-15.51c-.01-.51.25-.76.76-.76l1.83.02c.33,0,.59.14.78.41l7.68,11.36c.63.92.94.82.94-.29l-.03-10.99c0-.3.24-.54.54-.54,0,0,0,0,.01,0l1.46.02c.42,0,.76.35.76.77l-.02,15.74c0,.33-.15.56-.46.69-1.08.44-2.6.31-3.31-.78-2.5-3.77-4.99-7.47-7.46-11.08-.41-.59-.61-.53-.61.18Z"/>
    <path class="cls-1" d="M448.69,70.87c-.77-.65-1.02-1.56-.75-2.74.08-.33.36-.56.69-.57l1.76-.03c.39,0,.62.18.69.56.37,2.11.15,3.89-.68,5.32-.29.5-.71.69-1.28.58-.19-.03-.36-.1-.52-.2-.47-.29-.54-.66-.19-1.1l.42-.54c.37-.47.32-.89-.14-1.28Z"/>
    <path class="cls-1" d="M564.7,71.09c-.87-.69-1.13-1.71-.77-3.06.08-.29.34-.49.64-.5h2.04c.26,0,.41.13.45.39.25,1.81.06,3.55-.57,5.22-.16.41-.51.71-.93.8-.55.12-.97-.03-1.28-.44-.21-.3-.16-.71.13-.94.21-.17.37-.36.48-.59.17-.35.11-.64-.19-.88Z"/>
    <path class="cls-2" d="M650.31,95.5c13.11,8.67,16.9,25.42,16.03,40.17-.69,11.67-4.52,21.04-11.49,28.11-10.91,11.07-29.59,13.3-43.76,7.13-7.8-3.4-13.54-8.67-17.43-16.6-4.51-9.19-5.15-17.2-4.74-27.38.56-13.82,7.1-26.93,19.13-33.39,13.6-7.3,29.32-6.59,42.26,1.96ZM637.03,101.49c-17.15-6.27-31.68,4.47-34.6,21.74-1.83,10.86-.35,22.56,6.58,31.34,8.05,10.19,23.68,11.33,33.61,3.58,9.2-7.17,11.85-20.6,10.53-32.37-1.09-9.75-6.42-20.74-16.12-24.29Z"/>
    <path class="cls-2" d="M366.56,161.24h44.1c.31,0,.57.25.57.56l-.05,10.12c0,.31-.26.57-.57.57l-56.92.02c-.31,0-.57-.26-.57-.57h0v-81.03c.01-.31.27-.57.58-.57h56.6c.31,0,.57.25.57.56v10.15c0,.31-.27.57-.58.57l-43.8.07c-.31,0-.57.26-.57.57l.05,21.92c0,.31.26.57.57.57h40.75c.31,0,.57.27.57.58,0,0,0,0,0,.01l-.13,10.09c0,.31-.26.56-.57.56l-40.68.04c-.31,0-.57.26-.57.57h0l.08,24.07c0,.31.26.57.57.57Z"/>
    <path class="cls-2" d="M462.1,140.95c-.11-.17-.33-.22-.5-.1-.04.03-.08.06-.11.1l-20.64,30.8c-.33.49-.78.73-1.37.73-3.83,0-7.94.05-12.33.14-.29,0-.55-.07-.76-.22-.25-.18-.31-.53-.14-.79l27.46-40.43c.31-.47.31-1.09,0-1.55l-26.12-38.66c-.12-.18-.08-.42.1-.54.06-.04.14-.07.22-.07h14.03c.49,0,.86.19,1.12.6l18.59,29.22c.11.18.35.23.52.12.04-.03.08-.07.11-.11l19.27-28.9c.41-.61,1.09-.98,1.82-.97l12.51.08c.25,0,.46.21.46.46,0,.09-.03.18-.08.26l-26.22,38.67c-.25.37-.25.87,0,1.24l28.05,40.98c.09.14.06.32-.08.42-.05.03-.11.05-.17.05l-14.41.03c-.45,0-.87-.23-1.12-.61l-20.21-30.95Z"/>
    <path class="cls-2" d="M527.34,140.57l.03,31.19c0,.41-.34.74-.75.74h-11.28c-.53,0-.8-.26-.8-.79v-80.93c.01-.26.14-.39.4-.39,12.03-.05,23.21-.06,33.54-.05,4.21,0,8.26.54,12.16,1.6,11.63,3.17,17.17,14.56,15.97,26.18-.69,6.69-3.77,12.06-9.25,16.13-6.76,5.02-13.71,5.98-22.55,5.83-6.06-.1-11.7-.12-16.93-.05-.36,0-.54.19-.54.54ZM527.41,102.04v26.4c0,.25.2.45.45.45h21.18c7.33,0,13.27-5.61,13.27-12.54h0v-2.22c0-6.93-5.94-12.54-13.27-12.54h-21.18c-.25,0-.45.2-.45.45Z"/>
    <path class="cls-3" d="M10.24,101.31c.49-1.1,1.08-2.16,1.77-3.15,2.81-3.13,6.11-4.17,9.88-3.12,7.13,1.99,9.01,11.61,2.88,16.32-2.57,1.98-5.52,2.33-8.83,1.04-4.57-1.78-6.47-5.48-5.7-11.09Z"/>
    <circle class="cls-3" cx="59.42" cy="182.88" r="9.61"/>
    <path class="cls-3" d="M368.66,263.57l38.7-.02c.24,0,.43.19.43.43h0s-.02,9.95-.02,9.95c0,.45-.37.82-.82.82h0l-53.55.04c-.09,0-.17-.07-.17-.16,0-.01,0-.02,0-.03.96-7.24,2.9-15.64,7.57-21.25,6.55-7.87,16.18-14.05,24.8-19.99,3.41-2.35,7.72-6.29,9.06-10.28,3.32-9.81-3.3-19.57-13.55-20.14-8-.44-14.54,4.67-16.31,12.41-.07.32-.39.52-.71.45-.08-.02-.16-.05-.23-.11l-8.76-6.62c-.54-.41-.69-1.16-.35-1.74,7.02-12.3,17.78-17.33,32.29-15.09,10.1,1.56,18.42,8.45,20.65,18.57,1.58,7.19.48,15.63-4.39,21.57-8.68,10.6-21.24,15.59-30.87,24.76-1.93,1.83-3.32,3.76-4.19,5.79-.19.43-.05.64.42.64Z"/>
    <path class="cls-3" d="M493.71,247.3c-2.31,15.84-11.35,28.46-28.36,28.58-25.55.18-30.36-24.49-30.24-44.6.06-10.71,3.14-24.3,10.59-31.93,5.05-5.17,11.63-7.69,19.73-7.55,29.05.51,31.35,34.49,28.28,55.5ZM450.67,215.1c-3.29,11.81-3.5,23.55-.62,35.23,1.92,7.78,5.79,14.67,14.86,14.53,6.45-.09,10.91-3.19,13.4-9.28,3.97-9.75,4.01-19.32,3.4-29.42-.3-4.88-1.7-9.92-3.53-14.48-3.88-9.63-16.37-12.11-23.44-4.58-1.74,1.85-3.1,4.52-4.07,8Z"/>
    <path class="cls-3" d="M536.11,263.53l38.77-.04c.33,0,.5.17.5.5l-.02,10.03c0,.41-.34.75-.75.75l-53.43.02c-.3,0-.55-.25-.55-.55,0-.04,0-.08.02-.13.53-2.22,1.02-4.47,1.48-6.74,2.58-12.78,9.87-18.77,20.72-26.73,5.47-4.01,12.03-7.67,16.52-12.89,5.55-6.46,5.14-16.88-1.83-22.1-5-3.75-12.87-3.55-17.95-.51-3.87,2.32-6.3,5.78-7.29,10.38-.05.24-.29.4-.54.34-.06-.01-.12-.04-.17-.07l-8.93-6.62c-.49-.36-.64-1.02-.36-1.56,4.68-8.91,11.63-14.07,20.86-15.46,11.7-1.77,24.12,1.92,29.86,12.64,2.53,4.71,3.36,10.31,2.5,16.82-1.29,9.76-10.45,17.79-18.25,22.68-5.55,3.49-10.64,7.15-15.25,10.98-2.56,2.13-4.67,4.63-6.34,7.5-.3.51-.16.76.43.76Z"/>
    <path class="cls-3" d="M621.12,223.47c8.08-4.35,19.51-5.29,27.72-1.2,7.52,3.75,11.92,10.06,13.2,18.91,2.83,19.49-10.28,34.87-30.07,34.54-11.27-.18-20.02-4.68-26.25-13.49-.43-.62-.35-1.16.25-1.62l7.47-5.75c.48-.37,1.17-.28,1.54.2.02.03.04.05.06.08,4.5,6.97,11.07,10.08,19.7,9.32,10.97-.97,15.5-10.54,14.74-20.68-1.34-18.03-21.36-15.9-30.6-6.77-.52.52-1.24.78-1.97.73l-8.61-.6c-.32-.02-.56-.29-.54-.61,0-.01,0-.02,0-.04l5.16-42.93c.04-.32.31-.56.64-.57h43.4c.23,0,.35.11.35.34l.02,10.19c0,.4-.33.73-.73.73h0l-33.41.03c-.37,0-.69.28-.73.66l-1.97,18.11c-.06.53.15.67.63.42Z"/>
    <path class="cls-3" d="M284.43,236.32c1.1,1.45,2.03,3.01,2.75,4.64.84,5.83-.69,10.13-4.58,12.9-3.86,2.74-9.11,2.95-13.03.27-7.65-5.22-6.79-16.83,2.04-20.38,4.19-1.68,8.47-.82,12.82,2.57Z"/>
    <path class="cls-1" d="M248.68,307.01h-2.26c-.13.01-.24-.1-.25-.23l-.02-.54c0-.14.1-.25.24-.26,0,0,0,0,.01,0l6.12.11c.14,0,.25.12.24.26,0,0,0,.01,0,.02l-.06.52c-.02.13-.13.22-.26.21l-2.28-.05c-.14,0-.25.1-.26.24,0,0,0,0,0,.01l.11,6.89c0,.14-.1.25-.24.26-.02,0-.05,0-.07,0l-.62-.16c-.11-.03-.19-.13-.19-.25l.04-6.77c0-.14-.11-.25-.25-.25Z"/>
    <path class="cls-1" d="M260.67,308.5l-1.45,2.6c-.26.46-.84.63-1.31.37-.17-.09-.31-.24-.39-.41l-1.16-2.29c-.63-1.25-.95-1.18-.94.23l.03,4.85c0,.28-.14.41-.42.39l-.42-.04c-.14,0-.21-.08-.21-.22v-5.74c0-3.14.77-3.34,2.31-.61.43.77.87,1.48,1.31,2.15.23.35.47.35.7,0,.67-1,1.33-2.05,1.97-3.14.25-.43.63-.64,1.12-.63.3.01.54.26.54.56l.03,7.2c0,.45-.23.67-.68.64h-.29c-.17-.02-.3-.17-.29-.34,0,0,0,0,0-.01.18-1.87.2-3.68.07-5.45-.05-.61-.23-.64-.52-.11Z"/>
    <path class="cls-3" d="M172.02,332.05c-1.53.23-3.09.25-4.62.04-4.2-2.27-5.8-5.3-4.8-9.1,1.71-6.51,11.63-7.09,13.82.05,1.12,3.65-.35,6.66-4.4,9.01Z"/>
  </g>
</svg>