<?xml version="1.0" encoding="UTF-8"?>
<svg id="Layer_2" data-name="Layer 2" xmlns="http://www.w3.org/2000/svg" viewBox="0 0 799.03 326.81">
  <defs>
    <style>
      .cls-1 {
        stroke-width: 0px;
      }
    </style>
  </defs>
  <g id="HER_LOGO_W">
    <g>
      <g>
        <path class="cls-1" d="M557.47,83.96c0-13.44-5-27.47-25.51-27.47-8.47,0-16.59,2.3-22.15,5.88l2.77,8.12c4.71-3.14,11.24-5,17.48-5,13.74-.07,15.28,10.03,15.28,15.48v1.42c-25.92-.18-40.33,8.74-40.33,25,0,9.63,6.94,19.26,20.5,19.26,9.61,0,16.84-4.76,20.53-10h.36l1.08,8.47h11.01c-.75-4.61-1.01-10.33-1.01-16.06v-25.11ZM545.57,102.53c0,1.17-.16,2.55-.58,3.84-1.94,5.67-7.52,11.24-16.35,11.24-6.12,0-11.39-3.68-11.39-11.68,0-12.98,15.12-15.35,28.33-15.07v11.67Z"/>
        <path class="cls-1" d="M611.37,95.64c-2.16,6.17-4.08,11.76-5.62,17.33h-.36c-1.5-5.57-3.23-11.11-5.49-17.33l-13.16-37.62h-13.07l25.55,67.1h11.64l26.4-67.1h-12.76l-13.13,37.62Z"/>
        <polygon class="cls-1" points="658.87 125.12 671.01 125.12 671.01 29.27 658.87 33.17 658.87 125.12"/>
        <path class="cls-1" d="M704.26,31.45c-4.47,0-7.6,3.41-7.59,7.6-.01,4.15,2.95,7.58,7.37,7.58,4.85,0,7.77-3.43,7.76-7.58-.03-4.26-2.99-7.6-7.54-7.6Z"/>
        <rect class="cls-1" x="698.16" y="58.02" width="12.14" height="67.1"/>
        <path class="cls-1" d="M793.95,58.02h-14.66l-19.78,23.13c-1.91,2.31-4.22,5.28-5.86,7.64h-.28V30.62l-12.13,3.9v90.6h12.13v-25.26l6.25-6.99,23.08,32.25h14.87l-29.55-39.51,25.91-27.59Z"/>
        <path class="cls-1" d="M456.64,89.48c-1.12,3.18-2.83,6.08-5.08,8.62l-2.5,2.81h15.3c-6.94,11.03-19.02,17.76-32.18,17.76-20.96,0-38.01-17.05-38.01-38.01s17.05-38.01,38.01-38.01c11.97,0,23.38,5.74,30.52,15.35l.51.68h13.14l-1.45-2.53c-8.77-15.26-25.13-24.74-42.71-24.74-27.16,0-49.25,22.09-49.25,49.25s22.09,49.25,49.25,49.25c20.79,0,39.44-13.15,46.41-32.73l2.51-8.82h-24.06l-.4,1.13Z"/>
        <path class="cls-1" d="M541.09,231.76c0-13.44-5-27.47-25.51-27.47-8.47,0-16.59,2.3-22.15,5.88l2.77,8.12c4.71-3.14,11.24-5,17.48-5,13.74-.07,15.28,10.03,15.28,15.48v1.42c-25.92-.18-40.33,8.74-40.33,25,0,9.63,6.94,19.26,20.5,19.26,9.61,0,16.84-4.76,20.53-10h.36l1.08,8.47h11.01c-.75-4.61-1.01-10.33-1.01-16.06v-25.11ZM529.19,250.33c0,1.17-.16,2.55-.58,3.84-1.94,5.67-7.52,11.24-16.35,11.24-6.12,0-11.39-3.68-11.39-11.68,0-12.98,15.12-15.35,28.33-15.07v11.67Z"/>
        <path class="cls-1" d="M595.86,204.29c-10.9,0-18.94,4.78-23.82,12.96h-.28l-.67-11.44h-10.9c.33,6.33.56,13.3.56,21.86v69.87l12.13-3.9v-29.77h.28c4,6.67,11.71,10.57,20.68,10.57,15.72,0,30.51-11.92,30.51-36.1,0-20.37-12.24-34.05-28.49-34.05ZM591.65,264.89c-8.66,0-16.05-5.78-18.25-14.31-.35-1.56-.53-3.24-.53-4.96v-11.61c0-1.61.38-3.38.78-4.96,2.31-9.17,10.15-15.06,18.46-15.06,12.92,0,19.93,11.51,19.93,24.9,0,15.38-7.46,25.99-20.4,25.99Z"/>
        <path class="cls-1" d="M645.81,179.25c-4.47,0-7.6,3.41-7.59,7.6-.01,4.15,2.95,7.58,7.37,7.58,4.85,0,7.77-3.43,7.76-7.58-.03-4.26-2.99-7.6-7.54-7.6Z"/>
        <rect class="cls-1" x="639.71" y="205.82" width="12.14" height="67.1"/>
        <path class="cls-1" d="M688.73,186.5l-11.95,3.15v16.17h-10.39v9.24h10.39v36.64c0,7.88,1.37,13.8,4.74,17.51,2.9,3.32,7.56,5.17,13.17,5.17,4.74,0,8.53-.75,10.9-1.68l-.56-9.27c-1.61.5-3.91.88-7.07.88-6.82,0-9.23-4.72-9.23-13.08v-36.16h17.53v-9.24h-17.53v-19.32Z"/>
        <path class="cls-1" d="M769.11,231.76c0-13.44-5-27.47-25.51-27.47-8.47,0-16.59,2.3-22.15,5.88l2.77,8.12c4.71-3.14,11.24-5,17.48-5,13.74-.07,15.28,10.03,15.28,15.48v1.42c-25.92-.18-40.33,8.74-40.33,25,0,9.63,6.94,19.26,20.5,19.26,9.61,0,16.84-4.76,20.53-10h.36l1.08,8.47h11.01c-.75-4.61-1.01-10.33-1.01-16.06v-25.11ZM757.22,250.33c0,1.17-.16,2.55-.58,3.84-1.94,5.67-7.52,11.24-16.35,11.24-6.12,0-11.39-3.68-11.39-11.68,0-12.98,15.12-15.35,28.33-15.07v11.67Z"/>
        <polygon class="cls-1" points="786.89 179.76 786.89 272.92 799.03 272.92 799.03 175.86 786.89 179.76"/>
        <path class="cls-1" d="M464.65,248.87c-6.86,11.31-19.33,18.34-32.54,18.34-20.96,0-38.01-17.05-38.01-38.01s17.05-38.01,38.01-38.01c11.46,0,22.19,5.09,29.44,13.96l.51.62h13.48l-1.6-2.58c-9.06-14.55-24.69-23.24-41.82-23.24-27.15,0-49.25,22.09-49.25,49.25s22.09,49.25,49.25,49.25c18.84,0,36.28-10.98,44.42-27.97l1.16-2.41h-12.55l-.49.81Z"/>
      </g>
      <g>
        <path class="cls-1" d="M252.93,195.66c-4.12,11.75-10.49,22.43-18.6,31.54h49.69c-23.37,44.11-69.67,72.61-120.61,72.61-75.21,0-136.4-61.19-136.4-136.4S88.2,27.01,163.41,27.01c43.58,0,83.99,20.7,109.52,55.07h32.21C275.99,31.35,222.1,0,163.41,0,73.3,0,0,73.3,0,163.41s73.3,163.41,163.41,163.41c68.98,0,130.86-43.64,153.99-108.6l6.42-22.56h-70.88Z"/>
        <path class="cls-1" d="M69.22,164.37c0-15.92,3.94-30.91,10.89-44.07,4.09-7.98,9.36-15.42,15.73-22.11,18.05-18.97,42.4-29.42,68.57-29.42.94,0,1.87.01,2.8.04,15.33.44,30.22,5.17,43.17,13.27h41.02c-21.04-24.33-51.47-39.34-83.41-40.27-1.19-.03-2.38-.05-3.58-.05-33.64,0-64.94,13.43-88.14,37.81-23.18,24.37-35.03,56.34-33.35,90.04,3.22,64.74,56.58,115.44,121.49,115.44h.06c23.3-.01,45.95-6.64,65.52-19.17.83-.53,14.95-9.78,26.12-25.63-11.53-.1-23.05-.54-34.57-1.12-15.98,12.38-36.04,19.75-57.82,19.75-52.19,0-94.51-42.31-94.51-94.51Z"/>
      </g>
    </g>
  </g>
</svg>