<?xml version="1.0" encoding="UTF-8" standalone="no"?>
<!DOCTYPE svg PUBLIC "-//W3C//DTD SVG 1.1//EN" "http://www.w3.org/Graphics/SVG/1.1/DTD/svg11.dtd">
<svg xmlns="http://www.w3.org/2000/svg" version="1.1" viewBox="0.00 0.00 357.00 125.00">
<g stroke-width="2.00" fill="none" stroke-linecap="butt">
<path stroke="#808080" vector-effect="non-scaling-stroke" d="
  M 170.21 7.51
  L 174.13 39.47
  A 0.31 0.31 0.0 0 0 174.48 39.75
  L 178.34 39.32
  Q 178.62 39.29 178.59 39.00
  L 174.14 2.35
  A 0.28 0.27 81.7 0 0 173.83 2.11
  Q 88.97 12.51 4.00 22.63
  Q 2.95 22.76 1.87 22.84
  Q 1.06 22.90 1.16 23.70
  L 12.98 120.76
  Q 13.15 122.18 14.57 122.01
  L 172.44 102.85
  Q 173.14 102.76 173.05 102.06
  L 172.67 99.19
  A 0.90 0.90 0.0 0 0 171.68 98.42
  L 17.51 117.12
  A 0.44 0.43 -6.6 0 1 17.02 116.74
  L 6.18 27.56
  A 0.57 0.56 -7.1 0 1 6.68 26.93
  L 169.74 7.14
  A 0.42 0.42 0.0 0 1 170.21 7.51"
/>
<path stroke="#808080" vector-effect="non-scaling-stroke" d="
  M 30.42 56.53
  L 30.45 43.97
  Q 30.45 43.49 29.97 43.49
  L 26.85 43.51
  Q 26.46 43.51 26.46 43.90
  L 26.47 82.79
  Q 26.47 83.37 27.04 83.37
  L 29.89 83.37
  A 0.56 0.55 -89.5 0 0 30.45 82.81
  Q 30.39 73.81 30.47 65.78
  C 30.53 60.17 34.64 56.34 40.41 56.89
  C 47.29 57.54 48.67 63.16 48.54 69.12
  Q 48.39 75.98 48.52 82.91
  Q 48.53 83.37 48.99 83.37
  L 52.10 83.36
  Q 52.62 83.36 52.60 82.84
  Q 52.40 77.00 52.59 71.02
  C 52.92 60.66 50.27 52.25 37.95 53.27
  Q 33.81 53.62 31.12 56.79
  A 0.40 0.40 0.0 0 1 30.42 56.53"
/>
<path stroke="#808080" vector-effect="non-scaling-stroke" d="
  M 110.38 56.44
  L 110.40 43.95
  Q 110.40 43.50 109.95 43.50
  L 106.77 43.50
  Q 106.29 43.51 106.29 43.99
  L 106.30 82.96
  Q 106.30 83.36 106.71 83.37
  L 109.97 83.38
  Q 110.34 83.38 110.35 83.01
  Q 110.51 76.89 110.32 69.20
  C 110.17 62.97 111.50 57.33 118.80 56.84
  Q 121.95 56.63 124.31 58.14
  C 128.82 61.01 128.31 65.52 128.38 71.61
  Q 128.45 77.32 128.34 82.92
  A 0.43 0.43 0.0 0 0 128.77 83.36
  L 132.01 83.38
  A 0.45 0.44 -0.0 0 0 132.46 82.94
  Q 132.69 71.05 132.36 65.30
  Q 131.76 54.84 121.94 53.31
  C 117.50 52.61 114.25 53.66 111.09 56.74
  Q 110.37 57.44 110.38 56.44"
/>
<path stroke="#808080" vector-effect="non-scaling-stroke" d="
  M 232.63 57.80
  C 226.71 51.29 216.12 51.86 210.31 57.77
  C 205.69 62.47 204.60 70.37 207.78 75.91
  C 212.74 84.59 225.82 87.66 232.65 78.81
  Q 233.30 77.97 233.28 79.03
  L 233.23 82.80
  A 0.57 0.56 0.5 0 0 233.80 83.37
  L 236.71 83.37
  Q 237.29 83.37 237.29 82.79
  L 237.29 43.76
  Q 237.29 43.49 237.01 43.49
  L 233.40 43.53
  Q 233.24 43.53 233.24 43.69
  L 233.27 57.55
  Q 233.27 58.50 232.63 57.80"
/>
<path stroke="#808080" vector-effect="non-scaling-stroke" d="
  M 251.49 60.00
  L 254.48 60.01
  Q 255.09 60.01 255.09 59.39
  L 255.08 54.92
  A 0.90 0.90 0.0 0 0 254.16 54.02
  L 251.93 54.05
  Q 250.70 54.08 250.99 52.88
  Q 251.65 50.07 255.24 50.53
  Q 255.45 50.55 255.45 50.35
  L 255.47 43.78
  Q 255.47 43.55 255.24 43.53
  Q 245.13 42.80 243.91 53.16
  Q 243.85 53.66 243.49 53.93
  Q 242.86 54.39 242.09 54.01
  A 0.59 0.59 0.0 0 0 241.25 54.54
  L 241.27 59.39
  Q 241.27 60.02 241.89 60.01
  L 243.25 59.99
  Q 243.78 59.98 243.78 60.50
  L 243.77 82.95
  Q 243.77 83.39 244.20 83.39
  L 250.62 83.38
  Q 251.00 83.38 251.00 83.00
  L 250.97 60.51
  A 0.52 0.51 0.0 0 1 251.49 60.00"
/>
<path stroke="#ff8081" vector-effect="non-scaling-stroke" d="
  M 265.8854 43.8163
  A 0.28 0.28 0.0 0 0 265.6059 43.5358
  L 258.9859 43.5242
  A 0.28 0.28 0.0 0 0 258.7054 43.8037
  L 258.6946 49.9837
  A 0.28 0.28 0.0 0 0 258.9741 50.2642
  L 265.5941 50.2758
  A 0.28 0.28 0.0 0 0 265.8746 49.9963
  L 265.8854 43.8163"
/>
<path stroke="#808080" vector-effect="non-scaling-stroke" d="
  M 278.77 43.87
  A 0.36 0.36 0.0 0 0 278.41 43.51
  L 271.89 43.51
  A 0.36 0.36 0.0 0 0 271.53 43.87
  L 271.53 83.01
  A 0.36 0.36 0.0 0 0 271.89 83.37
  L 278.41 83.37
  A 0.36 0.36 0.0 0 0 278.77 83.01
  L 278.77 43.87"
/>
<path stroke="#808080" vector-effect="non-scaling-stroke" d="
  M 291.03 55.21
  L 291.20 54.27
  Q 291.34 53.45 290.51 53.45
  L 285.02 53.47
  Q 284.51 53.47 284.51 53.98
  L 284.51 82.82
  Q 284.51 83.38 285.07 83.38
  L 291.23 83.38
  A 0.58 0.57 89.5 0 0 291.80 82.79
  Q 291.49 72.64 291.92 65.29
  Q 292.29 59.00 298.55 59.45
  C 301.24 59.64 303.09 61.86 303.16 64.46
  Q 303.37 72.47 303.20 82.95
  Q 303.20 83.37 303.61 83.37
  L 310.17 83.39
  Q 310.54 83.39 310.54 83.02
  Q 310.55 75.88 310.54 68.17
  C 310.53 63.60 311.58 58.90 317.39 59.44
  C 321.62 59.83 322.29 63.86 322.26 67.34
  Q 322.20 75.62 322.23 83.09
  Q 322.23 83.37 322.51 83.37
  L 329.10 83.39
  Q 329.38 83.39 329.38 83.11
  Q 329.41 73.94 329.33 65.16
  Q 329.23 55.17 321.07 53.19
  Q 313.26 51.31 308.13 56.75
  Q 307.69 57.22 307.30 56.70
  Q 303.08 51.18 295.24 53.36
  C 293.85 53.74 292.77 54.83 291.56 55.57
  Q 290.89 55.98 291.03 55.21"
/>
<path stroke="#808080" vector-effect="non-scaling-stroke" d="
  M 347.75 74.19
  Q 347.89 76.76 345.40 77.31
  Q 341.87 78.10 340.63 73.93
  Q 340.57 73.75 340.38 73.75
  L 333.52 73.73
  A 0.21 0.20 -3.6 0 0 333.31 73.96
  Q 334.42 82.51 341.67 83.79
  C 349.16 85.11 355.55 80.45 354.85 72.46
  C 354.33 66.54 347.47 65.51 343.05 63.89
  C 338.92 62.37 344.34 56.32 346.97 61.19
  Q 347.25 61.70 347.84 61.71
  L 353.68 61.71
  Q 354.30 61.71 354.23 61.09
  C 352.65 48.36 332.18 50.87 334.65 63.99
  C 335.96 70.98 347.54 70.35 347.75 74.19"
/>
<path stroke="#808080" vector-effect="non-scaling-stroke" d="
  M 95.55 78.29
  C 95.94 83.93 94.00 89.72 87.72 90.90
  Q 78.60 92.61 74.47 85.06
  Q 74.02 84.24 73.09 84.23
  L 70.57 84.20
  Q 69.96 84.19 70.16 84.76
  Q 73.56 94.40 84.03 94.83
  Q 94.66 95.26 98.02 87.49
  Q 99.78 83.40 99.58 73.87
  Q 99.35 63.42 99.56 54.65
  Q 99.58 53.82 98.75 53.82
  L 96.22 53.79
  Q 95.46 53.78 95.50 54.53
  L 95.64 57.71
  Q 95.70 59.14 94.77 58.06
  Q 88.99 51.46 79.73 53.73
  C 69.82 56.15 65.71 69.09 71.45 77.30
  Q 76.70 84.80 86.26 83.91
  C 90.09 83.56 93.19 81.52 95.05 78.18
  A 0.27 0.27 0.0 0 1 95.55 78.29"
/>
<path stroke="#808080" vector-effect="non-scaling-stroke" d="
  M 144.94 69.94
  L 168.21 69.95
  Q 168.78 69.95 168.77 69.38
  C 168.36 46.48 136.58 48.92 138.14 69.77
  C 138.82 78.77 146.62 85.01 155.62 83.87
  Q 163.83 82.84 167.93 74.30
  A 0.47 0.47 0.0 0 0 167.51 73.62
  L 164.51 73.59
  Q 164.00 73.58 163.75 74.03
  Q 159.74 81.17 151.74 80.15
  Q 146.90 79.53 144.13 75.51
  Q 143.50 74.61 142.93 73.77
  Q 140.29 69.94 144.94 69.94"
/>
<path stroke="#808080" vector-effect="non-scaling-stroke" d="
  M 178.22 56.69
  L 178.26 54.68
  Q 178.27 53.84 177.43 53.83
  L 174.98 53.79
  A 0.73 0.73 0.0 0 0 174.24 54.52
  L 174.23 83.01
  Q 174.23 83.37 174.58 83.37
  L 177.95 83.38
  Q 178.28 83.38 178.27 83.06
  Q 178.19 74.12 178.36 65.78
  C 178.60 53.86 195.52 53.60 196.19 65.56
  Q 196.61 73.00 196.31 82.84
  Q 196.29 83.35 196.80 83.36
  L 199.79 83.38
  Q 200.37 83.38 200.38 82.80
  Q 200.44 74.49 200.33 66.16
  C 200.25 59.41 196.63 53.80 189.27 53.23
  C 185.02 52.90 181.58 54.00 178.89 56.95
  Q 178.20 57.71 178.22 56.69"
/>
<path stroke="#808080" vector-effect="non-scaling-stroke" d="
  M 265.85 53.78
  A 0.30 0.30 0.0 0 0 265.55 53.48
  L 258.97 53.48
  A 0.30 0.30 0.0 0 0 258.67 53.78
  L 258.67 83.08
  A 0.30 0.30 0.0 0 0 258.97 83.38
  L 265.55 83.38
  A 0.30 0.30 0.0 0 0 265.85 83.08
  L 265.85 53.78"
/>
<path stroke="#808080" vector-effect="non-scaling-stroke" d="
  M 63.29 54.20
  A 0.38 0.38 0.0 0 0 62.91 53.82
  L 59.63 53.82
  A 0.38 0.38 0.0 0 0 59.25 54.20
  L 59.25 83.00
  A 0.38 0.38 0.0 0 0 59.63 83.38
  L 62.91 83.38
  A 0.38 0.38 0.0 0 0 63.29 83.00
  L 63.29 54.20"
/>
<path stroke="#808080" vector-effect="non-scaling-stroke" d="
  M 324.42 101.50
  Q 325.96 98.96 327.69 97.20
  Q 329.42 95.44 326.95 95.47
  L 320.71 95.56
  Q 319.93 95.57 319.94 94.79
  Q 319.97 93.03 321.85 92.90
  Q 322.37 92.86 322.39 92.34
  L 322.40 92.05
  Q 322.41 91.83 322.19 91.81
  Q 318.83 91.41 318.61 94.80
  Q 318.60 95.01 318.48 95.19
  Q 318.28 95.50 317.91 95.51
  Q 317.59 95.52 317.41 95.78
  Q 317.25 96.02 317.46 96.35
  A 0.59 0.55 78.3 0 0 317.81 96.60
  L 318.20 96.69
  Q 318.61 96.78 318.61 97.20
  L 318.56 102.55
  A 0.48 0.47 89.4 0 0 319.05 103.04
  L 319.50 103.02
  Q 320.01 103.00 320.01 102.50
  L 319.97 97.24
  A 0.76 0.76 0.0 0 1 320.77 96.48
  L 325.67 96.75
  Q 326.38 96.79 325.94 97.35
  L 322.28 102.04
  A 0.62 0.62 0.0 0 0 322.77 103.05
  L 327.77 103.03
  Q 328.34 103.03 328.17 102.48
  L 328.06 102.12
  Q 327.97 101.81 327.65 101.83
  L 324.73 102.01
  Q 324.09 102.05 324.42 101.50"
/>
<path stroke="#808080" vector-effect="non-scaling-stroke" d="
  M 334.52 92.56
  A 0.61 0.61 0.0 0 0 333.91 91.95
  L 333.61 91.95
  A 0.61 0.61 0.0 0 0 333.00 92.56
  L 333.00 102.54
  A 0.61 0.61 0.0 0 0 333.61 103.15
  L 333.91 103.15
  A 0.61 0.61 0.0 0 0 334.52 102.54
  L 334.52 92.56"
/>
<path stroke="#808080" vector-effect="non-scaling-stroke" d="
  M 341.25 92.39
  A 0.42 0.42 0.0 0 0 340.83 91.97
  L 340.19 91.97
  A 0.42 0.42 0.0 0 0 339.77 92.39
  L 339.77 102.63
  A 0.42 0.42 0.0 0 0 340.19 103.05
  L 340.83 103.05
  A 0.42 0.42 0.0 0 0 341.25 102.63
  L 341.25 92.39"
/>
<path stroke="#808080" vector-effect="non-scaling-stroke" d="
  M 348.76 101.81
  Q 346.41 100.04 347.99 97.43
  Q 348.37 96.81 349.08 96.69
  Q 350.26 96.48 351.43 96.74
  Q 351.91 96.84 351.92 96.35
  L 351.93 96.03
  Q 351.95 95.58 351.51 95.48
  Q 347.72 94.66 346.38 97.61
  C 344.71 101.25 348.49 105.01 351.89 102.58
  Q 352.03 102.48 351.93 102.32
  L 351.79 102.10
  Q 351.51 101.67 351.06 101.93
  Q 349.85 102.63 348.76 101.81"
/>
<path stroke="#808080" vector-effect="non-scaling-stroke" d="
  M 331.41 102.26
  A 0.99 0.99 0.0 0 0 330.42 101.27
  A 0.99 0.99 0.0 0 0 329.43 102.26
  A 0.99 0.99 0.0 0 0 330.42 103.25
  A 0.99 0.99 0.0 0 0 331.41 102.26"
/>
<path stroke="#808080" vector-effect="non-scaling-stroke" d="
  M 336.27 101.73
  Q 336.01 102.21 336.17 102.69
  Q 336.34 103.20 336.93 103.28
  Q 337.61 103.36 337.98 102.74
  A 0.83 0.80 -45.2 0 0 337.99 101.91
  Q 337.49 101.01 336.74 101.31
  A 0.97 0.95 2.5 0 0 336.27 101.73"
/>
<path stroke="#808080" vector-effect="non-scaling-stroke" d="
  M 344.92 102.26
  A 1.02 1.02 0.0 0 0 343.90 101.24
  A 1.02 1.02 0.0 0 0 342.88 102.26
  A 1.02 1.02 0.0 0 0 343.90 103.28
  A 1.02 1.02 0.0 0 0 344.92 102.26"
/>
<path stroke="#808080" vector-effect="non-scaling-stroke" d="
  M 355.04 102.27
  A 0.96 0.96 0.0 0 0 354.08 101.31
  A 0.96 0.96 0.0 0 0 353.12 102.27
  A 0.96 0.96 0.0 0 0 354.08 103.23
  A 0.96 0.96 0.0 0 0 355.04 102.27"
/>
<path stroke="#808080" vector-effect="non-scaling-stroke" d="
  M 233.45 68.58
  A 11.74 11.74 0.0 0 0 221.71 56.84
  A 11.74 11.74 0.0 0 0 209.97 68.58
  A 11.74 11.74 0.0 0 0 221.71 80.32
  A 11.74 11.74 0.0 0 0 233.45 68.58"
/>
<path stroke="#808080" vector-effect="non-scaling-stroke" d="
  M 84.7351 80.3288
  A 11.81 11.38 87.5 0 0 95.5892 68.0336
  A 11.81 11.38 87.5 0 0 83.7049 56.7312
  A 11.81 11.38 87.5 0 0 72.8508 69.0264
  A 11.81 11.38 87.5 0 0 84.7351 80.3288"
/>
<path stroke="#808080" vector-effect="non-scaling-stroke" d="
  M 142.38 66.23
  L 164.38 66.27
  A 0.01 0.01 0.0 0 0 164.39 66.26
  L 164.39 66.20
  A 10.84 9.17 0.1 0 0 153.57 57.01
  L 153.23 57.01
  A 10.84 9.17 0.1 0 0 142.37 66.16
  L 142.37 66.22
  A 0.01 0.01 0.0 0 0 142.38 66.23"
/>
</g>
<path fill="#ffffff" d="
  M 0.00 0.00
  L 355.92 0.00
  L 356.00 123.64
  A 0.33 0.33 0.0 0 1 355.67 123.97
  L 0.00 123.99
  L 0.00 0.00
  Z
  M 170.21 7.51
  L 174.13 39.47
  A 0.31 0.31 0.0 0 0 174.48 39.75
  L 178.34 39.32
  Q 178.62 39.29 178.59 39.00
  L 174.14 2.35
  A 0.28 0.27 81.7 0 0 173.83 2.11
  Q 88.97 12.51 4.00 22.63
  Q 2.95 22.76 1.87 22.84
  Q 1.06 22.90 1.16 23.70
  L 12.98 120.76
  Q 13.15 122.18 14.57 122.01
  L 172.44 102.85
  Q 173.14 102.76 173.05 102.06
  L 172.67 99.19
  A 0.90 0.90 0.0 0 0 171.68 98.42
  L 17.51 117.12
  A 0.44 0.43 -6.6 0 1 17.02 116.74
  L 6.18 27.56
  A 0.57 0.56 -7.1 0 1 6.68 26.93
  L 169.74 7.14
  A 0.42 0.42 0.0 0 1 170.21 7.51
  Z
  M 30.42 56.53
  L 30.45 43.97
  Q 30.45 43.49 29.97 43.49
  L 26.85 43.51
  Q 26.46 43.51 26.46 43.90
  L 26.47 82.79
  Q 26.47 83.37 27.04 83.37
  L 29.89 83.37
  A 0.56 0.55 -89.5 0 0 30.45 82.81
  Q 30.39 73.81 30.47 65.78
  C 30.53 60.17 34.64 56.34 40.41 56.89
  C 47.29 57.54 48.67 63.16 48.54 69.12
  Q 48.39 75.98 48.52 82.91
  Q 48.53 83.37 48.99 83.37
  L 52.10 83.36
  Q 52.62 83.36 52.60 82.84
  Q 52.40 77.00 52.59 71.02
  C 52.92 60.66 50.27 52.25 37.95 53.27
  Q 33.81 53.62 31.12 56.79
  A 0.40 0.40 0.0 0 1 30.42 56.53
  Z
  M 110.38 56.44
  L 110.40 43.95
  Q 110.40 43.50 109.95 43.50
  L 106.77 43.50
  Q 106.29 43.51 106.29 43.99
  L 106.30 82.96
  Q 106.30 83.36 106.71 83.37
  L 109.97 83.38
  Q 110.34 83.38 110.35 83.01
  Q 110.51 76.89 110.32 69.20
  C 110.17 62.97 111.50 57.33 118.80 56.84
  Q 121.95 56.63 124.31 58.14
  C 128.82 61.01 128.31 65.52 128.38 71.61
  Q 128.45 77.32 128.34 82.92
  A 0.43 0.43 0.0 0 0 128.77 83.36
  L 132.01 83.38
  A 0.45 0.44 -0.0 0 0 132.46 82.94
  Q 132.69 71.05 132.36 65.30
  Q 131.76 54.84 121.94 53.31
  C 117.50 52.61 114.25 53.66 111.09 56.74
  Q 110.37 57.44 110.38 56.44
  Z
  M 232.63 57.80
  C 226.71 51.29 216.12 51.86 210.31 57.77
  C 205.69 62.47 204.60 70.37 207.78 75.91
  C 212.74 84.59 225.82 87.66 232.65 78.81
  Q 233.30 77.97 233.28 79.03
  L 233.23 82.80
  A 0.57 0.56 0.5 0 0 233.80 83.37
  L 236.71 83.37
  Q 237.29 83.37 237.29 82.79
  L 237.29 43.76
  Q 237.29 43.49 237.01 43.49
  L 233.40 43.53
  Q 233.24 43.53 233.24 43.69
  L 233.27 57.55
  Q 233.27 58.50 232.63 57.80
  Z
  M 251.49 60.00
  L 254.48 60.01
  Q 255.09 60.01 255.09 59.39
  L 255.08 54.92
  A 0.90 0.90 0.0 0 0 254.16 54.02
  L 251.93 54.05
  Q 250.70 54.08 250.99 52.88
  Q 251.65 50.07 255.24 50.53
  Q 255.45 50.55 255.45 50.35
  L 255.47 43.78
  Q 255.47 43.55 255.24 43.53
  Q 245.13 42.80 243.91 53.16
  Q 243.85 53.66 243.49 53.93
  Q 242.86 54.39 242.09 54.01
  A 0.59 0.59 0.0 0 0 241.25 54.54
  L 241.27 59.39
  Q 241.27 60.02 241.89 60.01
  L 243.25 59.99
  Q 243.78 59.98 243.78 60.50
  L 243.77 82.95
  Q 243.77 83.39 244.20 83.39
  L 250.62 83.38
  Q 251.00 83.38 251.00 83.00
  L 250.97 60.51
  A 0.52 0.51 0.0 0 1 251.49 60.00
  Z
  M 265.8854 43.8163
  A 0.28 0.28 0.0 0 0 265.6059 43.5358
  L 258.9859 43.5242
  A 0.28 0.28 0.0 0 0 258.7054 43.8037
  L 258.6946 49.9837
  A 0.28 0.28 0.0 0 0 258.9741 50.2642
  L 265.5941 50.2758
  A 0.28 0.28 0.0 0 0 265.8746 49.9963
  L 265.8854 43.8163
  Z
  M 278.77 43.87
  A 0.36 0.36 0.0 0 0 278.41 43.51
  L 271.89 43.51
  A 0.36 0.36 0.0 0 0 271.53 43.87
  L 271.53 83.01
  A 0.36 0.36 0.0 0 0 271.89 83.37
  L 278.41 83.37
  A 0.36 0.36 0.0 0 0 278.77 83.01
  L 278.77 43.87
  Z
  M 291.03 55.21
  L 291.20 54.27
  Q 291.34 53.45 290.51 53.45
  L 285.02 53.47
  Q 284.51 53.47 284.51 53.98
  L 284.51 82.82
  Q 284.51 83.38 285.07 83.38
  L 291.23 83.38
  A 0.58 0.57 89.5 0 0 291.80 82.79
  Q 291.49 72.64 291.92 65.29
  Q 292.29 59.00 298.55 59.45
  C 301.24 59.64 303.09 61.86 303.16 64.46
  Q 303.37 72.47 303.20 82.95
  Q 303.20 83.37 303.61 83.37
  L 310.17 83.39
  Q 310.54 83.39 310.54 83.02
  Q 310.55 75.88 310.54 68.17
  C 310.53 63.60 311.58 58.90 317.39 59.44
  C 321.62 59.83 322.29 63.86 322.26 67.34
  Q 322.20 75.62 322.23 83.09
  Q 322.23 83.37 322.51 83.37
  L 329.10 83.39
  Q 329.38 83.39 329.38 83.11
  Q 329.41 73.94 329.33 65.16
  Q 329.23 55.17 321.07 53.19
  Q 313.26 51.31 308.13 56.75
  Q 307.69 57.22 307.30 56.70
  Q 303.08 51.18 295.24 53.36
  C 293.85 53.74 292.77 54.83 291.56 55.57
  Q 290.89 55.98 291.03 55.21
  Z
  M 347.75 74.19
  Q 347.89 76.76 345.40 77.31
  Q 341.87 78.10 340.63 73.93
  Q 340.57 73.75 340.38 73.75
  L 333.52 73.73
  A 0.21 0.20 -3.6 0 0 333.31 73.96
  Q 334.42 82.51 341.67 83.79
  C 349.16 85.11 355.55 80.45 354.85 72.46
  C 354.33 66.54 347.47 65.51 343.05 63.89
  C 338.92 62.37 344.34 56.32 346.97 61.19
  Q 347.25 61.70 347.84 61.71
  L 353.68 61.71
  Q 354.30 61.71 354.23 61.09
  C 352.65 48.36 332.18 50.87 334.65 63.99
  C 335.96 70.98 347.54 70.35 347.75 74.19
  Z
  M 95.55 78.29
  C 95.94 83.93 94.00 89.72 87.72 90.90
  Q 78.60 92.61 74.47 85.06
  Q 74.02 84.24 73.09 84.23
  L 70.57 84.20
  Q 69.96 84.19 70.16 84.76
  Q 73.56 94.40 84.03 94.83
  Q 94.66 95.26 98.02 87.49
  Q 99.78 83.40 99.58 73.87
  Q 99.35 63.42 99.56 54.65
  Q 99.58 53.82 98.75 53.82
  L 96.22 53.79
  Q 95.46 53.78 95.50 54.53
  L 95.64 57.71
  Q 95.70 59.14 94.77 58.06
  Q 88.99 51.46 79.73 53.73
  C 69.82 56.15 65.71 69.09 71.45 77.30
  Q 76.70 84.80 86.26 83.91
  C 90.09 83.56 93.19 81.52 95.05 78.18
  A 0.27 0.27 0.0 0 1 95.55 78.29
  Z
  M 144.94 69.94
  L 168.21 69.95
  Q 168.78 69.95 168.77 69.38
  C 168.36 46.48 136.58 48.92 138.14 69.77
  C 138.82 78.77 146.62 85.01 155.62 83.87
  Q 163.83 82.84 167.93 74.30
  A 0.47 0.47 0.0 0 0 167.51 73.62
  L 164.51 73.59
  Q 164.00 73.58 163.75 74.03
  Q 159.74 81.17 151.74 80.15
  Q 146.90 79.53 144.13 75.51
  Q 143.50 74.61 142.93 73.77
  Q 140.29 69.94 144.94 69.94
  Z
  M 178.22 56.69
  L 178.26 54.68
  Q 178.27 53.84 177.43 53.83
  L 174.98 53.79
  A 0.73 0.73 0.0 0 0 174.24 54.52
  L 174.23 83.01
  Q 174.23 83.37 174.58 83.37
  L 177.95 83.38
  Q 178.28 83.38 178.27 83.06
  Q 178.19 74.12 178.36 65.78
  C 178.60 53.86 195.52 53.60 196.19 65.56
  Q 196.61 73.00 196.31 82.84
  Q 196.29 83.35 196.80 83.36
  L 199.79 83.38
  Q 200.37 83.38 200.38 82.80
  Q 200.44 74.49 200.33 66.16
  C 200.25 59.41 196.63 53.80 189.27 53.23
  C 185.02 52.90 181.58 54.00 178.89 56.95
  Q 178.20 57.71 178.22 56.69
  Z
  M 265.85 53.78
  A 0.30 0.30 0.0 0 0 265.55 53.48
  L 258.97 53.48
  A 0.30 0.30 0.0 0 0 258.67 53.78
  L 258.67 83.08
  A 0.30 0.30 0.0 0 0 258.97 83.38
  L 265.55 83.38
  A 0.30 0.30 0.0 0 0 265.85 83.08
  L 265.85 53.78
  Z
  M 63.29 54.20
  A 0.38 0.38 0.0 0 0 62.91 53.82
  L 59.63 53.82
  A 0.38 0.38 0.0 0 0 59.25 54.20
  L 59.25 83.00
  A 0.38 0.38 0.0 0 0 59.63 83.38
  L 62.91 83.38
  A 0.38 0.38 0.0 0 0 63.29 83.00
  L 63.29 54.20
  Z
  M 324.42 101.50
  Q 325.96 98.96 327.69 97.20
  Q 329.42 95.44 326.95 95.47
  L 320.71 95.56
  Q 319.93 95.57 319.94 94.79
  Q 319.97 93.03 321.85 92.90
  Q 322.37 92.86 322.39 92.34
  L 322.40 92.05
  Q 322.41 91.83 322.19 91.81
  Q 318.83 91.41 318.61 94.80
  Q 318.60 95.01 318.48 95.19
  Q 318.28 95.50 317.91 95.51
  Q 317.59 95.52 317.41 95.78
  Q 317.25 96.02 317.46 96.35
  A 0.59 0.55 78.3 0 0 317.81 96.60
  L 318.20 96.69
  Q 318.61 96.78 318.61 97.20
  L 318.56 102.55
  A 0.48 0.47 89.4 0 0 319.05 103.04
  L 319.50 103.02
  Q 320.01 103.00 320.01 102.50
  L 319.97 97.24
  A 0.76 0.76 0.0 0 1 320.77 96.48
  L 325.67 96.75
  Q 326.38 96.79 325.94 97.35
  L 322.28 102.04
  A 0.62 0.62 0.0 0 0 322.77 103.05
  L 327.77 103.03
  Q 328.34 103.03 328.17 102.48
  L 328.06 102.12
  Q 327.97 101.81 327.65 101.83
  L 324.73 102.01
  Q 324.09 102.05 324.42 101.50
  Z
  M 334.52 92.56
  A 0.61 0.61 0.0 0 0 333.91 91.95
  L 333.61 91.95
  A 0.61 0.61 0.0 0 0 333.00 92.56
  L 333.00 102.54
  A 0.61 0.61 0.0 0 0 333.61 103.15
  L 333.91 103.15
  A 0.61 0.61 0.0 0 0 334.52 102.54
  L 334.52 92.56
  Z
  M 341.25 92.39
  A 0.42 0.42 0.0 0 0 340.83 91.97
  L 340.19 91.97
  A 0.42 0.42 0.0 0 0 339.77 92.39
  L 339.77 102.63
  A 0.42 0.42 0.0 0 0 340.19 103.05
  L 340.83 103.05
  A 0.42 0.42 0.0 0 0 341.25 102.63
  L 341.25 92.39
  Z
  M 348.76 101.81
  Q 346.41 100.04 347.99 97.43
  Q 348.37 96.81 349.08 96.69
  Q 350.26 96.48 351.43 96.74
  Q 351.91 96.84 351.92 96.35
  L 351.93 96.03
  Q 351.95 95.58 351.51 95.48
  Q 347.72 94.66 346.38 97.61
  C 344.71 101.25 348.49 105.01 351.89 102.58
  Q 352.03 102.48 351.93 102.32
  L 351.79 102.10
  Q 351.51 101.67 351.06 101.93
  Q 349.85 102.63 348.76 101.81
  Z
  M 331.41 102.26
  A 0.99 0.99 0.0 0 0 330.42 101.27
  A 0.99 0.99 0.0 0 0 329.43 102.26
  A 0.99 0.99 0.0 0 0 330.42 103.25
  A 0.99 0.99 0.0 0 0 331.41 102.26
  Z
  M 336.27 101.73
  Q 336.01 102.21 336.17 102.69
  Q 336.34 103.20 336.93 103.28
  Q 337.61 103.36 337.98 102.74
  A 0.83 0.80 -45.2 0 0 337.99 101.91
  Q 337.49 101.01 336.74 101.31
  A 0.97 0.95 2.5 0 0 336.27 101.73
  Z
  M 344.92 102.26
  A 1.02 1.02 0.0 0 0 343.90 101.24
  A 1.02 1.02 0.0 0 0 342.88 102.26
  A 1.02 1.02 0.0 0 0 343.90 103.28
  A 1.02 1.02 0.0 0 0 344.92 102.26
  Z
  M 355.04 102.27
  A 0.96 0.96 0.0 0 0 354.08 101.31
  A 0.96 0.96 0.0 0 0 353.12 102.27
  A 0.96 0.96 0.0 0 0 354.08 103.23
  A 0.96 0.96 0.0 0 0 355.04 102.27
  Z"
/>
<path fill="#000000" d="
  M 170.21 7.51
  A 0.42 0.42 0.0 0 0 169.74 7.14
  L 6.68 26.93
  A 0.57 0.56 -7.1 0 0 6.18 27.56
  L 17.02 116.74
  A 0.44 0.43 -6.6 0 0 17.51 117.12
  L 171.68 98.42
  A 0.90 0.90 0.0 0 1 172.67 99.19
  L 173.05 102.06
  Q 173.14 102.76 172.44 102.85
  L 14.57 122.01
  Q 13.15 122.18 12.98 120.76
  L 1.16 23.70
  Q 1.06 22.90 1.87 22.84
  Q 2.95 22.76 4.00 22.63
  Q 88.97 12.51 173.83 2.11
  A 0.28 0.27 81.7 0 1 174.14 2.35
  L 178.59 39.00
  Q 178.62 39.29 178.34 39.32
  L 174.48 39.75
  A 0.31 0.31 0.0 0 1 174.13 39.47
  L 170.21 7.51
  Z"
/>
<path fill="#000000" d="
  M 30.42 56.53
  A 0.40 0.40 0.0 0 0 31.12 56.79
  Q 33.81 53.62 37.95 53.27
  C 50.27 52.25 52.92 60.66 52.59 71.02
  Q 52.40 77.00 52.60 82.84
  Q 52.62 83.36 52.10 83.36
  L 48.99 83.37
  Q 48.53 83.37 48.52 82.91
  Q 48.39 75.98 48.54 69.12
  C 48.67 63.16 47.29 57.54 40.41 56.89
  C 34.64 56.34 30.53 60.17 30.47 65.78
  Q 30.39 73.81 30.45 82.81
  A 0.56 0.55 -89.5 0 1 29.89 83.37
  L 27.04 83.37
  Q 26.47 83.37 26.47 82.79
  L 26.46 43.90
  Q 26.46 43.51 26.85 43.51
  L 29.97 43.49
  Q 30.45 43.49 30.45 43.97
  L 30.42 56.53
  Z"
/>
<path fill="#000000" d="
  M 111.09 56.74
  C 114.25 53.66 117.50 52.61 121.94 53.31
  Q 131.76 54.84 132.36 65.30
  Q 132.69 71.05 132.46 82.94
  A 0.45 0.44 -0.0 0 1 132.01 83.38
  L 128.77 83.36
  A 0.43 0.43 0.0 0 1 128.34 82.92
  Q 128.45 77.32 128.38 71.61
  C 128.31 65.52 128.82 61.01 124.31 58.14
  Q 121.95 56.63 118.80 56.84
  C 111.50 57.33 110.17 62.97 110.32 69.20
  Q 110.51 76.89 110.35 83.01
  Q 110.34 83.38 109.97 83.38
  L 106.71 83.37
  Q 106.30 83.36 106.30 82.96
  L 106.29 43.99
  Q 106.29 43.51 106.77 43.50
  L 109.95 43.50
  Q 110.40 43.50 110.40 43.95
  L 110.38 56.44
  Q 110.37 57.44 111.09 56.74
  Z"
/>
<path fill="#000000" d="
  M 233.27 57.55
  L 233.24 43.69
  Q 233.24 43.53 233.40 43.53
  L 237.01 43.49
  Q 237.29 43.49 237.29 43.76
  L 237.29 82.79
  Q 237.29 83.37 236.71 83.37
  L 233.80 83.37
  A 0.57 0.56 0.5 0 1 233.23 82.80
  L 233.28 79.03
  Q 233.30 77.97 232.65 78.81
  C 225.82 87.66 212.74 84.59 207.78 75.91
  C 204.60 70.37 205.69 62.47 210.31 57.77
  C 216.12 51.86 226.71 51.29 232.63 57.80
  Q 233.27 58.50 233.27 57.55
  Z
  M 233.45 68.58
  A 11.74 11.74 0.0 0 0 221.71 56.84
  A 11.74 11.74 0.0 0 0 209.97 68.58
  A 11.74 11.74 0.0 0 0 221.71 80.32
  A 11.74 11.74 0.0 0 0 233.45 68.58
  Z"
/>
<path fill="#000000" d="
  M 250.97 60.51
  L 251.00 83.00
  Q 251.00 83.38 250.62 83.38
  L 244.20 83.39
  Q 243.77 83.39 243.77 82.95
  L 243.78 60.50
  Q 243.78 59.98 243.25 59.99
  L 241.89 60.01
  Q 241.27 60.02 241.27 59.39
  L 241.25 54.54
  A 0.59 0.59 0.0 0 1 242.09 54.01
  Q 242.86 54.39 243.49 53.93
  Q 243.85 53.66 243.91 53.16
  Q 245.13 42.80 255.24 43.53
  Q 255.47 43.55 255.47 43.78
  L 255.45 50.35
  Q 255.45 50.55 255.24 50.53
  Q 251.65 50.07 250.99 52.88
  Q 250.70 54.08 251.93 54.05
  L 254.16 54.02
  A 0.90 0.90 0.0 0 1 255.08 54.92
  L 255.09 59.39
  Q 255.09 60.01 254.48 60.01
  L 251.49 60.00
  A 0.52 0.51 0.0 0 0 250.97 60.51
  Z"
/>
<rect fill="#ff0003" x="-3.59" y="-3.37" transform="translate(262.29,46.90) rotate(0.1)" width="7.18" height="6.74" rx="0.28"/>
<rect fill="#000000" x="271.53" y="43.51" width="7.24" height="39.86" rx="0.36"/>
<path fill="#000000" d="
  M 291.56 55.57
  C 292.77 54.83 293.85 53.74 295.24 53.36
  Q 303.08 51.18 307.30 56.70
  Q 307.69 57.22 308.13 56.75
  Q 313.26 51.31 321.07 53.19
  Q 329.23 55.17 329.33 65.16
  Q 329.41 73.94 329.38 83.11
  Q 329.38 83.39 329.10 83.39
  L 322.51 83.37
  Q 322.23 83.37 322.23 83.09
  Q 322.20 75.62 322.26 67.34
  C 322.29 63.86 321.62 59.83 317.39 59.44
  C 311.58 58.90 310.53 63.60 310.54 68.17
  Q 310.55 75.88 310.54 83.02
  Q 310.54 83.39 310.17 83.39
  L 303.61 83.37
  Q 303.20 83.37 303.20 82.95
  Q 303.37 72.47 303.16 64.46
  C 303.09 61.86 301.24 59.64 298.55 59.45
  Q 292.29 59.00 291.92 65.29
  Q 291.49 72.64 291.80 82.79
  A 0.58 0.57 89.5 0 1 291.23 83.38
  L 285.07 83.38
  Q 284.51 83.38 284.51 82.82
  L 284.51 53.98
  Q 284.51 53.47 285.02 53.47
  L 290.51 53.45
  Q 291.34 53.45 291.20 54.27
  L 291.03 55.21
  Q 290.89 55.98 291.56 55.57
  Z"
/>
<path fill="#000000" d="
  M 347.75 74.19
  C 347.54 70.35 335.96 70.98 334.65 63.99
  C 332.18 50.87 352.65 48.36 354.23 61.09
  Q 354.30 61.71 353.68 61.71
  L 347.84 61.71
  Q 347.25 61.70 346.97 61.19
  C 344.34 56.32 338.92 62.37 343.05 63.89
  C 347.47 65.51 354.33 66.54 354.85 72.46
  C 355.55 80.45 349.16 85.11 341.67 83.79
  Q 334.42 82.51 333.31 73.96
  A 0.21 0.20 -3.6 0 1 333.52 73.73
  L 340.38 73.75
  Q 340.57 73.75 340.63 73.93
  Q 341.87 78.10 345.40 77.31
  Q 347.89 76.76 347.75 74.19
  Z"
/>
<path fill="#000000" d="
  M 95.55 78.29
  A 0.27 0.27 0.0 0 0 95.05 78.18
  C 93.19 81.52 90.09 83.56 86.26 83.91
  Q 76.70 84.80 71.45 77.30
  C 65.71 69.09 69.82 56.15 79.73 53.73
  Q 88.99 51.46 94.77 58.06
  Q 95.70 59.14 95.64 57.71
  L 95.50 54.53
  Q 95.46 53.78 96.22 53.79
  L 98.75 53.82
  Q 99.58 53.82 99.56 54.65
  Q 99.35 63.42 99.58 73.87
  Q 99.78 83.40 98.02 87.49
  Q 94.66 95.26 84.03 94.83
  Q 73.56 94.40 70.16 84.76
  Q 69.96 84.19 70.57 84.20
  L 73.09 84.23
  Q 74.02 84.24 74.47 85.06
  Q 78.60 92.61 87.72 90.90
  C 94.00 89.72 95.94 83.93 95.55 78.29
  Z
  M 84.7351 80.3288
  A 11.81 11.38 87.5 0 0 95.5892 68.0336
  A 11.81 11.38 87.5 0 0 83.7049 56.7312
  A 11.81 11.38 87.5 0 0 72.8508 69.0264
  A 11.81 11.38 87.5 0 0 84.7351 80.3288
  Z"
/>
<path fill="#000000" d="
  M 144.94 69.94
  Q 140.29 69.94 142.93 73.77
  Q 143.50 74.61 144.13 75.51
  Q 146.90 79.53 151.74 80.15
  Q 159.74 81.17 163.75 74.03
  Q 164.00 73.58 164.51 73.59
  L 167.51 73.62
  A 0.47 0.47 0.0 0 1 167.93 74.30
  Q 163.83 82.84 155.62 83.87
  C 146.62 85.01 138.82 78.77 138.14 69.77
  C 136.58 48.92 168.36 46.48 168.77 69.38
  Q 168.78 69.95 168.21 69.95
  L 144.94 69.94
  Z
  M 142.38 66.23
  L 164.38 66.27
  A 0.01 0.01 0.0 0 0 164.39 66.26
  L 164.39 66.20
  A 10.84 9.17 0.1 0 0 153.57 57.01
  L 153.23 57.01
  A 10.84 9.17 0.1 0 0 142.37 66.16
  L 142.37 66.22
  A 0.01 0.01 0.0 0 0 142.38 66.23
  Z"
/>
<path fill="#000000" d="
  M 178.89 56.95
  C 181.58 54.00 185.02 52.90 189.27 53.23
  C 196.63 53.80 200.25 59.41 200.33 66.16
  Q 200.44 74.49 200.38 82.80
  Q 200.37 83.38 199.79 83.38
  L 196.80 83.36
  Q 196.29 83.35 196.31 82.84
  Q 196.61 73.00 196.19 65.56
  C 195.52 53.60 178.60 53.86 178.36 65.78
  Q 178.19 74.12 178.27 83.06
  Q 178.28 83.38 177.95 83.38
  L 174.58 83.37
  Q 174.23 83.37 174.23 83.01
  L 174.24 54.52
  A 0.73 0.73 0.0 0 1 174.98 53.79
  L 177.43 53.83
  Q 178.27 53.84 178.26 54.68
  L 178.22 56.69
  Q 178.20 57.71 178.89 56.95
  Z"
/>
<rect fill="#000000" x="258.67" y="53.48" width="7.18" height="29.90" rx="0.30"/>
<rect fill="#000000" x="59.25" y="53.82" width="4.04" height="29.56" rx="0.38"/>
<ellipse fill="#ffffff" cx="0.00" cy="0.00" transform="translate(84.22,68.53) rotate(87.5)" rx="11.81" ry="11.38"/>
<path fill="#ffffff" d="
  M 142.38 66.23
  A 0.01 0.01 0.0 0 1 142.37 66.22
  L 142.37 66.16
  A 10.84 9.17 0.1 0 1 153.23 57.01
  L 153.57 57.01
  A 10.84 9.17 0.1 0 1 164.39 66.20
  L 164.39 66.26
  A 0.01 0.01 0.0 0 1 164.38 66.27
  L 142.38 66.23
  Z"
/>
<circle fill="#ffffff" cx="221.71" cy="68.58" r="11.74"/>
<path fill="#000000" d="
  M 324.73 102.01
  L 327.65 101.83
  Q 327.97 101.81 328.06 102.12
  L 328.17 102.48
  Q 328.34 103.03 327.77 103.03
  L 322.77 103.05
  A 0.62 0.62 0.0 0 1 322.28 102.04
  L 325.94 97.35
  Q 326.38 96.79 325.67 96.75
  L 320.77 96.48
  A 0.76 0.76 0.0 0 0 319.97 97.24
  L 320.01 102.50
  Q 320.01 103.00 319.50 103.02
  L 319.05 103.04
  A 0.48 0.47 89.4 0 1 318.56 102.55
  L 318.61 97.20
  Q 318.61 96.78 318.20 96.69
  L 317.81 96.60
  A 0.59 0.55 78.3 0 1 317.46 96.35
  Q 317.25 96.02 317.41 95.78
  Q 317.59 95.52 317.91 95.51
  Q 318.28 95.50 318.48 95.19
  Q 318.60 95.01 318.61 94.80
  Q 318.83 91.41 322.19 91.81
  Q 322.41 91.83 322.40 92.05
  L 322.39 92.34
  Q 322.37 92.86 321.85 92.90
  Q 319.97 93.03 319.94 94.79
  Q 319.93 95.57 320.71 95.56
  L 326.95 95.47
  Q 329.42 95.44 327.69 97.20
  Q 325.96 98.96 324.42 101.50
  Q 324.09 102.05 324.73 102.01
  Z"
/>
<rect fill="#000000" x="333.00" y="91.95" width="1.52" height="11.20" rx="0.61"/>
<rect fill="#000000" x="339.77" y="91.97" width="1.48" height="11.08" rx="0.42"/>
<path fill="#000000" d="
  M 348.76 101.81
  Q 349.85 102.63 351.06 101.93
  Q 351.51 101.67 351.79 102.10
  L 351.93 102.32
  Q 352.03 102.48 351.89 102.58
  C 348.49 105.01 344.71 101.25 346.38 97.61
  Q 347.72 94.66 351.51 95.48
  Q 351.95 95.58 351.93 96.03
  L 351.92 96.35
  Q 351.91 96.84 351.43 96.74
  Q 350.26 96.48 349.08 96.69
  Q 348.37 96.81 347.99 97.43
  Q 346.41 100.04 348.76 101.81
  Z"
/>
<circle fill="#000000" cx="330.42" cy="102.26" r="0.99"/>
<path fill="#000000" d="
  M 336.27 101.73
  A 0.97 0.95 2.5 0 1 336.74 101.31
  Q 337.49 101.01 337.99 101.91
  A 0.83 0.80 -45.2 0 1 337.98 102.74
  Q 337.61 103.36 336.93 103.28
  Q 336.34 103.20 336.17 102.69
  Q 336.01 102.21 336.27 101.73
  Z"
/>
<circle fill="#000000" cx="343.90" cy="102.26" r="1.02"/>
<circle fill="#000000" cx="354.08" cy="102.27" r="0.96"/>
</svg>
