<?xml version="1.0" encoding="UTF-8"?><svg id="Layer_2" xmlns="http://www.w3.org/2000/svg" viewBox="0 0 471.44 177.39"><defs><style>.cls-1{fill:#83d0f5;}.cls-1,.cls-2,.cls-3,.cls-4{stroke-width:0px;}.cls-2{fill:#4da1c4;}.cls-3{fill:none;}.cls-4{fill:#00628b;}</style></defs><g id="Layer_1-2"><path class="cls-3" d="M108.86,97.44c-.16-9.41-7.82-17.01-17.27-17.01-7.54,0-13.86,4.86-16.23,11.59.03,0,.06.02.09.02,1.06.39,2.11.84,3.15,1.27,10.27,4.28,20.3,10.87,30.29,18.28v-14.15h-.04Z"/><path class="cls-1" d="M130.21,128.12h-21.32v-16.54c-9.99-7.41-20.02-14-30.29-18.28-1.05-.43-2.09-.87-3.15-1.27-.03,0-.06-.02-.09-.02-.6,1.71-1.02,3.52-1.05,5.42h-.03v28.55c36.78,24.27,67.91,71.48,131.21,42.04,4.56-2.12,17.99-11.09,20.93-14.98-44.74,19.97-68.45-3.17-96.22-24.92Z"/><path class="cls-1" d="M0,121.02c8.32-2.74,13.83-4.32,24.61-6.69,4.41-.97,8.64-1.36,12.72-1.31v-19.38c-13.04,4.84-21.7,10.63-37.33,27.38Z"/><path class="cls-2" d="M108.9,128.12h21.32c-7.14-5.59-14.22-11.27-21.32-16.54v16.54Z"/><path class="cls-4" d="M108.9,8.18v33.66h-34.61V8.18h-36.96v119.95h36.96v-30.69h.03c.03-1.91.45-3.71,1.05-5.42,2.36-6.73,8.69-11.59,16.23-11.59,9.45,0,17.11,7.59,17.27,17.01h.04v14.15c7.1,5.27,14.18,10.95,21.32,16.54h15.64V8.18h-36.96Z"/><path class="cls-4" d="M198.23,86.25h5.69v17.31h21.56v-17.31h5.69v41.87h-5.69v-19.56h-21.56v19.56h-5.69v-41.87Z"/><path class="cls-4" d="M275.79,92.25c2.77,3.71,4.15,8.45,4.15,14.23,0,6.25-1.58,11.45-4.75,15.6-3.72,4.87-9.02,7.3-15.91,7.3-6.43,0-11.49-2.13-15.17-6.39-3.28-4.11-4.92-9.29-4.92-15.57,0-5.66,1.4-10.51,4.21-14.54,3.6-5.17,8.93-7.75,15.99-7.75s12.84,2.38,16.39,7.13ZM270.85,118.94c2.23-3.58,3.35-7.7,3.35-12.36,0-4.92-1.29-8.88-3.86-11.89-2.57-3-6.09-4.5-10.56-4.5s-7.87,1.49-10.6,4.46c-2.74,2.97-4.1,7.36-4.1,13.16,0,4.64,1.17,8.55,3.52,11.73,2.35,3.18,6.15,4.78,11.41,4.78s8.61-1.79,10.84-5.37Z"/><path class="cls-4" d="M288.16,86.25h16.73c5.68,0,10.08,2.04,13.21,6.13,2.79,3.69,4.19,8.41,4.19,14.17,0,4.45-.83,8.47-2.47,12.06-2.91,6.35-7.9,9.52-14.98,9.52h-16.67v-41.87ZM303.78,123.31c1.88,0,3.43-.2,4.64-.6,2.16-.74,3.93-2.17,5.31-4.28,1.1-1.69,1.89-3.86,2.38-6.51.28-1.58.42-3.04.42-4.39,0-5.19-1.01-9.23-3.04-12.1-2.02-2.87-5.28-4.31-9.78-4.31h-9.87v32.19h9.93Z"/><path class="cls-4" d="M365.6,92.25c2.77,3.71,4.15,8.45,4.15,14.23,0,6.25-1.58,11.45-4.75,15.6-3.72,4.87-9.02,7.3-15.91,7.3-6.43,0-11.49-2.13-15.17-6.39-3.28-4.11-4.92-9.29-4.92-15.57,0-5.66,1.4-10.51,4.21-14.54,3.6-5.17,8.93-7.75,15.99-7.75s12.84,2.38,16.39,7.13ZM360.66,118.94c2.23-3.58,3.35-7.7,3.35-12.36,0-4.92-1.29-8.88-3.86-11.89-2.57-3-6.09-4.5-10.56-4.5s-7.87,1.49-10.6,4.46c-2.74,2.97-4.1,7.36-4.1,13.16,0,4.64,1.17,8.55,3.52,11.73,2.35,3.18,6.15,4.78,11.41,4.78s8.61-1.79,10.84-5.37Z"/><path class="cls-4" d="M377.73,86.25h6.65l21.04,33.89v-33.89h5.37v41.87h-6.34l-21.35-33.92v33.92h-5.37v-41.87Z"/><path class="cls-4" d="M432.07,74.69l-7.62,8.31h-3.94l5.22-8.31h6.34ZM421.57,86.25h5.69v41.87h-5.69v-41.87Z"/><path class="cls-4" d="M438.38,86.25h6.65l21.04,33.89v-33.89h5.37v41.87h-6.34l-21.35-33.92v33.92h-5.37v-41.87Z"/><path class="cls-4" d="M197.98,14.37h8.08l12.01,35.4,11.94-35.4h8.03v41.87h-5.37v-24.71c0-.86.03-2.27.09-4.25.06-1.98.09-4.1.09-6.36l-12.02,35.32h-5.61l-12.06-35.32v1.28c0,1.03.03,2.59.09,4.69s.09,3.64.09,4.63v24.71h-5.37V14.37Z"/><path class="cls-4" d="M248.35,14.37h30.37v5.12h-24.87v12.75h23v4.81h-23v14.19h25.31v5h-30.81V14.37ZM266.58,8.31h-5.41l-5.79-8.31h4.63l3.86,5.54,3.87-5.54h4.64l-5.8,8.31Z"/><path class="cls-4" d="M291.62,42.75c.13,2.37.67,4.3,1.62,5.78,1.81,2.77,5,4.16,9.58,4.16,2.05,0,3.92-.3,5.6-.91,3.26-1.18,4.89-3.29,4.89-6.33,0-2.28-.69-3.9-2.07-4.87-1.4-.95-3.59-1.78-6.57-2.49l-5.49-1.29c-3.59-.84-6.13-1.76-7.62-2.76-2.58-1.74-3.87-4.35-3.87-7.82,0-3.75,1.26-6.83,3.79-9.24,2.53-2.41,6.11-3.61,10.74-3.61,4.26,0,7.89,1.06,10.87,3.17,2.98,2.12,4.47,5.5,4.47,10.14h-5.31c-.27-2.24-.86-3.96-1.75-5.16-1.66-2.19-4.47-3.28-8.43-3.28-3.2,0-5.5.7-6.91,2.11-1.4,1.41-2.1,3.04-2.1,4.9,0,2.05.83,3.55,2.48,4.5,1.08.61,3.54,1.37,7.37,2.28l5.69,1.34c2.74.65,4.86,1.53,6.35,2.65,2.58,1.96,3.86,4.8,3.86,8.53,0,4.64-1.64,7.96-4.93,9.95-3.28,2-7.1,2.99-11.45,2.99-5.07,0-9.04-1.33-11.91-3.99-2.87-2.64-4.28-6.23-4.22-10.76h5.31Z"/><path class="cls-4" d="M358.35,14.37v5h-14.12v36.87h-5.69V19.37h-14.12v-5h33.94Z"/><path class="cls-4" d="M398.15,20.38c2.77,3.71,4.15,8.45,4.15,14.23,0,6.25-1.58,11.45-4.75,15.6-3.72,4.87-9.02,7.3-15.91,7.3-6.43,0-11.49-2.13-15.17-6.39-3.28-4.11-4.92-9.29-4.92-15.57,0-5.66,1.4-10.51,4.21-14.54,3.6-5.17,8.93-7.75,15.99-7.75s12.84,2.38,16.39,7.13ZM393.21,47.06c2.23-3.58,3.35-7.7,3.35-12.36,0-4.92-1.29-8.88-3.86-11.89-2.57-3-6.09-4.5-10.56-4.5s-7.87,1.49-10.6,4.46c-2.74,2.97-4.1,7.36-4.1,13.16,0,4.64,1.17,8.55,3.52,11.73,2.35,3.18,6.15,4.78,11.41,4.78s8.61-1.79,10.84-5.37Z"/></g></svg>