<svg width="805" height="492" viewBox="0 0 805 492" fill="none" xmlns="http://www.w3.org/2000/svg">
<path d="M4 407.319C11.6491 416.038 20.1198 423.999 29.2949 431.093C38.3509 438.187 48.2103 444.192 58.6695 448.982C69.0179 453.753 80.0702 456.818 91.3978 458.057C97.0211 458.629 102.684 458.708 108.321 458.294C113.965 457.834 119.568 456.953 125.081 455.658C130.621 454.383 136.073 452.747 141.4 450.761C146.71 448.803 151.872 446.466 156.846 443.767C161.771 441.118 166.39 437.935 170.62 434.275C172.65 432.48 174.5 430.49 176.144 428.334C177.731 426.299 178.953 424.004 179.758 421.552L180.028 420.663C180.117 420.369 180.134 420.067 180.199 419.765L180.362 418.875L180.411 417.978C180.442 417.677 180.455 417.374 180.452 417.072L180.395 416.101L180.346 415.138C180.346 414.811 180.248 414.501 180.207 414.191C179.901 411.721 179.039 409.352 177.686 407.262C176.35 405.26 174.497 403.655 172.325 402.619C170.071 401.555 167.612 400.998 165.12 400.986C162.514 400.966 159.92 401.355 157.434 402.137C155.032 402.852 152.808 404.065 150.906 405.695C149.043 407.327 147.575 409.362 146.614 411.645C145.644 413.973 145.137 416.468 145.121 418.99C145.099 421.593 145.504 424.181 146.32 426.653C146.4 426.932 146.501 427.205 146.622 427.469C146.745 427.73 146.81 428 146.957 428.285C147.232 428.827 147.537 429.353 147.871 429.86L148.385 430.676L148.98 431.435C149.356 431.95 149.796 432.431 150.261 432.929C152.137 434.915 154.185 436.731 156.381 438.356C158.601 439.988 160.934 441.62 163.349 443.089C168.221 446.071 173.247 448.795 178.404 451.25C183.561 453.699 188.84 456.025 194.168 458.187C204.825 462.488 215.775 466.349 226.75 469.613C237.791 472.636 249.066 474.728 260.457 475.864C271.894 477.091 283.389 477.69 294.891 477.66C300.603 477.66 306.388 477.48 312.108 477.105C317.795 476.769 323.461 476.129 329.08 475.187C331.809 474.736 334.505 474.103 337.15 473.294C338.35 472.924 339.514 472.443 340.626 471.857C341.045 471.635 341.434 471.361 341.784 471.041C341.863 470.975 341.931 470.898 341.988 470.813V470.739C342.013 470.65 342.043 470.563 342.078 470.478C342.304 469.592 342.304 468.663 342.078 467.777L341.833 466.961C341.755 466.682 341.657 466.409 341.539 466.145C341.302 465.563 341.029 464.996 340.723 464.447C340.397 463.884 340.136 463.304 339.761 462.749L338.667 461.068L337.451 459.436C337.052 458.881 336.635 458.343 336.162 457.804C332.508 453.484 328.557 449.423 324.339 445.652C320.145 441.776 315.682 438.128 311.235 434.488L310.949 434.259L310.745 433.998C305.586 427.444 301.918 419.844 299.999 411.726C299.529 409.704 299.164 407.658 298.905 405.597C298.775 404.569 298.693 403.533 298.612 402.496C298.53 401.46 298.497 400.407 298.473 399.452L298.089 387.676L297.273 364.139L297.086 358.247C297.018 356.507 296.772 354.779 296.351 353.089C295.502 349.707 293.92 346.553 291.717 343.851C290.626 342.497 289.383 341.273 288.012 340.203C286.577 339.103 285.055 338.123 283.459 337.273L278.343 334.351L275.789 332.882C274.932 332.384 274.108 331.944 273.203 331.372C265.982 327.071 259.936 321.052 255.602 313.85C253.444 310.262 251.729 306.426 250.494 302.425C250.168 301.429 249.939 300.409 249.678 299.397C249.417 298.385 249.238 297.349 249.034 296.337L240.76 249.957L240.246 247.052L240.115 246.326L240.009 245.403C239.915 244.78 239.883 244.148 239.911 243.518C239.946 240.962 240.686 238.466 242.049 236.304C243.407 234.164 245.303 232.419 247.549 231.244C249.808 230.063 252.347 229.518 254.892 229.669C255.527 229.689 256.158 229.771 256.777 229.914C257.4 230.022 258.012 230.186 258.605 230.403L259.486 230.738C259.78 230.852 260.09 230.975 260.302 231.073L272.321 236.647L277.658 239.095L281.003 240.646C281.215 240.743 281.468 240.866 281.615 240.915C281.95 241.021 282.268 241.184 282.611 241.282C284.657 241.856 286.847 241.608 288.714 240.591C290.581 239.575 291.977 237.869 292.606 235.839C292.606 235.667 292.72 235.512 292.753 235.341L292.835 234.819C292.835 234.647 292.908 234.476 292.924 234.296V232.501L292.108 207.487C292.108 207.226 292.108 207.022 292.108 206.818V206.206C292.108 205.79 292.002 205.39 291.953 204.982C291.904 204.574 291.79 204.165 291.709 203.766L291.382 202.582C290.871 201.015 290.135 199.53 289.195 198.175C288.258 196.819 287.125 195.609 285.834 194.584C285.194 194.067 284.515 193.6 283.802 193.189C283.459 192.968 283.076 192.805 282.709 192.609L282.439 192.471L206.653 157.321L201.316 154.873C200.427 154.473 199.521 154.016 198.615 153.559L195.898 152.196C181.454 144.654 168.949 133.875 159.358 120.701C149.767 107.526 143.35 92.313 140.609 76.2486L136.129 41.1968L135.762 38.2017L135.599 36.3736C135.599 35.7533 135.656 35.1004 135.696 34.472C135.981 31.8993 136.957 29.4515 138.52 27.3882C140.07 25.3414 142.13 23.7368 144.493 22.7345C146.857 21.7321 149.442 21.367 151.991 21.6755C154.55 21.9832 156.974 22.9945 158.992 24.5971C159.229 24.7767 159.531 24.997 159.71 25.1439L160.265 25.6091L161.367 26.5395L163.602 28.3594C169.624 33.1744 175.989 37.6304 182.451 42.0455L201.912 55.2665C208.44 59.6191 214.967 63.9417 221.495 68.2345C228.023 72.5272 234.607 76.7628 241.249 80.9413C247.867 85.1361 254.517 89.1921 261.257 93.1829L281.542 105.139C288.339 109.13 294.981 113.227 301.802 116.695C305.213 118.425 308.697 119.959 312.263 121.428C314.041 122.147 315.853 122.832 317.664 123.509L320.398 124.505C320.618 124.579 320.879 124.685 321.059 124.734L321.63 124.889C322.004 125.016 322.385 125.119 322.772 125.199C325.829 125.847 329.016 125.369 331.748 123.852C333.065 123.132 334.225 122.155 335.159 120.98C335.996 119.89 336.539 118.602 336.733 117.242C336.89 115.892 336.681 114.525 336.13 113.284C335.52 111.916 334.643 110.684 333.551 109.66C333.032 109.163 332.457 108.728 331.838 108.363C331.33 108.065 330.779 107.848 330.206 107.718C330.091 107.718 330.002 107.718 329.904 107.718C329.824 107.692 329.739 107.692 329.659 107.718C329.594 107.718 329.504 107.718 329.479 107.718H329.422C329.422 107.718 329.422 107.718 329.308 107.718C328.705 108.002 328.138 108.359 327.619 108.779C327.099 109.214 326.634 109.71 326.232 110.256C325.879 110.773 325.604 111.34 325.416 111.937C325.232 112.48 325.157 113.054 325.196 113.626C325.224 114.204 325.351 114.773 325.571 115.308C325.742 115.585 325.832 115.879 326.028 116.124C326.546 116.966 327.235 117.689 328.052 118.246C329.381 119.077 330.84 119.681 332.368 120.033C335.895 120.805 339.509 121.101 343.114 120.914C346.9 120.769 350.674 120.398 354.415 119.804C362.03 118.575 369.564 116.891 376.977 114.761C391.933 110.461 406.613 105.25 420.933 99.1568C435.299 93.1122 449.355 86.3847 463.102 78.9744C466.529 77.1192 469.928 75.2149 473.301 73.2617L478.336 70.3074L483.411 67.2959C490.167 63.2807 496.945 59.3008 503.745 55.3563C517.355 47.4727 531.039 39.7033 544.877 32.2033C551.805 28.4492 558.749 24.7767 565.709 21.1042C572.734 17.3113 579.972 13.9297 587.389 10.9763C594.99 7.98471 602.981 6.09669 611.117 5.36961C619.285 4.64767 627.515 5.17883 635.523 6.94469C643.607 8.68469 651.309 11.8755 658.255 16.3626C659.137 16.9175 659.969 17.5704 660.818 18.1744C661.666 18.7783 662.449 19.4883 663.265 20.1493C664.867 21.5086 666.378 22.9727 667.786 24.5318C670.678 27.7332 672.979 31.422 674.583 35.4269C674.999 36.4715 675.309 37.3448 675.652 38.3322C675.995 39.3197 676.313 40.3072 676.59 41.36C677.231 43.586 677.506 45.9011 677.406 48.2153C677.33 49.5119 677.054 50.7891 676.59 52.0021C676.368 52.6271 676.095 53.233 675.774 53.8138C675.439 54.377 675.074 54.9218 674.681 55.446C673.149 57.2672 671.289 58.7843 669.197 59.9183C665.388 61.953 661.241 63.2802 656.958 63.8356C652.79 64.4485 648.56 64.5116 644.376 64.0233C640.078 63.5647 635.9 62.3257 632.047 60.3672C630.027 59.3158 628.173 57.971 626.547 56.3764C624.875 54.7224 623.529 52.7677 622.582 50.6147C621.653 48.5419 621.042 46.3409 620.77 44.0858C619.923 37.4095 621.605 30.6578 625.486 25.1602C627.955 21.6725 630.988 18.6218 634.462 16.1341C637.832 13.7349 641.425 11.666 645.192 9.95614C652.601 6.67166 660.366 4.26151 668.333 2.77439C692.02 -1.51392 716.34 -0.824673 739.746 4.79832C747.543 6.66136 755.163 9.20093 762.519 12.3881C766.191 14.0204 769.757 15.8321 773.241 17.799C776.725 19.7658 780.07 21.9611 783.31 24.287C789.805 28.917 795.741 34.2848 801 40.2827C794.423 35.8676 787.879 31.632 781.107 27.8534C777.723 25.9655 774.296 24.1782 770.826 22.4916C767.35 20.8594 763.841 19.2271 760.283 17.799C753.16 14.8943 745.832 12.5211 738.359 10.6988C715.795 5.34145 692.366 4.71623 669.548 8.86255C662.067 10.2789 654.773 12.5518 647.811 15.6363C644.429 17.1808 641.202 19.0445 638.175 21.2021C635.251 23.2831 632.694 25.8372 630.611 28.7593C628.628 31.5691 627.374 34.8279 626.963 38.2425C626.518 41.5892 626.98 44.9941 628.301 48.1011C628.936 49.5532 629.845 50.8693 630.978 51.9776C632.166 53.1275 633.516 54.098 634.984 54.8584C638.157 56.4435 641.59 57.4416 645.118 57.8046C648.745 58.2156 652.409 58.1525 656.02 57.6169C659.536 57.1591 662.943 56.0786 666.081 54.4259C667.453 53.6902 668.678 52.7081 669.695 51.5287C670.529 50.4998 671.007 49.2285 671.058 47.9052C671.254 45.008 669.989 41.3763 668.61 37.9079C667.277 34.6069 665.371 31.5677 662.98 28.9307C661.756 27.5785 660.442 26.3106 659.047 25.1358C658.329 24.5645 657.643 23.9769 656.909 23.4301C656.175 22.8833 655.44 22.3365 654.665 21.8468C648.374 17.8135 641.405 14.9519 634.095 13.4001C626.735 11.7958 619.174 11.3225 611.672 11.9964C604.146 12.6889 596.758 14.4532 589.731 17.2358C582.566 20.115 575.573 23.4039 568.785 27.0863C561.858 30.7588 554.914 34.4312 548.06 38.1772C534.303 45.6691 520.692 53.4302 507.139 61.322C500.367 65.272 493.613 69.2546 486.879 73.2698L481.828 76.2813L476.712 79.2927C473.285 81.2732 469.833 83.2073 466.357 85.0953C452.453 92.6524 438.198 99.4887 423.593 105.604C409.003 111.801 394.048 117.102 378.813 121.477C371.147 123.684 363.357 125.434 355.484 126.717C351.47 127.352 347.421 127.747 343.359 127.9C339.113 128.111 334.858 127.743 330.712 126.807C328.411 126.259 326.22 125.323 324.233 124.04C323.144 123.304 322.166 122.417 321.328 121.404C320.92 120.9 320.544 120.371 320.202 119.821C319.863 119.254 319.558 118.668 319.288 118.066C318.185 115.479 318.052 112.582 318.913 109.905C319.326 108.635 319.928 107.436 320.7 106.347C321.454 105.302 322.337 104.356 323.327 103.531C324.321 102.714 325.419 102.03 326.591 101.499C326.99 101.336 327.399 101.197 327.815 101.083C328.23 100.969 328.657 100.9 329.088 100.879C329.494 100.83 329.905 100.83 330.312 100.879C330.697 100.901 331.082 100.944 331.462 101.009C334.036 101.57 336.399 102.849 338.276 104.698C340.053 106.37 341.476 108.382 342.461 110.615C342.956 111.781 343.307 113.004 343.506 114.255C343.626 114.898 343.68 115.551 343.669 116.205C343.693 116.86 343.654 117.516 343.555 118.164C343.211 120.714 342.204 123.128 340.634 125.166C339.136 127.087 337.265 128.686 335.134 129.867C330.946 132.196 326.057 132.933 321.369 131.94C320.793 131.819 320.224 131.669 319.663 131.491L318.847 131.238C318.554 131.156 318.358 131.067 318.113 130.985L315.314 129.965C313.454 129.271 311.585 128.561 309.733 127.81C306.012 126.317 302.324 124.66 298.734 122.832C291.562 119.176 284.863 115.014 278.098 111.056L257.797 99.0834C251.033 95.0681 244.285 90.9223 237.635 86.7356C230.985 82.549 224.359 78.2889 217.766 73.9962C211.173 69.7034 204.613 65.3536 198.085 60.9384L178.592 47.6767C172.064 43.237 165.536 38.6995 159.335 33.6804L157.009 31.787L155.859 30.8159L155.28 30.3344C155.084 30.1711 154.978 30.114 154.823 29.9998C153.762 29.1305 152.473 28.5864 151.11 28.4328C149.739 28.273 148.35 28.4726 147.08 29.0121C145.81 29.5515 144.701 30.4122 143.864 31.5096C143.051 32.591 142.541 33.8701 142.387 35.2147C142.387 35.5575 142.322 35.8839 142.33 36.243L142.436 37.3447C142.436 37.508 142.477 37.7609 142.51 38.0058L142.599 38.7403L142.787 40.2011L147.218 75.253C149.79 90.2799 155.792 104.511 164.759 116.84C173.726 129.168 185.415 139.262 198.917 146.336L201.463 147.617C202.279 148.042 203.144 148.433 204.058 148.882L209.394 151.331L284.136 186.105L284.797 186.415L285.132 186.578L285.515 186.766C286.021 187.027 286.543 187.264 287.025 187.582C288.013 188.148 288.954 188.792 289.84 189.508C293.429 192.376 296.096 196.236 297.51 200.607C297.665 201.154 297.828 201.701 297.967 202.239C298.106 202.778 298.212 203.349 298.302 203.872C298.391 204.394 298.481 204.998 298.522 205.569C298.563 206.14 298.603 206.753 298.62 207.201L299.362 230.746L299.411 232.215V234.835C299.411 235.145 299.313 235.455 299.264 235.765L299.101 236.704C299.044 237.006 298.93 237.308 298.848 237.61C298.116 240.041 296.757 242.236 294.907 243.975C293.07 245.701 290.824 246.928 288.379 247.542C285.911 248.148 283.326 248.086 280.889 247.362C280.285 247.191 279.714 246.938 279.135 246.717C278.808 246.595 278.621 246.497 278.392 246.391L277.731 246.081L275.055 244.84L269.718 242.392L259.046 237.422L257.707 236.802C257.526 236.712 257.337 236.635 257.144 236.573L256.647 236.385C255.992 236.153 255.308 236.015 254.615 235.977C253.23 235.881 251.845 236.163 250.608 236.794C249.362 237.428 248.311 238.388 247.566 239.572C246.822 240.756 246.413 242.12 246.382 243.518C246.357 243.87 246.374 244.223 246.431 244.571L246.488 245.11L246.61 245.836L250.209 266.133L254.288 289.326L255.317 295.129C255.504 296.035 255.676 296.924 255.88 297.822C256.084 298.72 256.32 299.601 256.606 300.474C257.691 303.984 259.192 307.352 261.077 310.504C264.875 316.828 270.175 322.115 276.507 325.896C277.258 326.378 278.139 326.867 278.955 327.357L281.509 328.826L286.617 331.756C288.483 332.758 290.262 333.912 291.937 335.208C293.664 336.561 295.23 338.108 296.604 339.819C299.376 343.227 301.365 347.203 302.43 351.465C302.958 353.588 303.264 355.759 303.344 357.945L303.524 363.829L304.642 399.15C304.642 400.154 304.723 401.06 304.772 401.982C304.821 402.904 304.911 403.826 305.033 404.749C305.257 406.584 305.576 408.406 305.988 410.208C307.696 417.443 310.959 424.219 315.551 430.064L315.07 429.583C319.598 433.296 324.127 437.009 328.46 441.008C332.897 445.036 337.047 449.369 340.878 453.976C341.36 454.548 341.841 455.143 342.29 455.772L343.661 457.624L344.934 459.591C345.366 460.244 345.75 460.995 346.117 461.689C346.505 462.422 346.851 463.177 347.153 463.949C347.322 464.347 347.463 464.756 347.578 465.173C347.7 465.59 347.839 465.989 347.953 466.438C348.424 468.383 348.376 470.418 347.814 472.339L347.553 473.106L347.48 473.294L347.357 473.53L347.088 474.012C346.757 474.542 346.356 475.025 345.897 475.448C345.177 476.115 344.373 476.686 343.506 477.146C342.05 477.917 340.526 478.551 338.953 479.039C336.042 479.927 333.077 480.625 330.075 481.128C324.239 482.096 318.356 482.755 312.45 483.103C306.584 483.479 300.717 483.642 294.858 483.65C283.137 483.665 271.424 483.038 259.772 481.773C248.044 480.577 236.438 478.393 225.077 475.244C219.365 473.555 213.89 471.743 208.358 469.801C202.826 467.858 197.359 465.81 191.933 463.598C186.506 461.387 181.129 459.053 175.834 456.498C170.498 453.957 165.296 451.143 160.249 448.068C157.719 446.509 155.239 444.803 152.832 443.008C150.36 441.171 148.058 439.118 145.953 436.871C145.423 436.283 144.884 435.712 144.395 435.059L143.652 434.096L142.967 433.068C142.502 432.363 142.082 431.63 141.71 430.872C141.506 430.497 141.359 430.056 141.188 429.656C141.019 429.267 140.877 428.866 140.764 428.457C139.748 425.399 139.238 422.196 139.254 418.973C139.278 415.682 139.946 412.427 141.22 409.392C142.524 406.308 144.514 403.562 147.038 401.362C149.552 399.206 152.49 397.602 155.663 396.653L156.83 396.294C157.222 396.196 157.605 396.122 157.997 396.033C158.813 395.886 159.531 395.674 160.33 395.584L162.713 395.306L165.161 395.249C168.494 395.276 171.782 396.025 174.797 397.444C177.882 398.936 180.511 401.227 182.41 404.079C184.234 406.879 185.402 410.053 185.829 413.367C185.878 413.767 185.968 414.183 185.992 414.575L186.123 416.99C186.123 417.382 186.123 417.806 186.082 418.255L186.001 419.528L185.788 420.785C185.707 421.193 185.666 421.601 185.544 422.026L185.201 423.225C184.21 426.306 182.697 429.193 180.729 431.762C178.854 434.229 176.748 436.511 174.438 438.576C169.902 442.55 164.944 446.015 159.653 448.908C154.435 451.779 149.007 454.25 143.415 456.302C140.633 457.347 137.802 458.245 134.962 459.102C132.123 459.958 129.25 460.668 126.329 461.281C120.511 462.553 114.601 463.358 108.655 463.688C102.695 463.943 96.7229 463.67 90.8103 462.872C79.0502 461.233 67.6449 457.648 57.0621 452.263C46.5871 446.951 36.8039 440.373 27.9322 432.676C23.5119 428.864 19.2905 424.827 15.2848 420.581C11.2816 416.372 7.51419 411.945 4 407.319Z" fill="#727272" fill-opacity="0.4"/>
<path d="M587.291 36.2023C586.018 36.2839 584.794 36.3329 583.595 36.3737C582.396 36.4145 581.221 36.488 580.078 36.5696C577.872 36.7192 575.686 37.0827 573.55 37.655C571.594 38.1665 569.734 38.9935 568.043 40.1033C567.216 40.6671 566.453 41.3183 565.766 42.0457C565.051 42.7776 564.414 43.5817 563.865 44.445C561.564 47.938 560.316 52.3368 559.5 56.8254C558.684 61.314 558.357 66.0392 557.998 70.8298C557.802 73.221 557.639 75.6856 557.239 78.1748C557.141 78.795 557.076 79.4234 556.962 80.0355L556.595 81.8799C556.383 83.1204 556.064 84.3282 555.779 85.5442C554.513 90.3746 552.781 95.0703 550.606 99.565C546.289 108.542 540.406 116.589 533.903 123.918C527.328 131.146 520.164 137.815 512.484 143.855C504.75 149.946 496.355 155.147 487.458 159.361L419.015 191.369L417.383 192.128L416.567 192.512L416.159 192.699L415.833 192.871C414.048 193.746 412.438 194.941 411.084 196.396C408.34 199.313 406.745 203.126 406.596 207.128L406.139 221.483L405.919 228.673L405.862 230.469V231.367C405.854 231.492 405.854 231.617 405.862 231.742V232.721C405.862 232.933 405.935 233.146 405.968 233.358C406.001 233.57 406.025 233.782 406.074 233.986L406.27 234.598C406.82 236.232 407.829 237.672 409.177 238.748C410.524 239.823 412.152 240.487 413.867 240.662C414.291 240.662 414.682 240.662 415.139 240.662L415.776 240.589C415.988 240.581 416.199 240.548 416.404 240.491C416.825 240.407 417.237 240.287 417.636 240.132C418.103 239.966 418.561 239.775 419.007 239.56L425.535 236.532L441.854 228.943L442.67 228.559L443.086 228.371L443.674 228.135C444.066 227.973 444.466 227.831 444.873 227.71L446.13 227.425C447.842 227.157 449.593 227.26 451.262 227.727C453.756 228.45 455.945 229.971 457.494 232.056C459.043 234.142 459.866 236.677 459.838 239.275C459.838 239.699 459.773 240.091 459.74 240.54L459.658 241.168L459.585 241.609L459.267 243.38L458.647 246.922L451.156 289.416L449.899 296.5C449.437 299.038 448.794 301.539 447.974 303.984C444.657 313.835 438.439 322.452 430.137 328.704C429.639 329.104 429.109 329.471 428.57 329.838C428.032 330.205 427.518 330.573 426.938 330.924C425.845 331.585 424.702 332.295 423.674 332.858L417.498 336.457L414.381 338.236L413.565 338.685L412.243 339.501L411.606 339.95C409.916 341.155 408.393 342.579 407.078 344.185C404.437 347.419 402.722 351.308 402.117 355.439C402.06 355.954 401.954 356.46 401.937 356.982C401.921 357.504 401.855 357.969 401.847 358.614L401.725 362.205L400.534 398.146C400.46 400.472 400.362 403.117 400.052 405.638C399.743 408.174 399.261 410.685 398.608 413.155C397.324 418.109 395.375 422.866 392.815 427.298C391.549 429.517 390.128 431.644 388.564 433.663C387.038 435.63 385.577 437.442 384.084 439.376L379.637 444.999L379.368 445.342L379.164 445.628L378.747 446.199C378.503 446.599 378.266 447.015 378.038 447.423C377.604 448.288 377.254 449.193 376.993 450.124C376.471 452.073 376.264 454.093 376.381 456.106C376.51 458.191 376.913 460.249 377.581 462.227C378.836 466.193 381.2 469.716 384.394 472.38C385.894 473.609 387.625 474.525 389.486 475.073C391.322 475.564 393.242 475.653 395.116 475.334C395.344 475.285 395.613 475.261 395.809 475.212L396.389 475.057L396.943 474.853L397.474 474.6C398.225 474.191 398.91 473.671 399.506 473.057C400.952 471.458 402.229 469.713 403.316 467.85C406.004 463.602 409.133 459.649 412.651 456.057C416.15 452.452 419.992 449.197 424.123 446.338C428.385 443.328 433.169 441.136 438.231 439.874C440.876 439.25 443.597 439.013 446.309 439.172C449.237 439.308 452.089 440.148 454.624 441.621C455.937 442.409 457.125 443.388 458.149 444.526C459.142 445.67 459.966 446.951 460.597 448.329C460.912 449.005 461.184 449.7 461.413 450.41C461.618 451.119 461.784 451.838 461.91 452.565C462.172 454.027 462.23 455.518 462.082 456.996C462.006 457.772 461.872 458.541 461.682 459.297C461.469 460.05 461.196 460.784 460.866 461.493C460.222 462.918 459.333 464.219 458.239 465.337C457.121 466.503 455.785 467.438 454.306 468.087C452.777 468.758 451.119 469.084 449.451 469.042C447.841 468.99 446.258 468.621 444.791 467.956C444.441 467.793 444.074 467.646 443.747 467.467L442.784 466.887C442.115 466.487 441.487 466.022 440.907 465.5C439.784 464.475 438.827 463.283 438.068 461.966C437.354 460.739 436.766 459.443 436.314 458.098C435.48 455.541 434.997 452.884 434.878 450.198C434.744 447.562 434.914 444.919 435.383 442.322C435.615 441.003 435.943 439.702 436.363 438.43C436.782 437.104 437.328 435.822 437.995 434.602C438.696 433.286 439.578 432.075 440.614 431.003C441.785 429.804 443.213 428.889 444.791 428.326C446.412 427.78 448.143 427.651 449.826 427.951C451.288 428.21 452.706 428.677 454.036 429.338C456.367 430.513 458.574 431.922 460.621 433.541C464.579 436.593 468.136 439.825 471.743 442.967C475.349 446.109 478.94 449.186 482.652 452.075C489.932 457.936 497.965 462.794 506.535 466.52C510.794 468.319 515.207 469.726 519.721 470.723C524.243 471.675 528.831 472.27 533.446 472.502C538.103 472.738 542.771 472.698 547.423 472.38C552.123 472.078 556.848 471.515 561.686 470.911C552.936 475.506 543.198 477.898 533.315 477.88C528.34 477.867 523.38 477.32 518.522 476.248C513.665 475.205 508.912 473.722 504.324 471.817C495.258 467.936 486.751 462.862 479.029 456.727C475.162 453.748 471.457 450.614 467.818 447.464C464.179 444.314 460.605 441.131 456.949 438.348C455.229 436.995 453.379 435.817 451.425 434.831C450.604 434.442 449.734 434.168 448.839 434.014C448.153 433.882 447.444 433.93 446.782 434.153C445.567 434.545 444.335 435.851 443.413 437.573C442.937 438.465 442.547 439.399 442.246 440.364C441.923 441.37 441.672 442.398 441.495 443.44C440.727 447.66 440.993 452.004 442.27 456.098C442.817 457.885 443.802 459.506 445.134 460.815C445.445 461.092 445.784 461.336 446.146 461.542L446.725 461.893C446.921 461.999 447.117 462.064 447.313 462.154C448.033 462.488 448.812 462.674 449.606 462.701C450.366 462.699 451.117 462.539 451.811 462.23C452.505 461.921 453.127 461.469 453.637 460.905C454.221 460.302 454.693 459.601 455.032 458.832C455.207 458.453 455.352 458.06 455.464 457.657C455.565 457.25 455.633 456.835 455.668 456.417C455.755 455.506 455.711 454.589 455.538 453.691C455.46 453.237 455.356 452.787 455.228 452.344C455.085 451.913 454.916 451.49 454.722 451.079C454.355 450.275 453.871 449.53 453.286 448.868C452.7 448.225 452.02 447.675 451.27 447.235C448.276 445.424 443.812 445.383 439.724 446.338C435.469 447.439 431.454 449.321 427.885 451.887C424.144 454.489 420.665 457.449 417.498 460.726C414.314 464.005 411.489 467.613 409.069 471.49C407.74 473.776 406.169 475.913 404.385 477.864C403.308 478.974 402.066 479.912 400.705 480.647L399.62 481.169L398.486 481.585C398.102 481.7 397.719 481.798 397.335 481.896C396.952 481.993 396.617 482.026 396.258 482.091C393.391 482.591 390.45 482.455 387.641 481.691C384.883 480.902 382.311 479.567 380.078 477.766C375.838 474.272 372.684 469.64 370.988 464.414C369.139 459.204 368.889 453.56 370.27 448.207C370.647 446.818 371.16 445.47 371.804 444.183C372.146 443.547 372.505 442.918 372.897 442.306L373.525 441.408L373.844 440.968L374.129 440.6L378.584 434.953C380.045 433.084 381.587 431.158 382.99 429.338C384.36 427.564 385.603 425.696 386.711 423.748C388.945 419.856 390.644 415.681 391.762 411.335C392.333 409.169 392.75 406.965 393.01 404.741C393.28 402.496 393.361 400.342 393.427 397.877L394.545 361.936L394.659 358.345C394.659 357.782 394.724 357.039 394.765 356.378C394.806 355.717 394.92 355.023 394.993 354.354C395.586 350.304 396.991 346.415 399.122 342.921C401.253 339.426 404.067 336.398 407.396 334.017L408.212 333.421L409.085 332.882L409.95 332.352L410.766 331.903L420.117 326.533C421.202 325.929 422.083 325.358 423.046 324.778C423.511 324.476 423.96 324.15 424.417 323.84C424.874 323.53 425.331 323.22 425.763 322.869C432.88 317.487 438.22 310.097 441.095 301.65C441.79 299.547 442.335 297.398 442.727 295.219L452.209 242.131L452.527 240.36L452.608 239.911V239.65C452.608 239.47 452.657 239.299 452.657 239.128C452.668 238.449 452.527 237.777 452.244 237.16C451.962 236.543 451.546 235.997 451.025 235.561C450.507 235.108 449.898 234.771 449.239 234.574C448.592 234.406 447.918 234.367 447.256 234.46L446.758 234.574C446.591 234.619 446.427 234.676 446.268 234.745L446.015 234.835L445.616 235.023L444.8 235.398L421.953 245.975C421.479 246.212 420.704 246.514 419.994 246.791C419.274 247.063 418.531 247.273 417.775 247.419C417.4 247.513 417.018 247.573 416.633 247.599L415.482 247.721C414.715 247.721 413.932 247.721 413.165 247.672C410.088 247.353 407.166 246.161 404.744 244.237C402.304 242.318 400.496 239.711 399.555 236.753L399.22 235.643C399.13 235.267 399.073 234.884 399.008 234.5C398.943 234.117 398.877 233.741 398.836 233.366V231.644C398.836 231.448 398.836 231.26 398.836 231.122V230.224L398.902 228.429L399.62 206.842C399.845 201.16 402.117 195.752 406.017 191.614C407.947 189.56 410.233 187.873 412.765 186.636L413.238 186.399L416.094 185.085L419.358 183.575L484.635 153.453C493.116 149.505 501.125 144.612 508.51 138.869C515.954 133.098 522.903 126.716 529.284 119.788C535.527 112.827 541.108 105.253 545.147 96.9371C547.175 92.8092 548.795 88.4933 549.985 84.0508C550.279 82.9409 550.573 81.8391 550.801 80.7047L551.136 79.0235C551.25 78.4604 551.315 77.8973 551.405 77.3342C551.781 75.0899 551.944 72.764 552.156 70.381C552.455 65.498 552.999 60.6333 553.788 55.8052C554.718 50.9086 556.081 45.8487 559.083 41.2948C560.6 38.9629 562.563 36.9547 564.86 35.3862C565.437 34.992 566.039 34.6375 566.664 34.3253C567.282 34.0014 567.92 33.7152 568.573 33.4684C569.864 32.9917 571.206 32.6658 572.571 32.4972C575.193 32.1704 577.854 32.3561 580.405 33.044C582.868 33.6839 585.199 34.753 587.291 36.2023Z" fill="#727272" fill-opacity="0.4"/>
<defs>
</defs>
</svg>
