<?xml version="1.0" encoding="utf-8"?>
<!-- Generator: Adobe Illustrator 25.0.1, SVG Export Plug-In . SVG Version: 6.00 Build 0)  -->
<svg version="1.0" id="katman_1" xmlns="http://www.w3.org/2000/svg" xmlns:xlink="http://www.w3.org/1999/xlink" x="0px" y="0px"
	 viewBox="0 0 302.7 241.5" style="enable-background:new 0 0 302.7 241.5;" xml:space="preserve">
<style type="text/css">
	.st0{fill:#ABE1FA;}
	.st1{clip-path:url(#SVGID_2_);}
	.st2{fill:#006594;}
	.st3{fill:#FFE6CA;}
	.st4{clip-path:url(#SVGID_4_);}
	.st5{fill:#3678A8;}
	.st6{fill:#000034;}
	.st7{fill:#E0861B;}
	.st8{fill:#4A8ECC;}
	.st9{fill:#8B0304;}
	.st10{fill:#CA6C18;}
	.st11{fill:#007243;}
	.st12{fill:#ED1D24;}
	.st13{fill:#CE8A14;}
	.st14{fill:#276A9B;}
	.st15{fill:#DC651E;}
	.st16{fill:#0072BC;}
	.st17{fill:#C4161C;}
	.st18{fill:#F7941E;}
	.st19{fill:#2E3092;}
	.st20{fill:#D78817;}
	.st21{fill:#030F50;}
	.st22{fill:#2D7D2F;}
	.st23{fill:#DB521F;}
	.st24{fill:#FAA61A;}
	.st25{fill:#9E0B0F;}
	.st26{fill:#232176;}
	.st27{fill:#D191C0;}
	.st28{fill:#985006;}
	.st29{fill:#2F631C;}
	.st30{fill:#FCC8AC;}
	.st31{clip-path:url(#SVGID_6_);}
	.st32{fill:#B4DDC1;}
	.st33{clip-path:url(#SVGID_8_);}
	.st34{fill:#004521;}
	.st35{clip-path:url(#SVGID_10_);}
	.st36{fill:#52C6D8;}
	.st37{clip-path:url(#SVGID_12_);}
	.st38{fill:url(#SVGID_13_);}
	.st39{clip-path:url(#SVGID_15_);}
	.st40{fill:url(#SVGID_16_);}
	.st41{clip-path:url(#SVGID_18_);}
	.st42{fill:url(#SVGID_19_);}
	.st43{clip-path:url(#SVGID_21_);}
	.st44{fill:url(#SVGID_22_);}
	.st45{clip-path:url(#SVGID_24_);}
	.st46{fill:url(#SVGID_25_);}
	.st47{fill:#010101;}
	.st48{fill:none;}
</style>
<g id="Layer_2">
	<g id="Layer_1-2">
		<path class="st0" d="M93.8,105.1l-0.5,0.1l0,0c-7.9,0.4-16.7,3.6-19.2-1.4c1.1,3.4,3.9,11.9,6.2,19.5c2.3,7.4,4,14.9,6.2,16.5
			c6.8,4.9,20.5,0.4,28.6,6.2c7.7,5.6,5.9,24.5,13,25.4c7.3,0.9,6.5-9.8,8.9-18.2c2.5-9.4,6.5-18.3,11.9-26.3
			c-3.4-4.5-7.5-8.4-12.1-11.6c-4.4-3.1-9.3-5.4-14.5-6.9C113,105.7,103.4,104.6,93.8,105.1"/>
		<g>
			<defs>
				<path id="SVGID_1_" d="M80.4,123.2c2.3,7.4,4,14.9,6.2,16.5c6.8,4.9,20.5,0.4,28.6,6.2c7.7,5.6,5.9,24.5,13,25.4
					c7.3,0.9,6.5-9.8,8.9-18.2c2.5-9.4,6.5-18.3,11.9-26.3c-3.4-4.5-7.5-8.4-12.1-11.6c-4.4-3.1-9.3-5.4-14.5-6.9
					c-9.2-2.7-18.9-3.8-28.5-3.2l-0.5,0.1l0,0c-7.9,0.4-16.7,3.6-19.2-1.4C75.2,107.2,78,115.7,80.4,123.2"/>
			</defs>
			<clipPath id="SVGID_2_">
				<use xlink:href="#SVGID_1_"  style="overflow:visible;"/>
			</clipPath>
			<g class="st1">
				<polygon class="st2" points="93.6,124.9 93.6,132.5 95.5,134.3 96.3,134.3 96.3,123.1 95.5,123.1 				"/>
				<rect x="96.7" y="170.2" class="st2" width="5.2" height="11.2"/>
				<polygon class="st2" points="93.6,136.7 93.6,144.3 95.5,146.1 96.3,146.1 96.3,134.9 95.5,134.9 				"/>
				<polygon class="st2" points="90.5,158.4 90.5,169.7 91.3,169.7 93.1,167.8 93.1,160.3 91.3,158.4 				"/>
				<polygon class="st2" points="93.6,101.4 93.6,109 95.5,110.8 96.3,110.8 96.3,99.6 95.5,99.6 				"/>
				<rect x="96.7" y="134.9" class="st2" width="5.2" height="11.2"/>
				<rect x="96.7" y="158.4" class="st2" width="5.2" height="11.2"/>
				<rect x="96.7" y="123.1" class="st2" width="5.2" height="11.2"/>
				<rect x="96.7" y="146.7" class="st2" width="5.2" height="11.2"/>
				<polygon class="st2" points="90.5,146.7 90.5,157.9 91.3,157.9 93.1,156.1 93.1,148.5 91.3,146.7 				"/>
				<polygon class="st2" points="93.6,148.5 93.6,156.1 95.5,157.9 96.3,157.9 96.3,146.7 95.5,146.7 				"/>
				<polygon class="st2" points="90.5,123.1 90.5,134.3 91.3,134.3 93.1,132.5 93.1,124.9 91.3,123.1 				"/>
				<rect x="96.7" y="111.3" class="st2" width="5.2" height="11.2"/>
				<polygon class="st2" points="90.5,111.3 90.5,122.6 91.3,122.6 93.1,120.7 93.1,113.2 91.3,111.3 				"/>
				<polygon class="st2" points="90.5,134.9 90.5,146.1 91.3,146.1 93.1,144.3 93.1,136.7 91.3,134.9 				"/>
				<polygon class="st2" points="90.5,99.6 90.5,110.8 91.3,110.8 93.1,109 93.1,101.4 91.3,99.6 				"/>
				<polygon class="st2" points="93.6,160.3 93.6,167.8 95.5,169.7 96.3,169.7 96.3,158.4 95.5,158.4 				"/>
				<polygon class="st2" points="93.6,172 93.6,179.6 95.5,181.4 96.3,181.4 96.3,170.2 95.5,170.2 				"/>
				<polygon class="st2" points="93.6,113.2 93.6,120.7 95.5,122.6 96.3,122.6 96.3,111.3 95.5,111.3 				"/>
				<polygon class="st2" points="105.4,113.2 105.4,120.7 107.2,122.6 108.1,122.6 108.1,111.3 107.2,111.3 				"/>
				<polygon class="st2" points="105.4,101.4 105.4,109 107.2,110.8 108.1,110.8 108.1,99.6 107.2,99.6 				"/>
				<polygon class="st2" points="105.4,136.7 105.4,144.3 107.2,146.1 108.1,146.1 108.1,134.9 107.2,134.9 				"/>
				<polygon class="st2" points="105.4,148.5 105.4,156.1 107.2,157.9 108.1,157.9 108.1,146.7 107.2,146.7 				"/>
				<rect x="108.4" y="158.4" class="st2" width="5.2" height="11.2"/>
				<rect x="108.4" y="170.2" class="st2" width="5.2" height="11.2"/>
				<rect x="108.4" y="146.7" class="st2" width="5.2" height="11.2"/>
				<polygon class="st2" points="105.4,160.3 105.4,167.8 107.2,169.7 108.1,169.7 108.1,158.4 107.2,158.4 				"/>
				<polygon class="st2" points="102.2,99.6 102.2,110.8 103,110.8 104.8,109 104.8,101.4 103,99.6 				"/>
				<polygon class="st2" points="102.2,146.7 102.2,157.9 103,157.9 104.8,156.1 104.8,148.5 103,146.7 				"/>
				<polygon class="st2" points="102.2,158.4 102.2,169.7 103,169.7 104.8,167.8 104.8,160.3 103,158.4 				"/>
				<polygon class="st2" points="102.2,170.2 102.2,181.4 103,181.4 104.8,179.6 104.8,172 103,170.2 				"/>
				<polygon class="st2" points="102.2,134.9 102.2,146.1 103,146.1 104.8,144.3 104.8,136.7 103,134.9 				"/>
				<polygon class="st2" points="105.4,172 105.4,179.6 107.2,181.4 108.1,181.4 108.1,170.2 107.2,170.2 				"/>
				<polygon class="st2" points="102.2,123.1 102.2,134.3 103,134.3 104.8,132.5 104.8,124.9 103,123.1 				"/>
				<rect x="96.7" y="99.6" class="st2" width="5.2" height="11.2"/>
				<polygon class="st2" points="102.2,111.3 102.2,122.6 103,122.6 104.8,120.7 104.8,113.2 103,111.3 				"/>
				<rect x="108.4" y="134.9" class="st2" width="5.2" height="11.2"/>
				<rect x="73.1" y="123.1" class="st2" width="5.2" height="11.2"/>
				<rect x="73.1" y="134.9" class="st2" width="5.2" height="11.2"/>
				<polygon class="st2" points="90.5,170.2 90.5,181.4 91.3,181.4 93.1,179.6 93.1,172 91.3,170.2 				"/>
				<rect x="73.1" y="146.7" class="st2" width="5.2" height="11.2"/>
				<rect x="73.1" y="99.6" class="st2" width="5.2" height="11.2"/>
				<polygon class="st2" points="78.7,158.4 78.7,169.7 79.5,169.7 81.3,167.8 81.3,160.3 79.5,158.4 				"/>
				<polygon class="st2" points="78.7,146.7 78.7,157.9 79.5,157.9 81.3,156.1 81.3,148.5 79.5,146.7 				"/>
				<polygon class="st2" points="78.7,170.2 78.7,181.4 79.5,181.4 81.3,179.6 81.3,172 79.5,170.2 				"/>
				<rect x="73.1" y="158.4" class="st2" width="5.2" height="11.2"/>
				<rect x="73.1" y="170.2" class="st2" width="5.2" height="11.2"/>
				<polygon class="st2" points="78.7,134.9 78.7,146.1 79.5,146.1 81.3,144.3 81.3,136.7 79.5,134.9 				"/>
				<rect x="73.1" y="111.3" class="st2" width="5.2" height="11.2"/>
				<rect x="84.9" y="134.9" class="st2" width="5.2" height="11.2"/>
				<rect x="84.9" y="146.7" class="st2" width="5.2" height="11.2"/>
				<rect x="84.9" y="158.4" class="st2" width="5.2" height="11.2"/>
				<rect x="84.9" y="170.2" class="st2" width="5.2" height="11.2"/>
				<rect x="84.9" y="99.6" class="st2" width="5.2" height="11.2"/>
				<polygon class="st2" points="81.9,101.4 81.9,109 83.7,110.8 84.6,110.8 84.6,99.6 83.7,99.6 				"/>
				<polygon class="st2" points="78.7,123.1 78.7,134.3 79.5,134.3 81.3,132.5 81.3,124.9 79.5,123.1 				"/>
				<rect x="84.9" y="123.1" class="st2" width="5.2" height="11.2"/>
				<rect x="84.9" y="111.3" class="st2" width="5.2" height="11.2"/>
				<polygon class="st2" points="78.7,99.6 78.7,110.8 79.5,110.8 81.3,109 81.3,101.4 79.5,99.6 				"/>
				<polygon class="st2" points="81.9,160.3 81.9,167.8 83.7,169.7 84.6,169.7 84.6,158.4 83.7,158.4 				"/>
				<polygon class="st2" points="81.9,172 81.9,179.6 83.7,181.4 84.6,181.4 84.6,170.2 83.7,170.2 				"/>
				<polygon class="st2" points="81.9,113.2 81.9,120.7 83.7,122.6 84.6,122.6 84.6,111.3 83.7,111.3 				"/>
				<polygon class="st2" points="78.7,111.3 78.7,122.6 79.5,122.6 81.3,120.7 81.3,113.2 79.5,111.3 				"/>
				<polygon class="st2" points="81.9,124.9 81.9,132.5 83.7,134.3 84.6,134.3 84.6,123.1 83.7,123.1 				"/>
				<polygon class="st2" points="81.9,148.5 81.9,156.1 83.7,157.9 84.6,157.9 84.6,146.7 83.7,146.7 				"/>
				<polygon class="st2" points="81.9,136.7 81.9,144.3 83.7,146.1 84.6,146.1 84.6,134.9 83.7,134.9 				"/>
				<polygon class="st2" points="105.4,124.9 105.4,132.5 107.2,134.3 108.1,134.3 108.1,123.1 107.2,123.1 				"/>
				<polygon class="st2" points="137.5,134.9 137.5,146.1 138.3,146.1 140.1,144.3 140.1,136.7 138.3,134.9 				"/>
				<polygon class="st2" points="137.5,123.1 137.5,134.3 138.3,134.3 140.1,132.5 140.1,124.9 138.3,123.1 				"/>
				<polygon class="st2" points="137.5,158.4 137.5,169.7 138.3,169.7 140.1,167.8 140.1,160.3 138.3,158.4 				"/>
				<polygon class="st2" points="137.5,111.3 137.5,122.6 138.3,122.6 140.1,120.7 140.1,113.2 138.3,111.3 				"/>
				<polygon class="st2" points="140.7,136.7 140.7,144.3 142.5,146.1 143.4,146.1 143.4,134.9 142.5,134.9 				"/>
				<polygon class="st2" points="140.7,148.5 140.7,156.1 142.5,157.9 143.4,157.9 143.4,146.7 142.5,146.7 				"/>
				<polygon class="st2" points="137.5,99.6 137.5,110.8 138.3,110.8 140.1,109 140.1,101.4 138.3,99.6 				"/>
				<polygon class="st2" points="140.7,160.3 140.7,167.8 142.5,169.7 143.4,169.7 143.4,158.4 142.5,158.4 				"/>
				<polygon class="st2" points="140.7,172 140.7,179.6 142.5,181.4 143.4,181.4 143.4,170.2 142.5,170.2 				"/>
				<polygon class="st2" points="137.5,146.7 137.5,157.9 138.3,157.9 140.1,156.1 140.1,148.5 138.3,146.7 				"/>
				<rect x="132" y="134.9" class="st2" width="5.2" height="11.2"/>
				<polygon class="st2" points="137.5,170.2 137.5,181.4 138.3,181.4 140.1,179.6 140.1,172 138.3,170.2 				"/>
				<rect x="132" y="158.4" class="st2" width="5.2" height="11.2"/>
				<rect x="132" y="170.2" class="st2" width="5.2" height="11.2"/>
				<rect x="132" y="146.7" class="st2" width="5.2" height="11.2"/>
				<rect x="132" y="123.1" class="st2" width="5.2" height="11.2"/>
				<polygon class="st2" points="128.9,101.4 128.9,109 130.7,110.8 131.6,110.8 131.6,99.6 130.7,99.6 				"/>
				<rect x="132" y="111.3" class="st2" width="5.2" height="11.2"/>
				<rect x="132" y="99.6" class="st2" width="5.2" height="11.2"/>
				<polygon class="st2" points="149.3,146.7 149.3,157.9 150.1,157.9 151.9,156.1 151.9,148.5 150.1,146.7 				"/>
				<polygon class="st2" points="149.3,158.4 149.3,169.7 150.1,169.7 151.9,167.8 151.9,160.3 150.1,158.4 				"/>
				<polygon class="st2" points="149.3,134.9 149.3,146.1 150.1,146.1 151.9,144.3 151.9,136.7 150.1,134.9 				"/>
				<rect x="143.7" y="99.6" class="st2" width="5.2" height="11.2"/>
				<polygon class="st2" points="149.3,170.2 149.3,181.4 150.1,181.4 151.9,179.6 151.9,172 150.1,170.2 				"/>
				<polygon class="st2" points="150.1,99.6 149.3,99.6 149.3,110.8 150.1,110.8 151.9,109 151.9,101.4 				"/>
				<polygon class="st2" points="149.3,123.1 149.3,134.3 150.1,134.3 151.9,132.5 151.9,124.9 150.1,123.1 				"/>
				<polygon class="st2" points="149.3,111.3 149.3,122.6 150.1,122.6 151.9,120.7 151.9,113.2 150.1,111.3 				"/>
				<rect x="143.7" y="158.4" class="st2" width="5.2" height="11.2"/>
				<polygon class="st2" points="140.7,124.9 140.7,132.5 142.5,134.3 143.4,134.3 143.4,123.1 142.5,123.1 				"/>
				<rect x="143.7" y="111.3" class="st2" width="5.2" height="11.2"/>
				<polygon class="st2" points="140.7,101.4 140.7,109 142.5,110.8 143.4,110.8 143.4,99.6 142.5,99.6 				"/>
				<polygon class="st2" points="140.7,113.2 140.7,120.7 142.5,122.6 143.4,122.6 143.4,111.3 142.5,111.3 				"/>
				<rect x="143.7" y="170.2" class="st2" width="5.2" height="11.2"/>
				<rect x="143.7" y="146.7" class="st2" width="5.2" height="11.2"/>
				<rect x="143.7" y="123.1" class="st2" width="5.2" height="11.2"/>
				<rect x="143.7" y="134.9" class="st2" width="5.2" height="11.2"/>
				<polygon class="st2" points="128.9,160.3 128.9,167.8 130.7,169.7 131.6,169.7 131.6,158.4 130.7,158.4 				"/>
				<polygon class="st2" points="117.2,160.3 117.2,167.8 119,169.7 119.8,169.7 119.8,158.4 119,158.4 				"/>
				<polygon class="st2" points="117.2,136.7 117.2,144.3 119,146.1 119.8,146.1 119.8,134.9 119,134.9 				"/>
				<rect x="120.2" y="158.4" class="st2" width="5.2" height="11.2"/>
				<polygon class="st2" points="117.2,172 117.2,179.6 119,181.4 119.8,181.4 119.8,170.2 119,170.2 				"/>
				<polygon class="st2" points="117.2,113.2 117.2,120.7 119,122.6 119.8,122.6 119.8,111.3 119,111.3 				"/>
				<polygon class="st2" points="117.2,101.4 117.2,109 119,110.8 119.8,110.8 119.8,99.6 119,99.6 				"/>
				<rect x="120.2" y="170.2" class="st2" width="5.2" height="11.2"/>
				<polygon class="st2" points="117.2,124.9 117.2,132.5 119,134.3 119.8,134.3 119.8,123.1 119,123.1 				"/>
				<polygon class="st2" points="114,99.6 114,110.8 114.8,110.8 116.6,109 116.6,101.4 114.8,99.6 				"/>
				<polygon class="st2" points="117.2,148.5 117.2,156.1 119,157.9 119.8,157.9 119.8,146.7 119,146.7 				"/>
				<polygon class="st2" points="114,170.2 114,181.4 114.8,181.4 116.6,179.6 116.6,172 114.8,170.2 				"/>
				<rect x="108.4" y="99.6" class="st2" width="5.2" height="11.2"/>
				<polygon class="st2" points="114,111.3 114,122.6 114.8,122.6 116.6,120.7 116.6,113.2 114.8,111.3 				"/>
				<polygon class="st2" points="114,158.4 114,169.7 114.8,169.7 116.6,167.8 116.6,160.3 114.8,158.4 				"/>
				<rect x="108.4" y="111.3" class="st2" width="5.2" height="11.2"/>
				<polygon class="st2" points="114,123.1 114,134.3 114.8,134.3 116.6,132.5 116.6,124.9 114.8,123.1 				"/>
				<polygon class="st2" points="114,146.7 114,157.9 114.8,157.9 116.6,156.1 116.6,148.5 114.8,146.7 				"/>
				<polygon class="st2" points="114,134.9 114,146.1 114.8,146.1 116.6,144.3 116.6,136.7 114.8,134.9 				"/>
				<rect x="120.2" y="123.1" class="st2" width="5.2" height="11.2"/>
				<polygon class="st2" points="128.9,172 128.9,179.6 130.7,181.4 131.6,181.4 131.6,170.2 130.7,170.2 				"/>
				<rect x="120.2" y="146.7" class="st2" width="5.2" height="11.2"/>
				<polygon class="st2" points="125.7,111.3 125.7,122.6 126.5,122.6 128.4,120.7 128.4,113.2 126.5,111.3 				"/>
				<rect x="108.4" y="123.1" class="st2" width="5.2" height="11.2"/>
				<polygon class="st2" points="128.9,136.7 128.9,144.3 130.7,146.1 131.6,146.1 131.6,134.9 130.7,134.9 				"/>
				<polygon class="st2" points="128.9,124.9 128.9,132.5 130.7,134.3 131.6,134.3 131.6,123.1 130.7,123.1 				"/>
				<polygon class="st2" points="125.7,123.1 125.7,134.3 126.5,134.3 128.4,132.5 128.4,124.9 126.5,123.1 				"/>
				<polygon class="st2" points="128.9,148.5 128.9,156.1 130.7,157.9 131.6,157.9 131.6,146.7 130.7,146.7 				"/>
				<polygon class="st2" points="125.7,99.6 125.7,110.8 126.5,110.8 128.4,109 128.4,101.4 126.5,99.6 				"/>
				<polygon class="st2" points="128.9,113.2 128.9,120.7 130.7,122.6 131.6,122.6 131.6,111.3 130.7,111.3 				"/>
				<rect x="120.2" y="111.3" class="st2" width="5.2" height="11.2"/>
				<rect x="120.2" y="99.6" class="st2" width="5.2" height="11.2"/>
				<rect x="120.2" y="134.9" class="st2" width="5.2" height="11.2"/>
				<polygon class="st2" points="125.7,134.9 125.7,146.1 126.5,146.1 128.4,144.3 128.4,136.7 126.5,134.9 				"/>
				<polygon class="st2" points="125.7,146.7 125.7,157.9 126.5,157.9 128.4,156.1 128.4,148.5 126.5,146.7 				"/>
				<polygon class="st2" points="125.7,170.2 125.7,181.4 126.5,181.4 128.4,179.6 128.4,172 126.5,170.2 				"/>
				<polygon class="st2" points="125.7,158.4 125.7,169.7 126.5,169.7 128.4,167.8 128.4,160.3 126.5,158.4 				"/>
			</g>
		</g>
		<path class="st3" d="M137,153l-0.1,0.5l0,0c-2.1,7.6-1.7,17-7.2,17.8c3.6,0,12.5,0,20.4,0.1c7.8,0.1,15.4,0.8,17.6-0.8
			c6.8-4.9,6.7-19.4,14.8-25.2c7.6-5.6,25.1,2,28.1-4.5c3.1-6.6-7.3-9.2-14.6-14.1c-8.2-5.2-15.4-11.8-21.3-19.5
			c-5.3,1.9-10.3,4.5-14.8,7.9c-4.3,3.3-8,7.2-11,11.7C143.5,134.9,139.5,143.7,137,153"/>
		<g>
			<defs>
				<path id="SVGID_3_" d="M159.9,115.2c-4.3,3.3-8,7.2-11,11.7c-5.4,8-9.4,16.8-11.9,26.1l-0.1,0.5l0,0c-2.1,7.6-1.7,17-7.2,17.8
					c3.6,0,12.5,0,20.4,0.1c7.8,0.1,15.4,0.8,17.6-0.8c6.8-4.9,6.7-19.4,14.8-25.2c3.7-2.7,9.7-2.3,15.3-1.9
					c5.9,0.4,11.3,0.8,12.9-2.5c3.1-6.6-7.3-9.2-14.6-14.1c-8.2-5.2-15.4-11.8-21.3-19.5C169.4,109.2,164.4,111.8,159.9,115.2"/>
			</defs>
			<clipPath id="SVGID_4_">
				<use xlink:href="#SVGID_3_"  style="overflow:visible;"/>
			</clipPath>
			<g class="st4">
				<path class="st5" d="M155.8,162.2c0.3-1.2,2.5-11.7,2.5-13.1c0-1.7-2.2-4.6-2.4-4.8c-0.2-0.2-0.5-0.2-0.7,0c0,0,0,0,0,0
					c-0.2,0.2-0.2,0.5,0,0.7c0,0,0,0,0,0c0.3,0.3,2,2.8,2.1,4l0,0c0,1-1.5,8.2-2.4,12.9c-1,3.3-1.7,6.6-2.2,9.9h1
					C154.1,168.5,154.8,165.3,155.8,162.2L155.8,162.2z"/>
				<path class="st6" d="M158.5,159.6c0.8-3.4,1.9-8.1,1.7-10.1c-0.2-2.5-0.5-5.2-2.2-6.1c-1.4-0.8-4.4-0.6-6-0.6h-0.5
					c-2.5,0.5-4.9,1.5-6.9,3c-0.2,0.2-0.6,0.5-1,0.8c-1.9,1.6-4.7,4-5.7,6.1c-0.5,1-1.1,1.9-1.8,2.7c-0.1,0.7-0.3,1.4-0.4,2
					c1.3-1.3,2.3-2.7,3.1-4.3c0.9-1.9,3.7-4.4,5.4-5.8l1-0.9c1.9-1.3,4-2.3,6.3-2.7h0.5c1.3,0,4.3-0.1,5.5,0.5
					c1.3,0.7,1.5,3.8,1.6,5.3c0,0,0,0,0,0.1c0.1,1.8-1,6.6-1.7,9.7c-0.2,0.9-0.4,1.6-0.5,2.2c-0.4,2.1-1,6.8-1.4,10.3h1
					c0.3-3.5,0.9-8,1.4-10.1L158.5,159.6"/>
				<path class="st7" d="M141.5,147.2c2.9-1.8,6.4-4,6.4-4c0.2-0.2,0.3-0.5,0.2-0.7c-0.2-0.2-0.5-0.3-0.7-0.2c0,0,0,0,0,0
					c0,0-3.5,2.2-6.4,4c-1.3,0.9-2.5,2.1-3.4,3.5c-0.3,1-0.5,1.9-0.7,2.9C138.3,150.5,140,148.1,141.5,147.2"/>
				<path class="st2" d="M147.1,141.9c2.6-0.3,5.2-0.5,7.9-0.6c0,0,4.6,0.1,5.2,2.6c0.7,3,1.2,8.2,0.8,9.8s-2.9,10.6-2.9,10.7
					c-0.1,0.3,0.1,0.6,0.4,0.7c0.3,0.1,0.6-0.1,0.6-0.3c0,0,0,0,0,0c0.1-0.4,2.6-9,3-10.8s-0.1-7.4-0.8-10.3c-0.8-3.3-6-3.4-6.2-3.4
					c-2.7,0-5.3,0.2-8,0.6c-2.2,0.4-5.9,2.5-7.7,3.7c-0.2,0.6-0.4,1.1-0.6,1.7l0.2-0.2C139.5,145.7,144.6,142.4,147.1,141.9"/>
				<path class="st8" d="M163.9,152.6c0-0.5,0-1.1,0-1.6c-0.1-3.7-0.1-8.4-1.9-10.2c-2.2-2.1-5.2-3.1-8.1-2.8
					c-3.2,0.3-6.3,0.9-9.4,1.7c-1.4,0.6-2.8,1.2-4.1,2c-0.2,0.5-0.4,1-0.6,1.5c1.6-0.9,3.3-1.8,5-2.5c3-0.8,6.1-1.4,9.2-1.7
					c2.7-0.3,5.4,0.6,7.3,2.5c1.5,1.5,1.5,6.1,1.6,9.5c0,0.6,0,1.1,0,1.6c0.1,2.7-1.1,7.2-3.5,13.2c-0.8,2-1.4,4-1.8,6.1h1.1
					c0.4-2,0.9-3.9,1.6-5.7C162.8,160.1,164,155.5,163.9,152.6"/>
				<path class="st9" d="M164.6,161.2c0.3-2.2,0.7-4.3,1.2-6.4c1-3.2-0.2-10.6-0.6-12.8c-0.5-2.6-2.4-4.8-5-5.5
					c-1.9-0.7-7.7,0-9.8,0.2c-3,0.5-5.9,1.3-8.8,2.2c-0.2,0.4-0.4,0.9-0.6,1.3c3.1-1.1,6.3-1.9,9.5-2.5c3-0.3,7.9-0.8,9.4-0.2
					c1.7,0.6,3.8,1.7,4.3,4.6c0.8,4.4,1.4,10,0.6,12.3c-0.6,2.2-1,4.4-1.2,6.6c-0.2,1.7-0.5,3.4-0.9,5c-0.3,1.1-0.9,3.5-1.6,5.9h1.1
					c0.6-2.3,1.2-4.5,1.5-5.6C164.1,164.6,164.4,162.9,164.6,161.2"/>
				<path class="st10" d="M162.4,164.8c0.1-0.3-0.1-0.6-0.3-0.6c0,0,0,0,0,0c-0.3-0.1-0.6,0.1-0.6,0.4c0,0,0,0,0,0
					c0,0-0.4,1.4-0.8,2.5c-0.2,0.6-0.8,2.9-1.3,4.8h1.1c0.4-1.8,0.9-3.8,1.1-4.4C162,166.2,162.4,164.9,162.4,164.8"/>
				<path class="st11" d="M167.6,157.7L167.6,157.7c0-0.5,0.9-10.8,0.3-13.3s-1.7-7.2-3.6-8.5c-2.6-1.5-5.5-2.5-8.5-3
					c-2.1,0.1-4.1,0.4-6.2,0.8c-1,0.1-1.8,0.3-2.1,0.3s-1.9,0.2-3.6,0.4c-0.2,0.4-0.4,0.8-0.6,1.1c2-0.2,3.9-0.5,4.3-0.5
					s1.1-0.1,2.2-0.3c2-0.4,4-0.7,6-0.8c2.8,0.5,5.5,1.4,7.9,2.9c1.6,1.1,2.7,5.8,3.2,7.9c0.4,1.8,0,9.2-0.3,12.8
					c-0.1,0.6-1.8,8.1-2.1,9.6c-0.2,0.8-0.7,2.8-1.2,4.8h1.1c0.5-2,1-3.8,1.2-4.5L167.6,157.7"/>
				<path class="st2" d="M148.1,136.5c1.2-0.3,4-0.6,5.5-0.7l0.6-0.1c1.1-0.1,2.2-0.1,3.3,0c0.3-0.1,0.5-0.4,0.4-0.6
					c0-0.2-0.2-0.3-0.3-0.4c-1.2-0.1-2.3-0.1-3.5,0l-0.6,0.1c-1.6,0.2-4.4,0.5-5.7,0.8c-0.8,0.2-3,0.5-5,0.9
					c-0.2,0.4-0.4,0.8-0.6,1.2l0.7-0.1C145.1,137.1,147.2,136.7,148.1,136.5"/>
				<path class="st2" d="M160.8,133.2c0.3,0.1,0.6-0.1,0.6-0.4c0,0,0,0,0,0c0.1-0.3-0.1-0.6-0.4-0.6c-2.6-0.5-5.2-0.8-7.9-0.9
					c-2.6,0.3-5.2,0.5-7.8,0.5l-0.6,1.1c3.5-0.1,7.4-0.3,8.6-0.5C155.8,132.4,158.3,132.7,160.8,133.2"/>
				<path class="st12" d="M152.8,130.6c3,0,5.9,0.5,8.7,1.3c1.5,0.7,3.3,3.2,4.6,5c1.2,2.1,2,4.5,2.6,6.9c0.1,0.6,0.1,4.8,0,7.4
					c0,0.3,0.2,0.6,0.5,0.6c0.3,0,0.6-0.2,0.6-0.5c0,0,0-0.1,0-0.1c0-0.7,0.1-6.7,0-7.6c-0.5-2.5-1.5-5-2.7-7.3
					c-1.4-2.1-3.2-4.6-5-5.4s-6.8-1.4-9.2-1.4h-3.9h-2.1c-0.2,0.4-0.4,0.7-0.7,1.1h2.8C150.5,130.6,152,130.6,152.8,130.6"/>
				<path class="st12" d="M173.5,162.5c0.1-0.4,2.4-9.7,2.5-14.3c0.1-4.4-2.5-10.2-5.1-13.3s-6.1-7-8.4-7.7c-2.1-0.6-9-2.3-12.5-2.3
					l-0.6,0.8c-0.1,0.1-0.1,0.2-0.2,0.3h0.5c3.2-0.1,10.4,1.7,12.5,2.3c1.5,0.5,4.4,3.1,7.9,7.3c2.4,2.9,5,8.6,4.9,12.6
					c-0.1,4.5-2.4,13.7-2.5,14v0.1c-0.3,1.2-0.8,3.2-1.2,5.5c0.7-1.1,1.3-2.3,1.8-3.4C173.2,163.7,173.4,163.1,173.5,162.5
					L173.5,162.5z"/>
				<path class="st6" d="M177.2,143.2c-1.1-3-2.5-5.9-4.2-8.6c-2.1-3-4.7-5.7-7.5-8.1c-2.7-1.9-8.4-3.1-12.2-4l-0.8-0.2l-0.3-0.1
					l-0.8,0.9l0.9,0.2l0.8,0.2c3.5,0.8,9.4,2,11.9,3.8c5.3,4.1,9.2,9.7,11.4,16.1c0.9,3.1,0.6,7.9,0.5,10.4c0,0.2,0,0.4,0,0.6
					c0.3-0.9,0.7-1.8,1.2-2.8C178,148.9,177.8,146,177.2,143.2"/>
				<path class="st13" d="M171.8,122.6c-3.1-2.2-7-4.9-9.6-5.8c-0.9-0.3-2.3-0.8-3.8-1.2l-0.9,0.8c1.6,0.5,3.3,1,4.3,1.4
					c2.5,0.9,6.3,3.5,9.3,5.7c2.7,1.9,7.1,8,8.1,10.4s2.3,11,2.2,12.3c0,0.1,0,0.2,0,0.4c0.3-0.3,0.7-0.6,1.1-0.9
					c-0.1-2.6-1.3-9.9-2.2-12.2C179.3,130.9,174.7,124.6,171.8,122.6"/>
				<path class="st12" d="M175.3,125.2c0.2,0.2,0.5,0.2,0.7,0c0,0,0,0,0,0c0.2-0.2,0.2-0.5,0-0.7c-1.5-1.6-3.2-3-5-4.3
					c-3.5-2.3-7.1-4.4-10.9-6.1l-0.3,0.3l-0.6,0.5c2,0.6,8.5,4.4,11.2,6.2C172.2,122.3,173.8,123.7,175.3,125.2"/>
				<path class="st14" d="M176.9,123c-2.3-3.2-8-7.5-11.1-9.1c-0.9-0.5-2-1-3.3-1.5c-0.3,0.2-0.7,0.5-1,0.7c1.4,0.6,2.8,1.2,3.8,1.7
					c3.1,1.7,8.7,5.8,10.8,8.8s5.5,11.7,6.2,14.2c0.3,1,0.9,3.8,1.5,7c0.3-0.2,0.6-0.4,1-0.5c-0.5-3.1-1.1-5.8-1.4-6.7
					C182.6,134.9,179.1,126.2,176.9,123"/>
				<path class="st10" d="M182.4,130.9c-0.7-1.5-1.3-3-1.6-3.9l-0.1-0.4c-0.8-2.4-2.2-6.4-5.3-8.4s-7.2-4.8-7.2-4.8
					c-0.2-0.2-0.6-0.1-0.7,0.1c-0.1,0.1-0.1,0.2-0.1,0.3c0,0.2,0.1,0.3,0.2,0.4c0,0,4.1,2.8,7.2,4.9c2.8,1.8,4.1,5.6,4.9,7.9
					l0.1,0.4c0.3,1,1,2.4,1.7,4c0.9,1.9,1.7,3.8,2.4,5.8c0.4,1.4,1.1,5,1.6,7.6c0.3-0.1,0.6-0.3,1-0.4c-0.5-2.6-1.2-6.1-1.6-7.5
					C184.1,134.8,183.3,132.8,182.4,130.9"/>
				<path class="st6" d="M183.6,124.6c-0.7-0.7-1.3-1.5-1.8-2.3c-1.3-1.9-2.8-3.6-4.4-5.3c-3-2.7-6.6-4.6-10.5-5.7
					c-0.7-0.2-1.3-0.4-2-0.6l-1.1,0.7c1,0.4,1.9,0.7,2.9,0.9c3.7,1,7.1,2.9,10,5.4c1.6,1.6,3,3.3,4.3,5.1c0.6,0.8,1.2,1.7,1.9,2.4
					c1.1,1,5.4,8.5,6.1,12.6c0.2,1.9,0.4,3.7,0.4,5.6l1-0.1c0-1.9-0.1-3.8-0.4-5.7C189.3,133.4,184.8,125.7,183.6,124.6"/>
				<path class="st15" d="M185.7,123.1c-0.2-0.4-0.5-0.8-0.7-1.2c-2-3.5-4.7-6.6-7.9-9c-2.2-1.9-4.7-3.6-7.3-4.8
					c-0.4,0.2-0.9,0.4-1.3,0.6c2,0.7,4.6,2.2,7.9,5c3.1,2.3,5.7,5.3,7.6,8.7l0.7,1.3c1.8,3.3,4.4,7.9,5.5,12.5c0.5,2.5,0.9,5,1,7.5
					h1.1c-0.1-2.6-0.5-5.2-1.1-7.8C190.1,131,187.5,126.4,185.7,123.1"/>
				<path class="st12" d="M175.9,114.8c2.1,2.2,4.1,4.5,6,6.9c0.1,0.2,0.5,0.3,0.7,0.2c0,0,0,0,0,0c0.2-0.2,0.3-0.5,0.2-0.7
					c-1.9-2.5-4-4.9-6.2-7.1c-2.6-1.7-5.4-3-8.4-3.8c-0.5-0.1-1-0.3-1.5-0.5l-1.1,0.7c0.8,0.4,1.6,0.7,2.4,0.9
					C170.8,112,173.5,113.2,175.9,114.8"/>
				<path class="st16" d="M186.5,119.5c-0.3-0.2-0.6-0.5-0.8-0.7c-2.7-2.5-5.3-5.1-7.6-7.9c-1.9-1.4-4-2.5-6.1-3.5l-0.3-0.1
					l-1.2,0.6l1,0.5c6,2.8,10.4,6.4,13.4,10.9c3.7,5.3,6.2,11.3,7.2,17.6c0.4,2.2,0.7,4.4,0.8,6.6l1,0.1c-0.2-2.3-0.4-4.6-0.9-6.9
					C192,130.5,189.7,124.7,186.5,119.5"/>
				<path class="st17" d="M176.8,109.3c-0.5-0.7-1.1-1.4-1.6-2.1l-1.5-0.8l-1.2,0.5c1.2,0.7,2.5,1.4,3.9,2.3L176.8,109.3"/>
				<path class="st12" d="M190,122.4c-0.7-0.5-1.4-1-2-1.6c0.1,0.2,0.3,0.7,0.4,0.9c2.1,4,3.6,8.2,4.7,12.6c0.5,1.9,1.2,6.1,1.8,9.3
					l1.1,0.1c-0.6-3.2-1.4-7.6-1.9-9.6C193.1,130,191.8,126.1,190,122.4"/>
				<path class="st18" d="M193.6,124.9c-0.5-0.3-1-0.7-1.5-1c0.8,1.9,1.3,4,1.7,6c0.8,4.6,1.8,10,2.6,13.7l1.1,0.1
					c-0.8-3.7-1.8-9.3-2.6-14C194.5,128.1,194.1,126.5,193.6,124.9"/>
				<path class="st19" d="M196,126.5l-1.3-0.8c0.8,2.7,2.5,12.3,3,16c0.1,0.4,0.2,1.4,0.3,2l1.1,0.1c-0.1-0.6-0.2-1.7-0.3-2.2
					C198.3,138.6,196.9,130.2,196,126.5"/>
				<path class="st20" d="M201.5,132.8c0-0.5-0.2-1.7-0.4-3.1l-1.1-0.6c0.2,1.6,0.4,3.1,0.5,3.8s0.5,4,1.1,7.8
					c0.1,0.9,0.4,2.5,0.5,3.4c0.3,0,0.7,0,1.1,0c-0.1-1-0.4-2.6-0.5-3.6C202,136.9,201.5,133.4,201.5,132.8"/>
				<path class="st21" d="M204.1,138.2c0.2-2.4,0.1-4.7-0.3-7.1l-1.2-0.6c0.5,2.5,0.6,5.1,0.4,7.6c-0.1,2-0.1,4,0.2,5.9h1.1
					C204,142.1,204,140.2,204.1,138.2"/>
				<path class="st22" d="M206.3,132.5l-1-0.5c0,0.1,0,0.2,0,0.4c-0.3,3.9-0.3,7.8-0.2,11.7l1-0.1
					C206,140.1,206.1,136.3,206.3,132.5"/>
				<path class="st23" d="M209.1,134.1C209.1,134.1,209,134.1,209.1,134.1l-0.6-0.3l-0.4-0.2c0.4,3.1,0.7,6.3,0.9,9.5
					c0.4-0.1,0.7-0.3,1-0.5c-0.1-2.7-0.4-5.9-0.7-8.2L209.1,134.1"/>
				<path class="st6" d="M211.3,138.8c-0.1-0.9-0.1-1.9-0.2-2.8c-0.2-0.3-0.5-0.7-0.8-0.9l0,0c-0.1-0.1-0.2-0.2-0.4-0.3l0,0
					l-0.1-0.1c0.2,1.3,0.3,2.8,0.4,4.2c0.1,0.9,0.1,1.7,0.2,2.6c0.4-0.4,0.7-0.8,0.9-1.3C211.4,139.7,211.3,139.3,211.3,138.8"/>
				<path class="st12" d="M153.5,148.1c-1.4-1.6-2.6-0.9-3.8-0.3l-0.3,0.1c-1.1,0.6-4.3,3.8-7.2,6.9l-0.4,0.4
					c-1.3,1.4-2.2,3.1-2.6,5c-0.2,0.9-0.6,2.2-1,3.5c-0.3,0.8-0.5,1.6-0.7,2.4c-0.7,2-1.5,3.9-2.5,5.7h1.2c0.9-1.8,1.7-3.6,2.3-5.5
					c0-0.3,0.4-1.3,0.7-2.2c0.4-1.3,0.9-2.7,1.1-3.6c0.3-1.7,1.1-3.2,2.3-4.5l0.4-0.4c1.5-1.5,5.9-6.1,7-6.6l0.3-0.1
					c1.2-0.6,1.7-0.9,2.5,0s0,3.5-1,5.6c-1,2.1-2.2,4-3.6,5.9c-1.7,2.3-3.1,4.8-4.1,7.4c-0.3,1.4-0.3,2.8,0,4.2h1.1
					c-0.3-1.3-0.3-2.6,0-3.9c1-2.5,2.3-4.9,4-7.1c1.5-1.9,2.7-3.9,3.8-6.1c0.7-1.5,2.2-5.2,0.8-6.7"/>
				<path class="st24" d="M156.3,149c0.1-1.3-0.4-2.5-1.3-3.4c-1-0.9-2.2-1.7-4-0.6c-0.9,0.5-2.7,2-4.5,3.4c-1.3,1-2.5,2-3,2.4
					c-0.2,0.1-5.3,3.6-5.9,6.4c-0.5,2.2-1.4,6.4-1.4,6.8c-0.5,3-3.3,7.5-3.7,8h1.3c1.6-2.4,2.7-5,3.4-7.8l0,0c0,0,0.9-4.6,1.4-6.7
					c0.4-1.8,3.6-4.4,5.5-5.7c0.6-0.4,1.8-1.3,3.1-2.4c1.6-1.3,3.5-2.8,4.3-3.3c1.2-0.7,1.8-0.4,2.8,0.5c0.7,0.7,1,1.7,0.9,2.7
					c0,1-0.6,5.5-0.8,7.2c-0.2,0.6-2.9,9.7-4,13.3c-0.2,0.8-0.4,1.5-0.5,2.3h1c0.1-0.7,0.2-1.3,0.4-2c1.2-3.8,4-13.3,4-13.4v-0.1
					C155.4,156.3,156.3,150.3,156.3,149"/>
				<path class="st25" d="M142.7,169.2c0.1-0.3,0.1-0.7,0.2-1.1c0.2-1.4,0.6-2.7,1.2-4c2-3.8,2.3-4.1,3.2-5.2
					c0.3-0.4,0.6-0.8,1.1-1.5l0.3-0.4c1-1.3,1.8-2.7,2.4-4.2c0.5-1,0.9-2.1,0.2-2.6c-0.2-0.2-0.8-0.6-2.7,0.9
					c-1.2,1-2.3,2.2-3.3,3.3c-0.8,0.9-1.5,2-1.9,3.2l-0.3,0.6c-0.1,0.3,0,0.6,0.2,0.7c0.3,0.1,0.6,0,0.7-0.2c0,0,0,0,0,0l0.3-0.6
					c0.4-1.1,1-2.1,1.7-3c1-1.1,2.1-2.2,3.2-3.2c0.4-0.3,0.8-0.6,1.3-0.8c-0.1,0.4-0.2,0.8-0.4,1.2c-0.6,1.4-1.4,2.8-2.3,4l-0.3,0.4
					c-0.5,0.7-0.8,1.1-1.1,1.4c-0.9,1.1-1.2,1.5-3.3,5.4c-0.6,1.4-1.1,2.8-1.3,4.3c-0.1,0.4-0.2,0.7-0.2,1c-0.2,1-0.3,2-0.2,3h1.1
					C142.5,170.9,142.5,170,142.7,169.2"/>
				<path class="st26" d="M139.9,170.9l0.2-0.4c0.7-1.6,1.2-3.2,1.5-4.8l0.1-0.6c0.2-1.3,0.4-2.5,0.5-4c0.1-0.3,0-0.6-0.3-0.7
					c-0.3-0.1-0.6,0-0.7,0.3c0,0.1-0.1,0.2,0,0.3c-0.2,1.5-0.3,2.7-0.5,4l-0.1,0.7c-0.3,1.6-0.8,3.1-1.4,4.6l-0.2,0.4
					c-0.2,0.4-0.3,0.9-0.5,1.3h1.1C139.7,171.6,139.8,171.3,139.9,170.9"/>
				<path class="st6" d="M173.2,143.9c-0.1-0.3-0.1-0.6-0.2-0.9c-0.2-1.4-0.7-2.8-1.5-4c-1.1-1.4-2.4-2.8-3.7-4l0,0
					c-0.6-1-1.2-2-1.9-2.9c-1.8-2.1-4.4-3.4-7.1-3.7c-0.5,0-2.5-0.2-4.6-0.4s-4.5-0.4-6-0.5c-0.2,0.3-0.5,0.7-0.7,1
					c1.4,0.1,4.2,0.3,6.6,0.5c2.4,0.2,4.1,0.3,4.7,0.4c2.5,0.3,4.7,1.4,6.4,3.3c2,2.5,4.6,7.8,4.7,8.7v0.3c0.8,7.2,0.7,9.1,0.6,9.6
					c-0.2,0.6-0.9,3.5-1.6,6.9c-1,4.4-2.3,9.8-2.6,10.7c-0.1,0.4-0.4,1.5-0.7,3h0.4c0.2,0,0.5,0,0.7-0.1c0.3-1.3,0.5-2.2,0.6-2.6
					c0.3-1,1.5-6.2,2.6-10.8c0.8-3.2,1.5-6.2,1.6-6.8c0.3-1,0.1-4.3-0.6-10v-0.3c-0.3-1.1-0.7-2.2-1.3-3.2c0.4,0.4,0.8,0.9,1.2,1.4
					c0.7,1.1,1.1,2.4,1.3,3.6c0.1,0.4,0.1,0.7,0.2,1.1c0.3,1,0.4,2.1,0.4,3.2c0,3.3-0.5,6.6-1.4,9.8c-1.1,3.7-1.3,4.6-1.3,4.6
					c-0.1,0.3,0.1,0.6,0.4,0.6c0,0,0,0,0,0h0.1c0.2,0,0.5-0.2,0.5-0.4c0,0,0.2-0.9,1.3-4.6c0.9-3.3,1.4-6.7,1.4-10.1
					C173.7,146.3,173.6,145.1,173.2,143.9"/>
				<path class="st9" d="M169.8,169.8c0.1-2.6,0.5-5,0.5-5c0-0.3-0.1-0.6-0.4-0.6c0,0,0,0,0,0c-0.3-0.1-0.5,0.1-0.6,0.4c0,0,0,0,0,0
					c-0.3,2.1-0.5,4.1-0.5,6.2C169.1,170.5,169.5,170.2,169.8,169.8"/>
				<path class="st2" d="M177.7,138.1c-1.6-3.2-3.6-6.3-5.9-9.1l-0.2-0.2c-2.2-2.3-4.8-4.1-7.7-5.4c-3-1.1-6.2-2-9.4-2.4
					c-0.3,0-0.6,0.1-0.6,0.4c0,0,0,0,0,0c0,0.3,0.2,0.6,0.4,0.6c3.1,0.5,6.2,1.3,9.1,2.4c2.8,1.3,5.3,3.1,7.4,5.2l0.2,0.2
					c2.2,2.7,4.1,5.6,5.6,8.8c0.9,2.1,1.7,8,2,10.9c0,0.2,0,0.4,0.1,0.6c0.3-0.5,0.6-0.9,0.9-1.4
					C179.3,145.4,178.6,140.2,177.7,138.1"/>
				<path class="st25" d="M188.3,143.9c-0.1-3.2-0.6-6.4-1.4-9.5c-0.9-2-2-3.9-3.2-5.7c-0.5-0.7-1-1.5-1.4-2.3
					c-0.1-0.3-0.4-0.4-0.7-0.3c0,0,0,0,0,0c-0.3,0.1-0.4,0.4-0.3,0.7c0.4,0.9,1,1.7,1.5,2.5c1.2,1.7,2.3,3.6,3.1,5.5
					c0.8,3,1.3,6.2,1.4,9.3h0.1C187.6,144,188,143.9,188.3,143.9"/>
				<path class="st27" d="M200.1,137.4c-0.2-1.4-0.4-2.8-0.7-4.2c-0.4-1.8-0.9-3.9-1.2-5.2l-1.3-0.8c0.2,0.9,0.9,3.8,1.4,6.1
					c0.4,1.6,0.4,2.3,0.7,4.2c0.2,1.2,0.5,3.5,0.9,6.4h1.1C200.6,141,200.3,138.6,200.1,137.4"/>
				<path class="st28" d="M180.1,140c-0.7-4.2-4-10.9-7.5-13.9c-3.3-2.8-11.2-7.9-14.3-8.6c-0.4-0.1-0.9-0.2-1.5-0.4L156,118
					c0.8,0.2,1.6,0.4,2.1,0.6c1.5,0.5,2.9,1.1,4.3,1.9c-0.6-0.1-1.1-0.1-1.6-0.2c-1.8-0.4-3.6-1-5.2-1.8l-0.8,0.8
					c2.1,0.9,4.6,2,5.9,2.1c1.6,0.1,3.8,0.5,4.3,0.6c2.5,1.5,4.8,3.2,7.1,5c3.3,2.8,6.4,9.3,7.1,13.3c0.5,2.6,0.8,5.3,0.9,8
					c0.3-0.4,0.6-0.8,1-1.2C180.8,144.7,180.6,142.3,180.1,140"/>
				<path class="st29" d="M207,143.7L207,143.7c0.4-0.1,0.7-0.2,1-0.2c0-0.3,0-1.1,0-1.4c0-1.7-0.2-6.2-0.2-6.3
					c0-0.3-0.3-0.5-0.5-0.5c-0.3,0-0.5,0.3-0.5,0.6c0,0,0.2,4.6,0.2,6.3C207,142.3,207,143.3,207,143.7"/>
				<path class="st10" d="M147.8,171.9c0.1-1.9,0.3-3.7,0.8-5.5c0.4-1,0.9-1.9,1.6-2.7c0.4-0.5,0.7-1,1-1.5c0.3-0.6,1.9-4.7,2-5.1
					c0.1-0.3,0-0.6-0.3-0.7c-0.3-0.1-0.6,0-0.7,0.3l0,0c-0.7,1.8-1.8,4.6-2,5c-0.3,0.5-0.6,0.9-0.9,1.4c-0.7,0.9-1.3,1.9-1.8,3
					c-0.5,1.9-0.8,3.8-0.9,5.8L147.8,171.9"/>
			</g>
		</g>
		<path class="st30" d="M126,49.3l-0.2-0.5l0,0c-2.8-7.4-8.6-14.8-4.6-18.7c-2.9,2.1-10.1,7.4-16.6,11.9s-12.9,8.4-13.8,11
			c-2.6,8,6,19.6,2.9,29.1c-2.9,9-21.5,13.2-20.1,20.2c1.4,7.2,11.4,3.2,20.1,2.8c9.7-0.5,19.4,0.5,28.7,3.2
			c3.2-4.6,5.7-9.7,7.3-15.1c1.6-5.2,2.3-10.5,2.1-15.9C131.5,67.7,129.6,58.2,126,49.3"/>
		<g>
			<defs>
				<path id="SVGID_5_" d="M104.6,42c-6.4,4.5-12.9,8.4-13.8,11c-2.6,8,6,19.6,2.9,29.1c-2.9,9-21.5,13.2-20.1,20.2
					c1.4,7.2,11.4,3.2,20.1,2.8c9.7-0.6,19.4,0.5,28.7,3.2c3.2-4.6,5.7-9.7,7.3-15.1c1.6-5.2,2.3-10.6,2.1-16
					c-0.3-9.6-2.3-19.1-5.7-28.1l-0.3-0.5l0,0c-2.8-7.4-8.6-14.8-4.6-18.7C118.3,32.2,111.1,37.5,104.6,42"/>
			</defs>
			<clipPath id="SVGID_6_">
				<use xlink:href="#SVGID_5_"  style="overflow:visible;"/>
			</clipPath>
			<g class="st31">
				<path class="st12" d="M117.1,59.5c0-0.1-0.1-0.2-0.2-0.3c3.4,0.8,6.8-1.2,7.7-4.6c0.2-1,0.2-2.1,0-3.1l0.3,0.2l0.1,0.1l0.3,0.2
					l0.5,0.2h0.1l0.2,0.1c0,0.2,0,0.5,0,0.7c0,4.2-3.4,7.7-7.6,7.8c-0.2,0-0.5,0-0.7,0l-0.1-0.2v-0.1c-0.1-0.2-0.2-0.3-0.3-0.5
					l-0.2-0.2C117.2,59.7,117.1,59.6,117.1,59.5 M104.6,76.4L104.6,76.4c-5.1,0-9.3-4.1-9.3-9.1v-0.1l0,0c-0.4,0.2-0.9,0.3-1.3,0.4
					c0.2,5.5,4.7,10,10.2,10.1C104.3,77.2,104.4,76.8,104.6,76.4 M106.6,80.6c0.3-6.1,5.2-11.1,11.3-11.4c0-0.3-0.1-0.6-0.1-0.9
					s0-0.3,0-0.4c-6.8,0.4-12.2,5.8-12.5,12.6c0.2,0,0.3,0,0.5,0S106.3,80.5,106.6,80.6 M105.3,74.6L105.3,74.6l0.3-0.6l0.2-0.3
					c0,0,0.1-0.1,0.1-0.1l0.2-0.3l0,0c-3.4,0.9-6.9-1.2-7.7-4.6c-0.1-0.5-0.2-1-0.2-1.5c0-0.5,0.1-1,0.2-1.5l0,0L98,65.9L97.8,66
					l-0.2,0.2l-0.5,0.3H97l-0.2,0.1c0,0.2,0,0.5,0,0.7c0,4.2,3.5,7.7,7.7,7.6c0.2,0,0.5,0,0.7,0C105.3,74.8,105.3,74.8,105.3,74.6
					 M118.4,62.3L118.4,62.3c0.1,0.4,0.2,0.9,0.3,1.3c5.5-0.2,10-4.7,10.1-10.2c-0.4-0.1-0.9-0.2-1.3-0.4V53
					C127.6,58.1,123.5,62.2,118.4,62.3 M85.4,53.3c0-2.7,2.2-4.9,4.8-4.9c2.7,0,4.9,2.2,4.9,4.8c0,2.7-2.2,4.9-4.8,4.9c0,0,0,0,0,0
					C87.7,58.1,85.5,55.9,85.4,53.3C85.4,53.3,85.4,53.3,85.4,53.3 M86.8,53.3c0,2,1.5,3.6,3.5,3.6c2,0,3.6-1.5,3.6-3.5
					s-1.5-3.6-3.5-3.6c0,0,0,0-0.1,0C88.4,49.8,86.8,51.3,86.8,53.3 M118.4,58c-2.7,0-4.9-2.2-4.9-4.8c0-2.7,2.2-4.9,4.8-4.9
					s4.9,2.2,4.9,4.8c0,0,0,0,0,0C123.3,55.8,121.1,57.9,118.4,58C118.4,58,118.4,58,118.4,58 M121.9,53.1c0-2-1.6-3.5-3.6-3.5
					s-3.5,1.6-3.5,3.6c0,2,1.6,3.5,3.6,3.5c0,0,0,0,0,0C120.4,56.6,121.9,55,121.9,53.1 M105.1,54.4c0,0.3,0,0.6-0.1,0.9
					c6.1,0.3,11.1,5.2,11.4,11.3l0,0c0.3,0,0.6-0.1,0.9-0.1h0.4c-0.4-6.8-5.8-12.2-12.6-12.5C105.1,54.1,105.1,54.2,105.1,54.4
					 M103.7,52.4v-0.5c0-0.3,0.1-0.6,0.1-0.9l0,0c-6.1-0.3-11-5.1-11.4-11.3l0,0l-0.8,0.1H91C91.4,46.7,96.9,52.1,103.7,52.4
					 M90.4,59.6c-0.5,0-1-0.1-1.6-0.2c0.1,0.1,0.1,0.2,0.2,0.3c0,0,0.1,0.1,0.1,0.2l0.2,0.2c0.1,0.2,0.2,0.3,0.3,0.5
					c0.1,0.2,0,0,0,0.1c0,0.1,0.1,0.2,0.1,0.2c0.2,0,0.5,0,0.7,0c4.2,0,7.6-3.5,7.6-7.7c0-0.2,0-0.5,0-0.7l-0.2-0.1l-0.1,0l-0.5-0.2
					l-0.3-0.2l-0.1,0l-0.3-0.2c0.9,3.4-1.2,6.8-4.6,7.7C91.5,59.5,90.9,59.6,90.4,59.6 M99.6,67.2c0-2.7,2.2-4.9,4.8-4.9
					s4.9,2.2,4.9,4.8c0,2.7-2.2,4.9-4.8,4.9C101.8,72.1,99.6,69.9,99.6,67.2 M100.9,67.2c0,2,1.6,3.5,3.6,3.5c2,0,3.5-1.6,3.5-3.6
					c0-2-1.6-3.5-3.6-3.5C102.5,63.7,100.9,65.3,100.9,67.2C100.9,67.2,100.9,67.2,100.9,67.2 M90.4,62.4L90.4,62.4
					c0.1,0.4,0.2,0.9,0.3,1.3c5.5-0.2,9.9-4.7,10.1-10.2c-0.4-0.1-0.9-0.2-1.3-0.4v0.1C99.5,58.3,95.4,62.4,90.4,62.4 M104.3,58
					L104.3,58c5.1,0,9.3,4.1,9.3,9.1c0,0,0,0,0,0.1l0,0c0.4-0.2,0.9-0.3,1.3-0.4c-0.2-5.5-4.7-9.9-10.2-10.1
					C104.6,57.2,104.5,57.6,104.3,58 M103.6,59.8L103.6,59.8c-0.1,0.2-0.2,0.4-0.2,0.6l-0.2,0.3l-0.1,0.2l-0.2,0.3l0,0
					c0.5-0.1,1-0.2,1.5-0.2c3.5,0,6.4,2.8,6.4,6.3c0,0.5-0.1,1-0.2,1.5l0,0l0.3-0.2l0.1-0.1l0.3-0.2l0.5-0.2h0.1l0.2-0.1
					c0-0.2,0-0.5,0-0.7c0-4.2-3.5-7.7-7.7-7.6c0,0,0,0,0,0c-0.2,0-0.5,0-0.7,0L103.6,59.8 M102.3,53.8c-0.3,6.1-5.2,11-11.3,11.4
					c0,0.3,0.1,0.6,0.1,0.8c0,0.3,0,0.3,0,0.5c6.8-0.4,12.2-5.8,12.5-12.6h-0.4C102.9,53.9,102.6,53.9,102.3,53.8 M117.6,39.8
					c-6.8,0.4-12.1,5.8-12.5,12.6h0.5c0.3,0,0.6,0,0.8,0.1c0.3-6.1,5.2-11,11.3-11.4c0-0.3-0.1-0.6-0.1-0.9L117.6,39.8 M118.4,45.4
					c-4.2,0-7.6,3.5-7.6,7.7c0,0.2,0,0.5,0,0.7L111,54h0.1l0.5,0.3l0.2,0.1l0.2,0.1l0.3,0.2c-0.1-0.5-0.2-1-0.2-1.5
					c0-3.5,2.8-6.4,6.3-6.4c0.5,0,1,0.1,1.5,0.2l-0.2-0.3l-0.1-0.1l-0.2-0.3l-0.3-0.4c0,0,0-0.1-0.1-0.1l-0.1-0.2
					C118.8,45.4,118.6,45.4,118.4,45.4 M107.9,52.9c0.4,0.1,0.9,0.2,1.3,0.4v-0.1c0-5.1,4-9.2,9.1-9.2h0.1c-0.2-0.4-0.3-0.9-0.4-1.3
					C112.5,42.8,108.1,47.3,107.9,52.9 M118.9,37c0,0.3,0.1,0.6,0.1,0.9v0.5c6.8-0.4,12.1-5.8,12.5-12.6h-0.4l-0.9-0.1
					C129.9,31.7,125,36.6,118.9,37 M116.2,38.5L116.2,38.5l0.9-0.1h0.4c-0.4-6.8-5.8-12.2-12.6-12.5c0,0.2,0,0.3,0,0.5
					s0,0.6-0.1,0.9l0,0C111,27.5,115.9,32.4,116.2,38.5 M113.7,81.2c0-2.7,2.2-4.9,4.8-4.9s4.9,2.2,4.9,4.8c0,2.7-2.2,4.9-4.8,4.9
					C115.9,86,113.7,83.9,113.7,81.2 M115,81.2c0,2,1.6,3.5,3.6,3.5s3.5-1.6,3.5-3.6s-1.6-3.5-3.6-3.5c0,0,0,0,0,0
					C116.6,77.6,115,79.2,115,81.2 M93,70.8c-0.4-0.9-0.8-1.9-0.9-2.8c-0.3,0-0.1,0.1-0.4,0.1h-0.5c0.4,6.8,5.9,12.1,12.6,12.5V80
					c0-0.3,0-0.6,0.1-0.9C98.9,78.9,94.5,75.6,93,70.8 M90.5,76.5c2.7,0,4.9,2.2,4.9,4.8s-2.2,4.9-4.8,4.9c-2.7,0-4.9-2.2-4.9-4.8
					C85.6,78.7,87.8,76.5,90.5,76.5C90.5,76.5,90.5,76.5,90.5,76.5 M87,81.4c0,2,1.6,3.5,3.6,3.5c2,0,3.5-1.6,3.5-3.6
					c0-1.9-1.6-3.5-3.6-3.5C88.5,77.8,87,79.4,87,81.4 M117.5,94.5h0.4c-0.4-6.8-5.8-12.2-12.6-12.5c0,0.2,0,0.3,0,0.5
					s-0.1,0.6-0.1,0.9l0,0c6.1,0.3,11,5.2,11.4,11.3C116.8,94.6,117.2,94.5,117.5,94.5 M132.5,62.2c2.7,0,4.9,2.2,4.9,4.8
					c0,2.7-2.2,4.9-4.8,4.9c-2.7,0-4.9-2.2-4.9-4.8C127.6,64.4,129.8,62.2,132.5,62.2C132.5,62.2,132.5,62.2,132.5,62.2 M132.5,63.5
					c-2,0-3.5,1.6-3.5,3.6c0,2,1.6,3.5,3.6,3.5c2,0,3.5-1.6,3.5-3.6c0,0,0,0,0,0C136,65.1,134.4,63.5,132.5,63.5 M126.3,65.5
					l-0.3,0.2l-0.2,0.1l-0.2,0.2l-0.5,0.3h-0.1l-0.2,0.1c0,0.2,0,0.5,0,0.7c0,4.2,3.4,7.7,7.6,7.7c0,0,0.1,0,0.1,0
					c0.2,0,0.5,0,0.7,0c0-0.1,0.1-0.2,0.1-0.2v-0.1l0.2-0.5l0.1-0.3c0,0,0.1-0.1,0.1-0.1l0.2-0.3l0,0c-3.4,0.9-6.9-1.2-7.7-4.6
					c-0.1-0.5-0.2-1-0.2-1.5c0-0.5,0.1-1,0.2-1.5l0,0 M119.6,39.8h-0.5c0.4,6.8,5.8,12.2,12.6,12.5v-0.5c0-0.3,0.1-0.6,0.1-0.9l0,0
					c-6.1-0.3-11-5.2-11.4-11.3l0,0L119.6,39.8 M105.5,102.6l0.2-0.5c0.1-0.1,0.1-0.2,0.2-0.3l0.1-0.1c0.1-0.1,0.1-0.2,0.2-0.3l0,0
					c-0.5,0.1-1,0.2-1.5,0.2c-3.5,0-6.4-2.8-6.4-6.3c0-0.5,0.1-1,0.2-1.5l0,0l-0.3,0.2L98,94l-0.2,0.2l-0.5,0.3h-0.1L97,94.6
					c0,0.2,0,0.5,0,0.7c0,4.2,3.5,7.6,7.7,7.6c0.2,0,0.5,0,0.7,0l0.1-0.2L105.5,102.6 M104.6,104.4c-5.1,0-9.2-4.1-9.2-9.1v-0.1l0,0
					c-0.4,0.2-0.9,0.3-1.3,0.4c0.2,5.5,4.7,10,10.2,10.1c0.1-0.4,0.2-0.9,0.4-1.3L104.6,104.4 M110.8,96.8l0.3-0.2l0.1-0.1l0.3-0.2
					l0.5-0.2h0.1l0.2-0.1c0-0.2,0-0.5,0-0.7c0-4.2-3.5-7.7-7.7-7.6c-0.2,0-0.5,0-0.7,0c0,0.1-0.1,0.1-0.1,0.2V88l-0.2,0.5l-0.2,0.3
					c0,0.1-0.1,0.1-0.1,0.2c0,0.1-0.1,0.2-0.2,0.3l0,0c3.4-0.9,6.9,1.2,7.7,4.7c0.1,0.5,0.2,1,0.2,1.5
					C111,95.8,110.9,96.3,110.8,96.8L110.8,96.8 M113.8,95.3c0.4-0.2,0.9-0.3,1.3-0.4c-0.2-5.6-4.7-10-10.3-10.1
					c-0.1,0.4-0.2,0.9-0.4,1.3h0.1c5.1,0,9.2,4.1,9.2,9.1C113.7,95.2,113.7,95.2,113.8,95.3L113.8,95.3z M76.6,86.3
					c5.1,0,9.2,4.1,9.2,9.1c0,0,0,0.1,0,0.1c0.4-0.2,0.9-0.3,1.3-0.4c-0.2-5.6-4.7-10-10.3-10.2c-0.1,0.4-0.2,0.9-0.4,1.3L76.6,86.3
					 M99.7,95.3c0-2.7,2.2-4.9,4.8-4.9s4.9,2.2,4.9,4.8c0,2.7-2.2,4.9-4.8,4.9C102,100.1,99.8,97.9,99.7,95.3 M101.1,95.3
					c0,2,1.6,3.5,3.6,3.5c2,0,3.5-1.6,3.5-3.6c0-2-1.6-3.5-3.6-3.5C102.6,91.7,101.1,93.3,101.1,95.3
					C101.1,95.3,101.1,95.3,101.1,95.3 M127.8,95.1c0-2.7,2.2-4.9,4.8-4.9s4.9,2.2,4.9,4.8c0,2.7-2.2,4.9-4.8,4.9
					C130,100,127.8,97.8,127.8,95.1 M129.1,95.1c0,2,1.6,3.5,3.6,3.5c2,0,3.5-1.6,3.5-3.6c0-2-1.6-3.5-3.6-3.5
					C130.7,91.6,129.1,93.2,129.1,95.1C129.1,95.1,129.1,95.1,129.1,95.1 M76.5,89.1c3.5,0,6.4,2.8,6.4,6.3c0,0.5-0.1,1-0.2,1.6l0,0
					l0.3-0.2l0.1-0.1l0.3-0.2l0.5-0.2H84l0.2-0.1c0-0.2,0-0.5,0-0.7c0-4.2-3.4-7.7-7.6-7.7c0,0-0.1,0-0.1,0h-0.7
					c0,0.1-0.1,0.2-0.1,0.2c0,0,0,0.1,0,0.1c-0.1,0.2-0.2,0.3-0.2,0.5l-0.2,0.3c0,0.1-0.1,0.1-0.1,0.2L75,89.2l0,0
					C75.5,89.1,76.1,89.1,76.5,89.1 M88.6,94.7L88.6,94.7c0.3,0,0.6-0.1,0.9-0.1h0.4c-0.4-6.8-5.9-12.2-12.7-12.5c0,0.2,0,0.3,0,0.5
					s-0.1,0.6-0.1,0.9l0,0C83.2,83.8,88.1,88.6,88.6,94.7 M133.6,102.4l0.2-0.5c0.1-0.1,0.1-0.2,0.2-0.3l0.1-0.1l0.2-0.3l0,0
					c-3.4,0.9-6.9-1.2-7.7-4.6c-0.3-1-0.3-2.1,0-3.1l0,0l-0.3,0.1l-0.2,0.1l-0.2,0.2l-0.5,0.3h-0.1l-0.2,0.1c0,0.2,0,0.5,0,0.7
					c0,4.2,3.5,7.7,7.7,7.7c0.2,0,0.5,0,0.7,0l0.1-0.2L133.6,102.4 M76.5,104.6c-5.1,0-9.2-4-9.2-9.1v-0.1l0,0
					c-0.4,0.2-0.9,0.3-1.3,0.4c0.2,5.5,4.7,10,10.2,10.1C76.3,105.5,76.5,105,76.5,104.6L76.5,104.6 M132.6,104.3
					c-5.1,0-9.2-4.1-9.2-9.1v-0.1l0,0c-0.4,0.2-0.9,0.3-1.3,0.4c0.2,5.5,4.7,10,10.2,10.1C132.4,105.1,132.6,104.7,132.6,104.3
					L132.6,104.3 M104.2,32.8c3.5,0,6.4,2.8,6.4,6.3c0,0,0,0,0,0c0,0.5-0.1,1-0.2,1.5l0,0l0.3-0.2l0.1-0.1l0.3-0.2l0.5-0.2h0.1
					l0.2-0.1c0-0.2,0-0.5,0-0.7c0-4.2-3.5-7.7-7.7-7.6c0,0,0,0,0,0c-0.2,0-0.5,0-0.7,0c0,0.1-0.1,0.1-0.1,0.2c0,0,0,0.1,0,0.1
					c-0.1,0.2-0.2,0.3-0.2,0.5l-0.2,0.3l-0.1,0.2l-0.2,0.3l0,0C103.2,32.8,103.7,32.8,104.2,32.8 M99.4,39.2c0-2.7,2.2-4.9,4.8-4.9
					s4.9,2.2,4.9,4.8c0,2.7-2.2,4.9-4.8,4.9C101.6,44,99.4,41.9,99.4,39.2 M100.7,39.2c0,2,1.6,3.5,3.6,3.5c2,0,3.5-1.6,3.5-3.6
					c0-2-1.6-3.5-3.6-3.5C102.3,35.6,100.7,37.2,100.7,39.2 M77.5,102.8c0.1-0.2,0.2-0.3,0.2-0.5l0.2-0.3l0.1-0.1l0.2-0.3l0,0
					c-0.5,0.1-1,0.2-1.5,0.2c-3.5,0-6.4-2.8-6.4-6.3c0-0.5,0.1-1,0.2-1.5l0,0l-0.3,0.2L70,94.2l-0.2,0.1l-0.5,0.3h-0.1l-0.2,0.1
					c0,0.2,0,0.5,0,0.7c0,4.2,3.5,7.6,7.7,7.6c0.2,0,0.5,0,0.7,0l0.1-0.2L77.5,102.8 M131.7,53.8h-0.4c-0.3,0-0.6,0-0.9-0.1
					c-0.3,6.1-5.2,11-11.3,11.4c0,0.3,0.1,0.6,0.1,0.9s0,0.3,0,0.4C125.9,66,131.3,60.5,131.7,53.8 M118.5,74.8c0.5,0,1,0.1,1.5,0.2
					l-0.2-0.3c0,0,0-0.1-0.1-0.1l-0.2-0.3l-0.2-0.5c0,0,0-0.1,0-0.1l-0.1-0.2c-0.2,0-0.5,0-0.7,0c-4.2,0-7.6,3.5-7.6,7.7
					c0,0.2,0,0.5,0,0.7l0.2,0.1h0.1l0.5,0.3l0.2,0.1l0.2,0.1l0.3,0.2c-0.1-0.5-0.2-1-0.2-1.5C112.2,77.6,115,74.8,118.5,74.8
					 M104.3,46.8h0.7c0-0.1,0.1-0.2,0.1-0.2c0,0,0-0.1,0-0.1l0.2-0.5l0.2-0.3c0,0,0.1-0.1,0.1-0.1l0.2-0.3l0,0
					c-3.4,0.9-6.9-1.2-7.7-4.6c-0.1-0.5-0.2-1-0.2-1.5c0-0.5,0.1-1,0.2-1.5l0,0l-0.3,0.2l-0.2,0.1c-0.1,0.1-0.2,0.1-0.2,0.1
					c-0.2,0.1-0.3,0.2-0.5,0.3h-0.1l-0.2,0.1c0,0.2,0,0.5,0,0.7C96.6,43.4,100.1,46.8,104.3,46.8 M132.6,76.2L132.6,76.2
					c-5.1,0-9.3-4.1-9.3-9.1V67l0,0c-0.4,0.2-0.9,0.3-1.3,0.4c0.2,5.5,4.7,10,10.2,10.1C132.4,77.1,132.5,76.6,132.6,76.2 M123.2,39
					L123.2,39L123.2,39c-0.4,0.1-0.9,0.2-1.3,0.3c0.2,5.5,4.7,10,10.2,10.1c0.1-0.4,0.2-0.9,0.4-1.3h-0.1
					C127.3,48.2,123.2,44.1,123.2,39 M104.2,30c5.1,0,9.2,4.1,9.2,9.1v0.1l0,0c0.4-0.2,0.9-0.3,1.3-0.4c-0.2-5.5-4.7-10-10.2-10.1
					C104.4,29.1,104.3,29.6,104.2,30L104.2,30 M104,49.6c0.1-0.5,0.2-0.9,0.4-1.3h-0.1c-5.1,0-9.2-4.1-9.2-9.1c0,0,0-0.1,0-0.1l0,0
					c-0.4,0.2-0.9,0.3-1.3,0.4C94,45.1,98.5,49.5,104,49.6 M71.7,95.4c0-2.7,2.2-4.9,4.8-4.9c2.7,0,4.9,2.2,4.9,4.8
					c0,2.7-2.2,4.9-4.8,4.9c0,0,0,0,0,0C73.9,100.3,71.7,98.1,71.7,95.4 M73,95.4c0,2,1.6,3.5,3.6,3.5c2,0,3.5-1.6,3.5-3.6
					c0-2-1.6-3.5-3.6-3.5C74.6,91.9,73,93.5,73,95.4 M118.5,72L118.5,72c-0.1-0.4-0.2-0.9-0.3-1.3c-5.5,0.2-10,4.7-10.1,10.2
					c0.4,0.1,0.9,0.2,1.3,0.4v-0.1C109.4,76.1,113.4,72,118.5,72 M90.6,104.5c-2.7,0-4.8,2.2-4.8,4.9h1.3c0-2,1.6-3.5,3.6-3.5
					c2,0,3.5,1.6,3.5,3.5h1.3C95.5,106.7,93.3,104.5,90.6,104.5C90.7,104.5,90.7,104.5,90.6,104.5 M90.7,103.1c0.5,0,1,0.1,1.5,0.2
					L92,103l-0.1-0.1l-0.2-0.3l-0.2-0.5l-0.1-0.1c0-0.1-0.1-0.1-0.1-0.2c-0.2,0-0.5,0-0.7,0c-4.2,0-7.6,3.5-7.6,7.7h1.3
					C84.3,106,87.1,103.1,90.7,103.1 M90.7,100.3L90.7,100.3c-0.1-0.4-0.2-0.9-0.3-1.3c-5.5,0.2-10,4.7-10.1,10.2
					c0.4,0.1,0.7,0.2,1.1,0.3h0.2C81.5,104.4,85.6,100.3,90.7,100.3 M118.7,100.1L118.7,100.1c-0.1-0.4-0.2-0.9-0.3-1.3
					c-5.5,0.2-10,4.7-10.1,10.2c0.4,0.1,0.7,0.2,1.1,0.3h0.2C109.6,104.3,113.7,100.2,118.7,100.1 M118.7,104.4
					c-2.7,0-4.9,2.1-4.9,4.8h1.3c0-2,1.6-3.5,3.6-3.5c2,0,3.5,1.6,3.5,3.5h1.3C123.5,106.5,121.3,104.4,118.7,104.4
					C118.7,104.4,118.7,104.4,118.7,104.4 M118.7,102.9c0.5,0,1,0.1,1.5,0.2c-0.1-0.1-0.1-0.2-0.2-0.3l-0.1-0.1l-0.2-0.3
					c-0.1-0.2-0.2-0.3-0.2-0.5c0,0,0-0.1,0-0.1c0-0.1-0.1-0.1-0.1-0.2c-0.2,0-0.5,0-0.7,0c-4.2,0-7.6,3.5-7.6,7.7h1.3
					C112.4,105.8,115.2,103,118.7,102.9 M146.8,104.3c-2.7,0-4.9,2.2-4.8,4.9h1.3c0-2,1.6-3.6,3.5-3.6L146.8,104.3z M146.8,100v-0.2
					c-0.1-0.3-0.2-0.7-0.3-1.1c-5.5,0.2-10,4.6-10.2,10.1c0.4,0.1,0.7,0.2,1.1,0.3h0.2c0-5.1,4.1-9.2,9.1-9.2 M146.7,102.7v-1.3
					c-4.2,0-7.6,3.5-7.6,7.7h1.3C140.4,105.6,143.2,102.7,146.7,102.7 M118.6,88.8c4.2,0,7.6-3.5,7.6-7.7c0-0.2,0-0.5,0-0.7
					l-0.2-0.1h-0.1c-0.2-0.1-0.3-0.2-0.5-0.2l-0.3-0.2l-0.2-0.1l-0.3-0.2c0.9,3.4-1.2,6.9-4.6,7.7c-1,0.3-2.1,0.3-3.1,0l0.2,0.3
					c0,0.1,0.1,0.1,0.1,0.2l0.2,0.3c0.1,0.2,0.2,0.3,0.3,0.5v0.1c0,0.1,0.1,0.2,0.1,0.2C118.1,88.8,118.3,88.8,118.6,88.8 M129,81.4
					c-0.4-0.1-0.9-0.2-1.3-0.4v0.1c0,5.1-4,9.2-9.1,9.2h-0.1c0.2,0.4,0.3,0.9,0.4,1.3C124.4,91.4,128.9,86.9,129,81.4 M92.7,95.9
					L92.7,95.9L91.9,96h-0.5c0.4,6.8,5.8,12.1,12.6,12.5V108c0-0.3,0-0.6,0.1-0.9C97.9,106.9,93,102,92.7,95.9 M146.1,97.1
					c0-0.3-0.1-0.6-0.1-0.9s0-0.3,0-0.4c-6.8,0.4-12.1,5.8-12.5,12.6h0.5c0.3,0,0.5,0,0.8,0.1C135.1,102.3,140,97.4,146.1,97.1
					 M91.3,94.6c6.8-0.4,12.2-5.8,12.5-12.6c-0.1,0-0.3,0-0.4,0c-0.3,0-0.6,0-0.9-0.1c-0.3,6.1-5.2,11.1-11.3,11.4
					c0,0.3,0.1,0.6,0.1,0.8C91.3,94.3,91.3,94.4,91.3,94.6 M119.3,94.4c6.8-0.4,12.2-5.8,12.5-12.6h-0.4l-0.9-0.1
					c-0.3,6.1-5.2,11.1-11.3,11.4c0,0.3,0.1,0.6,0.1,0.9C119.3,94.1,119.3,94.3,119.3,94.4 M120.7,95.8L120.7,95.8l-0.8,0.1h-0.5
					c0.4,6.8,5.8,12.2,12.6,12.5v-0.4c0-0.3,0-0.6,0.1-0.9C126,106.7,121.1,101.9,120.7,95.8 M118,97.3c0-0.3-0.1-0.6-0.1-0.9
					s0-0.3,0-0.4c-6.8,0.4-12.1,5.8-12.5,12.6h0.5l0.8,0.1C107.1,102.5,112,97.6,118,97.3 M101,81.6c-0.4-0.1-0.9-0.2-1.3-0.4v0.1
					c0,5.1-4,9.2-9.1,9.2h-0.1c0.2,0.4,0.3,0.9,0.4,1.3C96.4,91.6,100.8,87.1,101,81.6 M90,97.4c0-0.3-0.1-0.6-0.1-0.9s0-0.3,0-0.4
					c-6.8,0.4-12.2,5.9-12.5,12.7c0.2,0,0.3,0,0.5,0s0.5,0,0.8,0.1C79,102.7,83.9,97.8,90,97.4 M89.3,87.9l0.2,0.2l0.3,0.5
					c0,0,0,0.1,0,0.1c0,0.1,0.1,0.2,0.1,0.2c0.2,0,0.5,0,0.7,0c4.2,0,7.6-3.5,7.6-7.7c0-0.2,0-0.5,0-0.7l-0.2-0.1l-0.1-0.1l-0.5-0.2
					L97.1,80l-0.1-0.1l-0.3-0.1c0.9,3.4-1.2,6.9-4.6,7.7c-1,0.3-2.1,0.3-3.1,0l0.2,0.3C89.2,87.8,89.2,87.9,89.3,87.9 M64.6,96.1
					L64.6,96.1l-0.8,0.1h-0.5c0.4,6.8,5.8,12.1,12.6,12.5v-0.4c0-0.3,0.1-0.6,0.1-0.9C69.9,107,65,102.2,64.6,96.1 M118.3,34.2
					L118.3,34.2c0.1,0.4,0.2,0.9,0.3,1.3c5.5-0.2,10-4.7,10.1-10.2c-0.4-0.1-0.7-0.2-1.1-0.3h-0.2C127.4,30,123.3,34.2,118.3,34.2
					 M117,31.7l0.2,0.2c0.1,0.2,0.2,0.3,0.3,0.5s0,0,0,0.1l0.1,0.2c0.2,0,0.5,0,0.7,0c4.2,0,7.6-3.5,7.6-7.7h-1.3
					c0,3.5-2.8,6.4-6.3,6.4c-0.5,0-1-0.1-1.5-0.2c0.1,0.1,0.1,0.2,0.2,0.3C116.9,31.5,117,31.6,117,31.7 M132.1,80.3
					c0-0.4,0-0.9,0-1.3h-0.2c-6.1-0.3-11-5.2-11.4-11.3l-0.8,0.1h-0.5c0.4,6.8,5.8,12.2,12.6,12.5L132.1,80.3z"/>
			</g>
		</g>
		<path class="st32" d="M195.9,126.8l0.4,0.3l0,0c6.6,4.3,15.6,6.9,14.7,12.4c1.1-3.4,3.9-11.9,6.4-19.4s5.5-14.4,4.7-17
			c-2.6-8-16.4-12.3-19.4-21.8c-2.9-9,9.6-23.3,4.4-28.1c-5.4-5-11.1,4.1-17.9,9.5c-7.5,6.1-16,10.9-25.1,14.2
			c0.1,5.6,1.1,11.2,2.9,16.5c1.8,5.1,4.4,9.9,7.7,14.1C180.6,115,187.8,121.5,195.9,126.8"/>
		<g>
			<defs>
				<path id="SVGID_7_" d="M189.2,62.6c-7.5,6.1-16,10.9-25.1,14.2c0.1,5.6,1.1,11.2,2.9,16.5c1.8,5.1,4.4,9.9,7.7,14.1
					c5.9,7.6,13.1,14.2,21.2,19.4l0.4,0.3l0,0c6.6,4.3,15.6,6.9,14.7,12.4c1.1-3.4,3.9-11.9,6.4-19.4c2.5-7.4,5.5-14.4,4.7-17
					c-2.6-8-16.4-12.3-19.4-21.8c-2.9-9,9.6-23.3,4.4-28.1c-0.9-0.9-2.1-1.4-3.3-1.4C199.4,51.6,194.7,58.3,189.2,62.6"/>
			</defs>
			<clipPath id="SVGID_8_">
				<use xlink:href="#SVGID_7_"  style="overflow:visible;"/>
			</clipPath>
			<g class="st33">
				<path class="st34" d="M176.8,101c0,0.2,4.6,18.4,6.1,23.8C178.5,117.7,175.9,109.4,176.8,101"/>
				<path class="st34" d="M177,89.8c1.2,5.9,9.2,28,11.1,31C183.7,116.5,175.6,102.6,177,89.8"/>
				<path class="st34" d="M178.1,82.8c1.3,8,4.1,13.3,9.7,24l3.6,6.8c0.1,0-0.1,0-0.1,0s-0.1-0.2-0.1-0.2s0.2,0.2,0.2,0.2
					s-0.1,0.1-0.1,0c-6-4.3-14.7-18.3-13.3-30.8"/>
				<path class="st34" d="M178.9,78.3c1.5,7.5,11.4,21.1,16,28.5C186.9,99.9,177.9,88.8,178.9,78.3"/>
				<path class="st34" d="M179.8,73.8c1.5,7,11,17.1,17.8,28.1C189.8,95.1,179,84,179.8,73.8"/>
				<path class="st34" d="M180.8,70.1c1.4,6.6,11.6,13.4,20.3,26.9C191.9,89,180.1,79,180.8,70.1"/>
				<path class="st34" d="M181.8,67.2c1.3,5.6,14.6,11.1,22.9,24.2C193.1,81.5,181.4,74.2,181.8,67.2"/>
				<path class="st34" d="M182.7,64.4c0.7,2.8,4.1,3.4,10.9,7.5c5.8,3.6,10.7,8.3,14.6,13.9C194.7,74.5,182.5,69.7,182.7,64.4"/>
				<path class="st34" d="M183.3,62.2c0,0.3,0.2,0.5,0.4,0.7c2.4,2.2,17.3,1,27.6,17c-11.5-10-19.5-11.4-26-15.3
					C182.9,63.2,183.3,62.2,183.3,62.2"/>
				<path class="st34" d="M184.2,60.6c0,0-0.1,0.5,1.2,0.5c2.3,0,18.4-3.2,29.5,13.6c-5.8-5.1-9.4-7.5-17.4-10.2
					S184.2,62,184.2,60.6"/>
				<path class="st34" d="M184.6,58.7c0,0-0.2,0.3,1.5-0.3c13.6-4.8,24.5-0.3,32.1,11.1c-8.8-7.8-17.4-11.8-30.1-10.8
					c-1.1,0.2-2.2,0.2-3.4,0.2C184.6,58.8,184.6,58.7,184.6,58.7"/>
				<path class="st34" d="M185.1,56.7c7.8-7,23.9-8.6,35.8,8.1c-8.1-7.2-15.4-11.5-27-10.4C190.9,54.7,187.9,55.4,185.1,56.7"/>
				<path class="st34" d="M173.3,95.3c-2.6,7-7.1,13-13.1,17.5C166,102.8,168.7,99.6,173.3,95.3"/>
				<path class="st34" d="M174.6,88.2c-5.9,13.2-17.3,18.4-19.6,18.9C157.4,105.6,157.8,104.8,174.6,88.2"/>
				<path class="st34" d="M175.5,82.4c-4.7,9.5-13.7,16.2-24.2,17.9c0,0.1-0.1-0.1,0-0.1h0.3l-0.3,0.2c0,0-0.1-0.2,0-0.1
					C168.1,90.4,172.1,86.3,175.5,82.4"/>
				<path class="st34" d="M176.2,78.1c-4.6,9.3-16.3,13-26.6,14.4C158.9,87.8,170.7,83.8,176.2,78.1"/>
				<path class="st34" d="M177.5,73.4c-4.4,8.9-17.4,11.8-27.6,13.2C156.9,83.1,172.5,78.5,177.5,73.4"/>
				<path class="st34" d="M178.1,69.8c-3.7,7.4-15.7,9.1-28.8,10.8C162.9,74.2,173.2,74.6,178.1,69.8"/>
				<path class="st34" d="M187.4,43c-5.9,15.2-9.9,31-12,47.2c-0.4,3-1,6.2-1.6,9.2c-1.8,8.5-2.1,17.2-0.9,25.8
					c1.3-7.8,2.1-15.7,2.3-23.6c0.2-6.7,0.9-13.4,2.3-19.9c2.7-13,6.6-25.7,11.7-38L187.4,43z"/>
				<path class="st34" d="M211.5,107.7c5.2-2.2,27-7.6,30.4-7.8C236.2,98.8,220.9,99.7,211.5,107.7"/>
				<path class="st34" d="M206.6,112.3c7.1-3.2,12.7-3.8,24.1-5.1l7.3-0.7c0,0.1,0-0.1,0-0.1h-0.2l0.2,0.1c0.1,0,0-0.1,0-0.1
					C231.4,103.9,215.7,104.5,206.6,112.3"/>
				<path class="st34" d="M203.5,115.2c6.8-2.8,22.8-2.2,31-2.5C224.7,110,211.2,108.8,203.5,115.2"/>
				<path class="st34" d="M200.4,118.4c6.3-2.6,19.4-0.4,31.6-0.9C222.5,115,208,112.3,200.4,118.4"/>
				<path class="st34" d="M198,121.2c6-2.4,16.8,2,32.1,1.7C218.8,119.9,204.6,115.9,198,121.2"/>
				<path class="st34" d="M196.3,123.5c5.1-1.9,16.5,5.7,31.3,5.2C213.6,124.8,201.6,119.5,196.3,123.5"/>
				<path class="st34" d="M194.5,125.7c2.6-0.9,4.9,1.4,11.8,4.6c5.9,2.7,12.3,4.1,18.8,4.1C208.9,129.8,198.5,122.7,194.5,125.7"/>
				<path class="st34" d="M213.9,101.8c4.1-5.8,6.5-12.6,6.8-19.6C215.9,92,214.9,95.9,213.9,101.8"/>
				<path class="st34" d="M208.9,106.6c7.3-11.7,5.3-23.5,4.5-25.6C213.6,83.8,213.2,84.5,208.9,106.6"/>
				<path class="st34" d="M204.9,110.4c5-8.8,5.5-19.4,1.3-28.6c0.1,0-0.1,0-0.1,0s0.1,0.2,0.1,0.3v-0.3c0,0-0.2,0.1-0.1,0
					C207.2,100.2,206.1,105.6,204.9,110.4"/>
				<path class="st34" d="M201.9,113.2c5-8.6,1.6-19.8-2.8-28.7C200.3,94.4,203.4,105.9,201.9,113.2"/>
				<path class="st34" d="M198.8,116.8c4.7-8.3,0.3-19.6-4-28.4C195.8,95.7,200.2,110.1,198.8,116.8"/>
				<path class="st34" d="M196.3,119.3c3.8-6.9-1.2-17.2-6.7-28.5C191.6,104.9,197.5,112.8,196.3,119.3"/>
				<path class="st34" d="M193.9,122c3-5.5-3.1-14.3-9.8-27.7C186.2,109.3,194.9,116.3,193.9,122"/>
				<path class="st34" d="M191.9,124.1c2.2-4.3-5.8-11-13.5-26.2c1.1,6.9,4.1,13.3,8.6,18.6C190.5,120.5,192.3,121.8,191.9,124.1"/>
				<path class="st34" d="M180.1,140.8c8.9-12.7,19.2-24.3,30.9-34.6c2.2-2,4.4-4.1,6.4-6.2c5.7-6,12.5-10.9,19.9-14.4
					c-5.5,5.2-11.3,10-17.4,14.4c-5.2,3.7-10.1,7.9-14.5,12.4c-8.8,9.1-16.8,18.9-23.8,29.5L180.1,140.8z"/>
			</g>
		</g>
		<path class="st6" d="M189.1,62.6l0.4-0.3l0,0c6.2-5,11.4-12.7,16.3-10.1c-2.9-2.1-10.1-7.3-16.5-12.1s-12-9.7-14.7-9.7
			c-8.4,0-16.8,11.7-26.8,11.7c-9.5,0-19.2-16.4-25.4-12.9c-6.4,3.6,0.5,11.8,3.5,20c3.5,9,5.5,18.6,5.9,28.2
			c5.4,1.6,10.9,2.4,16.6,2.3c5.4-0.1,10.7-1.1,15.8-3C173.2,73.5,181.6,68.7,189.1,62.6"/>
		<g>
			<defs>
				<path id="SVGID_9_" d="M122.5,29.2c-6.4,3.6,0.5,11.8,3.5,20c3.5,9,5.5,18.6,5.8,28.2c5.4,1.6,10.9,2.4,16.6,2.3
					c5.4-0.1,10.7-1.1,15.8-3c9-3.3,17.5-8.1,24.9-14.1l0.4-0.3l0,0c6.2-5,11.4-12.8,16.3-10.2c-2.9-2.1-10.1-7.3-16.5-12.1
					s-12-9.7-14.7-9.7c-8.4,0-16.8,11.8-26.8,11.8c-8.6,0-17.3-13.4-23.5-13.4C123.7,28.7,123,28.9,122.5,29.2"/>
			</defs>
			<clipPath id="SVGID_10_">
				<use xlink:href="#SVGID_9_"  style="overflow:visible;"/>
			</clipPath>
			<g class="st35">
				<path class="st36" d="M199.4,48c0,0,0,0.1-0.1,0.1v0.5c-0.3,0.1-0.5,0.4-0.5,0.7c0,0.4,0.3,0.8,0.8,0.8s0.8-0.3,0.8-0.8
					c0-0.4-0.3-0.7-0.7-0.8v-0.4l0.4-0.4l-0.3-0.2L199.4,48z"/>
				<path class="st36" d="M196.6,47.8v0.8c-0.3,0.1-0.6,0.4-0.6,0.7c0,0.4,0.4,0.7,0.8,0.7c0.4,0,0.6-0.3,0.7-0.7
					c0-0.4-0.2-0.7-0.6-0.7v-0.7l1.4-1.4l-0.3-0.2l-1.4,1.4C196.6,47.7,196.6,47.7,196.6,47.8"/>
				<path class="st36" d="M195,55.4c-0.1-0.4-0.5-0.7-0.9-0.6c-0.4,0.1-0.7,0.5-0.6,0.9s0.5,0.7,0.9,0.6c0.3-0.1,0.5-0.3,0.6-0.6
					h1.4c0.1-0.1,0.2-0.2,0.4-0.3H195z"/>
				<path class="st36" d="M137.6,77.7c0,0,0.1,0,0.1,0h6.1c0,0,0.1,0,0.1,0l1.9-1.8c0,0,0-0.1,0-0.1v-2.3l7.4-7.4h10l2,2
					c0,0,0.1,0,0.1,0h10.5c0,0,0.1,0,0.1,0l6.4-6.4c0.3,0.3,0.8,0.2,1-0.1c0.3-0.3,0.2-0.8-0.1-1c-0.3-0.3-0.8-0.2-1,0.1
					c-0.1,0.1-0.2,0.3-0.2,0.5c0,0.1,0,0.2,0.1,0.3l-6.3,6.4h-10.3l-2-2c0,0-0.1,0-0.1-0.1h-10.2c0,0-0.1,0-0.1,0.1l-7.5,7.5
					c0,0,0,0.1,0,0.1v2.3l-1.7,1.7h-6l-1.3-1.3c0,0-0.1,0-0.1,0h-5.6v0.3h5.5L137.6,77.7z"/>
				<path class="st36" d="M138.8,76c0,0,0.1,0,0.1,0h4.1c0,0,0.1,0,0.1,0l1.1-1.1c0,0,0-0.1,0-0.1v-2.4l8.6-8.5h5.2c0,0,0.1,0,0.1,0
					l1.1-1.1h7.3l1.3,1.3c0,0,0.1,0,0.1,0.1h6.9c0,0,0.1,0,0.1-0.1l1.9-1.9c0,0,0-0.1,0.1-0.1v-2.5l1.8-1.8c0.1,0.1,0.3,0.1,0.4,0.1
					c0.4,0,0.8-0.3,0.8-0.8c0-0.4-0.3-0.8-0.7-0.8c0,0,0,0,0,0c-0.4,0-0.7,0.3-0.8,0.7c0,0,0,0,0,0c0,0.1,0,0.3,0.1,0.4l-1.9,1.8
					c0,0,0,0.1-0.1,0.1v2.4l-1.8,1.9H168l-1.2-1.3c0,0-0.1,0-0.1,0h-7.4c0,0-0.1,0-0.1,0l-1.1,1.1h-5.2c0,0-0.1,0-0.1,0l-8.6,8.6
					c0,0,0,0.1,0,0.1v2.4l-1,1h-4l-0.8-0.8c0,0-0.1,0-0.1,0h-7.5c0,0.1,0,0.2,0,0.3h7.3L138.8,76z"/>
				<path class="st36" d="M133.7,72h9.3c0,0,0.1,0,0.1-0.1l9.3-9.3h4.8c0,0,0.1,0,0.1-0.1l1.8-1.8h0.2c0.1,0.3,0.4,0.6,0.7,0.6
					c0.4,0,0.8-0.3,0.8-0.7S160.4,60,160,60c-0.4,0-0.7,0.2-0.7,0.6H159c0,0-0.1,0-0.1,0l-1.7,1.8h-4.8c0,0-0.1,0-0.1,0.1l-9.3,9.3
					h-9.1l-3.1-3.1c0,0.2,0,0.3,0,0.5l2.9,2.9C133.6,72,133.7,72,133.7,72"/>
				<path class="st36" d="M134.3,70.6h8.5c0,0,0.1,0,0.1,0l11.6-11.7c0.1,0.1,0.3,0.2,0.4,0.2c0.4,0,0.8-0.3,0.8-0.8
					c0-0.4-0.3-0.8-0.8-0.8s-0.8,0.3-0.8,0.8c0,0.1,0,0.3,0.1,0.4l-11.6,11.6h-8.3l-3.9-4l0.1,0.5l3.7,3.7
					C134.3,70.5,134.3,70.5,134.3,70.6"/>
				<path class="st36" d="M134.3,63.2L134.3,63.2h7.8l0.7,0.7c0,0,0.1,0,0.1,0h2.1c0,0,0.1,0,0.1,0l1.2-1.2c0.1,0.1,0.3,0.2,0.4,0.2
					c0.4,0,0.8-0.3,0.8-0.8s-0.3-0.8-0.8-0.8c-0.4,0-0.8,0.3-0.8,0.8c0,0,0,0,0,0c0,0.1,0,0.2,0.1,0.3l-1.2,1.2H143l-0.7-0.7
					c0,0-0.1,0-0.1,0h-7.8l-0.3-0.3l0.3,0.3L134.3,63.2z"/>
				<path class="st36" d="M135,62.2c0,0,0.1,0,0.1,0h8c0.1,0.4,0.5,0.7,0.9,0.6c0.4-0.1,0.7-0.5,0.6-0.9s-0.5-0.7-0.9-0.6
					c-0.3,0.1-0.5,0.3-0.6,0.6h-7.9l-2.4-2.4c0,0-0.1,0-0.1,0h-4.4c0,0.1,0,0.1,0,0.2v0.1h4.2L135,62.2z"/>
				<path class="st36" d="M134.2,63.2c0,0,0.1,0,0.1,0l0,0C134.3,63.2,134.2,63.2,134.2,63.2c-1.1-1.1-2.2-2.4-2.4-2.5h-3.3
					c0,0,0,0,0,0.1h3.2L134.2,63.2z"/>
				<path class="st36" d="M132,60.6c0,0,0.1,0,0.1,0.1l0.1,0.1c0.3,0.2,0.8,0.8,1.9,1.8l-2.1-2.1c0,0-0.1,0-0.1,0h-3.4
					c0,0.1,0,0.1,0,0.2L132,60.6"/>
				<path class="st36" d="M132.1,60.6c0,0-0.1-0.1-0.1-0.1h-3.5c0,0,0,0.1,0,0.1h3.3c0.2,0.1,1.3,1.4,2.4,2.5c0,0,0.1,0,0.1,0
					l0.1-0.3l-0.3-0.3C133,61.5,132.4,61,132.1,60.6L132.1,60.6z"/>
				<path class="st36" d="M135.4,61.2c0,0,0.1,0,0.1,0h5.6c0,0,0.1,0,0.1,0l0.7-0.7h6.1l0.8,0.8c-0.1,0.1-0.2,0.3-0.1,0.4
					c0,0.4,0.3,0.8,0.8,0.8c0.4,0,0.8-0.3,0.8-0.8c0-0.4-0.3-0.8-0.8-0.8c-0.1,0-0.3,0-0.4,0.1l-0.9-0.8c0,0-0.1,0-0.1,0h-6.3
					c0,0-0.1,0-0.1,0L141,61h-5.5l-2.4-2.4c0,0-0.1,0-0.1,0h-5l0.1,0.3h4.9L135.4,61.2z"/>
				<path class="st36" d="M141.4,59.4c0,0,0.1,0,0.1,0H152c0,0,0.1,0,0.1,0l3.2-3.2c0.1,0.1,0.3,0.2,0.5,0.2c0.4,0,0.8-0.3,0.8-0.8
					s-0.3-0.8-0.8-0.8c-0.4,0-0.8,0.3-0.8,0.8c0,0,0,0,0,0c0,0.1,0,0.2,0.1,0.3l-3.2,3.2h-10.4l-1.6-1.6c0,0-0.1,0-0.1,0h-12.2
					c0,0.1,0,0.2,0.1,0.3c0,0,0,0,0,0.1h12L141.4,59.4z"/>
				<path class="st36" d="M133.1,47.4l2.7-2.7h6l1.5,1.5c0,0,0.1,0,0.1,0h4.2l1.2,1.2c0,0,0.1,0,0.1,0h1c0,0,0.1,0,0.1,0l0.9-0.9
					h2.6l1.7,1.7c-0.1,0.1-0.1,0.2-0.1,0.4c0,0.4,0.3,0.8,0.8,0.8c0.4,0,0.8-0.3,0.8-0.8c0-0.4-0.3-0.8-0.8-0.8
					c-0.2,0-0.3,0-0.4,0.1l-1.8-1.8c0,0-0.1,0-0.1,0h-2.8c0,0-0.1,0-0.1,0l-0.9,0.9H149l-1.2-1.2c0,0-0.1,0-0.1,0h-4.2l-1.5-1.5
					c0,0-0.1,0-0.1,0h-6.1c0,0-0.1,0-0.1,0l-2.7,2.7h-9.1l0.2,0.3h9C133,47.5,133,47.5,133.1,47.4"/>
				<path class="st36" d="M141.6,55.9l0.6-0.6c0.1,0.1,0.3,0.1,0.4,0.1c0.4,0,0.7-0.4,0.7-0.8c0-0.4-0.3-0.6-0.7-0.7
					c-0.4,0-0.8,0.4-0.8,0.8c0,0,0,0,0,0c0,0.1,0,0.3,0.1,0.4l-0.5,0.5h-14.2c0,0.1,0.1,0.2,0.1,0.3l0,0h14.2
					C141.5,56,141.6,56,141.6,55.9"/>
				<path class="st36" d="M140.3,55l1.3-1.3h3.3l0.5,0.5c-0.2,0.1-0.2,0.3-0.2,0.6c0,0.4,0.3,0.7,0.8,0.7c0.4,0,0.7-0.3,0.7-0.8
					c0-0.4-0.3-0.7-0.7-0.7c-0.1,0-0.1,0-0.2,0l-0.6-0.6c0,0-0.1,0-0.1,0h-3.5c0,0-0.1,0-0.1,0l-1.3,1.3h-13.2
					c0,0.1,0.1,0.2,0.1,0.3h13.2C140.2,55,140.2,55,140.3,55"/>
				<path class="st36" d="M137.4,54.1l0.5-0.5c0.1,0.1,0.3,0.1,0.4,0.1c0.4,0,0.8-0.3,0.8-0.8s-0.3-0.8-0.8-0.8s-0.8,0.3-0.8,0.8
					c0,0.1,0,0.3,0.1,0.4l-0.5,0.5h-10.6c0,0.1,0.1,0.2,0.1,0.3h10.6C137.3,54.2,137.4,54.2,137.4,54.1"/>
				<path class="st36" d="M136.3,53.1l1.5-1.5h2.9c0,0,0.1,0,0.1,0l1.2-1.2h2.8l0.7,0.7c-0.3,0.3-0.3,0.8,0,1s0.8,0.3,1,0
					c0.3-0.3,0.3-0.8,0-1c-0.1-0.1-0.3-0.2-0.5-0.2c-0.1,0-0.2,0-0.2,0l-0.8-0.8c0,0-0.1,0-0.1,0h-2.9c0,0-0.1,0-0.1,0l-1.1,1.2
					h-2.8c0,0-0.1,0-0.1,0l-1.5,1.5h-9.9l0.1,0.3h9.8C136.2,53.1,136.2,53.1,136.3,53.1"/>
				<path class="st36" d="M135.6,52.1l1.7-1.7h2.8c0,0,0.1,0,0.1,0l1-1h5.1l1.9,1.9c-0.2,0.4-0.1,0.8,0.2,1c0.4,0.2,0.8,0.1,1-0.2
					c0.2-0.4,0.1-0.8-0.2-1c-0.1-0.1-0.3-0.1-0.4-0.1c-0.1,0-0.3,0-0.4,0.1l-1.9-1.9c0,0-0.1,0-0.1,0h-5.2c0,0-0.1,0-0.1,0l-1,1
					h-2.8c0,0-0.1,0-0.1,0l-1.7,1.6h-9.6l0.1,0.3h9.5C135.5,52.1,135.6,52.1,135.6,52.1"/>
				<path class="st36" d="M135.5,50.8l2.3-2.2h0.8c0.1,0.4,0.5,0.7,0.9,0.6c0.4-0.1,0.7-0.5,0.6-0.9s-0.5-0.7-0.9-0.6
					c-0.3,0.1-0.5,0.3-0.6,0.6h-0.9c0,0-0.1,0-0.1,0l-2.2,2.2h-10l0.1,0.3L135.5,50.8C135.5,50.8,135.5,50.8,135.5,50.8"/>
				<path class="st36" d="M135.1,49.6l2.4-2.5h3.2l1.2,1.2c0,0,0.1,0,0.1,0h4.5l1.7,1.7c0,0,0.1,0,0.1,0h2.3l1,1
					c-0.2,0.4-0.1,0.8,0.2,1c0.4,0.2,0.8,0.1,1-0.2c0.2-0.4,0.1-0.8-0.2-1c-0.1-0.1-0.3-0.1-0.4-0.1c-0.1,0-0.3,0-0.4,0.1l-1-1
					c0,0-0.1,0-0.1,0h-2.3l-1.7-1.8c0,0-0.1,0-0.1,0h-4.5l-1.2-1.2c0-0.1,0-0.1-0.1-0.1h-3.3c0,0-0.1,0-0.1,0l-2.4,2.5h-10.2
					l0.1,0.2v0.1h10C134.9,49.6,135,49.6,135.1,49.6"/>
				<path class="st36" d="M133.6,48.5l2.6-2.6h4.9l1.3,1.3c0,0,0.1,0,0.1,0h4.4l1.5,1.5c0,0,0.1,0,0.1,0h2.4
					c0.1,0.4,0.5,0.7,0.9,0.6c0.3-0.1,0.6-0.4,0.6-0.7c0-0.4-0.3-0.7-0.8-0.7c-0.3,0-0.6,0.2-0.7,0.6h-2.4l-1.5-1.5c0,0-0.1,0-0.1,0
					h-4.4l-1.3-1.3c0,0-0.1,0-0.1,0h-5c0,0-0.1,0-0.1,0l-2.6,2.6h-9.1l0,0c0,0.1,0.1,0.2,0.1,0.3h9
					C133.5,48.5,133.6,48.5,133.6,48.5"/>
				<path class="st36" d="M157.3,40.1v11.2l-0.9,0.8c-0.3-0.3-0.8-0.3-1.1,0c-0.3,0.3-0.3,0.8,0,1.1c0.3,0.3,0.8,0.3,1.1,0
					c0.2-0.1,0.2-0.3,0.2-0.5c0-0.1,0-0.1,0-0.2l1-0.9c0,0,0-0.1,0-0.1V40c0,0,0-0.1,0-0.1l-0.6-0.7l-0.3,0.2L157.3,40.1z"/>
				<path class="st36" d="M131.9,44.1l3.8-3.8h8l-0.5-0.3h-7.6c0,0-0.1,0-0.1,0l-3.8,3.8h-8.9l0.1,0.2c0,0,0,0.1,0.1,0.1L131.9,44.1
					C131.8,44.1,131.9,44.1,131.9,44.1"/>
				<path class="st36" d="M158.3,39.7V56c0,0,0,0.1,0,0.1l1,1c-0.1,0.1-0.1,0.3-0.1,0.4c0,0.4,0.3,0.8,0.8,0.8
					c0.4,0,0.8-0.3,0.8-0.8s-0.3-0.8-0.8-0.8c-0.1,0-0.3,0-0.4,0.1l-1-1V39.6c0,0,0-0.1,0-0.1l-0.9-0.9l-0.3,0.2L158.3,39.7z"/>
				<path class="st36" d="M131.1,43l3.7-3.7h7.4l-0.4-0.3h-7c0,0-0.1,0-0.1,0l-3.7,3.7h-8.7l0.1,0.3l0,0h8.7
					C131.1,42.9,131.1,42.9,131.1,43"/>
				<path class="st36" d="M122.2,42.7L122.2,42.7l0.2,0.3L122.2,42.7"/>
				<path class="st36" d="M160.4,50.8c0,0,0,0.1,0,0.1l1.5,1.5c0,0,0.1,0.1,0.1,0h3.1l1.2,1.2v2.1l-3,3c0,0,0,0.1,0,0.1v1.7
					c0,0,0,0.1,0,0.1l0.6,0.6c0,0,0.1,0,0.1,0h2.4l1.6,1.6c0,0,0.1,0,0.1,0.1h3.8c0,0,0.1,0,0.1-0.1l1.6-1.6
					c0.1,0.1,0.3,0.1,0.4,0.1c0.4,0,0.7-0.3,0.7-0.8c0-0.4-0.3-0.7-0.8-0.7c-0.4,0-0.7,0.3-0.7,0.7c0,0.1,0,0.3,0.1,0.4l-1.5,1.5
					h-3.7l-1.6-1.6c0,0-0.1,0-0.1,0h-2.4l-0.5-0.5v-1.6l3-3c0,0,0-0.1,0-0.1v-2.2c0,0,0-0.1,0-0.1l-1.3-1.3c0,0-0.1,0-0.1,0h-3.1
					l-1.4-1.4V38.3c0,0,0-0.1,0-0.1l-0.8-1.2l-0.3,0.2l0.8,1.1L160.4,50.8z"/>
				<path class="st36" d="M165.5,47.8c-0.1-0.1-0.3-0.2-0.5-0.2c-0.4,0-0.8,0.3-0.8,0.7s0.3,0.8,0.7,0.8c0.4,0,0.8-0.3,0.8-0.7
					c0,0,0,0,0,0c0-0.1,0-0.2-0.1-0.3l0.2-0.3c0,0,0-0.1,0-0.1v-15l0,0l-0.3,0.2v14.7L165.5,47.8z"/>
				<path class="st36" d="M167.4,37.5l2.1,2.1v3.2c-0.3,0.1-0.6,0.4-0.6,0.7c0,0.4,0.4,0.7,0.8,0.7c0.4,0,0.6-0.3,0.7-0.7
					c0-0.4-0.2-0.7-0.6-0.7v-3.3c0,0,0-0.1,0-0.1l-2.1-2.1v-5.6l-0.3,0.2V37.5C167.4,37.5,167.4,37.5,167.4,37.5"/>
				<path class="st36" d="M178.3,45.5l-3.6,3.6h-1.9c0,0-0.1,0-0.1,0l-1.8,1.8c0,0,0,0.1-0.1,0.1v5.7l-0.6,0.6
					c-0.3-0.3-0.8-0.3-1.1,0c-0.1,0.1-0.2,0.3-0.2,0.5c0,0.4,0.4,0.7,0.8,0.7c0.4,0,0.6-0.3,0.7-0.7c0-0.1,0-0.2-0.1-0.3L171,57
					c0,0,0-0.1,0.1-0.1v-5.7l1.7-1.7h2c0,0,0.1,0,0.1,0l3.7-3.7c0,0,0-0.1,0-0.1v-4.9c0,0,0-0.1,0-0.1L169,31l-0.3,0.2l9.7,9.7
					L178.3,45.5z"/>
				<path class="st36" d="M181.6,42v8.8l-1,1c0,0,0,0.1-0.1,0.1v7.2l-0.7,0.7c-0.1-0.1-0.3-0.2-0.5-0.2c-0.4,0-0.8,0.3-0.8,0.8
					s0.3,0.8,0.8,0.8c0.4,0,0.8-0.3,0.8-0.8c0,0,0,0,0,0c0-0.1,0-0.2-0.1-0.3l0.8-0.8c0,0,0-0.1,0.1-0.1v-7.2l1-1c0,0,0-0.1,0-0.1
					v-8.7l4.4-4.4l-0.3-0.2L181.6,42C181.5,42,181.5,42,181.6,42"/>
				<path class="st36" d="M187.2,38.8v10.5l-3.5,3.5c0,0,0,0.1,0,0.1v1.3c-0.3,0.1-0.6,0.4-0.6,0.7c0,0.4,0.3,0.8,0.7,0.8
					s0.8-0.3,0.8-0.7c0-0.1,0-0.1,0-0.2c0-0.4-0.3-0.7-0.6-0.7V53l3.5-3.5c0,0,0-0.1,0.1-0.1V38.9l0.2-0.2l-0.3-0.2l-0.2,0.2
					C187.3,38.8,187.3,38.8,187.2,38.8"/>
				<path class="st36" d="M182.8,66.6c-0.4,0-0.7,0.2-0.7,0.6h-3.5c0,0-0.1,0-0.1,0l-2.1,2.1h-13.8c0,0-0.1,0-0.1,0l-0.8,0.8
					c-0.1-0.1-0.3-0.2-0.5-0.2c-0.4,0-0.8,0.3-0.8,0.8s0.3,0.8,0.8,0.8c0.4,0,0.8-0.3,0.8-0.8c0,0,0,0,0,0c0-0.1,0-0.2-0.1-0.3
					l0.7-0.7h13.8c0,0,0.1,0,0.1,0l2.1-2.1h3.4c0,0.2,0.2,0.3,0.3,0.4c0.4-0.2,0.8-0.5,1.1-0.8C183.5,66.8,183.2,66.5,182.8,66.6"/>
				<path class="st36" d="M138,66.6c0.4,0,0.8-0.3,0.8-0.8c0-0.4-0.3-0.8-0.8-0.8c-0.4,0-0.7,0.2-0.7,0.6h-7.4c0,0.1,0,0.2,0.1,0.3
					h7.4C137.4,66.4,137.7,66.6,138,66.6"/>
				<path class="st36" d="M138,58.8c-0.4,0-0.8,0.3-0.8,0.7s0.3,0.8,0.7,0.8c0.4,0,0.8-0.3,0.8-0.7c0,0,0,0,0,0
					C138.7,59.2,138.4,58.8,138,58.8"/>
				<path class="st36" d="M128.5,61.8h3.1l2.3,2.4h7.7c0,0,0.1,0,0.1,0l2,2h0.5c0.1-0.4,0.5-0.7,0.9-0.6s0.7,0.5,0.6,0.9
					c-0.1,0.3-0.4,0.6-0.7,0.6c-0.4,0-0.7-0.2-0.7-0.6h-0.6c0,0-0.1,0-0.1,0l-2-2h-7.7c0,0-0.1,0-0.1-0.1l-2.3-2.3H129L128.5,61.8z"
					/>
				<path class="st36" d="M141.6,57.6c-0.1,0.1-0.1,0.3-0.1,0.4c0,0.4,0.3,0.8,0.8,0.8s0.8-0.3,0.8-0.8s-0.3-0.8-0.8-0.8
					c-0.1,0-0.3,0-0.4,0.1l-0.7-0.7c0,0-0.1,0-0.1,0h-13.5l0.1,0.3h13.4L141.6,57.6z"/>
				<path class="st36" d="M129.8,30.2h-9.2l-0.3,0.3h10.2L129.8,30.2"/>
				<path class="st36" d="M187.9,51.5c0,0.4,0.3,0.8,0.8,0.8s0.8-0.3,0.8-0.8c0-0.4-0.3-0.7-0.6-0.7V39.5l-0.3-0.2v11.5
					C188.1,50.8,187.9,51.1,187.9,51.5"/>
				<path class="st36" d="M179.5,46l-4.3,4.3h-1.6c0,0-0.1,0-0.1,0l-1.7,1.7c0,0,0,0.1,0,0.1v6.5l-1.6,1.6c-0.3-0.3-0.8-0.3-1,0
					c-0.3,0.3-0.3,0.8,0,1s0.8,0.3,1,0c0.1-0.1,0.2-0.3,0.2-0.5c0-0.1,0-0.2,0-0.2l1.6-1.7c0,0,0-0.1,0-0.1v-6.5l1.6-1.6h1.6
					c0,0,0.1,0,0.1,0l4.4-4.4c0,0,0-0.1,0.1-0.1v-8.6c0,0,0-0.1-0.1-0.1l-7.6-7.6l-0.4,0.1l7.7,7.7V46z"/>
				<path class="st36" d="M189.2,54.3c-0.1-0.1-0.3-0.2-0.5-0.2c-0.4,0-0.8,0.3-0.8,0.8c0,0.4,0.3,0.8,0.8,0.8
					c0.4,0,0.8-0.3,0.8-0.8c0,0,0,0,0,0c0-0.1,0-0.2-0.1-0.3l0.8-0.8c0,0,0-0.1,0.1-0.1V40.5l-0.3-0.2v13.4L189.2,54.3z"/>
				<path class="st36" d="M190.3,55.8c0,0.4,0.3,0.8,0.7,0.8c0.4,0,0.8-0.3,0.8-0.7c0-0.4-0.2-0.7-0.6-0.7V41.3l-0.3-0.2v14
					C190.6,55.1,190.3,55.4,190.3,55.8"/>
				<path class="st36" d="M187.3,62.7c-0.1-0.1-0.3-0.1-0.4-0.1c-0.4,0-0.8,0.3-0.8,0.8s0.3,0.8,0.8,0.8c0.4,0,0.8-0.3,0.8-0.8l0,0
					c0-0.1,0-0.3-0.1-0.4l5.3-5.3c0,0,0-0.1,0-0.1V41.9l-0.3-0.2v15.7L187.3,62.7z"/>
				<path class="st36" d="M161.6,49.8l1.6,1.6c0,0,0.1,0,0.1,0h2.9c0.4,0.4,0.9,0.8,1.2,1.3V57l-1.7,1.7c-0.1-0.1-0.3-0.2-0.5-0.2
					c-0.4,0-0.8,0.3-0.8,0.8c0,0.4,0.3,0.8,0.8,0.8c0.4,0,0.8-0.3,0.8-0.8c0,0,0,0,0,0c0-0.1,0-0.2-0.1-0.3l1.8-1.8
					c0,0,0-0.1,0.1-0.1v-4.4c0,0,0-0.1,0-0.1c-1.3-1.4-1.4-1.4-1.5-1.4h-2.9l-1.6-1.5V35.5l-0.1,0.1l-0.2,0.1L161.6,49.8
					C161.5,49.7,161.5,49.8,161.6,49.8"/>
				<path class="st36" d="M132.6,36.9c0.4,0,0.8-0.3,0.8-0.7c0-0.4-0.3-0.8-0.7-0.8c-0.3,0-0.6,0.2-0.7,0.5h-12.6
					c0,0.1,0,0.2,0.1,0.3h12.5C131.9,36.6,132.2,36.9,132.6,36.9"/>
				<path class="st36" d="M162.4,48.8l1.1,1.1c0,0,0.1,0,0.1,0h3.4l1.6,1.6v1.8c0,0,0,0.1,0.1,0.1l0.4,0.4c-0.1,0.1-0.1,0.3-0.1,0.4
					c0,0.4,0.4,0.7,0.8,0.7c0.4,0,0.6-0.3,0.7-0.7c0-0.4-0.3-0.8-0.8-0.8c-0.1,0-0.3,0-0.4,0.1l-0.3-0.3v-1.8c0,0,0-0.1-0.1-0.1
					l-1.7-1.7c0,0-0.1,0-0.1,0h-3.4l-1-1V34.9l-0.3,0.2L162.4,48.8C162.4,48.8,162.4,48.8,162.4,48.8"/>
				<path class="st36" d="M129.1,41c0.4,0,0.8-0.3,0.8-0.7c0-0.4-0.3-0.8-0.7-0.8c-0.1,0-0.1,0-0.2,0c-0.4,0-0.7,0.2-0.7,0.6h-7.4
					l0.1,0.2c0,0,0,0.1,0.1,0.1h7.2C128.4,40.7,128.7,41,129.1,41"/>
				<path class="st36" d="M121,40.2c0,0,0,0.1,0.1,0.1C121.1,40.3,121,40.3,121,40.2"/>
				<path class="st36" d="M120.9,40L120.9,40l0.1,0.2L120.9,40"/>
				<path class="st36" d="M155.8,60c-0.4,0-0.8,0.3-0.8,0.8c0,0.4,0.3,0.8,0.8,0.8c0.4,0,0.8-0.3,0.8-0.8c0,0,0,0,0,0
					C156.6,60.3,156.2,60,155.8,60"/>
				<path class="st36" d="M152.3,70.8c0.4-0.1,0.7-0.5,0.6-0.9c-0.1-0.3-0.4-0.6-0.7-0.6c-0.4,0-0.8,0.3-0.8,0.8
					c0,0.4,0.2,0.7,0.6,0.7v3c0,0,0,0.1,0,0.1l1.9,1.9c0,0,0.1,0,0.1,0h9.1c0.1,0.3,0.4,0.6,0.7,0.6c0.4,0,0.8-0.3,0.8-0.8
					s-0.3-0.8-0.8-0.8c-0.4,0-0.7,0.2-0.7,0.6h-9l-1.8-1.8L152.3,70.8z"/>
				<path class="st36" d="M139.3,74c0.4,0,0.8-0.3,0.8-0.7c0-0.4-0.3-0.8-0.7-0.8c-0.4,0-0.7,0.2-0.7,0.6h-7.9v0.3h7.9
					C138.6,73.7,138.9,74,139.3,74"/>
				<path class="st36" d="M142.8,72.5c-0.4,0-0.8,0.3-0.8,0.8s0.3,0.8,0.8,0.8c0.4,0,0.8-0.3,0.8-0.8c0,0,0,0,0,0
					C143.6,72.8,143.2,72.5,142.8,72.5"/>
				<path class="st36" d="M151.2,76.3c0.4-0.1,0.7-0.5,0.6-0.9c-0.1-0.4-0.5-0.7-0.9-0.6c-0.4,0.1-0.7,0.5-0.6,0.9
					c0.1,0.3,0.3,0.5,0.6,0.6v3c0,0,0,0.1,0,0.1l0.4,0.4h0.4l-0.5-0.5L151.2,76.3z"/>
				<path class="st36" d="M186.2,38.6v7l-3.7,3.7v8.4l1.4,1.4c0,0.1-0.1,0.2-0.1,0.3c0,0.4,0.3,0.8,0.8,0.8s0.8-0.3,0.8-0.8
					s-0.3-0.8-0.8-0.8l0,0c-0.2,0-0.3,0.1-0.5,0.2l-1.3-1.3v-8.1l3.7-3.7v-7l0.5-0.5l-0.3-0.2L186.2,38.6L186.2,38.6z"/>
				<path class="st36" d="M149.4,44.5c-0.1,0-0.3,0-0.4,0.1l-1.8-1.8h-10.5c-0.1-0.4-0.5-0.7-0.9-0.6s-0.7,0.5-0.6,0.9
					s0.5,0.7,0.9,0.6c0.3-0.1,0.5-0.3,0.6-0.6h10.3l1.7,1.7c-0.1,0.1-0.1,0.3-0.1,0.4c0,0.4,0.3,0.8,0.8,0.8c0.4,0,0.8-0.3,0.8-0.8
					C150.2,44.8,149.8,44.5,149.4,44.5C149.4,44.5,149.4,44.5,149.4,44.5"/>
				<path class="st36" d="M179.1,52.2c-0.4,0-0.7,0.3-0.8,0.7c0,0,0,0,0,0c0,0.1,0,0.3,0.1,0.4l-1.4,1.4c-0.1-0.1-0.3-0.1-0.4-0.1
					c-0.4,0-0.8,0.3-0.8,0.7c0,0,0,0,0,0c0,0.4,0.3,0.8,0.8,0.8c0.4,0,0.8-0.3,0.8-0.7c0,0,0,0,0,0c0-0.1,0-0.3-0.1-0.4l1.4-1.4
					c0.4,0.2,0.8,0.1,1-0.2s0.1-0.8-0.2-1C179.4,52.2,179.3,52.2,179.1,52.2"/>
				<path class="st36" d="M196.8,53.9c-0.1-0.4-0.5-0.7-0.9-0.6c-0.4,0.1-0.7,0.5-0.6,0.9s0.5,0.7,0.9,0.6c0.3-0.1,0.5-0.3,0.6-0.6
					h1.4c0.1-0.1,0.2-0.2,0.4-0.3H196.8z"/>
				<path class="st36" d="M204.3,51.8l0.5-0.5l-0.3-0.2l-0.7,0.7H204.3"/>
				<path class="st36" d="M170.2,73.2c0-0.4-0.3-0.8-0.8-0.8c-0.4,0-0.8,0.3-0.8,0.8c0,0.4,0.3,0.8,0.8,0.8c0,0,0,0,0,0
					c0.1,0,0.3,0,0.4-0.1l0.9,0.9l0.3-0.1l-1-1C170.2,73.5,170.3,73.4,170.2,73.2"/>
				<path class="st36" d="M149.1,78v-4c0.4-0.1,0.7-0.5,0.6-0.9c-0.1-0.4-0.5-0.7-0.9-0.6c-0.4,0.1-0.7,0.5-0.6,0.9
					c0.1,0.3,0.3,0.5,0.6,0.6v3.6h-1.5l-2.3,2.3h0.5l2-2L149.1,78z"/>
				<path class="st36" d="M196.1,51.8c-0.1,0.1-0.1,0.2-0.1,0.4c0,0.4,0.3,0.8,0.8,0.8c0.4,0,0.8-0.3,0.8-0.8c0-0.4-0.3-0.8-0.8-0.8
					c0,0,0,0,0,0c-0.2,0-0.3,0.1-0.4,0.1l-1.2-1.2v-6.3l-0.3-0.3v6.7L196.1,51.8z"/>
				<path class="st36" d="M184.7,62.4l2.3-2.3c0.1,0.1,0.3,0.1,0.4,0.1c0.4,0,0.8-0.3,0.8-0.8c0-0.4-0.3-0.8-0.8-0.8
					c-0.4,0-0.8,0.3-0.8,0.8c0,0.2,0,0.3,0.1,0.4l-2.4,2.4v3.1l1.2,1.2l0.3-0.2l-1.2-1.2V62.4z"/>
				<path class="st36" d="M174.3,56.8v-2.6l4.4-4.4c0.1,0.1,0.3,0.1,0.4,0.1c0.4,0,0.8-0.3,0.8-0.8c0-0.4-0.3-0.8-0.8-0.8
					c-0.4,0-0.8,0.3-0.8,0.8c0,0,0,0,0,0c0,0.1,0,0.3,0.1,0.4L174,54h-0.1v2.8c-0.4,0.1-0.7,0.5-0.6,0.9c0.1,0.4,0.5,0.7,0.9,0.6
					c0.4-0.1,0.7-0.5,0.6-0.9C174.8,57.1,174.6,56.8,174.3,56.8"/>
				<path class="st36" d="M181,39.1c0,0.4,0.3,0.8,0.7,0.8s0.8-0.3,0.8-0.7c0-0.4-0.2-0.7-0.6-0.8v-5l-0.4-0.2v5.3
					C181.2,38.5,181,38.8,181,39.1"/>
				<path class="st36" d="M173.2,39.9l-2.9-2.9c0.2-0.4,0.1-0.8-0.2-1c-0.4-0.2-0.8-0.1-1,0.2c-0.1,0.1-0.1,0.3-0.1,0.4
					c0,0.4,0.3,0.7,0.8,0.8c0.1,0,0.3,0,0.4-0.1l2.8,2.8v6l-2.8,2.8c-0.1-0.1-0.2-0.1-0.4-0.1c-0.4,0-0.8,0.3-0.8,0.8
					s0.3,0.8,0.8,0.8s0.8-0.3,0.8-0.8c0,0,0,0,0,0c0-0.1,0-0.3-0.1-0.4l2.9-2.9L173.2,39.9z"/>
				<path class="st36" d="M155.6,44.4h-3.2l-2.9-2.9H149l3.3,3.2h3.7v-0.2c0.1-2.2,0.1-6.3,0-6.9l-0.3,0.2
					C155.6,38.6,155.6,43.2,155.6,44.4"/>
				<path class="st36" d="M133.2,33.2h-14c0,0.1,0,0.2,0,0.3h14.5L133.2,33.2"/>
				<path class="st36" d="M159.3,38.8v12.5c0,0,0,0.1,0,0.1l3,3c0,0,0.1,0,0.1,0h1c0.1,0.4,0.5,0.7,0.9,0.6s0.7-0.5,0.6-0.9
					s-0.5-0.7-0.9-0.6c-0.3,0.1-0.5,0.3-0.6,0.6h-1l-2.9-3V38.8c0,0,0-0.1,0-0.1l-0.6-0.9l-0.3,0.2L159.3,38.8z"/>
				<path class="st36" d="M131,31.6h-11.4c-0.1,0.1-0.1,0.2-0.2,0.3h12L131,31.6"/>
				<path class="st36" d="M120,38.1C120,38.2,120,38.2,120,38.1l4.9,0.1c0.1,0.4,0.5,0.7,0.9,0.6c0.4-0.1,0.6-0.4,0.6-0.7
					c0-0.4-0.3-0.7-0.8-0.7c-0.3,0-0.6,0.2-0.7,0.5h-5.1L120,38.1"/>
				<path class="st36" d="M120,38.1C120,38.2,120,38.2,120,38.1C120,38.2,120,38.2,120,38.1"/>
				<path class="st36" d="M168.3,70.6l-2.4,2.4h-10.3c-0.1-0.4-0.5-0.7-0.9-0.6s-0.7,0.5-0.6,0.9c0.1,0.3,0.4,0.6,0.7,0.6
					c0.4,0,0.7-0.2,0.7-0.6H166l2.4-2.4h7.7v1.3l0.4-0.2v-1.5H168.3z"/>
				<path class="st36" d="M199.6,51.4c-0.4,0-0.8,0.3-0.8,0.8s0.3,0.8,0.8,0.8s0.8-0.3,0.8-0.8c0,0,0,0,0,0c0-0.1,0-0.3-0.1-0.4
					l2.2-2.2l-0.3-0.2l-2.2,2.2C199.9,51.5,199.8,51.4,199.6,51.4"/>
			</g>
		</g>
		<g>
			<defs>
				<path id="SVGID_11_" d="M122.5,29.2c-1.6,0.8-2.7,2.5-2.6,4.3l0,0c0,4.2,4,9.9,6.1,15.6c3.5,9,5.5,18.6,5.8,28.3
					c5.4,1.6,10.9,2.4,16.6,2.3c5.4-0.1,10.7-1.1,15.8-3c9-3.3,17.5-8.1,24.9-14.1l0.4-0.3l0,0c6.2-5,11.4-12.8,16.3-10.2
					c-2.9-2.1-10.1-7.3-16.5-12.1s-12-9.7-14.7-9.7c-8.4,0-16.8,11.8-26.8,11.8c-8.6,0-17.3-13.4-23.5-13.4
					C123.7,28.7,123,28.9,122.5,29.2"/>
			</defs>
			<clipPath id="SVGID_12_">
				<use xlink:href="#SVGID_11_"  style="overflow:visible;"/>
			</clipPath>
			<g class="st37">
				
					<linearGradient id="SVGID_13_" gradientUnits="userSpaceOnUse" x1="-1103.8553" y1="252.383" x2="-1102.7153" y2="252.383" gradientTransform="matrix(69.2011 30.8103 30.8103 -69.2011 68731.4688 51510.2109)">
					<stop  offset="0" style="stop-color:#332F41"/>
					<stop  offset="0.39" style="stop-color:#332F41;stop-opacity:0"/>
					<stop  offset="0.44" style="stop-color:#605D6B;stop-opacity:2.000000e-02"/>
					<stop  offset="0.52" style="stop-color:#DFDFE1;stop-opacity:8.000000e-02"/>
					<stop  offset="0.53" style="stop-color:#FFFFFF;stop-opacity:0.1"/>
					<stop  offset="1" style="stop-color:#FFFFFF;stop-opacity:0"/>
				</linearGradient>
				<polygon class="st38" points="100.9,71.3 134.1,-3.2 224.8,37.1 191.6,111.7 				"/>
			</g>
		</g>
		<g>
			<defs>
				<path id="SVGID_14_" d="M104.6,42c-6.4,4.5-12.9,8.4-13.8,11c-2.6,8,6,19.6,2.9,29.1c-2.9,9-21.5,13.2-20.1,20.2
					c1.4,7.2,11.4,3.2,20.1,2.8c9.7-0.6,19.4,0.5,28.7,3.2c3.2-4.6,5.7-9.7,7.3-15.1c1.6-5.2,2.3-10.6,2.1-16
					c-0.3-9.6-2.3-19.1-5.7-28.1l-0.3-0.5l0,0c-2.8-7.4-8.6-14.8-4.6-18.7C118.3,32.2,111.1,37.5,104.6,42"/>
			</defs>
			<clipPath id="SVGID_15_">
				<use xlink:href="#SVGID_14_"  style="overflow:visible;"/>
			</clipPath>
			<g class="st39">
				
					<linearGradient id="SVGID_16_" gradientUnits="userSpaceOnUse" x1="-1112.8453" y1="241.0428" x2="-1111.7053" y2="241.0428" gradientTransform="matrix(50.6866 -56.2932 -56.2932 -50.6866 70048.4062 -50325.8555)">
					<stop  offset="0" style="stop-color:#551C12"/>
					<stop  offset="0.39" style="stop-color:#551C12;stop-opacity:0.1"/>
					<stop  offset="0.45" style="stop-color:#794D45;stop-opacity:0.1"/>
					<stop  offset="0.52" style="stop-color:#E2D9D7;stop-opacity:0.1"/>
					<stop  offset="0.53" style="stop-color:#FFFFFF;stop-opacity:0.1"/>
					<stop  offset="1" style="stop-color:#FFFFFF;stop-opacity:0"/>
				</linearGradient>
				<polygon class="st40" points="32.8,73.9 99,0.5 171.3,65.6 105.2,139.1 				"/>
			</g>
		</g>
		<g>
			<defs>
				<path id="SVGID_17_" d="M74.1,103.8c1.1,3.4,3.9,11.9,6.2,19.5c2.3,7.4,4,14.9,6.2,16.5c6.8,4.9,20.5,0.4,28.6,6.2
					c7.7,5.6,5.9,24.5,13,25.4c0.3,0,0.5,0,0.8,0h0.1c6.4,0,5.8-10.2,8.1-18.2c2.5-9.4,6.5-18.3,11.9-26.3
					c-3.4-4.5-7.5-8.4-12.1-11.6c-4.4-3.1-9.3-5.4-14.5-6.9c-9.2-2.7-18.9-3.8-28.5-3.2l-0.5,0.1l0,0
					C85.4,105.5,76.6,108.8,74.1,103.8z"/>
			</defs>
			<clipPath id="SVGID_18_">
				<use xlink:href="#SVGID_17_"  style="overflow:visible;"/>
			</clipPath>
			<g class="st41">
				
					<linearGradient id="SVGID_19_" gradientUnits="userSpaceOnUse" x1="-1126.4232" y1="246.0778" x2="-1125.2832" y2="246.0778" gradientTransform="matrix(-37.875 -65.6014 -65.6014 37.875 -26389.6309 -83044.5703)">
					<stop  offset="0" style="stop-color:#123F4E"/>
					<stop  offset="0.39" style="stop-color:#123F4E;stop-opacity:0.1"/>
					<stop  offset="0.45" style="stop-color:#50717C;stop-opacity:0.1"/>
					<stop  offset="0.53" style="stop-color:#FDFDFD;stop-opacity:0.1"/>
					<stop  offset="0.53" style="stop-color:#FFFFFF;stop-opacity:0.1"/>
					<stop  offset="1" style="stop-color:#FFFFFF;stop-opacity:0"/>
				</linearGradient>
				<polygon class="st42" points="44.9,120.7 130.2,71.4 178.2,154.5 92.8,203.7 				"/>
			</g>
		</g>
		<g>
			<defs>
				<path id="SVGID_20_" d="M159.9,115.2c-4.3,3.3-8,7.2-11,11.7c-5.4,8-9.4,16.8-11.9,26.1l-0.1,0.5l0,0c-2.1,7.6-1.7,17-7.2,17.8
					c3.6,0,12.5,0,20.4,0.1c3.6,0.1,7.2,0.2,10.3,0.2h0.7c3.1,0,5.5-0.2,6.6-1c6.8-4.9,6.7-19.4,14.8-25.2c3.7-2.7,9.7-2.3,15.3-1.9
					c5.9,0.4,11.3,0.8,12.9-2.5c0.3-0.7,0.5-1.5,0.6-2.2v-0.1c0-5-8.8-7.5-15.1-11.8c-8.2-5.2-15.4-11.8-21.3-19.5
					C169.4,109.2,164.4,111.9,159.9,115.2"/>
			</defs>
			<clipPath id="SVGID_21_">
				<use xlink:href="#SVGID_20_"  style="overflow:visible;"/>
			</clipPath>
			<g class="st43">
				
					<linearGradient id="SVGID_22_" gradientUnits="userSpaceOnUse" x1="-1125.8218" y1="260.5366" x2="-1124.6818" y2="260.5366" gradientTransform="matrix(-74.0947 15.7493 15.7493 74.0947 -87311.5703 -1442.1892)">
					<stop  offset="0" style="stop-color:#4C3D38"/>
					<stop  offset="0.39" style="stop-color:#4C3D38;stop-opacity:0.1"/>
					<stop  offset="0.46" style="stop-color:#867C78;stop-opacity:0.1"/>
					<stop  offset="0.53" style="stop-color:#FFFFFF;stop-opacity:0.1"/>
					<stop  offset="1" style="stop-color:#FFFFFF;stop-opacity:0"/>
				</linearGradient>
				<polygon class="st44" points="116.5,110.1 207.6,90.8 224.2,168.9 133.1,188.2 				"/>
			</g>
		</g>
		<g>
			<defs>
				<path id="SVGID_23_" d="M189.2,62.6c-7.5,6.1-16,10.9-25.1,14.2c0.1,5.6,1.1,11.2,2.9,16.5c1.8,5.1,4.4,9.9,7.7,14.1
					c5.9,7.6,13.1,14.2,21.2,19.4l0.4,0.3l0,0c6.6,4.3,15.6,6.9,14.7,12.4c1.1-3.4,3.9-11.9,6.4-19.4c2.5-7.4,5.5-14.4,4.7-17
					c-2.6-8-16.4-12.3-19.4-21.8c-2.9-9,9.6-23.3,4.4-28.1c-0.9-0.9-2.1-1.4-3.3-1.4C199.4,51.6,194.7,58.3,189.2,62.6"/>
			</defs>
			<clipPath id="SVGID_24_">
				<use xlink:href="#SVGID_23_"  style="overflow:visible;"/>
			</clipPath>
			<g class="st45">
				
					<linearGradient id="SVGID_25_" gradientUnits="userSpaceOnUse" x1="-1111.806" y1="264.4771" x2="-1110.666" y2="264.4771" gradientTransform="matrix(-7.575 74.9925 74.9925 7.575 -28058.9648 81425.7734)">
					<stop  offset="0" style="stop-color:#304239"/>
					<stop  offset="0.13" style="stop-color:#304239;stop-opacity:0.73"/>
					<stop  offset="0.38" style="stop-color:#304239;stop-opacity:2.000000e-02"/>
					<stop  offset="0.39" style="stop-color:#304239;stop-opacity:0"/>
					<stop  offset="0.45" style="stop-color:#606E67;stop-opacity:2.000000e-02"/>
					<stop  offset="0.52" style="stop-color:#E9EBEA;stop-opacity:9.000000e-02"/>
					<stop  offset="0.53" style="stop-color:#FFFFFF;stop-opacity:0.1"/>
					<stop  offset="1" style="stop-color:#FFFFFF;stop-opacity:0.1"/>
				</linearGradient>
				<polygon class="st46" points="154.1,138.7 163.5,46.1 230.6,52.9 221.2,145.4 				"/>
			</g>
		</g>
		<polygon class="st47" points="118.3,201.2 118.3,212.4 109.1,201.2 107.6,201.2 107.6,216.5 109.8,216.5 109.8,205.3 118.9,216.5 
			120.4,216.5 120.4,201.2 		"/>
		<polygon class="st47" points="129.1,201.2 129.1,216.5 138,216.5 138,214.4 131.3,214.4 131.3,209.3 136.3,209.3 136.3,207.2 
			131.3,207.2 131.3,203.3 137.8,203.3 137.8,201.2 		"/>
		<path class="st47" d="M152.1,201c4.3-0.1,7.9,3.3,8.1,7.6c0.1,4.3-3.3,7.9-7.6,8.1c-4.3,0.1-7.9-3.3-8.1-7.6c0-0.1,0-0.2,0-0.2
			c-0.1-4.2,3.2-7.7,7.4-7.8C151.9,201,152,201,152.1,201 M152.1,214.6c3.2,0.2,5.9-2.2,6.1-5.4s-2.2-5.9-5.4-6.1s-5.9,2.2-6.1,5.4
			c0,0.1,0,0.2,0,0.3c-0.2,3,2.1,5.6,5.2,5.8C151.9,214.6,152,214.6,152.1,214.6"/>
		<polygon class="st47" points="174.9,213.2 173.3,213.2 168.9,206.2 168.9,216.5 166.7,216.5 166.7,201.2 168.2,201.2 174.1,210.5 
			180,201.2 181.5,201.2 181.5,216.5 179.3,216.5 179.3,206.2 		"/>
		<rect x="47.9" y="22.7" class="st48" width="200" height="200"/>
	</g>
</g>
</svg>
