<?xml version="1.0" encoding="UTF-8"?><svg id="Layer_2" xmlns="http://www.w3.org/2000/svg" viewBox="0 0 535.96 125.71"><defs><style>.cls-1,.cls-2{stroke-width:0px;}.cls-2{fill:#c3161c;}</style></defs><g id="Layer_1-2"><path class="cls-2" d="M453.4.23L464.95,0c.26,0,.47.21.48.46,0,.1-.03.19-.09.28l-3.63,5.14c-.09.12-.23.2-.38.2l-13.14-.02c-.26,0-.47-.21-.47-.47,0-.13.05-.25.15-.34l5.22-4.9c.09-.08.2-.12.31-.12Z"/><path class="cls-2" d="M535.96.59v.52l-6.63,10.2c-.23.34-.54.51-.95.51h-31.62c-.76,0-.85-.25-.27-.75,2.98-2.55,5.93-4.98,8.86-7.27,3.24-2.54,6.6-3.21,10.88-3.22,6.58-.03,13.16-.02,19.73,0Z"/><path class="cls-2" d="M442.77,9.61c1.51-1.37,3.29-2.05,5.33-2.04h12.32s.09.05.1.09c0,.02,0,.04-.02.05l-4.06,5.86c-.11.17-.27.25-.47.25h-15.06c-1.89,0-2.14-.63-.73-1.9.86-.77,1.72-1.54,2.59-2.31Z"/><path class="cls-1" d="M244.67,76.47c-2.29,3.35-7.45,5.44-11.3,5.71-2.74.19-6.03.23-9.86.11-.4-.01-.49-.19-.27-.52,13.82-20.49,27.52-40.8,41.1-60.91,2.28-3.38,5.14-5.17,8.57-5.38,3.37-.21,7.59-.26,12.68-.13.51.01.62.23.33.65-13.6,19.95-27.35,40.11-41.25,60.47Z"/><path class="cls-2" d="M477.11,27.99l14.65-12.08c.06-.05.13-.08.21-.08l12.4-.02c.18,0,.33.14.34.32,0,.07-.02.14-.06.2l-8.26,12.1c-.06.09-.16.14-.27.14h-18.8c-.18,0-.33-.15-.32-.34,0-.09.04-.18.11-.24Z"/><path class="cls-2" d="M485.34,76.57c-4.54,6.65-12.94,6.79-20.4,6.12-.22-.02-.27-.12-.14-.3l45.15-66.06c.22-.32.59-.51.98-.51h15.3c.22,0,.39.18.39.4,0,.08-.02.16-.07.22-13.95,20.28-27.69,40.32-41.21,60.13Z"/><path class="cls-1" d="M36.59,69.85c11.93-.1,24.35-.08,37.24.05,7.83.08,14.26-2.04,18.58-8.39,8.55-12.57,17.29-25.47,26.21-38.7,2.88-4.28,7.45-6.49,12.56-6.49,19.17,0,40.05,0,62.64,0,.49,0,.6.2.31.61-7.71,11.05-15.01,21.68-21.9,31.87-3.2,4.72-7.97,6.89-13.72,6.84-11.26-.1-22.48-.11-33.65-.04-.51,0-.61-.21-.31-.62,1.28-1.73,2.57-3.61,3.88-5.63,3.35-5.17,7.99-6.79,14.24-6.58,4.05.13,7.95.13,11.7,0,3.43-.11,6.23-1.64,8.42-4.58,1.99-2.68,3.99-5.57,6.02-8.66.09-.14.05-.33-.09-.41-.04-.03-.09-.04-.15-.05-10.61-.03-21.01-.02-31.2.04-3.9.03-7.77,2.21-9.95,5.43-9.03,13.33-18.26,26.9-27.7,40.69-3.78,5.52-9.24,7.91-15.83,7.89-24.35-.07-48.81-.08-73.4-.03-.22,0-.39-.17-.4-.38,0-.08.02-.16.07-.23,14.51-21.2,28.44-41.53,41.79-61,2.92-4.26,6.89-5.12,12.15-5.15,17.89-.1,35.17-.07,51.84.1.45,0,.55.2.3.57-8.73,12.8-16.35,23.96-22.87,33.48-2.04,2.99-5.07,4.63-9.08,4.94-3.1.24-6.48.26-10.13.07-.14-.01-.25-.13-.24-.28,0-.04.02-.09.04-.12l17.38-25.61c.08-.11.05-.27-.07-.35-.04-.03-.09-.04-.14-.04-6.39-.05-12.55-.04-18.46.02-6.41.06-10.47,2.36-14.13,7.82-7.49,11.17-14.87,22.03-22.14,32.57-.07.1-.05.24.05.31.04.03.09.05.14.04Z"/><path class="cls-1" d="M208.52,29.06h-17.75c-.45.01-.55-.18-.3-.55,2.03-3.1,3.98-5.86,5.85-8.29,2.06-2.66,5.67-3.95,8.99-3.94,16.64.04,33.17.05,49.6.03.7,0,.78.22.24.66l-14.22,11.78c-.26.21-.58.32-.9.32h-13.65c-.39,0-.69.16-.91.48-9.49,13.75-19.66,28.68-30.51,44.79-5.93,8.82-12.24,9.09-22.13,8.69-.2,0-.36-.18-.36-.38,0-.07.03-.14.07-.2l36.17-53.02c.07-.11.05-.26-.06-.33-.04-.03-.08-.04-.13-.04Z"/><path class="cls-1" d="M334.57,29.37c.07-.1.04-.24-.06-.31-.04-.03-.08-.04-.13-.04-6.01.09-11.91.08-17.69-.03-5.15-.1-9.52,1.69-12.34,5.82-8.01,11.73-15.92,23.33-23.73,34.8-.09.14-.05.34.09.43.05.03.11.05.17.05,13.57-.06,26.79-.05,39.68.03,5.55.04,10.25-1.86,13.46-6.44,7.77-11.05,17.59-25.49,29.45-43.32,1.63-2.45,4.59-4.1,7.63-4.08,8.25.06,16.11.07,23.56.03.17,0,.3.13.3.29v52.97c0,.39.2.57.59.54,3.18-.25,5.07.64,7.22-2.46,10.47-15.19,20.93-30.41,31.38-45.68,4.8-7.01,13.19-5.7,20.41-5.66.55,0,.66.23.35.68-14.73,21.36-28.88,42.02-42.45,61.98-1.6,2.35-3.91,4.13-6.82,4.13-8.45-.03-16.5-.04-24.13-.03-.17,0-.3-.13-.3-.3V29.81c0-.33-.16-.55-.48-.64-2.75-.76-4.93,0-6.55,2.27-7.49,10.51-17.03,24.3-28.64,41.39-5,7.38-13.02,10.27-21.64,10.26-23.01-.03-45.83-.03-68.45,0-.16,0-.29-.12-.3-.28,0-.06.02-.12.06-.18,12.95-19.09,26.48-38.98,40.61-59.68,2.6-3.82,7.07-6.48,11.82-6.52,16.77-.15,34.05-.17,51.82-.06.08,0,.15.06.15.15,0,.03,0,.06-.02.08-7.95,11.76-15.85,23.29-23.72,34.6-2.01,2.89-5.84,4.25-9.51,4.17-3.15-.07-6.12-.09-8.91-.04-.18,0-.32-.14-.33-.32,0-.07.02-.14.06-.19l17.39-25.45Z"/><path class="cls-1" d="M20.55,116.57h-8.51c-.45,0-.64-.22-.55-.67l.62-3.09c.08-.41.44-.7.85-.7h13.74c.27-.01.49.21.49.49,0,.03,0,.07-.01.1-.61,3.09-1.27,6.14-1.99,9.15-.67,2.83-2.64,3.6-5.32,3.68-6.31.19-11.19.13-14.63-.18-4.01-.36-5.72-2.52-5.12-6.49.46-3.07,1.09-6.04,1.9-8.9,1.47-5.22,6.05-6.52,11.01-6.45,5.71.09,10.83.11,15.35.04.57,0,.79.26.66.81l-.81,3.68c-.14.66-.55.99-1.24.99H10.07c-1.36,0-2.53.96-2.81,2.3l-1.34,6.63c-.31,1.57.33,2.36,1.94,2.36h11.64c.46,0,.75-.22.86-.67l.65-2.48c.11-.4-.05-.6-.46-.6Z"/><path class="cls-1" d="M35.36,119.25l-1.11,5.52c-.11.53-.43.8-.98.8h-4.11c-.53,0-.74-.26-.63-.79l4.34-20.26c.12-.56.63-.96,1.21-.96,5.1.05,10.64.03,16.62-.05,3.88-.05,6.96,1.32,6.11,5.89-.7,3.7-1.61,7.24-5.73,8.4-.23.06-.36.3-.3.53,0,.03.02.06.04.09l3.33,6.07c.19.35.06.8-.29.99-.11.06-.23.09-.35.09h-4.79c-.37,0-.64-.17-.81-.49l-3.14-5.92c-.21-.39-.53-.59-.98-.59h-7.6c-.46,0-.74.23-.83.68ZM50.94,110.48c.25-1.11-.19-1.66-1.32-1.66h-11.38c-.37,0-.59.18-.67.54l-.97,4.24c-.07.33.06.5.4.5h11.25c1.09.02,2.04-.74,2.28-1.81l.41-1.81Z"/><path class="cls-1" d="M64.91,104.46c1.15-.44,2.38-.69,3.68-.76,6.67-.35,11.67-.27,15,.24,3.18.49,4.59,2.39,4.23,5.7-.27,2.51-.8,5.31-1.58,8.42-1.17,4.69-4.07,7.15-8.68,7.38-7.09.36-12.22.27-15.37-.28-3.3-.57-4.65-2.67-4.06-6.3.45-2.72,1-5.42,1.65-8.11.77-3.18,2.48-5.28,5.13-6.29ZM81.86,111.93c.28-1.03.19-1.86-.28-2.49-.33-.45-.78-.66-1.37-.65-4.14.09-8.07.08-11.78-.02-1.46-.03-2.74.98-3.06,2.41l-1.43,6.6c-.37,1.71.32,2.56,2.07,2.54,3.59-.03,7.28-.02,11.05.03,4.21.06,4.05-5.62,4.8-8.42Z"/><path class="cls-1" d="M95.84,118.07c-.2.91.37,1.8,1.28,2,.12.03.24.04.36.04h11.28c1.4,0,2.61-.98,2.91-2.34l3-13.74c.07-.31.26-.46.57-.46h4.66c.36,0,.51.18.44.53-1.09,5.54-2.16,10.38-3.2,14.53-1.08,4.31-3.93,6.58-8.56,6.83-3.99.21-8.34.2-13.03-.02-4.75-.22-6.22-3.36-5.33-7.5.99-4.57,1.93-9,2.83-13.29.15-.73.6-1.09,1.34-1.08h3.57c.68.01.95.34.8,1.01l-2.92,13.49Z"/><path class="cls-1" d="M126.38,119.08l-1.15,5.58c-.13.61-.5.91-1.11.91h-3.97c-.55,0-.76-.27-.65-.81l4.34-20.23c.12-.54.6-.93,1.16-.94,5.97-.05,11.97-.04,18.01.03,6.41.07,5.03,5.84,3.73,9.69-1.13,3.35-3.43,5.08-6.92,5.18-3.96.12-8.21.13-12.75.04-.34,0-.63.23-.69.55ZM127.53,113.33c-.03.1.03.21.13.23.02,0,.03,0,.05,0h11.45c1.16,0,2.17-.79,2.44-1.92l.24-1.01c.29-1.21-.19-1.82-1.44-1.82h-11.46c-.14,0-.26.1-.29.23l-1.12,4.28Z"/><path class="cls-1" d="M161.15,109.58c1.06-3.45,4.17-5.61,7.78-5.85,3.71-.23,8.17-.27,13.37-.11,3.95.13,7.28,1.76,6.57,6.3-.44,2.77-1.02,5.56-1.73,8.36-1.13,4.44-3.84,6.8-8.15,7.08-7.2.48-12.46.46-15.79-.06-3.22-.5-4.57-2.67-4.05-6.51.43-3.19,1.1-6.26,2-9.21ZM182.87,111.94c.28-1,.18-1.83-.29-2.5-.29-.41-.71-.62-1.26-.62-4.45,0-8.48,0-12.07.01-1.38,0-2.57.97-2.87,2.32l-1.44,6.62c-.37,1.72.32,2.57,2.08,2.56,3.58-.03,7.25-.03,11.02.02,4.25.06,4.03-5.56,4.83-8.41Z"/><path class="cls-1" d="M199.29,112.57h16.06c.43,0,.6.21.51.63l-.69,3.09c-.11.5-.43.75-.94.75h-16.55c-.39,0-.63.18-.71.56l-1.59,7.4c-.07.33-.37.57-.71.57h-4.41c-.45,0-.64-.22-.55-.67,1.21-6.26,2.25-11,3.12-14.22,1.23-4.57,4.28-6.91,9.14-7.01,5.19-.1,10.32-.13,15.39-.09.49,0,.69.25.59.74l-.78,3.8c-.09.47-.38.7-.85.7h-14.88c-1.23,0-2.13.55-2.7,1.65l-.34.66c-.49.96-.19,1.44.89,1.44Z"/><path class="cls-1" d="M233.93,118.41c-.1.83.49,1.58,1.32,1.68.06,0,.12.01.18.01h15.68c.49.01.69.25.58.74l-.85,3.89c-.11.54-.45.81-1,.82-5.05.06-10.24.04-15.59-.06-3.13-.05-5.08-1.08-5.87-3.09-1.05-2.65.54-7.94,1.2-11.08,1.32-6.23,5.79-7.93,11.75-7.81,4.66.1,9.1.11,13.31.03.57-.01.79.26.66.81l-.96,3.99c-.11.47-.4.7-.87.7h-15.3c-1.24-.01-2.34.81-2.69,2.01-.75,2.53-1.26,4.98-1.55,7.36Z"/><path class="cls-1" d="M256.61,111.29c1.12-4.81,4.08-7.33,8.74-7.57,6.6-.35,11.61-.29,15.04.18,3.35.46,4.83,2.41,4.43,5.86-.29,2.5-.83,5.29-1.63,8.37-1.19,4.6-3.94,7.02-8.24,7.27-5.8.33-10.76.31-14.88-.07-3.83-.35-5.48-2.41-4.96-6.18.31-2.31.81-4.93,1.5-7.86ZM278.87,111.88c.5-1.85-.15-3.18-2.17-3.12-4.11.11-7.88.12-11.32.03-1.43-.03-2.69.96-3,2.36l-1.44,6.62c-.37,1.72.32,2.57,2.07,2.56,3.59-.03,7.27-.02,11.05.03,4.22.05,4.05-5.66,4.81-8.48Z"/><path class="cls-1" d="M317.68,110.1c.33-1.73.01-1.85-.94-.37-2.41,3.73-4.67,7.46-6.78,11.19-2.23,3.92-4.63,5.38-9.22,4.48-1.39-.27-2.21-1.09-2.48-2.47-.82-4.36-1.65-8.84-2.48-13.45-.04-.23-.18-.39-.41-.47-.25-.08-.51.05-.59.3,0,.01,0,.03-.01.04l-3.38,15.65c-.09.38-.33.57-.72.57h-4.21c-.29,0-.52-.24-.51-.52,0-.03,0-.07.01-.1,1.34-6.32,2.67-12.48,4-18.49.86-3.87,5.53-2.94,8.37-2.89,1.49.03,2.37.77,2.63,2.24.83,4.62,1.63,9.37,2.4,14.25.04.23.21.42.44.48.46.12.83-.06,1.11-.53,2.95-4.97,5.87-9.87,8.74-14.7,1.43-2.41,6.38-1.84,8.82-1.67,1.02.07,1.79.95,1.72,1.97,0,.09-.02.18-.04.27l-4.09,18.98c-.11.47-.4.71-.89.71h-4.19c-.42-.01-.58-.21-.48-.62,1.29-5.45,2.35-10.4,3.18-14.85Z"/><path class="cls-1" d="M331.37,119.11l-1.15,5.55c-.13.61-.5.91-1.11.91h-4.08c-.47,0-.65-.23-.55-.69l4.33-20.22c.14-.65.71-1.11,1.37-1.1,5.41.03,11.15.02,17.22,0,6.96-.03,5.85,5.58,4.27,9.97-1.16,3.23-3.48,4.9-6.95,4.99-3.94.11-8.14.11-12.61,0-.41-.01-.66.18-.74.59ZM332.53,113.33c-.03.1.03.21.13.23.02,0,.03,0,.05,0h11.45c1.16,0,2.17-.79,2.44-1.92l.24-1.01c.29-1.21-.19-1.82-1.44-1.82h-11.39c-.2,0-.33.1-.38.3l-1.1,4.21Z"/><path class="cls-1" d="M369.66,121.57h-12.8c-.35,0-.63.14-.84.41l-2.35,3.02c-.3.38-.69.57-1.18.57h-4.55c-.68,0-.82-.28-.41-.83,4.36-5.86,9.11-12.2,14.24-19.01,1.53-2.03,3.79-2.36,6.26-2.21,1.78.1,2.87.99,3.42,2.64,2.15,6.52,4.15,12.66,6.01,18.42.21.66-.03.99-.72.99h-4.21c-.65,0-1.09-.31-1.3-.93l-.9-2.59c-.11-.32-.33-.48-.67-.48ZM366.25,108.93c-.06-.17-.24-.26-.4-.2-.06.02-.12.06-.16.11l-5.82,7.97c-.1.14-.07.34.07.45.06.04.12.06.19.06l8.34-.03c.18,0,.32-.15.32-.32,0-.03,0-.07-.02-.1l-2.52-7.94Z"/><path class="cls-1" d="M389.31,109.1c-.35.3-.56.67-.65,1.12-.99,4.86-2.05,9.78-3.17,14.77-.09.39-.33.58-.73.58h-4.32c-.28,0-.51-.23-.51-.51,0-.04,0-.07.01-.11,1.2-5.55,2.51-11.58,3.92-18.1.45-2.11,1.72-3.2,3.8-3.26,1.85-.06,5.77-.59,6.75,1.4,2.55,5.17,4.91,10.04,7.1,14.6.53,1.09.92,1.05,1.17-.14l3.19-14.84c.13-.61.67-1.04,1.29-1.04h3.55c.65,0,.91.32.77.96-1.29,6.03-2.59,12.05-3.88,18.04-.44,2.01-2.04,3.12-4.08,3.04-2.07-.08-5.43.62-6.52-1.61-2.31-4.72-4.69-9.65-7.15-14.79-.08-.17-.28-.25-.45-.17-.03.01-.06.04-.09.06Z"/><path class="cls-1" d="M411.93,124.99l4.52-21.01c.05-.22.24-.38.47-.38l4.75-.06c.27,0,.49.22.49.49,0,.03,0,.07-.01.1l-4.55,21.01c-.05.22-.24.38-.47.38l-4.72.06c-.27,0-.49-.22-.49-.49,0-.03,0-.07.01-.1Z"/><path class="cls-1" d="M431.02,112.1h16.15c.46,0,.65.23.57.68l-.55,3c-.08.46-.48.79-.94.79h-16.54c-.67,0-1.01.34-1.01,1.01v1.37c.02.76.63,1.37,1.39,1.37h15.32c.44,0,.79.36.79.79,0,.05,0,.1-.02.16l-.71,3.37c-.13.64-.53.96-1.18.95-4.13-.05-8.55-.04-13.24.02-3.98.06-8.65-.82-7.99-6.09.32-2.59.85-5.44,1.58-8.55,1.13-4.82,4.33-7.27,9.61-7.36,4.95-.07,9.95-.08,14.99-.01.33,0,.59.27.58.6,0,.04,0,.08-.01.11l-.75,3.58c-.11.54-.59.93-1.15.93h-14.97c-1.13,0-1.94.51-2.43,1.52l-.26.53c-.4.82-.14,1.23.77,1.23Z"/><path class="cls-1" d="M457.49,109.98l-.23.77c-.28.93.07,1.38,1.04,1.36,4.02-.07,8.19-.04,12.51.09,5.28.15,3.55,6.44,2.43,9.35-1.17,3.07-3.93,4.06-6.96,4.04-5.77-.03-11.4-.04-16.89,0-.69,0-.95-.33-.78-1l.89-3.52c.13-.49.45-.74.96-.74h16.29c.76,0,1.41-.53,1.56-1.28l.24-1.22c.18-.87-.18-1.3-1.07-1.29-4.31.09-8.26.08-11.87-.04-3.07-.11-4.47-1.6-4.22-4.49.44-5.08,2.6-8.37,8.09-8.41,5.49-.05,11-.05,16.53,0,.35,0,.48.18.41.51l-.89,4.15c-.09.39-.33.58-.72.58h-15.76c-.72,0-1.35.47-1.56,1.16Z"/></g></svg>