<?xml version="1.0" encoding="UTF-8"?>
<svg id="Layer_2" data-name="Layer 2" xmlns="http://www.w3.org/2000/svg" viewBox="0 0 208.46 146.23">
  <defs>
    <style>
      .cls-1 {
        fill: #297de3;
      }

      .cls-1, .cls-2, .cls-3, .cls-4 {
        stroke-width: 0px;
      }

      .cls-2 {
        fill: #80b0ed;
      }

      .cls-3 {
        fill: #05264a;
      }

      .cls-4 {
        fill: #0054b8;
      }
    </style>
  </defs>
  <g id="Layer_1-2" data-name="Layer 1">
    <g>
      <path class="cls-2" d="M103.7,65.98h-13.3v.94h13.3c0-.16-.01-.31-.01-.47s.01-.31.01-.47"/>
      <path class="cls-2" d="M94.57,43.28l-.32.88,12.49,4.55c.1-.3.21-.59.32-.89l-12.48-4.54Z"/>
      <path class="cls-2" d="M91.49,54.45l-.16.93,13.1,2.31c.05-.31.11-.62.17-.93l-13.1-2.31Z"/>
      <path class="cls-2" d="M114.5,15.24l-.72.61,8.55,10.19c.24-.2.47-.42.71-.62l-8.54-10.18Z"/>
      <path class="cls-2" d="M99.54,32.82l-.47.82,11.52,6.65c.15-.27.31-.55.47-.82l-11.51-6.65Z"/>
      <path class="cls-2" d="M106.25,23.38l-.61.72,10.18,8.54c.2-.24.41-.47.62-.71l-10.19-8.55Z"/>
      <path class="cls-2" d="M124.03,8.67l-.82.47,6.65,11.51c.27-.16.54-.32.82-.47l-6.65-11.52Z"/>
      <path class="cls-2" d="M134.57,3.85l-.88.32,4.54,12.48c.29-.11.59-.21.89-.32l-4.54-12.49Z"/>
      <path class="cls-2" d="M145.78.93l-.93.16,2.31,13.1c.31-.06.62-.11.93-.17l-2.31-13.1Z"/>
      <path class="cls-2" d="M157.32,13.3V0h-.94v13.3c.16,0,.31-.01.47-.01s.31.01.47.01"/>
      <path class="cls-1" d="M157.79,15.28v15.04c-.15,0-.31,0-.47,0-.15-.01-.31-.02-.47-.02-.15,0-.31,0-.47.02-.15,0-.31,0-.47,0v-15.04h1.88Z"/>
      <path class="cls-1" d="M151.5,30.7c-.15.02-.31.05-.46.08-.31.05-.62.1-.93.16-.15.03-.31.06-.46.08l-2.61-14.8.46-.08.93-.16.46-.08,2.61,14.81Z"/>
      <path class="cls-1" d="M129.78,42.51c-.1.11-.21.24-.31.36-.21.24-.41.47-.61.72-.1.12-.2.24-.29.37l-11.52-9.67.3-.36.61-.73.3-.36,11.52,9.67Z"/>
      <path class="cls-1" d="M120.72,66.93c0,.15,0,.31,0,.47h-15.04v-1.88h15.04c0,.15,0,.31,0,.47,0,.15-.02.31-.02.47,0,.15.01.31.02.47"/>
      <path class="cls-1" d="M123.21,53.21c-.06.14-.11.29-.17.43-.11.29-.22.59-.32.89-.05.15-.1.3-.15.45l-14.12-5.14.16-.44.32-.88.16-.44,14.12,5.14Z"/>
      <path class="cls-1" d="M121.42,59.24c-.04.16-.06.31-.09.47-.06.3-.11.61-.17.92-.02.15-.05.31-.07.46l-14.8-2.61.08-.46.16-.92.09-.47,14.8,2.61Z"/>
      <path class="cls-1" d="M145.37,32.17c-.14.05-.29.1-.44.15-.29.1-.59.21-.89.32-.15.06-.29.11-.43.18l-5.15-14.13.44-.16.89-.32.44-.16,5.14,14.12Z"/>
      <path class="cls-1" d="M139.59,34.67c-.13.08-.27.16-.41.24-.27.16-.55.31-.82.47-.13.08-.27.16-.4.24l-7.51-13.02.4-.24.82-.47.4-.24,7.51,13.01Z"/>
      <path class="cls-1" d="M134.35,38.17c-.12.1-.25.2-.37.29-.25.2-.48.4-.71.61-.12.1-.25.21-.36.31l-9.67-11.52.36-.3.72-.6.36-.3,9.67,11.51Z"/>
      <path class="cls-1" d="M157.79,102.58v15.04h-1.88v-15.04c.16,0,.32,0,.47,0,.16.01.32.02.47.02.16,0,.32,0,.47-.02.16,0,.32,0,.47,0"/>
      <path class="cls-1" d="M183.25,110.29l-.41.24-.81.47-.41.23-7.5-13.01c.13-.08.26-.16.4-.24.27-.16.55-.31.82-.47.13-.08.26-.16.4-.24l7.52,13.02Z"/>
      <path class="cls-1" d="M175.23,114.21l-.44.16-.89.32-.44.16-5.14-14.12c.15-.05.3-.1.45-.15.29-.1.59-.21.88-.32.14-.06.29-.11.43-.17l5.14,14.12Z"/>
      <path class="cls-1" d="M190.46,105.04l-.37.3-.72.6-.36.31-9.67-11.52c.12-.1.24-.19.37-.29.24-.2.48-.4.72-.61.12-.1.24-.21.36-.31l9.67,11.52Z"/>
      <path class="cls-1" d="M208.02,65.51v1.88h-15.04c0-.16,0-.32,0-.47,0-.16.02-.32.02-.47,0-.16-.02-.32-.02-.47,0-.16,0-.32,0-.47h15.04Z"/>
      <path class="cls-1" d="M166.67,116.68l-.47.09-.92.16-.46.08-2.61-14.8c.15-.03.3-.06.46-.07.31-.06.62-.11.92-.17.16-.03.31-.06.47-.08l2.61,14.8Z"/>
      <path class="cls-1" d="M201.64,91.22l-.24.41-.47.82-.23.4-13.02-7.51c.08-.14.16-.27.24-.4.16-.27.31-.55.47-.82.08-.13.15-.27.23-.4l13.02,7.51Z"/>
      <path class="cls-1" d="M205.25,83.07l-.16.44-.32.89-.16.44-14.13-5.15c.06-.14.12-.29.18-.43.11-.29.22-.59.32-.88.05-.15.09-.3.15-.44l14.12,5.14Z"/>
      <path class="cls-1" d="M207.41,74.41l-.09.46-.16.93-.08.46-14.8-2.61c.03-.16.06-.31.09-.46.06-.31.11-.62.16-.93.03-.15.06-.31.08-.46l14.81,2.61Z"/>
      <path class="cls-1" d="M126.03,47.56c-.09.14-.16.27-.25.41-.16.27-.31.55-.47.82-.08.14-.16.27-.24.4l-13.01-7.51.71-1.21.24-.41,13.02,7.51Z"/>
      <path class="cls-1" d="M196.65,98.62l-.3.36-.6.73-.3.36-11.52-9.67c.1-.11.21-.23.31-.36.21-.24.42-.47.61-.72.09-.12.19-.24.29-.37l11.51,9.67Z"/>
      <path class="cls-4" d="M139.22,70.99l-16.39,2.89-.08-.46-.08-.46-.16-.93-.17-.92,16.37-2.89c.02.16.04.31.06.47.02.15.06.31.08.46.05.31.08.63.14.93.03.16.08.3.11.46.04.15.07.3.12.45"/>
      <path class="cls-4" d="M158.26,31.65v16.63c-.15,0-.31-.02-.47-.02-.15,0-.31-.02-.47-.03-.15,0-.31-.02-.47-.02-.15,0-.31.02-.47.02-.15,0-.31.02-.47.03-.15,0-.31,0-.47.02v-16.63h2.82Z"/>
      <path class="cls-4" d="M184.41,87.73l-.3.37-.3.36-.6.73-.3.36-.31.36-12.73-10.68c.1-.11.21-.24.31-.35.11-.11.22-.23.32-.35.21-.24.41-.47.61-.72.09-.12.19-.25.28-.38s.19-.25.28-.38l12.74,10.68Z"/>
      <path class="cls-4" d="M141.81,76.76l-14.39,8.3-.23-.4-.24-.4-.46-.82-.24-.4-.24-.4,14.41-8.32c.07.14.13.29.2.42.07.14.13.29.21.43.15.27.33.54.49.8.09.13.16.27.24.4.09.13.17.26.25.39"/>
      <path class="cls-4" d="M187.69,82.63l-.24.41-.24.4-.47.82-.47.81-14.39-8.3c.09-.13.17-.26.26-.39.09-.13.16-.27.24-.4.16-.26.34-.53.48-.8.08-.14.14-.29.21-.43.08-.13.14-.28.21-.42l14.4,8.32Z"/>
      <path class="cls-4" d="M140.26,73.99l-15.63,5.7-.16-.44-.16-.44-.32-.89-.16-.44-.16-.44,15.63-5.69c.04.15.08.3.11.45.05.15.1.3.16.44.09.3.21.59.32.88.06.15.1.3.17.44.06.15.13.28.2.42"/>
      <path class="cls-4" d="M138.67,67.4c0,.15,0,.31.02.47h-16.63v-2.82h16.63c-.01.15-.02.31-.02.47,0,.15-.03.31-.03.47,0,.15-.03.31-.03.47,0,.15.03.31.03.47,0,.15.02.31.03.47"/>
      <path class="cls-4" d="M158.26,84.61v16.63h-2.82v-16.63c.16,0,.32.02.47.02.16,0,.32.03.47.03.16,0,.32.02.47.02.16,0,.32-.02.47-.02.16,0,.32-.02.47-.03.16,0,.32-.01.47-.02"/>
      <path class="cls-4" d="M140.26,58.91c-.07.14-.14.27-.21.42-.06.14-.1.29-.16.44-.11.29-.23.58-.32.88-.06.14-.11.29-.16.44-.04.15-.08.3-.11.46l-15.63-5.7.16-.44.16-.44.32-.89.16-.43.16-.44,15.63,5.69Z"/>
      <path class="cls-4" d="M155.09,48.31c-.16.02-.31.05-.47.07-.15.02-.31.05-.46.07-.31.05-.63.08-.93.14-.16.04-.3.08-.46.11-.15.04-.3.08-.45.12l-2.89-16.38.46-.09.46-.08.93-.16.46-.08.46-.08,2.89,16.36Z"/>
      <path class="cls-4" d="M143.84,53.69c-.11.11-.21.24-.32.35-.1.11-.21.23-.31.35-.21.23-.41.47-.61.71-.09.12-.19.25-.28.38-.09.12-.19.25-.28.38l-12.74-10.68.3-.37.3-.36.6-.73.6-.72,12.74,10.68Z"/>
      <path class="cls-4" d="M175.47,95.88l-.41.23-.4.24-.82.48-.4.23-.4.24-8.32-14.41c.14-.07.28-.13.42-.2.14-.07.29-.13.42-.21.28-.15.54-.33.81-.49.13-.08.27-.16.4-.24.13-.09.26-.17.4-.25l8.3,14.39Z"/>
      <path class="cls-4" d="M139.22,61.91c-.05.15-.09.3-.12.45-.04.16-.08.31-.11.46-.06.31-.09.62-.14.93-.02.15-.06.31-.08.46-.02.16-.04.31-.06.47l-16.37-2.88.09-.47.08-.46.16-.92.08-.47.08-.46,16.39,2.89Z"/>
      <path class="cls-4" d="M141.81,56.14c-.09.13-.17.26-.25.4-.08.13-.16.27-.24.4-.16.27-.34.53-.49.81-.08.13-.13.28-.21.42-.07.14-.13.28-.2.42l-14.41-8.32.24-.4.24-.4.46-.82.47-.81,14.39,8.3Z"/>
      <path class="cls-4" d="M191.65,65.04v2.82h-16.63c0-.16,0-.32.02-.47,0-.16.02-.32.03-.47,0-.16.02-.32.02-.47,0-.16-.02-.32-.02-.47,0-.16-.02-.32-.03-.47,0-.16,0-.32-.02-.47h16.63Z"/>
      <path class="cls-4" d="M191.36,71.11l-.08.46-.09.46-.16.93-.09.46-.09.46-16.38-2.89c.04-.15.08-.3.12-.45.03-.16.07-.3.11-.46.06-.3.09-.62.14-.93.02-.15.05-.31.07-.46.02-.16.05-.31.07-.47l16.36,2.89Z"/>
      <path class="cls-4" d="M149,82.88l-8.32,14.41-.81-.47-.82-.47-.4-.24-.41-.23,8.31-14.39c.13.08.26.17.39.25.13.08.27.16.4.24.26.16.53.34.8.49.14.08.29.13.42.21.14.07.29.13.43.2"/>
      <path class="cls-4" d="M149,50.02c-.14.07-.29.13-.42.2-.14.07-.29.13-.43.21-.27.15-.54.33-.8.49-.13.08-.27.16-.4.24-.13.09-.26.17-.39.26l-8.31-14.39.41-.23.4-.24.82-.47.81-.47,8.32,14.4Z"/>
      <path class="cls-4" d="M155.09,84.6l-2.89,16.37-.92-.17-.93-.16-.46-.08-.46-.09,2.89-16.38c.15.05.3.08.45.12.16.04.3.08.46.11.3.06.62.09.93.14.15.02.31.05.46.08.16.02.31.04.47.06"/>
      <path class="cls-4" d="M151.96,84l-5.69,15.63-.44-.16-.44-.16-.89-.32-.44-.16-.44-.16,5.68-15.63c.15.07.28.14.43.2.14.07.29.11.44.17.29.11.58.23.88.32.15.05.3.11.45.16.15.04.3.07.45.11"/>
      <path class="cls-4" d="M143.84,79.21l-12.74,10.69-.6-.72-.6-.73-.3-.36-.3-.37,12.74-10.68c.09.12.19.25.28.38.09.12.19.25.28.38.2.24.4.48.61.71.1.12.21.24.31.35.11.11.21.24.32.35"/>
      <path class="cls-4" d="M164.28,100.47l-.46.09-.47.08-.92.16-.92.17-2.89-16.37c.16-.02.31-.04.47-.06.15-.03.31-.06.46-.08.31-.05.62-.08.93-.14.15-.03.3-.08.46-.11.15-.04.3-.08.45-.12l2.89,16.38Z"/>
      <path class="cls-4" d="M170.07,98.67l-.43.16-.44.16-.89.32-.44.16-.44.16-5.7-15.63c.15-.04.31-.07.46-.11.15-.05.29-.11.44-.16.3-.09.59-.21.89-.32.15-.06.3-.1.44-.17.15-.06.28-.13.42-.2l5.69,15.63Z"/>
      <path class="cls-4" d="M190.03,77.03l-.16.44-.16.44-.32.89-.17.44-.16.44-15.63-5.7c.07-.14.15-.27.21-.42.07-.14.11-.29.17-.44.11-.29.22-.58.32-.89.05-.14.1-.29.15-.44s.08-.3.12-.45l15.63,5.69Z"/>
      <path class="cls-4" d="M146.26,81.27l-10.69,12.74-.72-.6-.72-.6-.36-.3-.36-.3,10.68-12.74c.11.11.23.21.35.31.11.11.23.22.35.32.24.21.47.41.71.61.12.09.25.19.38.28.12.09.24.19.38.28"/>
      <path class="cls-4" d="M151.96,48.9c-.15.05-.3.08-.45.12-.15.04-.3.1-.45.15-.29.1-.58.21-.88.32-.15.06-.3.1-.44.17-.15.06-.28.14-.43.2l-5.68-15.62.44-.16.44-.17.89-.32.44-.16.44-.16,5.69,15.63Z"/>
      <path class="cls-4" d="M146.26,51.63c-.13.09-.25.19-.38.28-.12.1-.25.19-.38.28-.24.2-.48.4-.71.61-.12.1-.24.21-.35.32-.11.1-.23.21-.35.31l-10.68-12.73.36-.31.36-.3.72-.6.36-.3.36-.3,10.69,12.74Z"/>
      <path class="cls-4" d="M180.3,92.2l-.36.3-.37.3-1.07.9-.37.3-10.68-12.74c.12-.09.25-.19.38-.28.12-.09.25-.19.38-.28.24-.2.48-.4.72-.61.11-.1.23-.21.35-.32.11-.1.24-.2.35-.31l10.69,12.74Z"/>
      <path class="cls-3" d="M8.92,127.16c-.73,0-1.32-.59-1.32-1.32s.59-1.34,1.32-1.34,1.32.62,1.32,1.34-.59,1.32-1.32,1.32M5.67,127.16c-.72,0-1.34-.59-1.34-1.32s.62-1.34,1.34-1.34,1.32.62,1.32,1.34-.59,1.32-1.32,1.32M7.45,123.01c-4.86,0-7.3-1.93-7.3-5.78,0-.99.13-2.09.37-3.14h2.2c-.2.99-.35,1.91-.35,2.64,0,2.46,1.71,3.67,5.21,3.67,4.11,0,5.67-.7,5.67-1.6,0-.7-.72-1.16-2.22-1.16h-.51v-2.42h5.45v2l-.55.55h-.73c.37.37.59.88.59,1.47,0,1.96-2.59,3.78-7.84,3.78"/>
    </g>
    <polygon class="cls-3" points="17.78 117.76 15.43 117.76 15.43 115.74 15.97 115.21 18.33 115.21 18.33 117.23 17.78 117.76"/>
    <polygon class="cls-3" points="20.13 117.76 17.78 117.76 17.78 115.74 18.33 115.21 20.68 115.21 20.68 117.23 20.13 117.76"/>
    <g>
      <path class="cls-3" d="M23.64,121.98c-.77,0-1.34-.59-1.34-1.32,0-.77.57-1.34,1.34-1.34.73,0,1.32.57,1.32,1.34,0,.72-.59,1.32-1.32,1.32M27.42,117.21l-.55.55c-2,0-3.19-.77-3.47-2.33-.29,1.56-1.41,2.33-3.27,2.33v-2.02l.55-.53c1.65,0,2.24-.75,2.24-2.59v-2.35h2.24v2.35c0,1.05.15,1.76.46,2.09.33.33.92.51,1.8.51v2Z"/>
      <path class="cls-3" d="M36.78,106.82c-.73,0-1.34-.59-1.34-1.32,0-.77.61-1.34,1.34-1.34s1.32.57,1.32,1.34c0,.73-.59,1.32-1.32,1.32M30.74,115.21h2.62c4.75,0,6.7-.75,6.7-2.42,0-.46-.24-.9-.7-1.34-.46-.46-1.16-.68-2.11-.68-2.55,0-4.86,1.78-6.5,4.44M26.87,117.76v-2l.55-.55h1.47c.2-.46.46-.97.7-1.41v-12.85h2.31v9.73c1.58-1.58,3.43-2.48,5.45-2.48,3.03,0,4.64,2.2,4.64,4.55,0,3.34-2.94,5.01-9.18,5.01h-5.93Z"/>
      <path class="cls-3" d="M50.63,115.21c-.2-2.79-1.32-4.24-3.08-4.24-.72,0-1.27.26-1.67.77-.4.51-.59,1.05-.59,1.67,0,1.25.9,1.8,3.1,1.8h2.24ZM52.74,117.76h-.37c-.42,3.36-2.2,5.19-5.6,5.19-.97,0-2.13-.15-3.08-.35v-2.51c.97.26,2.09.42,3.08.42,2.26,0,3.4-.73,3.76-2.75h-1.98c-3.49,0-5.14-1.58-5.14-4.11,0-2.72,1.93-5.14,4.53-5.14s4.35,2.33,4.53,6.7h.83v2l-.55.55Z"/>
    </g>
    <polygon class="cls-3" points="55.09 117.76 52.74 117.76 52.74 115.74 53.29 115.21 55.64 115.21 55.64 117.23 55.09 117.76"/>
    <g>
      <path class="cls-3" d="M58.25,121.98c-.77,0-1.34-.59-1.34-1.32,0-.77.57-1.34,1.34-1.34.73,0,1.32.57,1.32,1.34,0,.72-.59,1.32-1.32,1.32M55.09,117.76v-2.02l.55-.53c1.82,0,2.35-.81,2.35-2.59,0-.94-.11-2.24-.35-3.89h2.29c.2,1.49.31,2.94.31,4.11,0,3.27-1.5,4.92-4.48,4.92h-.66Z"/>
      <path class="cls-3" d="M65.11,117.76h-2.31v-13.34h2.31v13.34ZM66.23,102.78l-4.7.68v-1.56l.97-.13c-.37-.33-.61-.81-.61-1.36.02-1.16.9-2.04,2.11-2.04,1.08,0,1.8.73,1.89,1.89l-1.08.13c-.18-.29-.46-.48-.88-.48-.51,0-.84.24-.84.68,0,.62.7,1.01,1.58.9l1.56-.24v1.54Z"/>
      <path class="cls-3" d="M81.21,117.63l-8.66.55.02-2.44,1.6-.09c-.59-.59-.97-1.45-.97-2.44,0-1.08.37-2,1.1-2.75.73-.77,1.65-1.14,2.77-1.14,2.26,0,3.56,1.43,3.67,3.56l-2.07.04c-.11-.68-.73-1.14-1.63-1.14-1.16,0-1.89.57-1.89,1.71,0,.59.26,1.08.79,1.43.53.35,1.49.48,2.9.4l2.35-.15v2.46Z"/>
      <path class="cls-3" d="M87.7,117.76h-.2c-2.7,0-3.82-1.49-3.82-4.66v-12.15h2.33v11.82c0,1.82.57,2.44,2.24,2.44v2l-.55.55Z"/>
      <path class="cls-3" d="M95.23,115.28c.7.11,1.58.15,2.66.15,4.74,0,6.7-.97,6.7-2.64,0-.46-.22-.9-.68-1.34-.46-.46-1.16-.68-2.11-.68-2.57,0-4.9,1.78-6.57,4.5M106.15,114.66c.46.37,1.14.55,2.26.55v1.98l-.55.57c-1.38,0-2.37-.46-3.1-1.45-1.49,1.08-3.98,1.67-7.43,1.67-3.78,0-5.87-.99-6.33-2.81-.26,1.74-1.38,2.59-3.32,2.59v-2.02l.55-.53c1.67,0,2.26-.68,2.26-2.44v-.97h2.11v.97c0,.94.29,1.6,1.01,2.02.97-2,2.15-3.6,3.58-4.79,1.43-1.21,2.99-1.8,4.68-1.8,3.01,0,4.66,2.2,4.66,4.55,0,.7-.13,1.36-.39,1.91"/>
      <path class="cls-3" d="M107.87,117.76v-2.02l.55-.53h1.47c1.05,0,1.98-.09,2.75-.24.77-.17,1.6-.48,2.48-.94l1.49-.73c.55-.29,1.05-.51,1.49-.68-.64-.15-1.3-.37-2.07-.66l-1.89-.72c-.88-.35-1.36-.46-1.91-.46-.64,0-1.05.4-1.17,1.03h-2.04c.09-2.26,1.3-3.6,3.23-3.6.73,0,1.47.18,2.81.68l2.55.95c2.02.83,2.81,1.03,4.04,1.03h.73v2.31h-.81c-1.21,0-1.98.37-4.15,1.74l-1.47.97c-2.4,1.51-3.63,1.89-6.07,1.89h-2.02Z"/>
      <path class="cls-3" d="M126.66,117.76h-2.31v-16.81h2.31v16.81ZM127.78,123.39l-4.7.66v-1.54l.97-.13c-.37-.33-.62-.81-.62-1.36.02-1.16.9-2.04,2.11-2.04,1.08,0,1.8.7,1.89,1.87l-1.08.15c-.18-.29-.46-.48-.88-.48-.51,0-.84.24-.84.68,0,.62.7,1.03,1.58.88l1.56-.22v1.54Z"/>
      <path class="cls-3" d="M0,141.16h2.61c.17,1.65.88,3.01,3.62,3.01,1.78,0,3.1-1.03,3.1-2.53,0-.77-.24-1.32-.73-1.67-.46-.37-1.36-.66-2.68-.86-3.67-.53-5.47-1.67-5.47-4.57,0-1.27.51-2.33,1.49-3.16.99-.86,2.31-1.27,3.91-1.27,3.32,0,5.36,1.54,5.65,4.5h-2.5c-.29-1.69-1.3-2.46-3.14-2.46s-2.83.9-2.83,2.2.55,1.98,3.36,2.4c1.82.24,3.19.7,4.13,1.36.95.66,1.43,1.76,1.43,3.32,0,2.7-2.31,4.81-5.71,4.81-4.26,0-6-2.15-6.24-5.08"/>
      <path class="cls-3" d="M15.03,142.8v-6.31h-1.54v-1.98h1.54v-2.53h2.66v2.53h2.5v1.98h-2.5v6.06c0,.99.46,1.49,1.32,1.49.53,0,.92-.09,1.3-.24v2.11c-.42.11-.99.29-1.8.29-2.29,0-3.47-1.23-3.47-3.41"/>
      <path class="cls-3" d="M29.25,141.99v-1.14h-1.36c-2.02,0-3.32.46-3.32,1.87,0,.97.53,1.6,1.85,1.6,1.6,0,2.83-.86,2.83-2.33M21.93,142.83c0-2.68,2.61-3.65,5.89-3.65h1.43v-.59c0-1.52-.53-2.31-2.09-2.31-1.38,0-2.09.66-2.2,1.8h-2.57c.24-2.68,2.35-3.8,4.92-3.8s4.59,1.06,4.59,4.2v7.54h-2.61v-1.41c-.73.99-1.76,1.63-3.52,1.63-2.11,0-3.84-1.01-3.84-3.41"/>
      <path class="cls-3" d="M35.38,142.8v-6.31h-1.54v-1.98h1.54v-2.53h2.66v2.53h2.5v1.98h-2.5v6.06c0,.99.46,1.49,1.32,1.49.53,0,.92-.09,1.3-.24v2.11c-.42.11-.99.29-1.8.29-2.29,0-3.47-1.23-3.47-3.41"/>
      <path class="cls-3" d="M43.09,134.52h2.66v11.49h-2.66v-11.49ZM42.8,131.12c0-.86.7-1.54,1.58-1.54s1.6.68,1.6,1.54-.7,1.52-1.6,1.52-1.58-.66-1.58-1.52"/>
      <path class="cls-3" d="M48.1,142.43h2.5c.11,1.16.73,1.85,2.29,1.85,1.43,0,2.07-.51,2.07-1.47s-.79-1.3-2.46-1.58c-1.52-.24-2.57-.62-3.21-1.12-.64-.51-.94-1.3-.94-2.37,0-2.29,2.15-3.45,4.31-3.45,1.17,0,2.18.26,3.01.77.86.51,1.34,1.41,1.49,2.7h-2.46c-.2-1.05-.81-1.54-2.04-1.54-1.14,0-1.82.55-1.82,1.36s.55,1.19,2.37,1.47c1.34.2,2.39.55,3.16,1.01.77.46,1.14,1.3,1.14,2.5,0,2.31-1.67,3.67-4.59,3.67s-4.7-1.36-4.81-3.8"/>
      <path class="cls-3" d="M60.27,142.8v-6.31h-1.54v-1.98h1.54v-2.53h2.66v2.53h2.5v1.98h-2.5v6.06c0,.99.46,1.49,1.32,1.49.53,0,.92-.09,1.3-.24v2.11c-.42.11-.99.29-1.8.29-2.29,0-3.47-1.23-3.47-3.41"/>
      <path class="cls-3" d="M67.99,134.52h2.66v11.49h-2.66v-11.49ZM67.7,131.12c0-.86.7-1.54,1.58-1.54s1.6.68,1.6,1.54-.7,1.52-1.6,1.52-1.58-.66-1.58-1.52"/>
      <path class="cls-3" d="M73.11,140.39v-.18c0-3.62,2.61-5.93,5.8-5.93,2.55,0,4.94,1.14,5.23,4.31h-2.53c-.26-1.52-1.25-2.18-2.66-2.18-1.82,0-3.12,1.41-3.12,3.8v.18c0,2.46,1.25,3.8,3.19,3.8,1.41,0,2.59-.86,2.77-2.46h2.42c-.09,1.32-.59,2.39-1.54,3.25-.95.83-2.2,1.25-3.76,1.25-3.3,0-5.8-2.15-5.8-5.85"/>
      <path class="cls-3" d="M85.7,142.43h2.5c.11,1.16.73,1.85,2.29,1.85,1.43,0,2.07-.51,2.07-1.47s-.79-1.3-2.46-1.58c-1.52-.24-2.57-.62-3.21-1.12-.64-.51-.94-1.3-.94-2.37,0-2.29,2.15-3.45,4.31-3.45,1.17,0,2.18.26,3.01.77.86.51,1.34,1.41,1.49,2.7h-2.46c-.2-1.05-.81-1.54-2.04-1.54-1.14,0-1.82.55-1.82,1.36s.55,1.19,2.37,1.47c1.34.2,2.39.55,3.16,1.01.77.46,1.14,1.3,1.14,2.5,0,2.31-1.67,3.67-4.59,3.67s-4.7-1.36-4.81-3.8"/>
    </g>
    <path class="cls-3" d="M108.61,132.54l-2.39,7.45h4.79l-2.39-7.45ZM101.72,146.01l5.29-15.71h3.54l5.21,15.71h-2.79l-1.3-4.02h-6.11l-1.3,4.02h-2.55Z"/>
    <g>
      <path class="cls-3" d="M126.76,140.37v-.18c0-2.55-1.32-3.82-3.05-3.82-1.85,0-3.16,1.25-3.16,3.8v.18c0,2.55,1.27,3.78,3.19,3.78s3.03-1.36,3.03-3.76M120.63,144.17v1.85h-2.66v-16.81h2.66v7.16c.64-1.12,2.09-2.09,3.76-2.09,2.9,0,5.08,2.13,5.08,5.84v.18c0,3.69-2.11,5.93-5.08,5.93-1.82,0-3.14-.9-3.76-2.07"/>
      <path class="cls-3" d="M132.9,145.2c-.75-.68-1.12-1.8-1.12-3.32v-7.36h2.66v7.05c0,1.74.75,2.53,2.24,2.53s2.7-.92,2.7-2.75v-6.83h2.66v11.49h-2.66v-1.8c-.55,1.12-1.8,2.02-3.65,2.02-1.12,0-2.07-.35-2.83-1.03"/>
      <path class="cls-3" d="M153.38,143.84h1.82c3.6,0,5.38-2.11,5.38-5.65v-.18c0-3.41-1.6-5.56-5.41-5.56h-1.8v11.38ZM150.65,146.01v-15.71h4.68c5.43,0,8.09,3.19,8.09,7.69v.2c0,4.53-2.66,7.82-8.13,7.82h-4.64Z"/>
      <path class="cls-3" d="M166.03,146.01v-16.81h2.66v7.14c.55-1.12,1.85-2.06,3.71-2.06,2.29,0,3.93,1.36,3.93,4.53v7.21h-2.66v-6.99c0-1.74-.7-2.53-2.29-2.53-1.47,0-2.7.92-2.7,2.75v6.77h-2.66Z"/>
      <path class="cls-3" d="M185.87,141.99v-1.14h-1.36c-2.02,0-3.32.46-3.32,1.87,0,.97.53,1.6,1.85,1.6,1.6,0,2.83-.86,2.83-2.33M178.56,142.83c0-2.68,2.61-3.65,5.89-3.65h1.43v-.59c0-1.52-.53-2.31-2.09-2.31-1.38,0-2.09.66-2.2,1.8h-2.57c.24-2.68,2.35-3.8,4.92-3.8s4.59,1.06,4.59,4.2v7.54h-2.61v-1.41c-.72.99-1.76,1.63-3.52,1.63-2.11,0-3.84-1.01-3.84-3.41"/>
      <path class="cls-3" d="M200.38,140.37v-.18c0-2.55-1.32-3.82-3.05-3.82-1.85,0-3.16,1.25-3.16,3.8v.18c0,2.55,1.27,3.78,3.19,3.78s3.03-1.36,3.03-3.76M194.25,144.17v1.85h-2.66v-16.81h2.66v7.16c.64-1.12,2.09-2.09,3.76-2.09,2.9,0,5.08,2.13,5.08,5.84v.18c0,3.69-2.11,5.93-5.08,5.93-1.82,0-3.14-.9-3.76-2.07"/>
      <path class="cls-3" d="M205.56,134.52h2.66v11.49h-2.66v-11.49ZM205.28,131.12c0-.86.7-1.54,1.58-1.54s1.6.68,1.6,1.54-.7,1.52-1.6,1.52-1.58-.66-1.58-1.52"/>
    </g>
  </g>
</svg>