<?xml version="1.0" encoding="UTF-8"?>
<svg id="Layer_2" data-name="Layer 2" xmlns="http://www.w3.org/2000/svg" xmlns:xlink="http://www.w3.org/1999/xlink" viewBox="0 0 447.82 321">
  <defs>
    <style>
      .cls-1 {
        clip-path: url(#clippath);
      }

      .cls-2 {
        fill: none;
      }

      .cls-2, .cls-3, .cls-4 {
        stroke-width: 0px;
      }

      .cls-3 {
        fill: url(#linear-gradient);
      }

      .cls-4 {
        fill: #929191;
      }
    </style>
    <clipPath id="clippath">
      <path class="cls-2" d="M269.94,0c-11.98,0-21.7,9.72-21.7,21.71v20.66c0,2.75-2.23,4.98-4.98,4.98h-20.66c-11.99,0-21.7,9.71-21.7,21.7v20.67c0,2.74-2.23,4.97-4.98,4.97h-20.66c-11.98,0-21.71,9.72-21.71,21.7v25.63c0,39.22,31.79,71.01,71.01,71.01s71.01-31.79,71.01-71.01v-47.34h-25.64c-11.98,0-21.7,9.72-21.7,21.7v25.63c0,13.07-10.6,23.67-23.67,23.67s-23.66-10.59-23.66-23.67v-42.36c0-2.75,2.22-4.97,4.97-4.97h20.66c11.98,0,21.71-9.72,21.71-21.71v-20.66c0-2.74,2.22-4.97,4.97-4.97h20.66c11.98,0,21.7-9.72,21.7-21.71V0h0s-25.63,0-25.63,0Z"/>
    </clipPath>
    <linearGradient id="linear-gradient" x1="-379.08" y1="496.34" x2="-375.11" y2="496.34" gradientTransform="translate(24449.87 -31779.46) scale(64.24)" gradientUnits="userSpaceOnUse">
      <stop offset="0" stop-color="#006ea1"/>
      <stop offset=".5" stop-color="#00a7b1"/>
      <stop offset="1" stop-color="#89b73d"/>
    </linearGradient>
  </defs>
  <g id="SDB_LOGO_H">
    <g>
      <g>
        <path class="cls-4" d="M11.36,308.48l-3.22-.6c-1.26-.24-2.16-.55-2.68-.93-.46-.33-.69-.79-.69-1.39,0-.36.06-.69.19-.97.12-.27.33-.51.61-.71.3-.21.73-.38,1.26-.5,1.11-.25,3.01-.26,4.39.03.7.15,1.33.33,1.86.53.52.2.96.42,1.31.64.34.22.59.42.74.58l.22.26.28-.19c.27-.18.55-.47.85-.89.31-.44.47-.93.47-1.45,0-.42-.12-.78-.37-1.1-.21-.28-.49-.54-.85-.79-.16-.1-.4-.23-.74-.42-.35-.18-.79-.35-1.37-.53-.56-.17-1.23-.31-2.01-.43-.79-.12-1.72-.17-2.77-.17-1.45,0-2.71.16-3.74.49-1.05.33-1.93.79-2.61,1.35-.7.57-1.22,1.26-1.54,2.05-.32.77-.48,1.6-.48,2.45,0,.96.19,1.8.57,2.5.37.69.87,1.28,1.49,1.76.61.46,1.31.84,2.09,1.12.76.27,1.57.48,2.39.62l3.17.57c.55.09,1.05.21,1.49.34.41.12.76.28,1.04.48.26.18.46.4.59.65s.2.57.2.94c0,.77-.29,1.35-.91,1.76-.65.44-1.78.66-3.37.66-.91,0-1.77-.07-2.53-.22-.77-.15-1.47-.33-2.08-.55-.61-.21-1.12-.43-1.52-.64-.4-.21-.7-.39-.9-.53l-.36-.27-1.89,3.38.3.2c.24.16.61.37,1.13.65.51.28,1.16.55,1.93.82.77.27,1.65.49,2.61.68.98.18,2.07.28,3.24.28,1.39,0,2.64-.15,3.71-.45,1.09-.3,2.02-.74,2.75-1.31.75-.57,1.32-1.26,1.71-2.05.39-.79.59-1.68.59-2.66,0-1.76-.58-3.14-1.73-4.09-1.1-.91-2.75-1.57-4.9-1.97"/>
        <path class="cls-4" d="M39.82,302.52c-.98-.96-2.14-1.72-3.47-2.27-2.64-1.09-5.97-1.09-8.62,0-1.32.55-2.49,1.31-3.47,2.27-.98.97-1.76,2.12-2.32,3.43-.56,1.31-.84,2.74-.84,4.27s.28,2.96.84,4.27c.56,1.31,1.34,2.46,2.32,3.42.98.96,2.15,1.73,3.47,2.27,1.32.55,2.77.82,4.31.82s3-.28,4.31-.82c1.33-.55,2.49-1.31,3.46-2.27.99-.96,1.77-2.11,2.32-3.42.56-1.31.84-2.74.84-4.27s-.28-2.96-.84-4.27c-.56-1.31-1.33-2.46-2.32-3.43M38.59,310.22c0,1-.17,1.93-.5,2.76-.33.83-.79,1.56-1.37,2.16-.58.6-1.27,1.08-2.06,1.42-1.58.69-3.63.69-5.21,0-.79-.34-1.49-.82-2.07-1.42-.59-.61-1.05-1.33-1.37-2.16-.32-.83-.49-1.76-.49-2.76s.17-1.94.49-2.78c.33-.84.79-1.58,1.37-2.17.59-.61,1.29-1.08,2.07-1.41.79-.33,1.67-.5,2.61-.5s1.82.17,2.61.5c.79.33,1.48.8,2.06,1.4.58.6,1.04,1.33,1.37,2.18.34.84.5,1.77.5,2.78"/>
        <path class="cls-4" d="M62.26,315.58l-.35.23c-.37.25-.99.53-1.83.82-.83.29-1.83.44-2.99.44-.97,0-1.89-.15-2.72-.44-.83-.29-1.55-.72-2.16-1.28-.61-.57-1.09-1.27-1.44-2.11-.35-.84-.53-1.83-.53-2.94s.17-2.09.51-2.95c.33-.86.79-1.6,1.37-2.2.57-.59,1.26-1.06,2.05-1.37,1.34-.53,3.03-.6,4.36-.27.55.14,1.05.3,1.49.51.43.2.8.42,1.13.65.32.25.56.45.73.64l.2.22.27-.13c.15-.08.31-.19.48-.34.17-.15.34-.33.49-.53.16-.2.3-.44.43-.7.13-.28.19-.58.19-.88s-.12-.65-.35-1.08c-.24-.4-.63-.8-1.19-1.17-.55-.35-1.29-.66-2.21-.9-.91-.24-2.09-.36-3.5-.36-1.48,0-2.89.25-4.2.73-1.31.49-2.48,1.21-3.45,2.13-.99.92-1.78,2.08-2.34,3.43-.56,1.35-.85,2.89-.85,4.58s.3,3.26.89,4.59c.59,1.33,1.39,2.46,2.4,3.36,1,.89,2.18,1.58,3.48,2.05,1.3.46,2.71.7,4.16.7,1,0,1.9-.07,2.69-.21.78-.14,1.48-.31,2.06-.5.58-.19,1.08-.41,1.48-.63.39-.22.7-.41.91-.57l.28-.2-1.94-3.29Z"/>
        <path class="cls-4" d="M70.3,300.12c-.34-.11-.72-.16-1.13-.16-.65,0-1.18.16-1.57.47-.42.34-.64.84-.64,1.51v18.55h4.21v-20.06l-.25-.1c-.1-.04-.31-.12-.63-.21"/>
        <path class="cls-4" d="M94.56,317.83c-.39-.99-.83-2.12-1.34-3.4-.51-1.28-1.06-2.63-1.66-4.06-.59-1.43-1.17-2.8-1.74-4.12-.57-1.31-1.1-2.5-1.59-3.56-.49-1.06-.9-1.88-1.21-2.42l-.08-.09c-.05-.05-.12-.09-.3-.18-.13-.07-.3-.15-.49-.24-.2-.08-.43-.16-.69-.22-.27-.06-.55-.1-.83-.1-.75,0-1.38.17-1.89.51-.5.34-.94.92-1.32,1.76-.69,1.53-1.39,3.11-2.09,4.72-.7,1.62-1.38,3.2-2.03,4.77-.65,1.57-1.28,3.09-1.87,4.58-.6,1.49-1.14,2.88-1.62,4.17l-.2.53h4.3l.09-.26c.21-.59.48-1.33.82-2.22.31-.82.65-1.7,1.04-2.67h9.11c.12.32.26.68.42,1.07.19.49.38.99.56,1.48l.5,1.37c.15.43.28.76.38,1l.1.24h4.62l-.19-.53c-.16-.43-.42-1.13-.81-2.13M87.52,311.52h-6.13c.22-.58.46-1.16.71-1.76.33-.78.65-1.56.98-2.32.33-.75.64-1.47.95-2.15.17-.37.33-.73.48-1.06.11.22.21.47.34.75.29.67.61,1.41.94,2.22.34.82.68,1.65,1.02,2.5.26.64.5,1.24.71,1.8"/>
        <path class="cls-4" d="M102.22,300.42l-.25-.1c-.1-.04-.31-.11-.63-.21-.34-.11-.72-.16-1.12-.16-.65,0-1.18.16-1.57.47-.42.34-.64.84-.64,1.5v18.55h14.37v-3.92h-10.16v-16.13Z"/>
        <path class="cls-4" d="M139,302.48c-1.04-.91-2.33-1.61-3.82-2.09-1.48-.48-3.17-.73-5.03-.73-1.27,0-2.33.02-3.14.06-.86.04-1.53.14-2.05.29-.58.17-1,.44-1.24.8-.24.35-.35.83-.35,1.4v18.2l.32.06c.05.01.17.03,1.65.16.99.08,2.53.13,4.59.13s3.74-.24,5.26-.72c1.53-.48,2.84-1.19,3.88-2.11,1.05-.92,1.85-2.05,2.39-3.36.53-1.3.8-2.78.8-4.39s-.28-3.07-.84-4.37c-.56-1.31-1.37-2.43-2.42-3.33M137.87,310.19c0,2.13-.65,3.8-1.94,4.96-1.3,1.17-3.23,1.76-5.72,1.76-.88,0-1.57-.02-2.06-.07-.26-.02-.44-.04-.57-.06v-13.17c.14-.02.31-.03.52-.05.51-.05,1.21-.07,2.11-.07,1.35,0,2.53.17,3.5.51.96.33,1.76.8,2.36,1.38.61.58,1.06,1.29,1.36,2.09.3.83.45,1.75.45,2.73"/>
        <path class="cls-4" d="M161.06,303.88l.12-.19c.06-.11.16-.32.29-.65.13-.34.19-.72.19-1.13,0-1.26-.75-1.95-2.12-1.95h-11.05c-1.61,0-2.5.84-2.5,2.36v18.17h15.5v-3.92h-11.23v-4.6h10.33l.12-.15c.11-.14.21-.35.34-.7.12-.34.18-.72.18-1.13,0-1.26-.74-1.95-2.09-1.95h-8.87v-4.16h10.8Z"/>
        <path class="cls-4" d="M183.12,300.27c-.39-.21-.88-.32-1.44-.32-.73,0-1.3.17-1.68.52-.35.32-.67.84-.96,1.57-.4,1.02-.85,2.16-1.35,3.44-.5,1.28-1.01,2.56-1.52,3.87-.52,1.3-1.03,2.56-1.54,3.79-.36.88-.7,1.68-1.03,2.4-.43-.98-.88-2.01-1.34-3.11-.59-1.41-1.17-2.82-1.74-4.24-.57-1.41-1.1-2.78-1.61-4.09-.52-1.35-.93-2.49-1.28-3.48l-.05-.15-.15-.07c-.09-.04-.28-.12-.58-.24-.33-.14-.74-.2-1.24-.2-.66,0-1.17.17-1.53.51-.35.34-.53.8-.53,1.37,0,.43.08.88.23,1.35.15.44.33.92.54,1.41.11.29.3.74.55,1.34.25.61.56,1.33.91,2.18.35.85.75,1.77,1.18,2.78.43,1.01.89,2.05,1.37,3.11.48,1.07.97,2.13,1.47,3.2.5,1.07.99,2.09,1.47,3.05l.11.22h4.29l.11-.23c.44-.94.93-2.01,1.46-3.2.52-1.19,1.07-2.43,1.63-3.72.56-1.29,1.1-2.56,1.64-3.84.54-1.28,1.04-2.47,1.5-3.57.46-1.1.86-2.08,1.2-2.93.34-.85.59-1.47.74-1.88l.11-.3-.27-.17c-.1-.06-.32-.18-.67-.37"/>
        <path class="cls-4" d="M201.65,303.88l.12-.19c.06-.1.16-.32.29-.65.13-.34.2-.72.2-1.13,0-1.26-.75-1.95-2.12-1.95h-11.05c-1.61,0-2.5.84-2.5,2.36v18.17h15.5v-3.92h-11.23v-4.6h10.34l.11-.15c.11-.14.21-.35.34-.7.12-.34.18-.72.18-1.13,0-1.26-.74-1.95-2.09-1.95h-8.88v-4.16h10.8Z"/>
        <path class="cls-4" d="M210.31,300.42l-.25-.1c-.1-.04-.31-.11-.63-.21-.34-.11-.72-.16-1.13-.16-.64,0-1.17.16-1.57.47-.42.34-.64.84-.64,1.5v18.55h14.37v-3.92h-10.16v-16.13Z"/>
        <path class="cls-4" d="M239.91,302.52c-.98-.96-2.14-1.72-3.47-2.27-2.64-1.09-5.97-1.09-8.62,0-1.32.55-2.49,1.31-3.47,2.27-.98.97-1.76,2.12-2.32,3.43-.56,1.31-.84,2.74-.84,4.27s.28,2.96.84,4.27c.56,1.31,1.34,2.46,2.32,3.42.98.96,2.15,1.73,3.47,2.27,1.32.55,2.77.82,4.31.82s3-.28,4.31-.82c1.32-.55,2.49-1.31,3.46-2.27.98-.96,1.76-2.11,2.32-3.42.56-1.31.84-2.74.84-4.27s-.28-2.96-.84-4.27c-.56-1.31-1.33-2.46-2.32-3.43M238.68,310.22c0,1-.17,1.93-.5,2.76-.33.83-.79,1.56-1.37,2.16-.58.6-1.27,1.08-2.06,1.42-1.58.69-3.63.69-5.21,0-.79-.34-1.49-.82-2.07-1.42-.59-.61-1.05-1.33-1.37-2.16-.32-.83-.49-1.76-.49-2.76s.17-1.94.49-2.78c.33-.84.79-1.58,1.37-2.17.59-.61,1.29-1.08,2.07-1.41.79-.33,1.67-.5,2.61-.5s1.82.17,2.61.5c.79.33,1.48.8,2.06,1.4.58.6,1.04,1.33,1.37,2.18.34.84.5,1.77.5,2.78"/>
        <path class="cls-4" d="M261,301.56c-1.56-1.26-3.95-1.9-7.1-1.9-1.5,0-2.67.03-3.48.1-.86.07-1.4.14-1.72.19-.5.11-.94.32-1.3.63-.39.34-.59.89-.59,1.62v18.26h4.13v-6.97s0,0,0,0c.26.04.56.08.92.1.35.03.73.06,1.15.09,2.08.15,3.98-.04,5.42-.48,1.16-.34,2.12-.85,2.85-1.47.74-.64,1.29-1.4,1.62-2.27.33-.86.5-1.79.5-2.78,0-2.13-.8-3.86-2.39-5.14M259.09,306.71c0,.47-.08.91-.23,1.31-.15.39-.41.73-.76,1.03-.37.31-.89.56-1.54.73-.67.18-1.52.27-2.54.27-.94,0-1.72-.04-2.3-.12l-.64-.09s-.1-.02-.15-.02v-6.34c.15-.02.38-.03.7-.06.55-.04,1.29-.06,2.19-.06,1.11,0,2.03.1,2.73.3.69.2,1.22.45,1.6.76.36.3.61.64.74,1.02.14.41.21.84.21,1.27"/>
        <path class="cls-4" d="M289.37,317.75c-.05-1.01-.11-2.13-.19-3.37-.08-1.24-.15-2.53-.23-3.89l-.4-7.27c-.05-1.02-.11-1.8-.15-2.34v-.15s-.11-.1-.11-.1c-.1-.1-.28-.23-.86-.45-.43-.16-.95-.24-1.55-.24-.72,0-1.31.17-1.79.5-.45.32-.84.8-1.13,1.42-.23.48-.56,1.15-.99,2.03l-1.38,2.79c-.49.99-.98,1.96-1.47,2.93-.33.65-.62,1.23-.88,1.74-.29-.57-.63-1.23-1.01-1.98-.55-1.07-1.09-2.16-1.64-3.26l-2.58-5.2-.07-.1c-.19-.19-.5-.37-.92-.57-.44-.19-.97-.29-1.63-.29-.61,0-1.17.17-1.66.5-.52.36-.81.95-.86,1.76-.04.5-.09,1.22-.15,2.15-.06.93-.12,1.98-.18,3.14-.07,1.16-.14,2.37-.2,3.62-.06,1.26-.13,2.46-.2,3.63-.07,1.16-.13,2.21-.17,3.15-.05.95-.08,1.67-.1,2.16l-.02.41h4.18v-.38c.04-.46.06-1.07.1-1.84l.13-2.56c.05-.94.1-1.91.16-2.92.05-1.01.11-1.98.16-2.93.05-.93.1-1.79.14-2.56,0-.14.02-.28.03-.41.22.43.45.89.7,1.37.5,1.02,1.02,2.04,1.52,3.07.51,1.04.99,2.01,1.43,2.92.44.9.77,1.62,1,2.13l.11.24h3.32l.11-.22c.18-.35.4-.81.68-1.4.28-.58.58-1.21.92-1.9.34-.68.69-1.4,1.05-2.14l1.05-2.14c.33-.68.65-1.31.94-1.88l.03-.08.17,2.73c.05.99.11,2.04.17,3.14.06,1.1.12,2.15.17,3.15.06,1,.1,1.87.14,2.63.04.76.07,1.3.09,1.61l.02.37h4.16l-.03-.42c-.04-.54-.08-1.31-.13-2.31"/>
        <path class="cls-4" d="M309.02,303.88l.12-.19c.06-.1.16-.32.29-.65.13-.34.2-.72.2-1.13,0-1.26-.75-1.95-2.12-1.95h-11.05c-1.61,0-2.5.84-2.5,2.36v18.17h15.5v-3.92h-11.23v-4.6h10.33l.12-.15c.11-.13.21-.35.34-.7.12-.34.18-.72.18-1.13,0-1.26-.74-1.95-2.09-1.95h-8.88v-4.16h10.8Z"/>
        <path class="cls-4" d="M330.32,300.12c-.33-.11-.72-.16-1.14-.16-.65,0-1.17.16-1.55.48-.4.33-.6.84-.6,1.5v11.36c-.24-.36-.49-.75-.76-1.16-.57-.87-1.17-1.76-1.8-2.69l-1.92-2.78c-.64-.93-1.25-1.8-1.82-2.6-.57-.79-1.07-1.49-1.5-2.07-.44-.6-.76-1-.95-1.24l-.07-.07c-.16-.11-.41-.25-.77-.44-.4-.2-.9-.3-1.5-.3-.64,0-1.2.16-1.67.48-.52.35-.79.94-.79,1.75v18.29h4.18v-14.02c.3.42.61.86.94,1.32.6.85,1.22,1.74,1.85,2.67l3.73,5.53c.58.87,1.12,1.68,1.59,2.41l1.36,2.1h4.06v-19.99l-.19-.11c-.13-.08-.34-.16-.67-.27"/>
        <path class="cls-4" d="M351.08,299.95h-16.66l-.12.19c-.06.1-.16.32-.29.65-.13.34-.2.72-.2,1.13,0,1.26.74,1.95,2.09,1.95h5.37v16.6h4.21v-16.6h7.05l.12-.14c.11-.13.21-.35.34-.71.12-.34.18-.72.18-1.12,0-1.25-.74-1.95-2.09-1.95"/>
        <path class="cls-4" d="M378.65,309.81c.09-.06.17-.12.26-.19.33-.26.63-.58.9-.96.26-.37.48-.82.65-1.32.18-.51.26-1.1.26-1.76,0-.77-.13-1.52-.4-2.22-.27-.72-.77-1.37-1.47-1.92-.68-.54-1.62-.98-2.8-1.3-1.16-.31-2.65-.47-4.42-.47-1.65,0-2.87.03-3.73.09-.89.06-1.51.13-1.9.21-.47.09-.9.3-1.26.62-.39.35-.59.9-.59,1.63v18.27h.39c.11,0,.36.01.75.05.42.04.95.07,1.59.1.63.03,1.37.06,2.19.09.83.03,1.71.05,2.64.05,1.94,0,3.55-.16,4.8-.46,1.26-.31,2.27-.75,3-1.31.74-.58,1.25-1.26,1.53-2.04.26-.75.4-1.56.4-2.4,0-1.29-.33-2.38-.99-3.25-.49-.64-1.09-1.15-1.81-1.51M376.46,312.66c.25.22.42.46.52.74.11.3.16.63.16.99,0,.46-.08.85-.24,1.17-.15.3-.41.57-.77.78-.38.23-.91.41-1.55.53-.66.12-1.5.18-2.49.18-1.23,0-2.2-.03-2.89-.09-.44-.04-.73-.07-.92-.09v-4.97h5.42c.69,0,1.27.08,1.71.21.43.14.78.32,1.04.54M376.32,306.75c-.1.28-.27.5-.5.7-.25.2-.58.37-.99.5-.42.13-.95.2-1.58.2h-4.96v-4.62c.2-.02.5-.05.96-.09.7-.06,1.6-.09,2.7-.09.89,0,1.64.07,2.25.2.58.13,1.05.31,1.4.54.32.21.54.46.68.74.14.3.21.62.21.97s-.05.65-.16.94"/>
        <path class="cls-4" d="M404.02,317.83c-.39-.99-.83-2.12-1.34-3.4-.51-1.28-1.06-2.63-1.66-4.06-.59-1.43-1.17-2.8-1.74-4.12-.57-1.31-1.1-2.5-1.59-3.56-.49-1.06-.9-1.87-1.21-2.42l-.09-.1s-.1-.07-.29-.17c-.13-.07-.3-.15-.49-.24-.2-.08-.43-.16-.69-.22-.27-.06-.55-.1-.83-.1-.75,0-1.38.17-1.89.51-.5.34-.93.91-1.32,1.76-.69,1.53-1.39,3.11-2.09,4.72-.7,1.62-1.38,3.2-2.03,4.77-.65,1.57-1.28,3.09-1.87,4.58-.6,1.49-1.14,2.88-1.62,4.17l-.2.53h4.3l.09-.26c.21-.59.48-1.33.82-2.22.31-.82.65-1.7,1.03-2.67h9.11c.12.32.26.68.41,1.07.19.5.38.99.56,1.48.18.49.35.94.5,1.37.16.43.28.76.38,1l.1.24h4.63l-.19-.53c-.16-.43-.43-1.13-.81-2.13M396.97,311.52h-6.13c.23-.58.46-1.16.71-1.76.33-.78.65-1.56.98-2.31.33-.76.64-1.48.95-2.15.17-.37.33-.73.48-1.06.11.22.21.48.34.75.29.67.61,1.41.94,2.22.33.82.68,1.65,1.02,2.5.26.64.49,1.24.71,1.8"/>
        <path class="cls-4" d="M424.31,300.12c-.33-.11-.72-.16-1.14-.16-.65,0-1.17.16-1.55.48-.4.34-.6.84-.6,1.5v11.36c-.24-.36-.49-.75-.76-1.16-.57-.87-1.17-1.76-1.81-2.69l-1.91-2.78c-.64-.93-1.25-1.8-1.82-2.59-.57-.8-1.07-1.49-1.5-2.08-.43-.59-.75-1-.95-1.24l-.08-.07c-.15-.11-.4-.25-.77-.44-.4-.2-.89-.3-1.5-.3s-1.2.16-1.67.48c-.52.35-.79.94-.79,1.75v18.29h4.18v-14.02c.3.42.61.86.94,1.32.6.85,1.22,1.74,1.85,2.67l3.73,5.53c.58.87,1.11,1.68,1.59,2.41l1.36,2.1h4.06v-19.99l-.18-.11c-.13-.08-.35-.16-.68-.27"/>
        <path class="cls-4" d="M447.34,319.85c-1.39-1.85-2.94-3.66-4.61-5.39-1.57-1.62-3.28-3.26-5.08-4.85.3-.28.66-.6,1.07-.97.56-.52,1.17-1.06,1.82-1.64l1.99-1.76c.67-.59,1.29-1.14,1.84-1.64.56-.49,1.04-.92,1.44-1.27.41-.37.67-.6.77-.7l.25-.24-.21-.27c-.15-.19-.42-.42-.84-.71-.45-.3-1.03-.45-1.72-.45-.62,0-1.18.14-1.63.43-.41.26-.86.59-1.35.98-.36.31-.89.76-1.56,1.36-.67.6-1.39,1.24-2.15,1.93-.76.69-1.5,1.38-2.23,2.06-.43.4-.81.76-1.15,1.08v-7.37l-.25-.1c-.1-.04-.31-.11-.63-.21-.34-.11-.72-.16-1.12-.16-.65,0-1.18.16-1.57.47-.42.33-.64.84-.64,1.5v18.55h4.21v-8.64c.61.51,1.25,1.06,1.9,1.64.87.78,1.72,1.59,2.53,2.41.79.79,1.55,1.6,2.28,2.39.71.77,1.31,1.46,1.8,2.05l.12.14h5.2l-.47-.63Z"/>
        <path class="cls-4" d="M425.51,257.07c1.65,0,3-1.34,3-3s-1.35-3-3-3-3,1.34-3,3,1.35,3,3,3"/>
        <path class="cls-4" d="M205.31,252.78v29.55h5.49v-32.21c-.37-.1-1.45-.36-2.42-.36-2.17,0-3.06.88-3.06,3.02"/>
        <path class="cls-4" d="M193.71,252.78v20.18c0,3.01-1.34,4.42-4.22,4.42h-2.89v-19.94c-.37-.1-1.45-.36-2.42-.36-2.18,0-3.07.87-3.07,3.02v17.28h-5.55c-2.01,0-2.8.76-2.8,2.72,0,.89.25,1.88.34,2.23h16.59c2.83,0,5.15-.86,6.89-2.55,1.73-1.68,2.61-3.86,2.61-6.48v-23.18c-.37-.1-1.45-.36-2.42-.36-2.17,0-3.06.88-3.06,3.02"/>
        <path class="cls-4" d="M62.86,264.95c1.36,0,2.65.53,3.75,1.02,1.09.49,1.87.35,2.41-.44.51-.74,1.16-2.5,1.35-3-1.61-1.03-5.1-2.44-7.5-2.44-6.35,0-10.29,3.71-10.29,9.66v7.62h-8.48c-2.36,0-4.27-1.92-4.27-4.28v-11.89c-.15-.04-.42-.11-.76-.18-.62-.12-1.19-.19-1.67-.19-2.17,0-3.06.88-3.06,3.03v9.08c0,3.01-1.37,4.42-4.32,4.42h-5.24c-2.84,0-4.22-1.44-4.22-4.4v-11.42c-1.02-.25-2.05-.46-3.06-.66-1.07-.2-2.23-.39-3.45-.55-1.22-.17-2.45-.25-3.65-.25-1.92,0-3.56.28-4.85.84-1.3.56-2.37,1.33-3.2,2.27-.83.96-1.43,2.09-1.79,3.39-.36,1.31-.55,2.72-.55,4.21,0,2.48.31,4.49.92,5.99.61,1.5,1.41,2.67,2.38,3.47.97.81,2.06,1.37,3.25,1.65,1.2.29,2.38.44,3.5.44s2.3-.15,3.5-.44c1.18-.29,2.28-.85,3.25-1.65.17-.14.32-.3.49-.47l.15-.15.16.15c1.32,1.68,3.65,2.53,6.94,2.53h5.77c2.76,0,5.02-.75,6.72-2.25l.13-.11.12.11c1.69,1.49,3.9,2.25,6.58,2.25h26.22c.09-.35.32-1.31.32-2.18,0-1.97-.79-2.77-2.74-2.77h-9.51v-8.1c0-2.47,2.02-4.32,4.7-4.32M15.01,275.82l-.06.06c-.56.48-1.73,1.49-4.49,1.49-1.54,0-2.76-.52-3.62-1.55-.85-1.02-1.28-2.67-1.28-4.92,0-1.19.13-2.18.39-2.96.26-.79.65-1.42,1.15-1.86.49-.44,1.07-.75,1.73-.92.64-.16,1.33-.25,2.05-.25.47,0,1.05.02,1.78.06.72.04,1.46.14,2.21.31l.15.03v10.51Z"/>
        <path class="cls-4" d="M155.5,260.09c-3.38,0-6.68.98-10.11,2.99l.99,2.95c.13.36.42.66.81.83.5.21,1.1.2,1.64-.04,2.6-1.16,4.66-1.68,6.67-1.68,2.99,0,5,1.25,5.97,3.73.7,1.71.98,3.68.98,7.02v1.48h-24.32c-2.36,0-4.28-1.92-4.28-4.28v-11.88c-.37-.11-1.45-.37-2.42-.37-2.18,0-3.07.88-3.07,3.02v9.08c0,3.01-1.37,4.42-4.32,4.42h-3.99c-3.16,0-4.95-1.41-5.43-4.31-.47-3.06-1.4-5.2-2.85-6.55-1.66-1.55-4.05-2.3-7.33-2.3-5.94,0-9.38,2.98-10.23,8.87-.36,2.86-2.03,4.2-5.24,4.2h-5.93c-1.3,0-1.86-.54-1.86-1.81v-25.35c-.37-.1-1.46-.36-2.44-.36-2.2,0-3.09.88-3.09,3.03v22.83c0,4.14,2.61,6.72,6.82,6.72h6.8c2.29,0,4.18-.62,5.62-1.85l.18-.15.11.21c1.6,3.28,4.99,5.17,9.28,5.17s7.92-2.06,9.44-5.65l.11-.26.2.19c1.34,1.32,3.08,2.09,5.15,2.27l.17.02v.03l4.83.02c2.76,0,5.02-.76,6.72-2.25l.13-.11.13.11c1.69,1.49,3.9,2.25,6.57,2.25h27.74c1.38,0,2.51-1.12,2.51-2.5v-3.93c0-4.51-.58-7.57-1.94-10.22-1.98-3.7-5.57-5.58-10.7-5.58M104.44,280.84c-1.98,0-4.61-.61-4.61-5.91s2.63-5.91,4.61-5.91,4.56.61,4.56,5.91-2.6,5.91-4.56,5.91"/>
        <path class="cls-4" d="M442.33,263.87v9.09c0,2.97-1.4,4.42-4.28,4.42h-5.82c-2.87,0-4.27-1.4-4.27-4.27v-11.89c-.37-.1-1.45-.36-2.42-.36-2.17,0-3.06.88-3.06,3.02v9.09c0,3.01-1.37,4.42-4.32,4.42h-4.66c-3.65,0-5.43-1.89-5.43-5.77v-21.45c-.37-.1-1.45-.37-2.42-.37-2.18,0-3.06.88-3.06,3.03v20.23c0,2.84-1.41,4.22-4.32,4.22h-14.74c-2.87,0-4.27-1.38-4.27-4.22v-11.84c-.37-.1-1.46-.36-2.44-.36-2.2,0-3.09.88-3.09,3.02v9.66c0,5.26,3.69,8.79,9.18,8.79h15.6c3.26,0,5.78-.96,7.46-2.87l.15-.16.14.17c1.58,1.9,3.92,2.86,6.96,2.86h5.19c2.76,0,5.02-.76,6.72-2.25l.12-.11.13.11c1.69,1.49,3.9,2.25,6.58,2.25h6.3c2.87,0,5.21-.86,6.95-2.55,1.73-1.68,2.61-3.86,2.61-6.48v-12.08c-.37-.1-1.46-.36-2.42-.36-2.17,0-3.06.88-3.06,3.02"/>
        <path class="cls-4" d="M359.32,252.78v29.55h5.49v-32.21c-.37-.1-1.45-.36-2.42-.36-2.18,0-3.06.88-3.06,3.02"/>
        <path class="cls-4" d="M347.73,252.78v20.18c0,3.01-1.34,4.42-4.23,4.42h-5.19c-2.88,0-4.28-1.4-4.28-4.28v-11.88c-.37-.11-1.45-.37-2.42-.37-2.18,0-3.06.88-3.06,3.02v9.08c0,3.01-1.37,4.42-4.32,4.42h-5.53c-2.87,0-4.27-1.4-4.27-4.28v-11.88c-.37-.11-1.45-.37-2.42-.37-2.17,0-3.06.88-3.06,3.02v9.08c0,3.01-1.37,4.42-4.32,4.42h-4.79c-3.16,0-4.95-1.41-5.44-4.31-.46-3.06-1.39-5.2-2.85-6.55-1.66-1.55-4.05-2.3-7.33-2.3-5.94,0-9.38,2.98-10.24,8.87-.36,2.89-2.08,4.3-5.24,4.3h-4.07c-2.87,0-4.27-1.4-4.27-4.28v-11.88c-.37-.11-1.45-.37-2.42-.37-2.18,0-3.06.88-3.06,3.02v9.08c0,3.01-1.38,4.42-4.32,4.42h-5.82c-2.83,0-4.21-1.43-4.22-4.37v-11.45c-1.02-.24-2.05-.46-3.05-.65-1.08-.2-2.24-.39-3.45-.55-1.23-.16-2.45-.25-3.66-.25-1.92,0-3.55.28-4.85.84s-2.37,1.33-3.2,2.28c-.83.95-1.43,2.09-1.79,3.39-.36,1.31-.54,2.72-.54,4.21,0,2.48.31,4.49.93,5.99.61,1.49,1.41,2.66,2.38,3.47.96.8,2.06,1.36,3.25,1.65,1.2.29,2.37.44,3.5.44s2.3-.15,3.5-.44c1.19-.29,2.28-.85,3.25-1.65.16-.14.31-.29.48-.46l.15-.15.16.14c1.32,1.68,3.66,2.53,6.94,2.53h6.3c2.76,0,5.02-.76,6.72-2.25l.13-.11.12.11c1.69,1.49,3.9,2.25,6.58,2.25h4.65c2.29,0,4.18-.62,5.61-1.85l.19-.15.11.21c1.6,3.28,4.98,5.17,9.28,5.17s7.92-2.06,9.44-5.65l.11-.26.2.19c1.34,1.32,3.06,2.34,5.15,2.34h5.75c2.76,0,5.03-.76,6.72-2.25l.12-.11.13.11c1.69,1.49,3.9,2.25,6.57,2.25h6.06c2.76,0,5.02-.76,6.72-2.25l.13-.11.12.11c1.69,1.49,3.9,2.25,6.58,2.25h5.67c2.84,0,5.16-.86,6.9-2.55,1.74-1.68,2.61-3.86,2.61-6.48v-23.18c-.37-.1-1.45-.36-2.42-.36-2.18,0-3.06.88-3.06,3.03M235.01,275.82l-.06.06c-.56.48-1.72,1.49-4.48,1.49-1.55,0-2.76-.52-3.63-1.55-.85-1.02-1.28-2.67-1.28-4.92,0-1.18.13-2.18.4-2.96.27-.79.65-1.42,1.14-1.86.49-.44,1.07-.75,1.73-.91.64-.17,1.34-.25,2.05-.25.47,0,1.05.02,1.78.06.71.04,1.46.14,2.21.3l.15.04v10.5ZM284.22,280.84c-.85,0-2.08-.1-3.05-.99-1.04-.94-1.56-2.6-1.56-4.93,0-5.3,2.63-5.91,4.61-5.91.84,0,2.05.11,3.02.99,1.02.94,1.54,2.6,1.54,4.92,0,5.3-2.6,5.91-4.56,5.91"/>
        <path class="cls-4" d="M394.93,267.97c0-.91-.38-1.3-1.29-1.3h-4.1v-1.86c0-1.11.93-1.82,1.99-1.82.6,0,1.19.26,1.61.45.46.21.88.19,1.16-.22.27-.4.62-1.4.62-1.4-.72-.48-2.31-1.12-3.4-1.12-3.09,0-4.61,1.87-4.61,4.33v4h7.84s.16-.55.16-1.04"/>
        <path class="cls-4" d="M435.58,285.6c-1.65,0-3,1.34-3,3s1.35,3,3,3,3-1.34,3-3-1.35-3-3-3"/>
        <path class="cls-4" d="M14.22,257.07c1.64,0,3.02-1.39,3.02-3.02s-1.38-2.98-3.02-2.98-2.98,1.34-2.98,2.98,1.36,3.02,2.98,3.02"/>
        <path class="cls-4" d="M6.33,257.07c1.67,0,3.07-1.39,3.07-3.02s-1.38-2.98-3.07-2.98-3.02,1.36-3.02,2.98,1.38,3.02,3.02,3.02"/>
        <path class="cls-4" d="M40.97,285.6c-1.64,0-2.98,1.34-2.98,2.98s1.24,3.02,2.86,3.02,3.14-1.39,3.14-3.02-1.38-2.98-3.02-2.98"/>
        <path class="cls-4" d="M33.13,285.6c-1.67,0-2.98,1.31-2.98,2.98s1.22,3.02,2.86,3.02,3.14-1.39,3.14-3.02-1.38-2.98-3.02-2.98"/>
        <path class="cls-4" d="M127.17,257.07c1.64,0,3.02-1.39,3.02-3.02s-1.38-2.98-3.02-2.98-2.98,1.31-2.98,2.98,1.34,3.02,2.98,3.02"/>
        <path class="cls-4" d="M135.01,257.07c1.64,0,3.02-1.39,3.02-3.02s-1.38-2.98-3.02-2.98-2.98,1.36-2.98,2.98,1.36,3.02,2.98,3.02"/>
        <path class="cls-4" d="M156.72,285.6c-1.64,0-2.97,1.34-2.97,2.98s1.36,3.02,2.97,3.02,3.02-1.39,3.02-3.02-1.38-2.98-3.02-2.98"/>
        <path class="cls-4" d="M261.57,285.6c-1.64,0-2.97,1.34-2.97,2.98s1.36,3.02,2.97,3.02,3.02-1.39,3.02-3.02-1.38-2.98-3.02-2.98"/>
        <path class="cls-4" d="M253.73,285.6c-1.67,0-2.97,1.31-2.97,2.98s1.33,3.02,2.97,3.02,3.02-1.39,3.02-3.02-1.38-2.98-3.02-2.98"/>
        <path class="cls-4" d="M311.7,257.07c1.64,0,3.02-1.39,3.02-3.02s-1.38-2.98-3.02-2.98-3.02,1.36-3.02,2.98,1.38,3.02,3.02,3.02"/>
        <path class="cls-4" d="M327.35,257.07c1.64,0,3.02-1.39,3.02-3.02s-1.38-2.98-3.02-2.98-2.98,1.31-2.98,2.98,1.34,3.02,2.98,3.02"/>
        <path class="cls-4" d="M335.19,257.07c1.64,0,3.02-1.39,3.02-3.02s-1.38-2.98-3.02-2.98-2.97,1.36-2.97,2.98,1.36,3.02,2.97,3.02"/>
        <path class="cls-4" d="M234.23,257.07c1.64,0,3.02-1.39,3.02-3.02s-1.38-2.98-3.02-2.98-2.98,1.34-2.98,2.98,1.36,3.02,2.98,3.02"/>
        <path class="cls-4" d="M226.34,257.07c1.67,0,3.07-1.39,3.07-3.02s-1.38-2.98-3.07-2.98-3.02,1.36-3.02,2.98,1.38,3.02,3.02,3.02"/>
      </g>
      <g class="cls-1">
        <rect class="cls-3" x="96.56" y="-11.61" width="256.02" height="236.24" transform="translate(11.49 234.48) rotate(-56.36)"/>
      </g>
    </g>
  </g>
</svg>