<?xml version="1.0" encoding="UTF-8" standalone="no"?>
<!DOCTYPE svg PUBLIC "-//W3C//DTD SVG 1.1//EN" "http://www.w3.org/Graphics/SVG/1.1/DTD/svg11.dtd">
<svg xmlns="http://www.w3.org/2000/svg" version="1.1" viewBox="0.00 0.00 825.00 224.00">
<path fill="#000000" d="
  M 108.94 15.09
  L 108.88 6.94
  Q 108.88 6.25 109.56 6.25
  L 141.26 6.25
  Q 141.78 6.25 141.78 6.77
  L 141.78 51.74
  Q 141.78 52.27 141.26 52.27
  L 109.68 52.27
  A 1.81 1.80 69.1 0 1 108.33 51.66
  C 102.30 44.77 95.02 37.33 86.95 33.67
  Q 73.35 27.49 57.74 31.29
  C 49.83 33.21 44.18 39.53 45.68 47.94
  C 47.45 57.80 59.94 61.20 68.18 62.58
  Q 84.49 65.29 100.65 68.13
  C 127.12 72.77 147.77 89.30 145.43 118.39
  C 142.61 153.32 107.26 163.08 77.76 160.00
  Q 53.04 157.42 34.69 142.60
  A 0.23 0.22 -71.0 0 0 34.33 142.78
  L 34.39 155.45
  A 0.34 0.33 0.0 0 1 34.05 155.78
  L 1.50 155.77
  A 0.33 0.33 0.0 0 1 1.17 155.44
  L 1.18 105.08
  Q 1.18 104.44 1.81 104.45
  L 34.49 104.80
  Q 35.07 104.81 35.44 105.26
  C 42.36 113.63 50.33 121.91 60.00 126.68
  Q 76.89 135.03 95.84 130.79
  C 103.66 129.04 109.34 122.96 108.50 114.47
  C 107.59 105.27 98.38 100.74 90.41 99.39
  Q 76.71 97.08 62.08 94.72
  C 37.95 90.84 8.91 79.62 7.30 51.00
  C 5.00 10.13 48.00 -1.24 80.14 2.97
  Q 96.88 5.17 108.35 15.35
  Q 108.95 15.88 108.94 15.09
  Z"
/>
<path fill="#000000" d="
  M 522.26 18.24
  Q 522.26 19.13 522.94 18.56
  Q 540.43 4.21 561.95 2.45
  C 605.64 -1.12 633.63 29.51 634.07 71.71
  Q 634.32 94.93 634.10 121.84
  A 0.60 0.59 -89.5 0 0 634.69 122.45
  L 657.70 122.46
  Q 658.19 122.46 658.19 122.95
  L 658.21 155.28
  A 0.49 0.49 0.0 0 1 657.72 155.77
  L 574.00 155.77
  A 0.28 0.27 -0.0 0 1 573.72 155.50
  L 573.72 123.12
  A 0.66 0.66 0.0 0 1 574.38 122.46
  L 596.71 122.47
  A 0.76 0.76 0.0 0 0 597.47 121.71
  Q 597.56 96.93 597.37 73.57
  C 597.21 55.02 588.28 39.32 568.70 35.89
  C 550.24 32.65 533.87 42.55 522.62 56.57
  Q 522.27 57.01 522.27 57.56
  L 522.27 121.61
  A 0.84 0.83 89.7 0 0 523.11 122.45
  L 545.80 122.43
  A 0.87 0.87 0.0 0 1 546.67 123.30
  L 546.63 155.32
  A 0.45 0.45 0.0 0 1 546.18 155.77
  L 462.50 155.77
  Q 462.23 155.77 462.23 155.50
  L 462.23 122.99
  Q 462.23 122.46 462.76 122.46
  L 485.32 122.46
  Q 485.85 122.46 485.85 121.93
  L 485.85 40.82
  A 0.53 0.52 0.0 0 0 485.32 40.30
  L 462.77 40.30
  Q 462.23 40.30 462.23 39.76
  L 462.23 7.22
  Q 462.23 6.86 462.60 6.86
  L 521.71 6.89
  Q 522.28 6.89 522.28 7.46
  L 522.26 18.24
  Z"
/>
<path fill="#000000" d="
  M 221.14 145.79
  L 221.16 195.50
  Q 221.16 196.10 221.75 196.10
  L 255.23 196.07
  A 0.67 0.67 0.0 0 1 255.90 196.74
  L 255.91 220.43
  A 0.59 0.59 0.0 0 1 255.32 221.02
  L 161.51 221.02
  A 0.51 0.50 -90.0 0 1 161.01 220.51
  L 161.01 196.65
  A 0.59 0.58 0.0 0 1 161.60 196.07
  L 184.08 196.10
  Q 184.75 196.10 184.75 195.42
  L 184.75 40.76
  Q 184.75 40.26 184.26 40.26
  L 161.52 40.27
  Q 161.01 40.27 161.01 39.76
  L 161.01 7.33
  A 0.48 0.47 -0.0 0 1 161.49 6.86
  L 220.70 6.88
  A 0.45 0.45 0.0 0 1 221.15 7.33
  L 221.11 16.98
  A 0.30 0.30 0.0 0 0 221.58 17.22
  C 252.77 -4.57 297.22 -0.63 322.75 28.65
  C 348.60 58.28 349.17 102.38 323.96 132.73
  C 298.64 163.20 253.28 167.57 221.68 145.51
  Q 221.14 145.13 221.14 145.79
  Z
  M 221.42 110.32
  C 232.62 121.90 247.63 128.50 263.81 127.68
  C 303.86 125.65 319.11 74.86 292.27 47.79
  Q 277.09 32.48 254.16 35.42
  Q 235.96 37.76 221.43 52.33
  A 0.97 0.95 67.8 0 0 221.15 53.01
  L 221.15 109.65
  A 0.97 0.96 -67.1 0 0 221.42 110.32
  Z"
/>
<path fill="#000000" d="
  M 706.92 96.42
  Q 715.71 125.92 746.69 128.26
  C 759.57 129.23 773.67 126.24 780.97 115.12
  A 1.28 1.27 -73.0 0 1 782.03 114.55
  L 819.69 114.50
  Q 820.32 114.50 820.12 115.10
  C 805.13 160.21 746.14 171.51 708.29 150.06
  C 669.88 128.30 660.12 77.73 680.41 41.30
  C 697.31 10.96 732.57 -1.58 765.82 5.22
  C 797.41 11.68 818.83 36.91 822.16 68.54
  Q 823.56 81.88 822.00 94.84
  A 1.01 1.00 3.5 0 1 821.00 95.72
  L 707.46 95.70
  Q 706.71 95.70 706.92 96.42
  Z
  M 737.90 33.45
  C 722.45 37.43 710.69 50.17 707.01 66.39
  Q 706.88 66.98 707.49 66.98
  L 787.46 66.98
  Q 787.94 66.98 787.86 66.51
  C 785.62 52.55 778.02 40.32 764.75 34.97
  C 756.55 31.66 746.28 31.30 737.90 33.45
  Z"
/>
<path fill="#000000" d="
  M 384.65 40.31
  L 361.78 40.29
  A 0.42 0.42 0.0 0 1 361.36 39.87
  L 361.47 7.30
  A 0.42 0.42 0.0 0 1 361.89 6.88
  L 421.08 6.87
  A 0.42 0.42 0.0 0 1 421.50 7.29
  L 421.49 122.04
  A 0.42 0.42 0.0 0 0 421.91 122.46
  L 445.34 122.42
  A 0.42 0.42 0.0 0 1 445.76 122.84
  L 445.77 155.35
  A 0.42 0.42 0.0 0 1 445.35 155.77
  L 361.81 155.77
  A 0.42 0.42 0.0 0 1 361.39 155.35
  L 361.45 122.88
  A 0.42 0.42 0.0 0 1 361.87 122.46
  L 384.65 122.45
  A 0.42 0.42 0.0 0 0 385.07 122.03
  L 385.07 40.73
  A 0.42 0.42 0.0 0 0 384.65 40.31
  Z"
/>
<path fill="#000000" d="
  M 502.78 197.77
  L 502.72 196.67
  A 0.61 0.61 0.0 0 1 503.33 196.03
  L 506.17 196.02
  Q 506.83 196.01 506.83 196.67
  L 506.85 204.79
  A 0.65 0.65 0.0 0 1 506.21 205.44
  L 503.34 205.45
  Q 502.79 205.45 502.57 204.95
  C 500.40 199.98 494.50 198.29 489.91 201.08
  C 483.93 204.72 484.70 213.92 491.16 216.57
  C 495.76 218.47 500.32 216.24 502.39 211.72
  Q 502.70 211.04 501.95 211.05
  L 494.79 211.11
  Q 494.22 211.11 494.21 210.54
  L 494.17 207.81
  Q 494.16 207.29 494.69 207.29
  L 506.42 207.28
  Q 507.05 207.28 507.05 207.92
  L 507.06 220.33
  Q 507.06 220.97 506.42 220.98
  L 504.02 221.01
  Q 503.52 221.02 503.51 220.52
  L 503.46 217.96
  A 0.32 0.32 0.0 0 0 502.90 217.75
  C 499.51 221.54 493.81 222.44 489.27 220.55
  Q 481.59 217.36 481.22 208.75
  C 480.74 197.54 493.75 192.03 502.17 198.10
  Q 502.82 198.57 502.78 197.77
  Z"
/>
<path fill="#000000" d="
  M 542.32 197.73
  L 542.29 196.76
  A 0.71 0.70 88.8 0 1 542.99 196.02
  L 545.86 196.01
  A 0.60 0.60 0.0 0 1 546.46 196.61
  L 546.46 205.02
  Q 546.47 205.76 545.73 205.76
  L 543.01 205.75
  A 0.95 0.95 0.0 0 1 542.12 205.13
  C 539.63 198.65 530.49 197.83 526.84 203.69
  C 522.99 209.88 527.52 217.69 534.80 217.19
  Q 539.98 216.84 541.78 212.07
  Q 542.08 211.28 542.92 211.27
  L 545.95 211.25
  Q 546.78 211.24 546.55 212.04
  C 542.09 227.02 520.33 223.05 520.85 207.84
  C 521.21 197.37 533.56 192.04 541.72 198.05
  Q 542.35 198.52 542.32 197.73
  Z"
/>
<path fill="#000000" d="
  M 576.28 208.50
  A 13.00 13.00 0.0 0 1 563.28 221.50
  A 13.00 13.00 0.0 0 1 550.28 208.50
  A 13.00 13.00 0.0 0 1 563.28 195.50
  A 13.00 13.00 0.0 0 1 576.28 208.50
  Z
  M 563.3462 217.3399
  A 8.83 8.52 89.7 0 0 571.8199 208.4654
  A 8.83 8.52 89.7 0 0 563.2538 199.6801
  A 8.83 8.52 89.7 0 0 554.7801 208.5546
  A 8.83 8.52 89.7 0 0 563.3462 217.3399
  Z"
/>
<path fill="#000000" d="
  M 613.31 219.02
  L 613.44 220.50
  Q 613.49 220.99 613.00 220.99
  L 609.75 220.99
  Q 609.27 220.99 609.27 220.50
  L 609.26 213.50
  Q 609.26 212.76 610.00 212.76
  L 612.88 212.77
  A 1.20 1.20 0.0 0 1 613.91 213.35
  C 616.09 216.97 620.50 218.45 624.33 216.74
  C 627.52 215.31 625.64 211.54 623.03 211.12
  Q 617.00 210.15 615.51 209.75
  C 607.58 207.63 608.10 197.74 616.02 195.87
  Q 621.60 194.54 625.76 197.56
  Q 626.45 198.05 626.45 197.20
  L 626.45 196.77
  Q 626.46 196.01 627.23 196.02
  L 629.51 196.03
  Q 630.24 196.03 630.24 196.76
  L 630.23 202.88
  Q 630.23 203.49 629.62 203.48
  L 626.72 203.47
  Q 626.20 203.46 625.91 203.02
  Q 622.92 198.42 617.39 199.57
  C 613.47 200.38 613.63 205.13 617.55 205.88
  Q 620.76 206.48 624.12 207.15
  C 632.84 208.89 632.78 219.62 624.29 221.20
  Q 617.87 222.39 613.77 218.79
  A 0.28 0.27 17.9 0 0 613.31 219.02
  Z"
/>
<path fill="#000000" d="
  M 787.57 197.71
  L 787.52 196.51
  Q 787.50 196.02 787.99 196.02
  L 791.06 196.01
  Q 791.67 196.01 791.67 196.62
  L 791.70 205.02
  Q 791.70 205.74 790.98 205.75
  L 788.44 205.76
  Q 787.73 205.76 787.40 205.12
  Q 783.74 197.97 776.25 200.36
  C 770.07 202.32 768.92 210.91 773.55 215.03
  C 778.03 219.03 784.84 217.58 787.08 211.89
  Q 787.33 211.26 788.00 211.26
  L 791.27 211.26
  A 0.57 0.57 0.0 0 1 791.81 212.02
  C 786.18 228.51 762.57 221.50 766.46 205.30
  C 768.68 196.06 779.35 192.91 786.99 198.03
  Q 787.60 198.44 787.57 197.71
  Z"
/>
<path fill="#000000" d="
  M 273.25 206.21
  A 0.18 0.18 0.0 0 0 272.91 206.31
  L 273.01 216.54
  Q 273.02 217.06 273.54 217.05
  L 275.47 217.01
  Q 276.20 217.00 276.20 217.72
  L 276.19 220.26
  Q 276.19 220.97 275.49 220.97
  L 266.22 220.97
  Q 265.36 220.97 265.36 220.11
  L 265.37 217.75
  A 0.80 0.79 2.6 0 1 266.24 216.96
  L 267.77 217.09
  Q 268.53 217.16 268.53 216.40
  L 268.53 200.54
  Q 268.53 199.79 267.79 199.87
  L 265.94 200.07
  Q 265.51 200.12 265.50 199.69
  L 265.48 196.78
  Q 265.47 196.03 266.22 196.03
  L 270.81 196.02
  Q 271.40 196.02 271.72 196.52
  L 280.96 210.76
  Q 281.37 211.41 281.80 210.76
  L 291.01 196.55
  A 1.14 1.11 16.1 0 1 291.96 196.04
  L 296.58 196.02
  Q 297.40 196.02 297.39 196.83
  L 297.38 199.31
  Q 297.38 200.14 296.56 200.03
  L 295.00 199.83
  Q 294.24 199.73 294.23 200.50
  L 294.23 216.46
  Q 294.23 217.21 294.97 217.13
  L 296.52 216.98
  Q 297.39 216.90 297.40 217.77
  L 297.42 220.28
  Q 297.42 220.98 296.73 220.98
  L 287.40 220.97
  Q 286.58 220.97 286.58 220.15
  L 286.58 217.76
  Q 286.58 216.82 287.50 216.96
  L 288.97 217.17
  Q 289.72 217.28 289.72 216.53
  L 289.74 207.24
  Q 289.74 205.80 288.98 207.02
  L 283.35 216.05
  A 2.31 2.31 0.0 0 1 279.44 216.05
  L 273.25 206.21
  Z"
/>
<path fill="#000000" d="
  M 320.08 217.09
  Q 320.83 217.12 320.52 216.43
  L 319.47 214.10
  A 1.24 1.22 77.7 0 0 318.35 213.37
  L 308.93 213.40
  Q 308.14 213.41 307.82 214.13
  L 306.82 216.37
  Q 306.47 217.16 307.32 217.09
  L 308.98 216.97
  Q 309.80 216.91 309.82 217.73
  L 309.87 220.17
  Q 309.89 220.97 309.08 220.97
  L 300.00 220.97
  A 0.72 0.71 -90.0 0 1 299.29 220.25
  L 299.28 217.75
  Q 299.28 217.03 300.00 217.02
  L 301.11 217.01
  Q 301.78 217.01 302.07 216.40
  L 309.50 200.54
  A 0.47 0.47 0.0 0 0 309.04 199.87
  L 306.81 200.04
  A 0.73 0.72 87.8 0 1 306.03 199.31
  L 306.05 196.74
  A 0.71 0.70 -0.0 0 1 306.76 196.04
  L 315.00 196.03
  A 1.18 1.16 -12.0 0 1 316.07 196.71
  L 325.17 216.40
  Q 325.44 216.98 326.08 217.06
  Q 326.72 217.13 327.34 216.98
  A 0.73 0.72 83.4 0 1 328.23 217.69
  L 328.21 220.26
  Q 328.20 220.97 327.49 220.97
  L 317.71 220.97
  A 0.52 0.52 0.0 0 1 317.19 220.46
  L 317.18 217.52
  Q 317.18 216.96 317.73 216.99
  L 320.08 217.09
  Z
  M 310.05 209.16
  A 0.33 0.33 0.0 0 0 310.35 209.63
  L 316.88 209.62
  A 0.33 0.33 0.0 0 0 317.18 209.15
  L 313.90 202.07
  A 0.33 0.33 0.0 0 0 313.30 202.07
  L 310.05 209.16
  Z"
/>
<path fill="#000000" d="
  M 332.00 199.83
  L 330.51 200.03
  A 0.78 0.78 0.0 0 1 329.63 199.26
  L 329.63 196.93
  Q 329.64 196.01 330.56 196.01
  Q 336.99 196.02 343.74 196.10
  Q 347.45 196.14 350.09 198.98
  C 353.24 202.37 352.73 209.36 347.95 211.28
  Q 347.69 211.38 347.45 211.53
  Q 346.90 211.87 347.31 212.37
  L 350.81 216.58
  Q 351.22 217.07 351.86 217.06
  L 354.74 216.99
  A 0.50 0.50 0.0 0 1 355.25 217.49
  L 355.25 220.49
  Q 355.25 220.99 354.76 220.99
  L 346.53 220.96
  Q 345.85 220.96 345.85 220.28
  L 345.88 217.92
  A 1.91 1.85 26.1 0 0 345.44 216.69
  L 342.48 213.11
  A 1.77 1.76 70.2 0 0 341.12 212.47
  L 338.00 212.45
  Q 337.20 212.44 337.20 213.25
  L 337.24 216.48
  Q 337.25 217.21 337.98 217.13
  L 339.46 216.98
  Q 340.55 216.87 340.55 217.96
  L 340.53 220.22
  Q 340.53 220.97 339.78 220.97
  L 330.47 220.97
  Q 329.73 220.97 329.73 220.22
  L 329.72 217.45
  A 0.51 0.51 0.0 0 1 330.30 216.94
  L 332.00 217.17
  A 0.67 0.66 -85.9 0 0 332.76 216.51
  L 332.76 200.50
  Q 332.76 199.73 332.00 199.83
  Z
  M 337.24 200.74
  L 337.20 208.08
  A 0.62 0.62 0.0 0 0 337.82 208.71
  L 342.72 208.73
  A 5.00 4.16 0.3 0 0 347.74 204.60
  L 347.74 204.34
  A 5.00 4.16 0.3 0 0 342.76 200.15
  L 337.86 200.13
  A 0.62 0.62 0.0 0 0 337.24 200.74
  Z"
/>
<path fill="#000000" d="
  M 373.65 199.88
  L 372.15 200.03
  Q 371.45 200.09 371.45 199.39
  L 371.45 196.54
  A 0.51 0.51 0.0 0 1 371.96 196.03
  L 383.04 196.03
  Q 383.80 196.03 383.81 196.79
  L 383.86 199.20
  A 0.78 0.78 0.0 0 1 383.05 200.00
  L 380.55 199.93
  A 1.15 1.14 -64.8 0 0 379.73 200.23
  L 372.91 206.44
  Q 372.51 206.80 372.84 207.22
  L 380.05 216.56
  Q 380.44 217.06 381.07 217.05
  L 384.31 217.02
  Q 385.12 217.01 385.11 217.81
  L 385.09 220.20
  A 0.79 0.78 0.4 0 1 384.30 220.97
  L 372.84 220.97
  Q 372.21 220.97 372.21 220.34
  L 372.22 217.48
  Q 372.22 216.93 372.77 216.98
  L 374.48 217.16
  A 0.25 0.25 0.0 0 0 374.70 216.76
  L 369.60 210.12
  A 0.51 0.51 0.0 0 0 368.83 210.07
  Q 367.23 211.75 365.30 213.34
  C 364.24 214.21 364.05 215.40 364.38 216.65
  Q 364.52 217.18 365.07 217.13
  L 366.71 216.96
  Q 367.53 216.87 367.53 217.71
  L 367.53 220.22
  Q 367.53 220.98 366.78 220.98
  L 357.24 220.97
  Q 356.75 220.97 356.75 220.49
  L 356.75 217.51
  Q 356.75 217.06 357.19 217.01
  Q 358.05 216.92 358.96 217.16
  A 0.70 0.70 0.0 0 0 359.84 216.49
  L 359.84 200.43
  Q 359.84 199.81 359.23 199.87
  L 357.51 200.01
  Q 356.68 200.09 356.68 199.26
  L 356.67 196.81
  Q 356.67 196.04 357.44 196.04
  L 366.78 196.03
  Q 367.54 196.03 367.53 196.78
  L 367.52 199.56
  Q 367.52 200.14 366.94 200.07
  L 364.96 199.83
  A 0.57 0.56 3.7 0 0 364.33 200.38
  L 364.29 208.16
  A 0.33 0.33 0.0 0 0 364.83 208.41
  L 373.92 200.49
  Q 374.74 199.78 373.65 199.88
  Z"
/>
<path fill="#000000" d="
  M 394.31 200.76
  L 394.31 205.98
  A 0.62 0.62 0.0 0 0 394.93 206.60
  L 402.12 206.58
  A 0.62 0.62 0.0 0 1 402.74 207.21
  L 402.71 210.13
  A 0.62 0.62 0.0 0 1 402.09 210.74
  L 394.92 210.74
  A 0.62 0.62 0.0 0 0 394.30 211.36
  L 394.33 216.23
  A 0.62 0.62 0.0 0 0 394.95 216.85
  L 403.41 216.81
  A 0.62 0.62 0.0 0 0 404.03 216.18
  L 403.99 213.25
  A 0.62 0.62 0.0 0 1 404.60 212.62
  L 407.37 212.59
  A 0.62 0.62 0.0 0 1 408.00 213.21
  L 408.01 220.34
  A 0.62 0.62 0.0 0 1 407.39 220.96
  L 387.37 220.98
  A 0.62 0.62 0.0 0 1 386.74 220.35
  L 386.77 217.59
  A 0.62 0.62 0.0 0 1 387.44 216.98
  L 389.21 217.13
  A 0.62 0.62 0.0 0 0 389.88 216.51
  L 389.89 200.48
  A 0.62 0.62 0.0 0 0 389.20 199.86
  L 387.41 200.06
  A 0.62 0.62 0.0 0 1 386.73 199.44
  L 386.71 196.65
  A 0.62 0.62 0.0 0 1 387.33 196.03
  L 407.38 196.04
  A 0.62 0.62 0.0 0 1 408.00 196.66
  L 408.02 203.83
  A 0.62 0.62 0.0 0 1 407.39 204.45
  L 404.57 204.39
  A 0.62 0.62 0.0 0 1 403.96 203.75
  L 404.05 200.82
  A 0.62 0.62 0.0 0 0 403.43 200.18
  L 394.93 200.14
  A 0.62 0.62 0.0 0 0 394.31 200.76
  Z"
/>
<path fill="#000000" d="
  M 424.61 200.70
  L 424.61 216.53
  A 0.57 0.57 0.0 0 0 425.21 217.10
  L 428.17 216.97
  A 0.57 0.57 0.0 0 1 428.77 217.53
  L 428.79 220.40
  A 0.57 0.57 0.0 0 1 428.22 220.98
  L 416.56 220.96
  A 0.57 0.57 0.0 0 1 415.99 220.39
  L 415.97 217.62
  A 0.57 0.57 0.0 0 1 416.54 217.05
  L 419.65 217.04
  A 0.57 0.57 0.0 0 0 420.22 216.47
  L 420.21 200.76
  A 0.57 0.57 0.0 0 0 419.64 200.19
  L 415.31 200.15
  A 0.57 0.57 0.0 0 0 414.74 200.74
  L 414.81 203.84
  A 0.57 0.57 0.0 0 1 414.25 204.42
  L 411.35 204.42
  A 0.57 0.57 0.0 0 1 410.78 203.85
  L 410.75 196.61
  A 0.57 0.57 0.0 0 1 411.32 196.04
  L 433.39 196.04
  A 0.57 0.57 0.0 0 1 433.96 196.61
  L 434.00 203.85
  A 0.57 0.57 0.0 0 1 433.43 204.42
  L 430.51 204.43
  A 0.57 0.57 0.0 0 1 429.93 203.85
  L 430.01 200.77
  A 0.57 0.57 0.0 0 0 429.44 200.18
  L 425.19 200.13
  A 0.57 0.57 0.0 0 0 424.61 200.70
  Z"
/>
<path fill="#000000" d="
  M 440.02 216.53
  L 440.01 200.44
  A 0.56 0.56 0.0 0 0 439.42 199.89
  L 437.39 200.00
  A 0.56 0.56 0.0 0 1 436.80 199.44
  L 436.81 196.60
  A 0.56 0.56 0.0 0 1 437.37 196.04
  L 447.02 196.01
  A 0.56 0.56 0.0 0 1 447.58 196.58
  L 447.56 199.52
  A 0.56 0.56 0.0 0 1 446.92 200.07
  L 445.10 199.83
  A 0.56 0.56 0.0 0 0 444.47 200.39
  L 444.47 216.57
  A 0.56 0.56 0.0 0 0 445.08 217.13
  L 446.95 216.96
  A 0.56 0.56 0.0 0 1 447.55 217.52
  L 447.58 220.41
  A 0.56 0.56 0.0 0 1 447.01 220.98
  L 437.38 220.95
  A 0.56 0.56 0.0 0 1 436.82 220.40
  L 436.80 217.59
  A 0.56 0.56 0.0 0 1 437.37 217.02
  L 439.44 217.09
  A 0.56 0.56 0.0 0 0 440.02 216.53
  Z"
/>
<path fill="#000000" d="
  M 471.84 212.36
  L 471.78 200.52
  Q 471.77 199.77 471.03 199.85
  L 469.52 200.02
  Q 468.68 200.12 468.68 199.27
  L 468.68 196.80
  Q 468.68 196.04 469.45 196.04
  L 478.78 196.03
  Q 479.41 196.03 479.41 196.66
  L 479.42 199.23
  Q 479.43 200.15 478.52 200.03
  L 477.02 199.83
  Q 476.28 199.73 476.28 200.48
  L 476.27 220.28
  Q 476.27 220.94 475.61 220.98
  C 474.37 221.06 472.93 221.21 472.05 220.16
  Q 465.21 212.04 459.19 204.98
  Q 458.55 204.24 458.56 205.21
  L 458.60 216.49
  Q 458.61 217.36 459.44 217.12
  Q 460.23 216.90 461.05 216.98
  Q 461.73 217.05 461.73 217.74
  L 461.73 220.38
  Q 461.73 220.98 461.12 220.98
  L 451.72 220.96
  Q 450.98 220.96 450.97 220.22
  L 450.96 217.66
  A 0.63 0.63 0.0 0 1 451.59 217.03
  L 453.46 217.03
  Q 454.20 217.03 454.20 216.29
  L 454.20 200.57
  Q 454.20 199.93 453.57 199.95
  L 451.73 199.99
  Q 450.96 200.00 450.96 199.23
  L 450.97 196.91
  Q 450.97 196.03 451.85 196.03
  L 456.62 196.03
  Q 457.22 196.02 457.60 196.48
  L 471.14 212.62
  Q 471.84 213.46 471.84 212.36
  Z"
/>
<path fill="#000000" d="
  M 586.18 205.01
  L 586.25 216.48
  Q 586.25 217.22 586.98 217.14
  L 588.60 216.97
  Q 589.30 216.90 589.30 217.60
  L 589.30 220.46
  A 0.51 0.51 0.0 0 1 588.79 220.97
  L 579.26 220.97
  A 0.71 0.70 90.0 0 1 578.56 220.26
  L 578.56 217.76
  Q 578.56 216.83 579.49 216.96
  L 580.99 217.18
  A 0.67 0.66 -86.2 0 0 581.74 216.52
  L 581.74 200.49
  Q 581.74 199.73 580.99 199.83
  L 579.48 200.03
  Q 578.55 200.16 578.55 199.22
  L 578.57 196.73
  Q 578.57 196.03 579.27 196.03
  L 584.00 196.03
  A 1.74 1.73 -19.7 0 1 585.34 196.66
  L 598.82 212.72
  Q 599.47 213.50 599.47 212.48
  L 599.46 200.56
  Q 599.46 200.18 599.14 199.98
  Q 598.58 199.64 597.97 200.00
  A 1.14 1.14 0.0 0 1 596.26 199.00
  L 596.26 196.76
  Q 596.27 196.03 596.99 196.03
  L 606.27 196.03
  Q 607.02 196.03 607.02 196.77
  L 607.02 199.14
  Q 607.02 200.06 606.11 200.02
  L 604.47 199.93
  Q 603.85 199.90 603.85 200.52
  L 603.84 220.34
  Q 603.84 221.02 603.16 221.00
  L 600.94 220.96
  Q 600.37 220.94 600.00 220.51
  L 586.67 204.83
  Q 586.17 204.25 586.18 205.01
  Z"
/>
<path fill="#000000" d="
  M 657.95 200.67
  Q 658.08 205.74 657.95 210.63
  C 657.56 225.46 635.86 225.20 635.94 209.95
  Q 635.96 205.19 635.97 200.44
  A 0.55 0.55 0.0 0 0 635.39 199.89
  L 633.53 200.00
  Q 632.76 200.05 632.75 199.28
  L 632.74 196.78
  Q 632.73 196.04 633.47 196.04
  L 643.00 196.02
  Q 643.47 196.02 643.47 196.50
  L 643.48 199.21
  Q 643.48 200.16 642.54 200.03
  L 640.96 199.82
  A 0.49 0.48 3.7 0 0 640.41 200.30
  C 640.39 204.00 639.65 210.74 641.35 214.00
  C 643.67 218.46 650.00 218.52 652.50 214.22
  C 654.44 210.87 653.54 204.54 653.63 200.58
  A 0.71 0.71 0.0 0 0 652.84 199.86
  L 651.29 200.03
  Q 650.47 200.12 650.47 199.29
  L 650.48 196.65
  Q 650.48 196.03 651.10 196.03
  L 660.33 196.03
  Q 661.12 196.03 661.12 196.82
  L 661.13 199.22
  Q 661.14 200.07 660.28 200.01
  L 658.76 199.89
  Q 657.93 199.83 657.95 200.67
  Z"
/>
<path fill="#000000" d="
  M 670.30 200.44
  L 670.30 216.49
  A 0.55 0.55 0.0 0 0 670.85 217.04
  L 678.70 216.99
  A 0.55 0.55 0.0 0 0 679.24 216.44
  L 679.21 213.16
  A 0.55 0.55 0.0 0 1 679.76 212.61
  L 682.94 212.60
  A 0.55 0.55 0.0 0 1 683.49 213.15
  L 683.51 220.43
  A 0.55 0.55 0.0 0 1 682.96 220.98
  L 663.26 220.96
  A 0.55 0.55 0.0 0 1 662.71 220.41
  L 662.70 217.52
  A 0.55 0.55 0.0 0 1 663.30 216.97
  L 665.18 217.14
  A 0.55 0.55 0.0 0 0 665.78 216.60
  L 665.78 200.39
  A 0.55 0.55 0.0 0 0 665.17 199.84
  L 663.35 200.05
  A 0.55 0.55 0.0 0 1 662.74 199.50
  L 662.74 196.58
  A 0.55 0.55 0.0 0 1 663.29 196.03
  L 674.39 196.03
  A 0.55 0.55 0.0 0 1 674.94 196.58
  L 674.97 199.45
  A 0.55 0.55 0.0 0 1 674.40 200.00
  L 670.87 199.89
  A 0.55 0.55 0.0 0 0 670.30 200.44
  Z"
/>
<path fill="#000000" d="
  M 686.51 200.76
  L 686.59 203.83
  A 0.57 0.57 0.0 0 1 686.01 204.42
  L 683.18 204.40
  A 0.57 0.57 0.0 0 1 682.62 203.84
  L 682.58 196.61
  A 0.57 0.57 0.0 0 1 683.15 196.04
  L 705.17 196.03
  A 0.57 0.57 0.0 0 1 705.74 196.60
  L 705.75 203.86
  A 0.57 0.57 0.0 0 1 705.18 204.44
  L 702.34 204.41
  A 0.57 0.57 0.0 0 1 701.77 203.85
  L 701.74 200.70
  A 0.57 0.57 0.0 0 0 701.16 200.13
  L 696.98 200.16
  A 0.57 0.57 0.0 0 0 696.41 200.73
  L 696.43 216.54
  A 0.57 0.57 0.0 0 0 697.02 217.11
  L 699.97 216.98
  A 0.57 0.57 0.0 0 1 700.56 217.55
  L 700.56 220.40
  A 0.57 0.57 0.0 0 1 699.99 220.97
  L 688.32 220.96
  A 0.57 0.57 0.0 0 1 687.75 220.39
  L 687.74 217.59
  A 0.57 0.57 0.0 0 1 688.32 217.02
  L 691.39 217.04
  A 0.57 0.57 0.0 0 0 691.97 216.47
  L 691.98 200.72
  A 0.57 0.57 0.0 0 0 691.41 200.15
  L 687.08 200.18
  A 0.57 0.57 0.0 0 0 686.51 200.76
  Z"
/>
<path fill="#000000" d="
  M 726.76 216.41
  L 725.43 213.66
  A 0.52 0.52 0.0 0 0 724.96 213.36
  L 714.71 213.40
  A 0.52 0.52 0.0 0 0 714.24 213.70
  L 712.99 216.37
  A 0.52 0.52 0.0 0 0 713.48 217.11
  L 715.56 217.02
  A 0.52 0.52 0.0 0 1 716.11 217.55
  L 716.08 220.45
  A 0.52 0.52 0.0 0 1 715.56 220.97
  L 706.05 220.96
  A 0.52 0.52 0.0 0 1 705.53 220.44
  L 705.53 217.54
  A 0.52 0.52 0.0 0 1 706.05 217.02
  L 707.69 217.00
  A 0.52 0.52 0.0 0 0 708.16 216.70
  L 715.67 200.60
  A 0.52 0.52 0.0 0 0 715.16 199.86
  L 712.87 200.04
  A 0.52 0.52 0.0 0 1 712.31 199.52
  L 712.28 196.54
  A 0.52 0.52 0.0 0 1 712.80 196.02
  L 721.65 196.04
  A 0.52 0.52 0.0 0 1 722.12 196.34
  L 731.59 216.79
  A 0.52 0.52 0.0 0 0 732.10 217.09
  L 733.88 216.97
  A 0.52 0.52 0.0 0 1 734.43 217.47
  L 734.52 220.45
  A 0.52 0.52 0.0 0 1 733.99 220.99
  L 723.86 220.96
  A 0.52 0.52 0.0 0 1 723.35 220.44
  L 723.37 217.49
  A 0.52 0.52 0.0 0 1 723.93 216.98
  L 726.25 217.15
  A 0.52 0.52 0.0 0 0 726.76 216.41
  Z
  M 716.31 209.17
  A 0.33 0.33 0.0 0 0 716.62 209.63
  L 723.08 209.61
  A 0.33 0.33 0.0 0 0 723.38 209.15
  L 720.12 201.97
  A 0.33 0.33 0.0 0 0 719.52 201.97
  L 716.31 209.17
  Z"
/>
<path fill="#000000" d="
  M 756.72 212.48
  L 756.71 200.47
  Q 756.71 199.73 755.97 199.83
  L 754.46 200.04
  Q 753.51 200.17 753.51 199.21
  L 753.51 196.76
  Q 753.51 196.04 754.24 196.04
  L 763.76 196.03
  Q 764.24 196.02 764.24 196.51
  L 764.25 199.55
  Q 764.25 200.11 763.69 200.05
  L 761.96 199.84
  A 0.71 0.70 -86.4 0 0 761.17 200.54
  L 761.16 220.09
  Q 761.16 220.65 760.63 220.85
  Q 758.30 221.74 756.69 219.87
  Q 750.50 212.65 744.12 205.02
  Q 743.41 204.18 743.41 205.28
  L 743.49 216.58
  Q 743.49 217.18 744.08 217.12
  L 745.71 216.96
  Q 746.55 216.87 746.55 217.72
  L 746.54 220.22
  Q 746.54 220.98 745.78 220.98
  L 736.69 220.97
  Q 735.90 220.97 735.89 220.19
  L 735.87 217.79
  Q 735.86 216.93 736.71 216.99
  L 738.30 217.10
  Q 738.99 217.14 738.99 216.45
  L 739.00 200.45
  Q 739.00 199.90 738.45 199.92
  L 736.42 200.00
  Q 735.81 200.02 735.81 199.42
  L 735.80 196.75
  Q 735.79 196.03 736.50 196.03
  L 741.25 196.02
  A 1.77 1.76 69.9 0 1 742.60 196.65
  L 756.06 212.72
  Q 756.72 213.51 756.72 212.48
  Z"
/>
<path fill="#000000" d="
  M 812.88 199.87
  L 811.44 200.03
  Q 810.49 200.14 810.49 199.19
  L 810.50 196.77
  Q 810.50 196.04 811.23 196.03
  L 821.82 196.03
  Q 822.66 196.03 822.65 196.86
  L 822.65 199.22
  Q 822.65 200.08 821.78 200.03
  L 819.75 199.91
  A 1.51 1.50 17.5 0 0 818.39 200.61
  Q 815.07 205.96 811.40 211.63
  C 810.43 213.13 810.80 214.87 810.75 216.53
  Q 810.73 217.09 811.29 217.07
  L 813.32 216.99
  A 0.83 0.83 0.0 0 1 814.18 217.82
  L 814.17 220.28
  Q 814.17 220.98 813.47 220.98
  L 803.52 220.97
  A 0.71 0.71 0.0 0 1 802.81 220.27
  L 802.79 217.72
  Q 802.78 216.96 803.53 216.99
  L 805.50 217.07
  Q 806.13 217.10 806.14 216.47
  C 806.16 214.70 806.37 212.89 805.35 211.32
  Q 801.64 205.65 798.39 200.43
  Q 798.06 199.89 797.43 199.92
  L 795.03 200.01
  Q 794.27 200.04 794.27 199.28
  L 794.27 196.76
  Q 794.27 196.04 794.99 196.03
  L 805.76 196.03
  Q 806.50 196.03 806.49 196.76
  L 806.49 199.20
  Q 806.49 200.14 805.55 200.04
  L 803.97 199.86
  Q 803.06 199.76 803.54 200.53
  L 808.04 207.67
  Q 808.45 208.31 808.85 207.67
  L 813.32 200.57
  Q 813.82 199.77 812.88 199.87
  Z"
/>
</svg>
