<?xml version="1.0" encoding="UTF-8" standalone="no"?>
<!DOCTYPE svg PUBLIC "-//W3C//DTD SVG 1.1//EN" "http://www.w3.org/Graphics/SVG/1.1/DTD/svg11.dtd">
<svg xmlns="http://www.w3.org/2000/svg" version="1.1" viewBox="0.00 0.00 1388.00 634.00">
<path fill="#eb0a1e" d="
  M 898.29 221.71
  C 927.33 207.82 958.15 201.39 990.39 199.74
  Q 1023.54 198.05 1056.17 203.37
  C 1088.08 208.58 1119.60 220.82 1145.58 240.41
  C 1172.22 260.50 1192.26 291.17 1187.81 325.72
  C 1182.67 365.74 1149.39 394.37 1115.04 410.80
  C 1075.37 429.77 1030.13 436.42 986.07 433.25
  Q 950.42 430.70 918.51 419.33
  C 891.17 409.59 865.44 394.48 846.82 372.66
  C 825.80 348.02 818.34 316.62 830.78 285.98
  C 842.60 256.89 869.53 235.47 898.29 221.71
  Z
  M 964.62 285.14
  C 966.99 268.54 971.65 252.24 978.66 238.77
  C 985.44 225.73 998.39 210.37 1014.90 217.65
  C 1024.10 221.71 1031.28 231.98 1035.72 241.30
  Q 1044.98 260.74 1048.45 285.18
  Q 1048.53 285.74 1049.09 285.65
  Q 1071.16 282.42 1089.12 274.53
  C 1096.61 271.24 1105.47 265.76 1109.42 258.41
  C 1114.60 248.77 1107.01 239.78 1099.38 234.72
  Q 1092.05 229.86 1083.56 226.67
  Q 1061.69 218.45 1033.36 215.86
  Q 1004.69 213.24 976.81 216.13
  Q 957.24 218.17 939.27 223.34
  Q 924.29 227.66 913.33 234.97
  Q 908.56 238.14 905.44 242.36
  C 897.60 252.98 904.58 262.86 913.77 268.87
  C 928.15 278.28 946.42 282.88 963.83 285.72
  A 0.69 0.69 0.0 0 0 964.62 285.14
  Z
  M 1000.68 288.87
  Q 1015.04 289.26 1031.76 287.80
  A 0.64 0.63 83.2 0 0 1032.33 287.07
  C 1030.12 273.39 1025.46 255.80 1015.03 247.01
  C 1010.12 242.87 1003.99 242.51 998.82 246.42
  C 987.78 254.74 982.77 274.11 980.77 287.15
  A 0.63 0.62 -83.6 0 0 981.34 287.87
  Q 990.95 288.61 1000.68 288.87
  Z
  M 921.42 305.27
  C 901.38 298.41 870.84 283.39 872.02 258.82
  Q 872.06 257.89 871.49 258.62
  Q 857.90 275.68 853.60 294.02
  C 843.78 335.99 869.33 372.05 903.81 393.23
  C 929.66 409.11 959.81 417.65 990.91 419.95
  Q 992.52 420.06 991.26 419.05
  Q 988.48 416.81 986.23 413.99
  C 978.41 404.17 973.49 392.60 969.89 380.27
  Q 961.41 351.14 962.02 315.75
  A 0.89 0.88 -85.3 0 0 961.26 314.85
  Q 940.68 311.87 921.42 305.27
  Z
  M 1140.98 259.41
  C 1142.35 278.90 1120.35 293.19 1104.49 300.18
  C 1087.79 307.54 1070.01 312.06 1051.49 314.95
  Q 1050.96 315.04 1050.97 315.58
  Q 1051.11 324.62 1050.85 331.84
  C 1050.03 353.77 1046.01 377.04 1037.01 397.14
  C 1033.37 405.26 1028.29 413.83 1021.42 419.43
  Q 1020.66 420.04 1021.63 419.98
  C 1050.80 418.04 1079.94 410.19 1105.38 395.57
  C 1135.87 378.04 1161.94 348.36 1161.64 311.32
  C 1161.48 292.13 1154.05 274.14 1141.88 259.06
  Q 1140.87 257.81 1140.98 259.41
  Z
  M 1013.38 381.00
  C 1021.66 375.56 1026.61 363.36 1029.30 353.48
  Q 1034.05 336.05 1034.27 317.58
  Q 1034.28 317.01 1033.72 317.06
  Q 1006.29 319.42 979.29 317.05
  Q 978.71 317.00 978.72 317.59
  C 979.17 335.04 982.08 353.96 989.82 369.15
  C 994.05 377.44 1002.98 387.84 1013.38 381.00
  Z"
/>
<path fill="#eb0a1e" d="
  M 351.00 216.50
  L 345.00 216.50
  A 0.50 0.50 0.0 0 1 344.50 216.00
  L 344.50 201.75
  A 0.50 0.50 0.0 0 1 345.00 201.25
  L 369.75 201.25
  A 0.50 0.50 0.0 0 1 370.25 201.75
  L 370.25 275.46
  Q 370.25 276.01 370.79 276.01
  Q 391.36 275.98 412.60 276.01
  Q 418.94 276.02 418.97 269.34
  Q 419.03 252.45 418.99 236.80
  A 0.30 0.30 0.0 0 1 419.29 236.50
  L 436.95 236.50
  Q 437.49 236.50 437.49 237.04
  Q 437.53 254.37 437.47 271.08
  C 437.46 272.93 437.16 274.83 436.83 276.65
  C 434.56 289.14 424.52 291.97 413.47 291.98
  Q 380.55 291.99 352.04 291.99
  A 0.29 0.29 0.0 0 1 351.75 291.70
  L 351.75 217.25
  Q 351.75 216.49 351.00 216.50
  Z"
/>
<rect fill="#eb0a1e" x="762.00" y="203.75" width="8.24" height="225.74" rx="0.27"/>
<ellipse fill="#eb0a1e" cx="0.00" cy="0.00" transform="translate(419.46,220.52) rotate(-0.2)" rx="8.35" ry="7.61"/>
<ellipse fill="#eb0a1e" cx="0.00" cy="0.00" transform="translate(436.76,220.51) rotate(0.1)" rx="8.36" ry="7.61"/>
<rect fill="#eb0a1e" x="-8.06" y="-7.40" transform="translate(689.63,220.51) rotate(0.6)" width="16.12" height="14.80" rx="6.75"/>
<ellipse fill="#eb0a1e" cx="0.00" cy="0.00" transform="translate(706.96,220.52) rotate(-0.5)" rx="8.34" ry="7.62"/>
<path fill="#eb0a1e" d="
  M 492.34 291.95
  C 471.24 291.90 448.82 284.02 448.75 259.11
  C 448.71 246.35 455.31 235.00 466.74 229.22
  C 478.77 223.13 495.48 224.70 504.43 235.60
  C 509.53 241.80 511.22 249.88 511.05 258.55
  Q 510.89 266.97 511.04 275.49
  Q 511.05 275.99 511.55 275.99
  Q 529.62 276.01 548.24 275.99
  C 551.52 275.99 553.91 273.89 553.94 270.36
  Q 554.04 254.82 553.99 236.79
  A 0.30 0.29 0.0 0 1 554.29 236.50
  L 572.21 236.50
  A 0.27 0.26 0.0 0 1 572.48 236.76
  Q 572.56 255.45 572.45 272.12
  Q 572.43 275.59 571.22 279.48
  C 568.08 289.55 558.71 291.95 549.34 291.98
  Q 529.58 292.03 511.57 291.98
  Q 510.87 291.98 510.93 292.69
  C 512.15 306.56 505.03 316.13 491.72 318.92
  Q 473.61 322.70 454.61 316.17
  Q 454.11 316.00 454.25 315.49
  L 458.07 301.24
  A 0.44 0.44 0.0 0 1 458.64 300.93
  Q 469.79 304.70 482.00 304.76
  Q 484.22 304.78 486.35 304.31
  C 492.85 302.89 493.28 298.10 493.01 292.59
  Q 492.97 291.95 492.34 291.95
  Z
  M 484.96 242.15
  C 471.82 238.62 466.23 253.48 468.21 263.46
  Q 470.00 272.54 480.59 274.96
  Q 486.52 276.32 492.01 275.98
  Q 492.54 275.94 492.53 275.42
  Q 492.43 266.94 492.54 258.62
  C 492.62 252.58 491.68 243.95 484.96 242.15
  Z"
/>
<path fill="#eb0a1e" d="
  M 646.20 292.69
  C 646.94 308.05 639.00 317.22 623.95 319.49
  Q 606.72 322.09 589.72 316.19
  Q 589.19 316.01 589.33 315.48
  L 593.16 301.27
  Q 593.30 300.75 593.81 300.92
  Q 606.92 305.34 619.33 304.60
  C 627.01 304.14 628.59 299.05 628.23 292.51
  Q 628.20 291.99 627.67 291.98
  C 608.74 291.61 586.58 285.94 584.08 263.31
  C 582.25 246.63 591.15 232.12 607.41 227.04
  C 615.92 224.38 626.64 225.59 634.29 230.80
  C 642.07 236.09 645.93 245.59 646.15 255.02
  Q 646.38 264.84 646.19 275.39
  Q 646.18 275.98 646.77 275.98
  Q 663.96 276.04 683.44 275.98
  C 686.90 275.96 689.05 273.56 689.03 270.22
  Q 688.96 252.65 689.02 236.77
  A 0.27 0.27 0.0 0 1 689.29 236.50
  L 707.22 236.50
  Q 707.76 236.50 707.75 237.04
  Q 707.75 251.96 707.76 267.27
  C 707.77 279.48 705.03 289.18 691.49 291.41
  Q 688.19 291.95 684.93 291.96
  Q 665.62 292.05 646.87 291.98
  Q 646.16 291.97 646.20 292.69
  Z
  M 627.40 253.94
  C 627.01 246.96 623.71 241.43 615.94 241.67
  C 605.14 242.00 601.72 255.08 603.36 263.62
  C 605.49 274.64 618.17 276.32 627.17 276.00
  Q 627.71 275.98 627.72 275.45
  Q 627.95 263.91 627.40 253.94
  Z"
/>
<rect fill="#eb0a1e" x="-8.06" y="-7.40" transform="translate(548.14,306.28) rotate(-0.3)" width="16.12" height="14.80" rx="6.75"/>
<ellipse fill="#eb0a1e" cx="565.46" cy="306.32" rx="8.35" ry="7.61"/>
<rect fill="#eb0a1e" x="271.25" y="367.00" width="8.50" height="60.24" rx="0.31"/>
<path fill="#eb0a1e" d="
  M 327.00 420.50
  L 344.02 420.47
  Q 344.50 420.47 344.50 419.98
  L 344.50 391.50
  Q 344.50 391.00 345.00 391.00
  L 352.13 391.00
  Q 352.50 391.00 352.50 391.38
  L 352.50 419.96
  Q 352.50 420.56 353.11 420.54
  Q 357.24 420.40 361.32 420.40
  C 365.19 420.40 367.90 418.15 368.29 414.34
  Q 369.55 402.03 370.76 391.41
  Q 370.81 390.99 371.24 390.99
  L 378.42 391.02
  Q 378.81 391.02 378.77 391.41
  L 376.34 416.77
  Q 376.27 417.45 376.78 417.89
  Q 382.66 423.10 388.89 421.49
  Q 394.51 420.03 394.50 413.50
  Q 394.50 401.23 394.50 391.44
  Q 394.50 391.00 394.94 391.00
  L 402.00 391.00
  Q 402.50 391.00 402.50 391.50
  L 402.50 416.80
  A 1.39 1.38 22.0 0 0 402.93 417.80
  Q 408.57 423.13 415.39 421.45
  C 418.82 420.60 420.96 417.67 420.63 414.17
  Q 419.24 399.39 418.17 385.62
  Q 418.14 385.24 418.52 385.24
  L 425.72 385.25
  Q 426.14 385.25 426.18 385.67
  Q 427.29 399.89 428.60 414.51
  C 428.76 416.26 428.62 418.11 428.08 419.79
  Q 427.85 420.48 428.58 420.50
  Q 434.95 420.63 440.29 420.17
  C 443.06 419.93 444.26 417.28 444.25 414.78
  Q 444.21 389.32 444.28 367.22
  Q 444.28 367.00 444.50 367.00
  L 451.99 367.00
  Q 452.29 367.00 452.29 367.30
  Q 452.17 390.99 452.31 413.67
  C 452.37 422.31 449.24 426.87 440.40 427.26
  Q 434.55 427.52 428.65 427.07
  Q 426.90 426.93 425.68 425.51
  Q 425.29 425.05 424.84 425.47
  C 418.59 431.39 407.40 428.71 400.96 424.24
  Q 400.42 423.87 399.98 424.35
  C 392.89 432.05 380.48 428.84 372.99 422.85
  A 0.41 0.41 0.0 0 0 372.43 422.90
  C 368.39 427.35 362.93 427.55 357.15 427.33
  Q 354.43 427.22 352.78 425.36
  Q 352.36 424.89 351.86 425.27
  L 349.64 426.95
  A 1.54 1.52 -63.3 0 1 348.72 427.26
  L 318.75 427.25
  Q 318.25 427.25 318.25 426.75
  L 318.25 374.25
  Q 318.25 373.75 317.75 373.75
  L 314.25 373.75
  Q 313.50 373.75 313.50 373.00
  L 313.50 367.88
  Q 313.50 367.00 314.37 367.00
  L 325.75 367.00
  Q 326.25 367.00 326.25 367.50
  L 326.25 419.75
  Q 326.25 420.50 327.00 420.50
  Z"
/>
<rect fill="#eb0a1e" x="466.50" y="367.01" width="8.50" height="60.24" rx="0.35"/>
<path fill="#eb0a1e" d="
  M 632.69 420.50
  Q 639.68 420.62 646.00 420.24
  C 649.25 420.04 650.30 417.00 650.29 414.19
  Q 650.21 402.75 650.26 391.25
  A 0.26 0.25 -88.8 0 1 650.51 391.00
  L 657.98 391.00
  Q 658.28 391.00 658.27 391.30
  Q 658.15 400.93 658.33 413.17
  C 658.45 421.71 655.61 427.17 646.11 427.24
  Q 636.25 427.30 624.52 427.23
  Q 624.00 427.22 624.00 426.71
  L 624.00 374.37
  Q 624.00 373.74 623.37 373.74
  L 619.75 373.75
  Q 619.25 373.75 619.25 373.25
  L 619.25 367.75
  Q 619.25 367.00 620.00 367.00
  L 631.00 367.00
  A 1.00 0.99 89.7 0 1 632.00 368.00
  L 632.00 419.80
  Q 632.00 420.48 632.69 420.50
  Z"
/>
<path fill="#eb0a1e" d="
  M 689.70 427.99
  C 690.24 435.05 687.49 442.05 680.28 444.47
  C 674.39 446.44 667.51 446.35 661.54 444.23
  Q 661.23 444.12 661.31 443.81
  L 662.82 437.82
  Q 662.88 437.62 663.08 437.68
  C 670.91 440.28 681.85 440.05 681.80 429.36
  Q 681.71 411.56 681.77 391.26
  Q 681.77 391.00 682.02 391.00
  L 689.50 391.00
  Q 689.75 391.00 689.75 391.25
  L 689.75 420.01
  Q 689.75 420.54 690.29 420.54
  Q 694.37 420.56 698.71 420.27
  C 702.00 420.05 703.52 417.67 703.52 414.48
  Q 703.50 389.66 703.51 367.26
  Q 703.51 367.00 703.76 367.00
  L 711.23 367.00
  Q 711.52 367.00 711.52 367.30
  Q 711.35 390.98 711.57 411.03
  C 711.65 417.95 711.45 424.20 704.00 426.55
  C 699.98 427.83 694.85 427.22 690.42 427.22
  Q 689.64 427.21 689.70 427.99
  Z"
/>
<circle fill="#eb0a1e" cx="517.23" cy="373.65" r="4.51"/>
<circle fill="#eb0a1e" cx="526.97" cy="373.65" r="4.51"/>
<circle fill="#eb0a1e" cx="593.98" cy="376.33" r="4.51"/>
<rect fill="#eb0a1e" x="-4.37" y="-4.31" transform="translate(226.38,377.70) rotate(-0.7)" width="8.74" height="8.62" rx="3.72"/>
<rect fill="#eb0a1e" x="-4.37" y="-4.30" transform="translate(236.14,377.71) rotate(-0.5)" width="8.74" height="8.60" rx="3.73"/>
<path fill="#eb0a1e" d="
  M 562.38 414.94
  Q 562.29 419.22 563.48 415.11
  C 567.31 401.86 578.14 383.68 594.19 383.80
  C 613.34 383.94 614.36 410.66 613.67 424.02
  Q 613.64 424.54 613.32 424.95
  L 611.83 426.83
  Q 611.50 427.25 610.97 427.25
  Q 586.22 427.24 559.47 427.25
  C 557.82 427.25 556.44 426.42 555.25 425.35
  Q 554.79 424.94 554.32 425.34
  L 552.40 426.96
  A 1.43 1.41 -64.9 0 1 551.48 427.30
  L 533.78 427.24
  A 1.38 1.38 0.0 0 1 532.91 426.93
  L 530.81 425.23
  Q 530.38 424.88 529.93 425.22
  Q 523.35 430.24 514.26 428.11
  Q 504.34 425.77 501.74 415.29
  C 498.19 401.00 503.27 384.57 520.45 383.78
  Q 525.91 383.53 532.22 384.50
  Q 532.80 384.59 533.21 384.18
  L 535.58 381.81
  Q 536.14 381.25 536.77 381.74
  L 542.03 385.86
  Q 542.87 386.52 542.21 387.37
  L 538.57 392.03
  Q 538.25 392.45 538.25 392.98
  L 538.25 419.86
  Q 538.25 420.48 538.86 420.48
  L 554.27 420.46
  Q 554.75 420.46 554.75 419.98
  L 554.75 391.25
  A 0.25 0.25 0.0 0 1 555.00 391.00
  L 562.21 391.00
  Q 562.46 391.00 562.46 391.25
  Q 562.62 403.37 562.38 414.94
  Z
  M 517.80 421.78
  Q 524.39 423.06 529.74 418.79
  A 1.37 1.36 -19.6 0 0 530.25 417.73
  L 530.25 391.77
  Q 530.25 391.21 529.70 391.08
  C 519.52 388.77 510.48 392.20 509.09 403.71
  C 508.27 410.46 509.91 420.25 517.80 421.78
  Z
  M 587.52 391.96
  C 578.25 396.60 572.85 410.18 570.44 419.83
  A 0.54 0.54 0.0 0 0 570.97 420.50
  L 605.21 420.50
  Q 605.72 420.50 605.74 419.99
  Q 605.99 413.00 605.02 406.00
  Q 604.20 400.07 601.75 395.85
  C 598.78 390.75 592.67 389.39 587.52 391.96
  Z"
/>
<path fill="#eb0a1e" d="
  M 249.75 419.80
  L 249.75 391.25
  Q 249.75 391.00 250.00 391.00
  L 257.50 391.00
  A 0.25 0.25 0.0 0 1 257.75 391.25
  L 257.75 423.06
  A 4.20 4.20 0.0 0 1 253.53 427.26
  Q 240.54 427.19 225.57 427.30
  C 202.46 427.47 194.07 407.13 202.89 387.93
  A 0.26 0.26 0.0 0 1 203.26 387.81
  L 210.02 391.54
  Q 210.19 391.64 210.11 391.82
  C 205.90 401.36 206.03 414.33 216.65 418.88
  Q 220.39 420.48 225.84 420.49
  Q 237.94 420.51 249.04 420.50
  Q 249.75 420.50 249.75 419.80
  Z"
/>
<path fill="#eb0a1e" d="
  M 291.78 438.19
  C 295.80 436.85 297.34 433.27 297.31 429.22
  Q 297.18 409.92 297.28 391.23
  Q 297.28 391.00 297.51 391.00
  L 304.98 391.00
  Q 305.31 391.00 305.30 391.33
  Q 305.11 407.79 305.34 424.49
  Q 305.47 433.40 303.79 437.23
  Q 300.69 444.32 291.15 445.58
  Q 283.48 446.59 276.93 444.21
  Q 276.73 444.14 276.78 443.93
  L 278.35 437.76
  Q 278.40 437.58 278.58 437.64
  Q 285.75 440.18 291.78 438.19
  Z"
/>
<circle fill="#eb0a1e" cx="339.47" cy="436.83" r="4.51"/>
<circle fill="#eb0a1e" cx="349.23" cy="436.83" r="4.50"/>
<circle fill="#eb0a1e" cx="645.22" cy="436.83" r="4.51"/>
<circle fill="#eb0a1e" cx="654.97" cy="436.83" r="4.51"/>
</svg>
