<?xml version="1.0" encoding="UTF-8"?>
<svg id="Layer_2" data-name="Layer 2" xmlns="http://www.w3.org/2000/svg" viewBox="0 0 531.34 445.53">
  <defs>
    <style>
      .cls-1, .cls-2 {
        stroke-width: 0px;
      }

      .cls-2 {
        fill: #fff;
      }
    </style>
  </defs>
  <g id="Layer_1-2" data-name="Layer 1">
    <g id="Jg34IJ">
      <g>
        <path class="cls-1" d="M30.48,99.1c0,2.64,0,4.45,0,6.26,0,54.66.02,109.33.03,163.99,0,12.84,5,17.23,18.54,15.7.08-1.5.23-3.09.23-4.68.03-61.5.08-122.99.06-184.49,0-16.82,4.87-22.89,21.49-26.14,2.73-.53,5.54-.68,8.64-1.04.1,1.89.24,3.35.24,4.8.03,65.5.04,130.99.06,196.49,0,12.17,5.73,16.92,18.77,14.93,0-2.17,0-4.45,0-6.74.01-68.33.02-136.66.04-204.99,0-11.25,3.82-16.92,14.53-20.47,4.83-1.6,9.98-2.27,15.88-3.56,0,2.5,0,4.09,0,5.68.02,76.99.01,153.99.17,230.98,0,3.95-1.27,6.1-4.7,7.68-19.21,8.86-38.64,10.62-58.53,2.33-1.23-.51-3.14-.36-4.38.23-18.51,8.88-35.99,5.61-52.65-4.71C2.85,287.62.02,281.44.02,274.32c-.04-51.66-.01-103.33.01-154.99,0-5.75,2.47-10.31,7.15-13.58,6.8-4.73,14.53-6.24,23.29-6.65Z"/>
        <path class="cls-1" d="M197.09,445.53v-228.64h-18.76v79.13h-30.59c0-1.94,0-3.86,0-5.79.01-88.68.02-177.36.03-266.04,0-11.59,4.13-17.5,15.28-20.97,4.67-1.46,9.61-2.08,15.04-3.22v197.15h18.85v-78.84h30.62c0,2.28,0,4.39,0,6.5,0,98.85,0,197.69.02,296.54,0,11.1-3.63,16.7-14.09,20.32-4.94,1.71-10.23,2.44-16.41,3.86Z"/>
        <path class="cls-1" d="M295.71,346.17v-129.09h-18.8v78.7h-30.57c0-2.13,0-3.93,0-5.73,0-53.98.05-107.96-.05-161.95,0-3.69,1.01-5.76,4.53-7.12,20.51-7.96,41.11-9.77,61.62-.46,9.31,4.23,13.73,11.83,13.71,22.38-.13,59.48-.07,118.96.02,178.44.02,11.89-3.85,17.92-15.17,21.51-4.7,1.49-9.67,2.13-15.29,3.32ZM277.03,197.19h18.09c.23-.71.41-1.02.41-1.33.04-17.29.07-34.59.07-51.88,0-11.54-7-16.57-18.57-13.34v66.54Z"/>
        <path class="cls-1" d="M473.75,139.87c-2.92-.19-5.2-.34-7.42-.49-3.29-7.48-1.1-15.74,4.98-20.6,1.24-.99,2.12-3.2,2.13-4.85.16-26,.9-52.02-.04-77.98-.89-24.74,13.44-33.73,32.29-35.31,7.45-.62,14.99-.28,22.48-.09,1.13.03,3.26,1.77,3.16,2.44-.78,4.85-1.44,9.86-3.26,14.36-1.63,4.03-5.79,4.98-10.1,5.04-12.38.18-13.82,1.57-13.85,13.83-.06,25.83.04,51.66.08,77.49,0,1.14.13,2.29.24,4.15h15.6c1.84,12.08-3.46,19.47-15.53,22.2-.12,1.01-.36,2.13-.36,3.24,0,41.83-.69,83.68.35,125.48.57,22.87-11.34,28.17-30.75,27.36v-156.27Z"/>
        <path class="cls-1" d="M359.98,138.4h-21.29v-20.11h73.57v20h-21.74c0,3.61,0,6.72,0,9.83.05,63.99.11,127.98.16,191.97,0,12.88-4.39,18.82-16.93,22.31-4.26,1.19-8.72,1.68-13.78,2.62v-226.62Z"/>
        <path class="cls-1" d="M424.92,118.25h29.95c0,2.26,0,4.21,0,6.17.01,55.5-.16,110.99.18,166.49.07,12.23-4.19,18.58-17.42,22.43-3.95,1.15-8.11,1.57-12.72,2.42V118.25Z"/>
        <path class="cls-1" d="M454.85,84.05c.05,8.57-6.5,15.2-15.07,15.25-8.64.05-15.18-6.39-15.26-15.03-.08-8.95,6.41-15.55,15.27-15.52,8.47.03,15.02,6.68,15.07,15.3Z"/>
        <path class="cls-2" d="M277.03,197.19v-66.54c11.58-3.24,18.57,1.8,18.57,13.34,0,17.29-.04,34.59-.07,51.88,0,.31-.18.61-.41,1.33h-18.09Z"/>
      </g>
    </g>
  </g>
</svg>