<?xml version="1.0" encoding="UTF-8"?>
<svg id="Layer_2" data-name="Layer 2" xmlns="http://www.w3.org/2000/svg" viewBox="0 0 525.72 565.12">
  <defs>
    <style>
      .cls-1 {
        fill: #fff;
        fill-rule: evenodd;
        stroke-width: 0px;
      }
    </style>
  </defs>
  <g id="Layer_1-2" data-name="Layer 1">
    <g>
      <path class="cls-1" d="M525.72,0l-15.09,87.36c-6.89,39.9-32.91,73.87-69.63,90.92l-99.11,46.03c-8.3,3.85-13.72,12.04-14.01,21.18l-1.72,53.6,69.04-32.06-.26,1.48-14.94,84.06c-3.01,16.91-13.36,31.62-28.27,40.17l-29.13,16.69-2.23,69.33c-.45,13.88-5.34,27.25-13.94,38.15l-38.09,48.21V133.43c0-7.73,4.47-14.77,11.48-18.06L525.72,0Z"/>
      <path class="cls-1" d="M0,0l15.09,87.36c6.89,39.9,32.91,73.87,69.63,90.92l99.11,46.03c8.3,3.85,13.72,12.04,14.01,21.18l1.72,53.6-69.04-32.06.26,1.48,14.94,84.06c3.01,16.91,13.36,31.62,28.27,40.17l29.13,16.69,2.23,69.33c.45,13.88,5.34,27.25,13.94,38.15l38.09,48.21V133.43c0-7.73-4.47-14.77-11.48-18.06L0,0Z"/>
    </g>
  </g>
</svg>