<?xml version="1.0" encoding="utf-8"?>
<!-- Generator: Adobe Illustrator 28.1.0, SVG Export Plug-In . SVG Version: 6.00 Build 0)  -->
<svg version="1.1" id="Layer_2_00000075135090302288534230000011497678850624111271_"
	 xmlns="http://www.w3.org/2000/svg" xmlns:xlink="http://www.w3.org/1999/xlink" x="0px" y="0px" viewBox="0 0 525.7 565.1"
	 style="enable-background:new 0 0 525.7 565.1;" xml:space="preserve">
<style type="text/css">
	.st0{fill-rule:evenodd;clip-rule:evenodd;}
</style>
<g id="Layer_1-2">
	<g>
		<path class="st0" d="M525.7,0l-15.1,87.4c-6.9,39.9-32.9,73.9-69.6,90.9l-99.1,46c-8.3,3.9-13.7,12-14,21.2l-1.7,53.6l69-32.1
			l-0.3,1.5L380,352.6c-3,16.9-13.4,31.6-28.3,40.2l-29.1,16.7l-2.2,69.3c-0.5,13.9-5.3,27.2-13.9,38.2l-38.1,48.2V133.4
			c0-7.7,4.5-14.8,11.5-18.1L525.7,0z"/>
		<path class="st0" d="M0,0l15.1,87.4c6.9,39.9,32.9,73.9,69.6,90.9l99.1,46c8.3,3.9,13.7,12,14,21.2l1.7,53.6l-69-32.1l0.3,1.5
			l14.9,84.1c3,16.9,13.4,31.6,28.3,40.2l29.1,16.7l2.2,69.3c0.4,13.9,5.3,27.2,13.9,38.2l38.1,48.2V133.4c0-7.7-4.5-14.8-11.5-18.1
			L0,0z"/>
	</g>
</g>
</svg>
